G04*
G04 #@! TF.GenerationSoftware,Altium Limited,Altium Designer,22.1.2 (22)*
G04*
G04 Layer_Color=6922405*
%FSLAX42Y42*%
%MOMM*%
G71*
G04*
G04 #@! TF.SameCoordinates,66CC876A-D426-4744-AE03-0E6BB2EB721C*
G04*
G04*
G04 #@! TF.FilePolarity,Positive*
G04*
G01*
G75*
%ADD10C,0.20*%
%ADD14C,1.00*%
%ADD43C,0.15*%
%ADD44R,1.00X0.50*%
%ADD45R,1.00X1.00*%
G36*
X3253Y1564D02*
X3236D01*
X3208Y1593D01*
X3239D01*
X3253Y1564D01*
D02*
G37*
G36*
X3388Y1553D02*
X3394Y1552D01*
X3398Y1551D01*
X3403Y1550D01*
X3407Y1549D01*
X3411Y1547D01*
X3415Y1545D01*
X3418Y1543D01*
X3421Y1541D01*
X3424Y1539D01*
X3426Y1538D01*
X3428Y1536D01*
X3430Y1535D01*
X3431Y1534D01*
X3431Y1533D01*
X3431Y1533D01*
X3435Y1529D01*
X3438Y1525D01*
X3440Y1521D01*
X3442Y1516D01*
X3444Y1511D01*
X3445Y1507D01*
X3447Y1502D01*
X3448Y1498D01*
X3449Y1493D01*
X3449Y1490D01*
X3449Y1486D01*
X3450Y1483D01*
Y1481D01*
X3450Y1479D01*
Y1478D01*
Y1477D01*
Y1477D01*
X3450Y1471D01*
X3449Y1465D01*
X3448Y1459D01*
X3447Y1454D01*
X3446Y1450D01*
X3444Y1445D01*
X3443Y1441D01*
X3441Y1438D01*
X3439Y1434D01*
X3438Y1431D01*
X3436Y1429D01*
X3435Y1427D01*
X3433Y1425D01*
X3433Y1424D01*
X3432Y1424D01*
X3432Y1423D01*
X3428Y1420D01*
X3424Y1417D01*
X3420Y1414D01*
X3416Y1412D01*
X3413Y1410D01*
X3409Y1409D01*
X3405Y1407D01*
X3401Y1406D01*
X3398Y1405D01*
X3395Y1405D01*
X3392Y1404D01*
X3389Y1404D01*
X3387Y1404D01*
X3386Y1404D01*
X3385D01*
X3380Y1404D01*
X3376Y1404D01*
X3372Y1405D01*
X3369Y1406D01*
X3365Y1407D01*
X3362Y1407D01*
X3359Y1408D01*
X3357Y1410D01*
X3354Y1411D01*
X3352Y1412D01*
X3350Y1413D01*
X3349Y1413D01*
X3348Y1414D01*
X3347Y1415D01*
X3346Y1415D01*
X3346Y1415D01*
X3344Y1418D01*
X3341Y1420D01*
X3336Y1426D01*
X3333Y1432D01*
X3330Y1437D01*
X3329Y1440D01*
X3328Y1442D01*
X3327Y1445D01*
X3326Y1447D01*
X3325Y1448D01*
X3325Y1449D01*
X3325Y1450D01*
Y1450D01*
X3353Y1459D01*
X3355Y1454D01*
X3356Y1449D01*
X3358Y1445D01*
X3360Y1442D01*
X3362Y1439D01*
X3364Y1437D01*
X3365Y1436D01*
X3365Y1436D01*
X3368Y1433D01*
X3372Y1432D01*
X3375Y1430D01*
X3378Y1429D01*
X3381Y1429D01*
X3383Y1429D01*
X3384Y1429D01*
X3385D01*
X3388Y1429D01*
X3390Y1429D01*
X3395Y1430D01*
X3400Y1432D01*
X3403Y1434D01*
X3406Y1437D01*
X3408Y1438D01*
X3409Y1439D01*
X3410Y1440D01*
X3410Y1440D01*
X3410Y1440D01*
X3412Y1442D01*
X3413Y1445D01*
X3415Y1448D01*
X3416Y1451D01*
X3418Y1458D01*
X3419Y1464D01*
X3419Y1467D01*
X3419Y1470D01*
X3420Y1473D01*
Y1475D01*
X3420Y1476D01*
Y1478D01*
Y1479D01*
Y1479D01*
X3420Y1484D01*
X3420Y1488D01*
X3419Y1492D01*
X3419Y1496D01*
X3418Y1499D01*
X3417Y1503D01*
X3416Y1505D01*
X3415Y1508D01*
X3414Y1510D01*
X3413Y1512D01*
X3413Y1513D01*
X3412Y1514D01*
X3411Y1515D01*
X3411Y1516D01*
X3410Y1516D01*
Y1517D01*
X3408Y1519D01*
X3406Y1521D01*
X3404Y1522D01*
X3402Y1523D01*
X3398Y1525D01*
X3393Y1527D01*
X3390Y1528D01*
X3388Y1528D01*
X3387Y1528D01*
X3386Y1528D01*
X3384D01*
X3380Y1528D01*
X3376Y1527D01*
X3373Y1526D01*
X3370Y1525D01*
X3368Y1524D01*
X3366Y1523D01*
X3365Y1522D01*
X3365Y1522D01*
X3362Y1519D01*
X3359Y1516D01*
X3358Y1513D01*
X3356Y1510D01*
X3355Y1508D01*
X3354Y1506D01*
X3354Y1505D01*
Y1505D01*
X3354Y1504D01*
Y1504D01*
X3325Y1511D01*
X3327Y1517D01*
X3329Y1522D01*
X3332Y1527D01*
X3334Y1531D01*
X3336Y1534D01*
X3337Y1535D01*
X3338Y1536D01*
X3339Y1536D01*
X3339Y1537D01*
X3340Y1538D01*
X3340D01*
X3343Y1540D01*
X3346Y1543D01*
X3350Y1545D01*
X3353Y1546D01*
X3357Y1548D01*
X3361Y1549D01*
X3364Y1550D01*
X3368Y1551D01*
X3371Y1552D01*
X3374Y1552D01*
X3376Y1553D01*
X3378Y1553D01*
X3380Y1553D01*
X3383D01*
X3388Y1553D01*
D02*
G37*
G36*
X3143Y1406D02*
X3114D01*
Y1466D01*
X3104D01*
X3101Y1466D01*
X3099Y1466D01*
X3097Y1466D01*
X3095Y1465D01*
X3094Y1465D01*
X3093Y1465D01*
X3093D01*
X3092Y1464D01*
X3090Y1463D01*
X3088Y1462D01*
X3087Y1461D01*
X3086Y1460D01*
X3085Y1459D01*
X3085Y1459D01*
X3084Y1459D01*
X3084Y1458D01*
X3083Y1457D01*
X3080Y1454D01*
X3078Y1450D01*
X3075Y1447D01*
X3073Y1443D01*
X3072Y1442D01*
X3071Y1440D01*
X3070Y1439D01*
X3069Y1438D01*
X3069Y1438D01*
X3069Y1438D01*
X3048Y1406D01*
X3013D01*
X3031Y1434D01*
X3033Y1437D01*
X3035Y1440D01*
X3036Y1443D01*
X3038Y1445D01*
X3039Y1447D01*
X3041Y1449D01*
X3043Y1452D01*
X3045Y1455D01*
X3046Y1457D01*
X3047Y1458D01*
X3048Y1458D01*
X3050Y1460D01*
X3053Y1463D01*
X3055Y1464D01*
X3058Y1466D01*
X3060Y1468D01*
X3061Y1469D01*
X3063Y1470D01*
X3063Y1470D01*
X3063D01*
X3059Y1470D01*
X3056Y1471D01*
X3053Y1472D01*
X3051Y1473D01*
X3048Y1474D01*
X3046Y1475D01*
X3043Y1476D01*
X3042Y1478D01*
X3040Y1479D01*
X3038Y1480D01*
X3037Y1481D01*
X3036Y1481D01*
X3036Y1482D01*
X3035Y1483D01*
X3035Y1483D01*
X3034Y1483D01*
X3033Y1485D01*
X3031Y1487D01*
X3029Y1492D01*
X3027Y1496D01*
X3026Y1501D01*
X3025Y1504D01*
X3025Y1506D01*
Y1507D01*
X3025Y1508D01*
Y1509D01*
Y1510D01*
Y1510D01*
X3025Y1515D01*
X3026Y1519D01*
X3027Y1523D01*
X3028Y1526D01*
X3029Y1529D01*
X3030Y1531D01*
X3031Y1531D01*
X3031Y1532D01*
X3031Y1532D01*
Y1533D01*
X3034Y1536D01*
X3037Y1539D01*
X3039Y1541D01*
X3042Y1543D01*
X3044Y1545D01*
X3046Y1546D01*
X3048Y1546D01*
X3048Y1546D01*
X3048D01*
X3050Y1547D01*
X3052Y1548D01*
X3058Y1549D01*
X3063Y1549D01*
X3069Y1550D01*
X3071D01*
X3074Y1550D01*
X3076D01*
X3078Y1550D01*
X3143D01*
Y1406D01*
D02*
G37*
G36*
X2997D02*
X2943D01*
X2937Y1407D01*
X2932Y1407D01*
X2928Y1407D01*
X2924Y1408D01*
X2921Y1408D01*
X2919Y1409D01*
X2918Y1409D01*
X2918D01*
X2917Y1409D01*
X2917D01*
X2913Y1411D01*
X2908Y1413D01*
X2905Y1415D01*
X2902Y1417D01*
X2900Y1418D01*
X2898Y1419D01*
X2897Y1420D01*
X2897Y1421D01*
X2893Y1425D01*
X2890Y1429D01*
X2887Y1433D01*
X2885Y1437D01*
X2884Y1441D01*
X2883Y1442D01*
X2882Y1444D01*
X2882Y1445D01*
X2882Y1446D01*
X2881Y1446D01*
Y1446D01*
X2880Y1451D01*
X2879Y1457D01*
X2878Y1462D01*
X2877Y1466D01*
X2877Y1469D01*
X2877Y1471D01*
Y1472D01*
X2877Y1474D01*
Y1475D01*
Y1476D01*
Y1477D01*
Y1477D01*
X2877Y1484D01*
X2878Y1491D01*
X2878Y1494D01*
X2878Y1496D01*
X2879Y1499D01*
X2879Y1501D01*
X2880Y1504D01*
X2880Y1505D01*
X2881Y1507D01*
X2881Y1508D01*
X2881Y1509D01*
X2881Y1510D01*
X2882Y1511D01*
Y1511D01*
X2883Y1516D01*
X2886Y1520D01*
X2888Y1524D01*
X2890Y1528D01*
X2892Y1530D01*
X2894Y1533D01*
X2895Y1534D01*
X2895Y1534D01*
X2895D01*
X2899Y1538D01*
X2902Y1540D01*
X2906Y1543D01*
X2910Y1544D01*
X2912Y1546D01*
X2915Y1547D01*
X2916Y1547D01*
X2916Y1547D01*
X2917Y1548D01*
X2917D01*
X2921Y1549D01*
X2925Y1549D01*
X2930Y1550D01*
X2934Y1550D01*
X2938Y1550D01*
X2940Y1550D01*
X2997D01*
Y1406D01*
D02*
G37*
G36*
X2695Y1406D02*
X2633D01*
X2629Y1407D01*
X2623D01*
X2621Y1407D01*
X2617D01*
X2615Y1407D01*
X2613D01*
X2612Y1407D01*
X2611D01*
X2607Y1408D01*
X2604Y1409D01*
X2600Y1410D01*
X2597Y1411D01*
X2595Y1412D01*
X2593Y1413D01*
X2592Y1414D01*
X2592Y1414D01*
X2589Y1416D01*
X2587Y1419D01*
X2584Y1421D01*
X2583Y1424D01*
X2581Y1426D01*
X2580Y1427D01*
X2580Y1428D01*
X2579Y1429D01*
X2578Y1432D01*
X2577Y1436D01*
X2576Y1439D01*
X2575Y1442D01*
X2575Y1444D01*
X2575Y1446D01*
Y1448D01*
Y1448D01*
Y1448D01*
X2575Y1453D01*
X2576Y1457D01*
X2577Y1460D01*
X2578Y1464D01*
X2580Y1466D01*
X2581Y1468D01*
X2582Y1469D01*
X2582Y1470D01*
X2585Y1473D01*
X2588Y1476D01*
X2591Y1478D01*
X2595Y1480D01*
X2598Y1481D01*
X2600Y1482D01*
X2601Y1482D01*
X2601Y1483D01*
X2602Y1483D01*
X2602D01*
X2599Y1485D01*
X2596Y1486D01*
X2593Y1489D01*
X2591Y1491D01*
X2590Y1493D01*
X2589Y1494D01*
X2588Y1495D01*
X2588Y1495D01*
X2586Y1499D01*
X2584Y1502D01*
X2583Y1505D01*
X2583Y1508D01*
X2582Y1510D01*
X2582Y1512D01*
Y1514D01*
Y1514D01*
Y1514D01*
X2582Y1517D01*
X2583Y1521D01*
X2583Y1523D01*
X2584Y1526D01*
X2585Y1528D01*
X2586Y1530D01*
X2586Y1530D01*
X2586Y1531D01*
X2588Y1534D01*
X2590Y1536D01*
X2592Y1538D01*
X2594Y1540D01*
X2595Y1541D01*
X2596Y1542D01*
X2597Y1543D01*
X2598Y1543D01*
X2600Y1545D01*
X2603Y1546D01*
X2605Y1547D01*
X2608Y1548D01*
X2610Y1548D01*
X2611Y1549D01*
X2612Y1549D01*
X2613D01*
X2616Y1549D01*
X2620Y1550D01*
X2624Y1550D01*
X2628Y1550D01*
X2632Y1550D01*
X2695D01*
Y1406D01*
D02*
G37*
G36*
X2565D02*
X2534D01*
X2522Y1439D01*
X2464D01*
X2452Y1406D01*
X2420D01*
X2478Y1550D01*
X2509D01*
X2565Y1406D01*
D02*
G37*
G36*
X3242Y1553D02*
X3248Y1552D01*
X3253Y1551D01*
X3258Y1550D01*
X3260Y1550D01*
X3262Y1549D01*
X3263Y1549D01*
X3264Y1548D01*
X3265Y1548D01*
X3266Y1548D01*
X3267Y1547D01*
X3267D01*
X3271Y1546D01*
X3274Y1544D01*
X3277Y1541D01*
X3280Y1539D01*
X3282Y1537D01*
X3284Y1536D01*
X3285Y1535D01*
X3285Y1534D01*
X3286Y1534D01*
X3289Y1531D01*
X3291Y1527D01*
X3294Y1524D01*
X3295Y1521D01*
X3297Y1518D01*
X3298Y1516D01*
X3298Y1515D01*
X3299Y1515D01*
X3299Y1515D01*
Y1514D01*
X3301Y1509D01*
X3303Y1502D01*
X3304Y1496D01*
X3305Y1490D01*
X3305Y1488D01*
X3305Y1485D01*
X3305Y1483D01*
Y1481D01*
X3305Y1479D01*
Y1478D01*
Y1478D01*
Y1477D01*
X3305Y1471D01*
X3305Y1465D01*
X3304Y1459D01*
X3303Y1454D01*
X3301Y1449D01*
X3299Y1445D01*
X3298Y1441D01*
X3296Y1437D01*
X3294Y1434D01*
X3293Y1431D01*
X3291Y1429D01*
X3289Y1427D01*
X3288Y1425D01*
X3287Y1424D01*
X3287Y1423D01*
X3287Y1423D01*
X3283Y1420D01*
X3279Y1417D01*
X3275Y1414D01*
X3270Y1412D01*
X3266Y1410D01*
X3262Y1408D01*
X3258Y1407D01*
X3254Y1406D01*
X3250Y1405D01*
X3247Y1405D01*
X3243Y1404D01*
X3241Y1404D01*
X3239Y1404D01*
X3237Y1404D01*
X3235D01*
X3230Y1404D01*
X3224Y1404D01*
X3219Y1405D01*
X3214Y1407D01*
X3210Y1408D01*
X3205Y1410D01*
X3202Y1412D01*
X3198Y1413D01*
X3195Y1415D01*
X3193Y1417D01*
X3190Y1419D01*
X3188Y1420D01*
X3187Y1421D01*
X3186Y1422D01*
X3185Y1423D01*
X3185Y1423D01*
X3182Y1427D01*
X3179Y1431D01*
X3176Y1436D01*
X3174Y1440D01*
X3172Y1445D01*
X3170Y1449D01*
X3169Y1454D01*
X3168Y1458D01*
X3167Y1462D01*
X3167Y1466D01*
X3166Y1469D01*
X3166Y1472D01*
Y1475D01*
X3166Y1477D01*
Y1478D01*
Y1478D01*
X3166Y1485D01*
X3167Y1491D01*
X3167Y1496D01*
X3169Y1502D01*
X3170Y1506D01*
X3172Y1511D01*
X3173Y1515D01*
X3175Y1519D01*
X3177Y1522D01*
X3179Y1525D01*
X3180Y1528D01*
X3182Y1530D01*
X3183Y1531D01*
X3184Y1532D01*
X3185Y1533D01*
X3185Y1533D01*
X3189Y1537D01*
X3193Y1540D01*
X3197Y1543D01*
X3201Y1545D01*
X3205Y1547D01*
X3209Y1548D01*
X3214Y1550D01*
X3218Y1551D01*
X3221Y1551D01*
X3225Y1552D01*
X3228Y1553D01*
X3231Y1553D01*
X3233D01*
X3234Y1553D01*
X3236D01*
X3242Y1553D01*
D02*
G37*
G36*
X2795D02*
X2801Y1552D01*
X2806Y1551D01*
X2811Y1550D01*
X2812Y1550D01*
X2814Y1549D01*
X2816Y1549D01*
X2817Y1548D01*
X2818Y1548D01*
X2819Y1548D01*
X2819Y1547D01*
X2820D01*
X2823Y1546D01*
X2827Y1544D01*
X2830Y1541D01*
X2833Y1539D01*
X2835Y1537D01*
X2837Y1536D01*
X2838Y1535D01*
X2838Y1534D01*
X2838Y1534D01*
X2841Y1531D01*
X2844Y1527D01*
X2846Y1524D01*
X2848Y1521D01*
X2850Y1518D01*
X2851Y1516D01*
X2851Y1515D01*
X2851Y1515D01*
X2852Y1515D01*
Y1514D01*
X2854Y1509D01*
X2855Y1502D01*
X2856Y1496D01*
X2857Y1490D01*
X2857Y1488D01*
X2858Y1485D01*
X2858Y1483D01*
Y1481D01*
X2858Y1479D01*
Y1478D01*
Y1478D01*
Y1477D01*
X2858Y1471D01*
X2857Y1465D01*
X2856Y1459D01*
X2855Y1454D01*
X2854Y1449D01*
X2852Y1445D01*
X2850Y1441D01*
X2848Y1437D01*
X2847Y1434D01*
X2845Y1431D01*
X2843Y1429D01*
X2842Y1427D01*
X2841Y1425D01*
X2840Y1424D01*
X2839Y1423D01*
X2839Y1423D01*
X2835Y1420D01*
X2831Y1417D01*
X2827Y1414D01*
X2823Y1412D01*
X2819Y1410D01*
X2815Y1408D01*
X2811Y1407D01*
X2806Y1406D01*
X2803Y1405D01*
X2799Y1405D01*
X2796Y1404D01*
X2793Y1404D01*
X2791Y1404D01*
X2790Y1404D01*
X2788D01*
X2782Y1404D01*
X2777Y1404D01*
X2772Y1405D01*
X2767Y1407D01*
X2762Y1408D01*
X2758Y1410D01*
X2754Y1412D01*
X2751Y1413D01*
X2748Y1415D01*
X2745Y1417D01*
X2743Y1419D01*
X2741Y1420D01*
X2739Y1421D01*
X2738Y1422D01*
X2738Y1423D01*
X2737Y1423D01*
X2734Y1427D01*
X2731Y1431D01*
X2729Y1436D01*
X2726Y1440D01*
X2725Y1445D01*
X2723Y1449D01*
X2722Y1454D01*
X2721Y1458D01*
X2720Y1462D01*
X2719Y1466D01*
X2719Y1469D01*
X2719Y1472D01*
Y1475D01*
X2718Y1477D01*
Y1478D01*
Y1478D01*
X2719Y1485D01*
X2719Y1491D01*
X2720Y1496D01*
X2721Y1502D01*
X2723Y1506D01*
X2724Y1511D01*
X2726Y1515D01*
X2728Y1519D01*
X2730Y1522D01*
X2731Y1525D01*
X2733Y1528D01*
X2735Y1530D01*
X2736Y1531D01*
X2737Y1532D01*
X2737Y1533D01*
X2737Y1533D01*
X2741Y1537D01*
X2745Y1540D01*
X2749Y1543D01*
X2754Y1545D01*
X2758Y1547D01*
X2762Y1548D01*
X2766Y1550D01*
X2770Y1551D01*
X2774Y1551D01*
X2777Y1552D01*
X2781Y1553D01*
X2783Y1553D01*
X2785D01*
X2787Y1553D01*
X2789D01*
X2795Y1553D01*
D02*
G37*
G36*
X2588Y1228D02*
X2561D01*
Y1323D01*
X2503Y1228D01*
X2474D01*
Y1372D01*
X2500D01*
Y1275D01*
X2560Y1372D01*
X2588D01*
Y1228D01*
D02*
G37*
G36*
X2386Y1375D02*
X2392Y1374D01*
X2396Y1373D01*
X2401Y1372D01*
X2405Y1370D01*
X2409Y1369D01*
X2413Y1367D01*
X2416Y1365D01*
X2419Y1363D01*
X2422Y1361D01*
X2424Y1359D01*
X2426Y1358D01*
X2428Y1357D01*
X2429Y1356D01*
X2429Y1355D01*
X2429Y1355D01*
X2433Y1351D01*
X2435Y1347D01*
X2438Y1342D01*
X2440Y1338D01*
X2442Y1333D01*
X2443Y1328D01*
X2445Y1324D01*
X2446Y1319D01*
X2447Y1315D01*
X2447Y1311D01*
X2447Y1308D01*
X2448Y1305D01*
Y1302D01*
X2448Y1300D01*
Y1299D01*
Y1299D01*
Y1299D01*
X2448Y1293D01*
X2447Y1287D01*
X2446Y1281D01*
X2445Y1276D01*
X2444Y1271D01*
X2442Y1267D01*
X2440Y1263D01*
X2439Y1259D01*
X2437Y1256D01*
X2435Y1253D01*
X2434Y1251D01*
X2433Y1249D01*
X2431Y1247D01*
X2430Y1246D01*
X2430Y1245D01*
X2430Y1245D01*
X2426Y1241D01*
X2422Y1239D01*
X2418Y1236D01*
X2414Y1234D01*
X2410Y1232D01*
X2407Y1230D01*
X2403Y1229D01*
X2399Y1228D01*
X2396Y1227D01*
X2393Y1226D01*
X2390Y1226D01*
X2387Y1226D01*
X2385Y1226D01*
X2384Y1225D01*
X2383D01*
X2378Y1226D01*
X2374Y1226D01*
X2370Y1226D01*
X2367Y1227D01*
X2363Y1228D01*
X2360Y1229D01*
X2357Y1230D01*
X2355Y1231D01*
X2352Y1232D01*
X2350Y1233D01*
X2348Y1234D01*
X2347Y1235D01*
X2346Y1236D01*
X2345Y1236D01*
X2344Y1237D01*
X2344Y1237D01*
X2342Y1239D01*
X2339Y1242D01*
X2334Y1247D01*
X2331Y1253D01*
X2328Y1259D01*
X2327Y1261D01*
X2325Y1264D01*
X2325Y1266D01*
X2324Y1268D01*
X2323Y1270D01*
X2323Y1271D01*
X2323Y1272D01*
Y1272D01*
X2351Y1281D01*
X2353Y1275D01*
X2354Y1270D01*
X2356Y1266D01*
X2358Y1263D01*
X2360Y1261D01*
X2362Y1259D01*
X2363Y1258D01*
X2363Y1258D01*
X2366Y1255D01*
X2370Y1253D01*
X2373Y1252D01*
X2376Y1251D01*
X2379Y1251D01*
X2381Y1250D01*
X2382Y1250D01*
X2383D01*
X2386Y1250D01*
X2388Y1251D01*
X2393Y1252D01*
X2398Y1254D01*
X2401Y1256D01*
X2404Y1258D01*
X2406Y1260D01*
X2407Y1261D01*
X2408Y1261D01*
X2408Y1261D01*
X2408Y1262D01*
X2410Y1264D01*
X2411Y1267D01*
X2413Y1270D01*
X2414Y1273D01*
X2415Y1279D01*
X2417Y1286D01*
X2417Y1289D01*
X2417Y1291D01*
X2418Y1294D01*
Y1296D01*
X2418Y1298D01*
Y1300D01*
Y1301D01*
Y1301D01*
X2418Y1306D01*
X2418Y1310D01*
X2417Y1314D01*
X2417Y1318D01*
X2416Y1321D01*
X2415Y1324D01*
X2414Y1327D01*
X2413Y1329D01*
X2412Y1331D01*
X2411Y1333D01*
X2410Y1335D01*
X2410Y1336D01*
X2409Y1337D01*
X2409Y1338D01*
X2408Y1338D01*
Y1338D01*
X2406Y1340D01*
X2404Y1342D01*
X2402Y1344D01*
X2400Y1345D01*
X2395Y1347D01*
X2391Y1349D01*
X2388Y1349D01*
X2386Y1350D01*
X2385Y1350D01*
X2384Y1350D01*
X2382D01*
X2378Y1350D01*
X2374Y1349D01*
X2371Y1348D01*
X2368Y1347D01*
X2366Y1345D01*
X2364Y1344D01*
X2363Y1344D01*
X2363Y1343D01*
X2360Y1341D01*
X2357Y1338D01*
X2355Y1335D01*
X2354Y1332D01*
X2353Y1330D01*
X2352Y1328D01*
X2352Y1327D01*
Y1326D01*
X2352Y1326D01*
Y1326D01*
X2323Y1333D01*
X2325Y1339D01*
X2327Y1344D01*
X2330Y1349D01*
X2332Y1352D01*
X2334Y1355D01*
X2335Y1356D01*
X2336Y1357D01*
X2337Y1358D01*
X2337Y1359D01*
X2338Y1359D01*
X2338D01*
X2341Y1362D01*
X2344Y1364D01*
X2348Y1366D01*
X2351Y1368D01*
X2355Y1370D01*
X2359Y1371D01*
X2362Y1372D01*
X2365Y1373D01*
X2369Y1374D01*
X2372Y1374D01*
X2374Y1374D01*
X2376Y1375D01*
X2378Y1375D01*
X2381D01*
X2386Y1375D01*
D02*
G37*
G36*
X3450Y1228D02*
X3421D01*
Y1288D01*
X3411D01*
X3409Y1288D01*
X3406Y1288D01*
X3404Y1287D01*
X3402Y1287D01*
X3401Y1287D01*
X3401Y1286D01*
X3400D01*
X3399Y1286D01*
X3397Y1285D01*
X3396Y1284D01*
X3394Y1283D01*
X3393Y1282D01*
X3392Y1281D01*
X3392Y1281D01*
X3392Y1280D01*
X3391Y1279D01*
X3390Y1278D01*
X3388Y1275D01*
X3385Y1272D01*
X3382Y1268D01*
X3380Y1265D01*
X3379Y1263D01*
X3378Y1262D01*
X3377Y1261D01*
X3377Y1260D01*
X3376Y1259D01*
X3376Y1259D01*
X3355Y1228D01*
X3320D01*
X3338Y1256D01*
X3340Y1259D01*
X3342Y1262D01*
X3344Y1264D01*
X3345Y1267D01*
X3347Y1269D01*
X3348Y1271D01*
X3350Y1274D01*
X3352Y1276D01*
X3354Y1278D01*
X3355Y1279D01*
X3355Y1279D01*
X3357Y1282D01*
X3360Y1284D01*
X3362Y1286D01*
X3365Y1288D01*
X3367Y1289D01*
X3369Y1290D01*
X3370Y1291D01*
X3370Y1291D01*
X3370D01*
X3367Y1292D01*
X3364Y1293D01*
X3361Y1294D01*
X3358Y1295D01*
X3355Y1296D01*
X3353Y1297D01*
X3351Y1298D01*
X3349Y1299D01*
X3347Y1300D01*
X3346Y1301D01*
X3344Y1302D01*
X3344Y1303D01*
X3343Y1304D01*
X3342Y1304D01*
X3342Y1305D01*
X3342Y1305D01*
X3340Y1307D01*
X3339Y1309D01*
X3336Y1314D01*
X3334Y1318D01*
X3333Y1322D01*
X3333Y1326D01*
X3332Y1327D01*
Y1329D01*
X3332Y1330D01*
Y1331D01*
Y1331D01*
Y1332D01*
X3332Y1336D01*
X3333Y1341D01*
X3334Y1344D01*
X3335Y1348D01*
X3336Y1350D01*
X3338Y1352D01*
X3338Y1353D01*
X3338Y1354D01*
X3339Y1354D01*
Y1354D01*
X3341Y1358D01*
X3344Y1361D01*
X3346Y1363D01*
X3349Y1365D01*
X3352Y1366D01*
X3354Y1367D01*
X3355Y1368D01*
X3355Y1368D01*
X3355D01*
X3357Y1369D01*
X3360Y1369D01*
X3365Y1370D01*
X3370Y1371D01*
X3376Y1372D01*
X3379D01*
X3381Y1372D01*
X3383D01*
X3385Y1372D01*
X3450D01*
Y1228D01*
D02*
G37*
G36*
X3305D02*
X3195D01*
Y1252D01*
X3275D01*
Y1291D01*
X3203D01*
Y1316D01*
X3275D01*
Y1348D01*
X3198D01*
Y1372D01*
X3305D01*
Y1228D01*
D02*
G37*
G36*
X3037D02*
X3008D01*
Y1372D01*
X3037D01*
Y1228D01*
D02*
G37*
G36*
X2856Y1348D02*
X2813D01*
Y1228D01*
X2784D01*
Y1348D01*
X2741D01*
Y1372D01*
X2856D01*
Y1348D01*
D02*
G37*
G36*
X2722Y1228D02*
X2613D01*
Y1252D01*
X2693D01*
Y1291D01*
X2621D01*
Y1316D01*
X2693D01*
Y1348D01*
X2616D01*
Y1372D01*
X2722D01*
Y1228D01*
D02*
G37*
G36*
X2298D02*
X2269D01*
Y1372D01*
X2298D01*
Y1228D01*
D02*
G37*
G36*
X2256D02*
X2225D01*
X2213Y1261D01*
X2156D01*
X2143Y1228D01*
X2112D01*
X2169Y1372D01*
X2200D01*
X2256Y1228D01*
D02*
G37*
G36*
X3126Y1375D02*
X3132Y1374D01*
X3136Y1373D01*
X3140Y1372D01*
X3142Y1372D01*
X3144Y1371D01*
X3145Y1371D01*
X3147Y1370D01*
X3147Y1370D01*
X3148Y1370D01*
X3148Y1370D01*
X3149D01*
X3153Y1367D01*
X3156Y1365D01*
X3159Y1363D01*
X3162Y1360D01*
X3164Y1358D01*
X3165Y1357D01*
X3166Y1355D01*
X3167Y1355D01*
Y1355D01*
X3169Y1351D01*
X3170Y1348D01*
X3171Y1344D01*
X3172Y1341D01*
X3172Y1338D01*
X3173Y1336D01*
Y1335D01*
Y1335D01*
Y1335D01*
Y1334D01*
X3172Y1331D01*
X3172Y1328D01*
X3171Y1325D01*
X3170Y1323D01*
X3168Y1318D01*
X3166Y1313D01*
X3165Y1311D01*
X3164Y1310D01*
X3163Y1309D01*
X3162Y1307D01*
X3161Y1306D01*
X3160Y1306D01*
X3160Y1305D01*
X3159Y1305D01*
X3158Y1304D01*
X3155Y1302D01*
X3153Y1301D01*
X3150Y1300D01*
X3145Y1297D01*
X3140Y1295D01*
X3137Y1294D01*
X3135Y1293D01*
X3132Y1293D01*
X3130Y1292D01*
X3129Y1292D01*
X3128Y1291D01*
X3127Y1291D01*
X3127D01*
X3123Y1290D01*
X3121Y1289D01*
X3118Y1289D01*
X3115Y1288D01*
X3113Y1288D01*
X3111Y1287D01*
X3110Y1286D01*
X3108Y1286D01*
X3107Y1286D01*
X3106Y1285D01*
X3104Y1285D01*
X3104Y1285D01*
X3103D01*
X3101Y1284D01*
X3099Y1283D01*
X3097Y1281D01*
X3095Y1280D01*
X3094Y1280D01*
X3094Y1279D01*
X3093Y1279D01*
X3093Y1278D01*
X3092Y1277D01*
X3091Y1275D01*
X3091Y1274D01*
X3090Y1273D01*
X3090Y1271D01*
X3090Y1270D01*
Y1270D01*
Y1270D01*
X3090Y1267D01*
X3091Y1264D01*
X3092Y1262D01*
X3093Y1260D01*
X3095Y1258D01*
X3096Y1257D01*
X3097Y1256D01*
X3097Y1256D01*
X3100Y1254D01*
X3103Y1252D01*
X3107Y1251D01*
X3110Y1251D01*
X3113Y1250D01*
X3116Y1250D01*
X3118D01*
X3123Y1250D01*
X3127Y1251D01*
X3131Y1252D01*
X3134Y1253D01*
X3136Y1254D01*
X3138Y1255D01*
X3139Y1256D01*
X3139Y1256D01*
X3142Y1259D01*
X3144Y1263D01*
X3146Y1266D01*
X3147Y1270D01*
X3148Y1273D01*
X3149Y1275D01*
X3149Y1276D01*
Y1277D01*
X3150Y1277D01*
Y1278D01*
X3178Y1275D01*
X3177Y1270D01*
X3177Y1266D01*
X3175Y1262D01*
X3174Y1259D01*
X3173Y1255D01*
X3171Y1252D01*
X3170Y1250D01*
X3168Y1247D01*
X3167Y1245D01*
X3165Y1243D01*
X3164Y1241D01*
X3163Y1240D01*
X3162Y1239D01*
X3161Y1238D01*
X3161Y1238D01*
X3161Y1238D01*
X3158Y1235D01*
X3155Y1234D01*
X3151Y1232D01*
X3148Y1230D01*
X3144Y1229D01*
X3141Y1228D01*
X3134Y1227D01*
X3131Y1226D01*
X3128Y1226D01*
X3125Y1226D01*
X3123Y1225D01*
X3121Y1225D01*
X3119D01*
X3112Y1225D01*
X3106Y1226D01*
X3101Y1227D01*
X3098Y1227D01*
X3096Y1228D01*
X3094Y1228D01*
X3092Y1229D01*
X3091Y1229D01*
X3090Y1230D01*
X3089Y1230D01*
X3088Y1230D01*
X3088Y1230D01*
X3087D01*
X3083Y1233D01*
X3079Y1235D01*
X3076Y1238D01*
X3073Y1240D01*
X3071Y1243D01*
X3069Y1245D01*
X3068Y1246D01*
X3068Y1246D01*
Y1246D01*
X3066Y1251D01*
X3064Y1255D01*
X3062Y1259D01*
X3062Y1262D01*
X3061Y1265D01*
X3061Y1267D01*
X3061Y1268D01*
Y1269D01*
Y1269D01*
Y1270D01*
Y1270D01*
X3061Y1275D01*
X3062Y1279D01*
X3063Y1283D01*
X3064Y1286D01*
X3065Y1289D01*
X3066Y1291D01*
X3066Y1292D01*
X3067Y1293D01*
X3069Y1296D01*
X3072Y1299D01*
X3074Y1301D01*
X3077Y1304D01*
X3079Y1305D01*
X3081Y1306D01*
X3082Y1307D01*
X3082Y1307D01*
X3083D01*
X3085Y1309D01*
X3087Y1310D01*
X3092Y1311D01*
X3097Y1313D01*
X3102Y1315D01*
X3104Y1315D01*
X3107Y1316D01*
X3109Y1317D01*
X3110Y1317D01*
X3112Y1317D01*
X3113Y1318D01*
X3114Y1318D01*
X3114D01*
X3118Y1319D01*
X3121Y1320D01*
X3124Y1321D01*
X3127Y1321D01*
X3129Y1322D01*
X3132Y1323D01*
X3133Y1324D01*
X3135Y1325D01*
X3137Y1325D01*
X3138Y1326D01*
X3139Y1326D01*
X3139Y1327D01*
X3140Y1327D01*
X3140Y1327D01*
X3142Y1329D01*
X3143Y1330D01*
X3144Y1332D01*
X3144Y1333D01*
X3144Y1334D01*
X3145Y1335D01*
Y1336D01*
Y1336D01*
X3144Y1338D01*
X3144Y1340D01*
X3143Y1342D01*
X3142Y1343D01*
X3142Y1344D01*
X3141Y1345D01*
X3140Y1345D01*
X3140Y1345D01*
X3137Y1347D01*
X3134Y1348D01*
X3131Y1349D01*
X3128Y1350D01*
X3125Y1350D01*
X3123Y1351D01*
X3121D01*
X3116Y1350D01*
X3112Y1350D01*
X3109Y1349D01*
X3107Y1348D01*
X3105Y1347D01*
X3103Y1346D01*
X3102Y1346D01*
X3102Y1346D01*
X3100Y1344D01*
X3098Y1341D01*
X3097Y1339D01*
X3096Y1336D01*
X3095Y1334D01*
X3094Y1332D01*
X3094Y1330D01*
Y1330D01*
Y1330D01*
X3065Y1331D01*
X3065Y1335D01*
X3066Y1338D01*
X3067Y1341D01*
X3068Y1344D01*
X3069Y1347D01*
X3070Y1350D01*
X3071Y1352D01*
X3072Y1354D01*
X3074Y1356D01*
X3075Y1358D01*
X3076Y1359D01*
X3077Y1361D01*
X3078Y1361D01*
X3079Y1362D01*
X3079Y1362D01*
X3079Y1363D01*
X3082Y1365D01*
X3085Y1367D01*
X3088Y1368D01*
X3092Y1370D01*
X3095Y1371D01*
X3098Y1372D01*
X3105Y1373D01*
X3108Y1374D01*
X3111Y1374D01*
X3113Y1374D01*
X3116Y1375D01*
X3118Y1375D01*
X3120D01*
X3126Y1375D01*
D02*
G37*
G36*
X2936D02*
X2941Y1374D01*
X2946Y1373D01*
X2950Y1372D01*
X2952Y1372D01*
X2954Y1371D01*
X2955Y1371D01*
X2956Y1370D01*
X2957Y1370D01*
X2958Y1370D01*
X2958Y1370D01*
X2958D01*
X2962Y1367D01*
X2966Y1365D01*
X2969Y1363D01*
X2972Y1360D01*
X2974Y1358D01*
X2975Y1357D01*
X2976Y1355D01*
X2976Y1355D01*
Y1355D01*
X2978Y1351D01*
X2980Y1348D01*
X2981Y1344D01*
X2981Y1341D01*
X2982Y1338D01*
X2982Y1336D01*
Y1335D01*
Y1335D01*
Y1335D01*
Y1334D01*
X2982Y1331D01*
X2982Y1328D01*
X2981Y1325D01*
X2980Y1323D01*
X2978Y1318D01*
X2976Y1313D01*
X2974Y1311D01*
X2973Y1310D01*
X2972Y1309D01*
X2971Y1307D01*
X2970Y1306D01*
X2970Y1306D01*
X2969Y1305D01*
X2969Y1305D01*
X2967Y1304D01*
X2965Y1302D01*
X2963Y1301D01*
X2960Y1300D01*
X2955Y1297D01*
X2949Y1295D01*
X2947Y1294D01*
X2944Y1293D01*
X2942Y1293D01*
X2940Y1292D01*
X2939Y1292D01*
X2937Y1291D01*
X2937Y1291D01*
X2936D01*
X2933Y1290D01*
X2930Y1289D01*
X2927Y1289D01*
X2925Y1288D01*
X2923Y1288D01*
X2921Y1287D01*
X2919Y1286D01*
X2918Y1286D01*
X2917Y1286D01*
X2916Y1285D01*
X2914Y1285D01*
X2913Y1285D01*
X2913D01*
X2910Y1284D01*
X2908Y1283D01*
X2906Y1281D01*
X2905Y1280D01*
X2904Y1280D01*
X2903Y1279D01*
X2903Y1279D01*
X2903Y1278D01*
X2902Y1277D01*
X2901Y1275D01*
X2900Y1274D01*
X2900Y1273D01*
X2900Y1271D01*
X2900Y1270D01*
Y1270D01*
Y1270D01*
X2900Y1267D01*
X2901Y1264D01*
X2902Y1262D01*
X2903Y1260D01*
X2905Y1258D01*
X2906Y1257D01*
X2906Y1256D01*
X2907Y1256D01*
X2910Y1254D01*
X2913Y1252D01*
X2917Y1251D01*
X2920Y1251D01*
X2923Y1250D01*
X2926Y1250D01*
X2928D01*
X2933Y1250D01*
X2937Y1251D01*
X2940Y1252D01*
X2943Y1253D01*
X2946Y1254D01*
X2948Y1255D01*
X2949Y1256D01*
X2949Y1256D01*
X2952Y1259D01*
X2954Y1263D01*
X2956Y1266D01*
X2957Y1270D01*
X2958Y1273D01*
X2959Y1275D01*
X2959Y1276D01*
Y1277D01*
X2959Y1277D01*
Y1278D01*
X2988Y1275D01*
X2987Y1270D01*
X2986Y1266D01*
X2985Y1262D01*
X2984Y1259D01*
X2982Y1255D01*
X2981Y1252D01*
X2979Y1250D01*
X2978Y1247D01*
X2977Y1245D01*
X2975Y1243D01*
X2974Y1241D01*
X2973Y1240D01*
X2972Y1239D01*
X2971Y1238D01*
X2971Y1238D01*
X2970Y1238D01*
X2967Y1235D01*
X2964Y1234D01*
X2961Y1232D01*
X2957Y1230D01*
X2954Y1229D01*
X2951Y1228D01*
X2944Y1227D01*
X2941Y1226D01*
X2938Y1226D01*
X2935Y1226D01*
X2933Y1225D01*
X2931Y1225D01*
X2928D01*
X2922Y1225D01*
X2916Y1226D01*
X2910Y1227D01*
X2908Y1227D01*
X2906Y1228D01*
X2904Y1228D01*
X2902Y1229D01*
X2901Y1229D01*
X2899Y1230D01*
X2898Y1230D01*
X2898Y1230D01*
X2897Y1230D01*
X2897D01*
X2892Y1233D01*
X2889Y1235D01*
X2885Y1238D01*
X2882Y1240D01*
X2880Y1243D01*
X2879Y1245D01*
X2878Y1246D01*
X2877Y1246D01*
Y1246D01*
X2875Y1251D01*
X2873Y1255D01*
X2872Y1259D01*
X2871Y1262D01*
X2871Y1265D01*
X2871Y1267D01*
X2870Y1268D01*
Y1269D01*
Y1269D01*
Y1270D01*
Y1270D01*
X2871Y1275D01*
X2871Y1279D01*
X2872Y1283D01*
X2873Y1286D01*
X2874Y1289D01*
X2875Y1291D01*
X2876Y1292D01*
X2876Y1293D01*
X2878Y1296D01*
X2881Y1299D01*
X2884Y1301D01*
X2886Y1304D01*
X2889Y1305D01*
X2891Y1306D01*
X2892Y1307D01*
X2892Y1307D01*
X2892D01*
X2894Y1309D01*
X2896Y1310D01*
X2901Y1311D01*
X2907Y1313D01*
X2912Y1315D01*
X2914Y1315D01*
X2916Y1316D01*
X2918Y1317D01*
X2920Y1317D01*
X2921Y1317D01*
X2922Y1318D01*
X2923Y1318D01*
X2923D01*
X2927Y1319D01*
X2931Y1320D01*
X2934Y1321D01*
X2937Y1321D01*
X2939Y1322D01*
X2941Y1323D01*
X2943Y1324D01*
X2945Y1325D01*
X2946Y1325D01*
X2947Y1326D01*
X2948Y1326D01*
X2949Y1327D01*
X2950Y1327D01*
X2950Y1327D01*
X2952Y1329D01*
X2953Y1330D01*
X2953Y1332D01*
X2954Y1333D01*
X2954Y1334D01*
X2954Y1335D01*
Y1336D01*
Y1336D01*
X2954Y1338D01*
X2954Y1340D01*
X2953Y1342D01*
X2952Y1343D01*
X2951Y1344D01*
X2950Y1345D01*
X2950Y1345D01*
X2950Y1345D01*
X2947Y1347D01*
X2944Y1348D01*
X2940Y1349D01*
X2937Y1350D01*
X2935Y1350D01*
X2932Y1351D01*
X2930D01*
X2926Y1350D01*
X2922Y1350D01*
X2919Y1349D01*
X2916Y1348D01*
X2914Y1347D01*
X2913Y1346D01*
X2912Y1346D01*
X2912Y1346D01*
X2910Y1344D01*
X2908Y1341D01*
X2906Y1339D01*
X2905Y1336D01*
X2905Y1334D01*
X2904Y1332D01*
X2904Y1330D01*
Y1330D01*
Y1330D01*
X2875Y1331D01*
X2875Y1335D01*
X2875Y1338D01*
X2876Y1341D01*
X2877Y1344D01*
X2878Y1347D01*
X2880Y1350D01*
X2881Y1352D01*
X2882Y1354D01*
X2883Y1356D01*
X2885Y1358D01*
X2886Y1359D01*
X2887Y1361D01*
X2888Y1361D01*
X2888Y1362D01*
X2889Y1362D01*
X2889Y1363D01*
X2892Y1365D01*
X2895Y1367D01*
X2898Y1368D01*
X2901Y1370D01*
X2905Y1371D01*
X2908Y1372D01*
X2915Y1373D01*
X2918Y1374D01*
X2920Y1374D01*
X2923Y1374D01*
X2925Y1375D01*
X2927Y1375D01*
X2930D01*
X2936Y1375D01*
D02*
G37*
G36*
X2052Y1375D02*
X2057Y1374D01*
X2062Y1373D01*
X2066Y1372D01*
X2068Y1372D01*
X2070Y1371D01*
X2071Y1371D01*
X2072Y1370D01*
X2073Y1370D01*
X2074Y1370D01*
X2074Y1370D01*
X2074D01*
X2078Y1367D01*
X2082Y1365D01*
X2085Y1363D01*
X2088Y1360D01*
X2090Y1358D01*
X2091Y1357D01*
X2092Y1355D01*
X2092Y1355D01*
Y1355D01*
X2094Y1351D01*
X2096Y1348D01*
X2097Y1344D01*
X2097Y1341D01*
X2098Y1338D01*
X2098Y1336D01*
Y1335D01*
Y1335D01*
Y1335D01*
Y1334D01*
X2098Y1331D01*
X2098Y1328D01*
X2097Y1325D01*
X2096Y1323D01*
X2094Y1318D01*
X2092Y1313D01*
X2091Y1311D01*
X2089Y1310D01*
X2088Y1309D01*
X2087Y1307D01*
X2086Y1306D01*
X2086Y1306D01*
X2085Y1305D01*
X2085Y1305D01*
X2083Y1304D01*
X2081Y1302D01*
X2079Y1301D01*
X2076Y1300D01*
X2071Y1297D01*
X2065Y1295D01*
X2063Y1294D01*
X2060Y1293D01*
X2058Y1293D01*
X2056Y1292D01*
X2055Y1292D01*
X2053Y1291D01*
X2053Y1291D01*
X2052D01*
X2049Y1290D01*
X2046Y1289D01*
X2043Y1289D01*
X2041Y1288D01*
X2039Y1288D01*
X2037Y1287D01*
X2035Y1286D01*
X2034Y1286D01*
X2033Y1286D01*
X2032Y1285D01*
X2030Y1285D01*
X2029Y1285D01*
X2029D01*
X2026Y1284D01*
X2024Y1283D01*
X2022Y1281D01*
X2021Y1280D01*
X2020Y1280D01*
X2019Y1279D01*
X2019Y1279D01*
X2019Y1278D01*
X2018Y1277D01*
X2017Y1275D01*
X2016Y1274D01*
X2016Y1273D01*
X2016Y1271D01*
X2016Y1270D01*
Y1270D01*
Y1270D01*
X2016Y1267D01*
X2017Y1264D01*
X2018Y1262D01*
X2019Y1260D01*
X2021Y1258D01*
X2022Y1257D01*
X2022Y1256D01*
X2023Y1256D01*
X2026Y1254D01*
X2029Y1252D01*
X2033Y1251D01*
X2036Y1251D01*
X2039Y1250D01*
X2042Y1250D01*
X2044D01*
X2049Y1250D01*
X2053Y1251D01*
X2056Y1252D01*
X2060Y1253D01*
X2062Y1254D01*
X2064Y1255D01*
X2065Y1256D01*
X2065Y1256D01*
X2068Y1259D01*
X2070Y1263D01*
X2072Y1266D01*
X2073Y1270D01*
X2074Y1273D01*
X2075Y1275D01*
X2075Y1276D01*
Y1277D01*
X2075Y1277D01*
Y1278D01*
X2104Y1275D01*
X2103Y1270D01*
X2102Y1266D01*
X2101Y1262D01*
X2100Y1259D01*
X2098Y1255D01*
X2097Y1252D01*
X2096Y1250D01*
X2094Y1247D01*
X2093Y1245D01*
X2091Y1243D01*
X2090Y1241D01*
X2089Y1240D01*
X2088Y1239D01*
X2087Y1238D01*
X2087Y1238D01*
X2086Y1238D01*
X2083Y1235D01*
X2080Y1234D01*
X2077Y1232D01*
X2073Y1230D01*
X2070Y1229D01*
X2067Y1228D01*
X2060Y1227D01*
X2057Y1226D01*
X2054Y1226D01*
X2051Y1226D01*
X2049Y1225D01*
X2047Y1225D01*
X2044D01*
X2038Y1225D01*
X2032Y1226D01*
X2026Y1227D01*
X2024Y1227D01*
X2022Y1228D01*
X2020Y1228D01*
X2018Y1229D01*
X2017Y1229D01*
X2015Y1230D01*
X2014Y1230D01*
X2014Y1230D01*
X2013Y1230D01*
X2013D01*
X2008Y1233D01*
X2005Y1235D01*
X2001Y1238D01*
X1998Y1240D01*
X1996Y1243D01*
X1995Y1245D01*
X1994Y1246D01*
X1993Y1246D01*
Y1246D01*
X1991Y1251D01*
X1989Y1255D01*
X1988Y1259D01*
X1987Y1262D01*
X1987Y1265D01*
X1987Y1267D01*
X1986Y1268D01*
Y1269D01*
Y1269D01*
Y1270D01*
Y1270D01*
X1987Y1275D01*
X1987Y1279D01*
X1988Y1283D01*
X1989Y1286D01*
X1990Y1289D01*
X1991Y1291D01*
X1992Y1292D01*
X1992Y1293D01*
X1995Y1296D01*
X1997Y1299D01*
X2000Y1301D01*
X2002Y1304D01*
X2005Y1305D01*
X2007Y1306D01*
X2008Y1307D01*
X2008Y1307D01*
X2008D01*
X2010Y1309D01*
X2012Y1310D01*
X2017Y1311D01*
X2023Y1313D01*
X2028Y1315D01*
X2030Y1315D01*
X2032Y1316D01*
X2034Y1317D01*
X2036Y1317D01*
X2037Y1317D01*
X2038Y1318D01*
X2039Y1318D01*
X2040D01*
X2043Y1319D01*
X2047Y1320D01*
X2050Y1321D01*
X2053Y1321D01*
X2055Y1322D01*
X2057Y1323D01*
X2059Y1324D01*
X2061Y1325D01*
X2062Y1325D01*
X2063Y1326D01*
X2064Y1326D01*
X2065Y1327D01*
X2066Y1327D01*
X2066Y1327D01*
X2068Y1329D01*
X2069Y1330D01*
X2069Y1332D01*
X2070Y1333D01*
X2070Y1334D01*
X2070Y1335D01*
Y1336D01*
Y1336D01*
X2070Y1338D01*
X2070Y1340D01*
X2069Y1342D01*
X2068Y1343D01*
X2067Y1344D01*
X2066Y1345D01*
X2066Y1345D01*
X2066Y1345D01*
X2063Y1347D01*
X2060Y1348D01*
X2056Y1349D01*
X2053Y1350D01*
X2051Y1350D01*
X2048Y1351D01*
X2046D01*
X2042Y1350D01*
X2038Y1350D01*
X2035Y1349D01*
X2032Y1348D01*
X2030Y1347D01*
X2029Y1346D01*
X2028Y1346D01*
X2028Y1346D01*
X2026Y1344D01*
X2024Y1341D01*
X2022Y1339D01*
X2021Y1336D01*
X2021Y1334D01*
X2020Y1332D01*
X2020Y1330D01*
Y1330D01*
Y1330D01*
X1991Y1331D01*
X1991Y1335D01*
X1991Y1338D01*
X1992Y1341D01*
X1993Y1344D01*
X1994Y1347D01*
X1996Y1350D01*
X1997Y1352D01*
X1998Y1354D01*
X2000Y1356D01*
X2001Y1358D01*
X2002Y1359D01*
X2003Y1361D01*
X2004Y1361D01*
X2005Y1362D01*
X2005Y1362D01*
X2005Y1363D01*
X2008Y1365D01*
X2011Y1367D01*
X2014Y1368D01*
X2017Y1370D01*
X2021Y1371D01*
X2024Y1372D01*
X2031Y1373D01*
X2034Y1374D01*
X2036Y1374D01*
X2039Y1374D01*
X2041Y1375D01*
X2043Y1375D01*
X2046D01*
X2052Y1375D01*
D02*
G37*
G36*
X3153Y1167D02*
X3136D01*
X3108Y1196D01*
X3139D01*
X3153Y1167D01*
D02*
G37*
G36*
X3002Y1156D02*
X3007Y1156D01*
X3012Y1155D01*
X3017Y1153D01*
X3021Y1152D01*
X3025Y1150D01*
X3028Y1148D01*
X3032Y1147D01*
X3035Y1145D01*
X3037Y1143D01*
X3040Y1141D01*
X3042Y1140D01*
X3043Y1139D01*
X3044Y1137D01*
X3045Y1137D01*
X3045Y1137D01*
X3048Y1133D01*
X3051Y1129D01*
X3053Y1124D01*
X3056Y1120D01*
X3057Y1115D01*
X3059Y1110D01*
X3060Y1106D01*
X3061Y1101D01*
X3062Y1097D01*
X3062Y1093D01*
X3063Y1090D01*
X3063Y1087D01*
Y1084D01*
X3063Y1082D01*
Y1081D01*
Y1081D01*
Y1081D01*
X3063Y1074D01*
X3063Y1069D01*
X3062Y1063D01*
X3061Y1058D01*
X3059Y1053D01*
X3058Y1049D01*
X3056Y1045D01*
X3054Y1041D01*
X3053Y1038D01*
X3051Y1035D01*
X3049Y1032D01*
X3048Y1030D01*
X3047Y1029D01*
X3046Y1028D01*
X3045Y1027D01*
X3045Y1027D01*
X3042Y1023D01*
X3038Y1020D01*
X3034Y1018D01*
X3030Y1016D01*
X3026Y1014D01*
X3022Y1012D01*
X3018Y1011D01*
X3015Y1010D01*
X3011Y1009D01*
X3008Y1008D01*
X3005Y1008D01*
X3003Y1008D01*
X3001Y1007D01*
X2999Y1007D01*
X2998D01*
X2994Y1007D01*
X2990Y1008D01*
X2986Y1008D01*
X2982Y1009D01*
X2979Y1010D01*
X2976Y1011D01*
X2973Y1012D01*
X2970Y1013D01*
X2968Y1014D01*
X2966Y1015D01*
X2964Y1016D01*
X2962Y1017D01*
X2961Y1018D01*
X2960Y1018D01*
X2960Y1019D01*
X2960Y1019D01*
X2957Y1021D01*
X2955Y1024D01*
X2950Y1029D01*
X2946Y1035D01*
X2943Y1041D01*
X2942Y1043D01*
X2941Y1046D01*
X2940Y1048D01*
X2939Y1050D01*
X2939Y1052D01*
X2938Y1053D01*
X2938Y1054D01*
Y1054D01*
X2966Y1063D01*
X2968Y1057D01*
X2970Y1052D01*
X2972Y1048D01*
X2974Y1045D01*
X2976Y1042D01*
X2977Y1041D01*
X2978Y1040D01*
X2978Y1039D01*
X2982Y1037D01*
X2985Y1035D01*
X2988Y1034D01*
X2991Y1033D01*
X2994Y1032D01*
X2996Y1032D01*
X2997Y1032D01*
X2998D01*
X3001Y1032D01*
X3004Y1032D01*
X3009Y1034D01*
X3013Y1036D01*
X3017Y1038D01*
X3020Y1040D01*
X3022Y1042D01*
X3023Y1042D01*
X3023Y1043D01*
X3023Y1043D01*
X3024Y1044D01*
X3025Y1046D01*
X3027Y1049D01*
X3028Y1051D01*
X3029Y1055D01*
X3031Y1061D01*
X3032Y1067D01*
X3033Y1071D01*
X3033Y1073D01*
X3033Y1076D01*
Y1078D01*
X3033Y1080D01*
Y1081D01*
Y1082D01*
Y1083D01*
X3033Y1087D01*
X3033Y1092D01*
X3033Y1096D01*
X3032Y1100D01*
X3031Y1103D01*
X3030Y1106D01*
X3029Y1109D01*
X3028Y1111D01*
X3028Y1113D01*
X3027Y1115D01*
X3026Y1117D01*
X3025Y1118D01*
X3024Y1119D01*
X3024Y1120D01*
X3024Y1120D01*
Y1120D01*
X3022Y1122D01*
X3020Y1124D01*
X3018Y1126D01*
X3015Y1127D01*
X3011Y1129D01*
X3007Y1130D01*
X3003Y1131D01*
X3002Y1131D01*
X3000Y1132D01*
X2999Y1132D01*
X2998D01*
X2993Y1132D01*
X2990Y1131D01*
X2986Y1130D01*
X2983Y1129D01*
X2981Y1127D01*
X2979Y1126D01*
X2978Y1125D01*
X2978Y1125D01*
X2975Y1123D01*
X2973Y1120D01*
X2971Y1117D01*
X2969Y1114D01*
X2968Y1111D01*
X2968Y1110D01*
X2967Y1109D01*
Y1108D01*
X2967Y1108D01*
Y1108D01*
X2938Y1115D01*
X2941Y1121D01*
X2943Y1126D01*
X2945Y1130D01*
X2948Y1134D01*
X2950Y1137D01*
X2951Y1138D01*
X2952Y1139D01*
X2952Y1140D01*
X2953Y1141D01*
X2953Y1141D01*
X2953D01*
X2956Y1144D01*
X2960Y1146D01*
X2963Y1148D01*
X2967Y1150D01*
X2971Y1152D01*
X2974Y1153D01*
X2978Y1154D01*
X2981Y1155D01*
X2984Y1155D01*
X2987Y1156D01*
X2989Y1156D01*
X2992Y1156D01*
X2994Y1157D01*
X2996D01*
X3002Y1156D01*
D02*
G37*
G36*
X2532Y1156D02*
X2537Y1156D01*
X2542Y1155D01*
X2547Y1153D01*
X2551Y1152D01*
X2555Y1150D01*
X2559Y1148D01*
X2562Y1147D01*
X2565Y1145D01*
X2568Y1143D01*
X2570Y1141D01*
X2572Y1140D01*
X2573Y1139D01*
X2574Y1137D01*
X2575Y1137D01*
X2575Y1137D01*
X2578Y1133D01*
X2581Y1129D01*
X2584Y1124D01*
X2586Y1120D01*
X2588Y1115D01*
X2589Y1110D01*
X2590Y1106D01*
X2591Y1101D01*
X2592Y1097D01*
X2593Y1093D01*
X2593Y1090D01*
X2593Y1087D01*
Y1084D01*
X2594Y1082D01*
Y1081D01*
Y1081D01*
Y1081D01*
X2593Y1074D01*
X2593Y1069D01*
X2592Y1063D01*
X2591Y1058D01*
X2589Y1053D01*
X2588Y1049D01*
X2586Y1045D01*
X2584Y1041D01*
X2583Y1038D01*
X2581Y1035D01*
X2579Y1032D01*
X2578Y1030D01*
X2577Y1029D01*
X2576Y1028D01*
X2575Y1027D01*
X2575Y1027D01*
X2572Y1023D01*
X2568Y1020D01*
X2564Y1018D01*
X2560Y1016D01*
X2556Y1014D01*
X2552Y1012D01*
X2548Y1011D01*
X2545Y1010D01*
X2541Y1009D01*
X2538Y1008D01*
X2535Y1008D01*
X2533Y1008D01*
X2531Y1007D01*
X2529Y1007D01*
X2528D01*
X2524Y1007D01*
X2520Y1008D01*
X2516Y1008D01*
X2512Y1009D01*
X2509Y1010D01*
X2506Y1011D01*
X2503Y1012D01*
X2500Y1013D01*
X2498Y1014D01*
X2496Y1015D01*
X2494Y1016D01*
X2493Y1017D01*
X2491Y1018D01*
X2490Y1018D01*
X2490Y1019D01*
X2490Y1019D01*
X2487Y1021D01*
X2485Y1024D01*
X2480Y1029D01*
X2476Y1035D01*
X2473Y1041D01*
X2472Y1043D01*
X2471Y1046D01*
X2470Y1048D01*
X2469Y1050D01*
X2469Y1052D01*
X2468Y1053D01*
X2468Y1054D01*
Y1054D01*
X2496Y1063D01*
X2498Y1057D01*
X2500Y1052D01*
X2502Y1048D01*
X2504Y1045D01*
X2506Y1042D01*
X2507Y1041D01*
X2508Y1040D01*
X2509Y1039D01*
X2512Y1037D01*
X2515Y1035D01*
X2519Y1034D01*
X2521Y1033D01*
X2524Y1032D01*
X2526Y1032D01*
X2527Y1032D01*
X2528D01*
X2531Y1032D01*
X2534Y1032D01*
X2539Y1034D01*
X2543Y1036D01*
X2547Y1038D01*
X2550Y1040D01*
X2552Y1042D01*
X2553Y1042D01*
X2553Y1043D01*
X2554Y1043D01*
X2554Y1044D01*
X2555Y1046D01*
X2557Y1049D01*
X2558Y1051D01*
X2559Y1055D01*
X2561Y1061D01*
X2562Y1067D01*
X2563Y1071D01*
X2563Y1073D01*
X2563Y1076D01*
Y1078D01*
X2564Y1080D01*
Y1081D01*
Y1082D01*
Y1083D01*
X2563Y1087D01*
X2563Y1092D01*
X2563Y1096D01*
X2562Y1100D01*
X2561Y1103D01*
X2560Y1106D01*
X2560Y1109D01*
X2559Y1111D01*
X2558Y1113D01*
X2557Y1115D01*
X2556Y1117D01*
X2555Y1118D01*
X2555Y1119D01*
X2554Y1120D01*
X2554Y1120D01*
Y1120D01*
X2552Y1122D01*
X2550Y1124D01*
X2548Y1126D01*
X2545Y1127D01*
X2541Y1129D01*
X2537Y1130D01*
X2533Y1131D01*
X2532Y1131D01*
X2530Y1132D01*
X2529Y1132D01*
X2528D01*
X2524Y1132D01*
X2520Y1131D01*
X2516Y1130D01*
X2514Y1129D01*
X2511Y1127D01*
X2510Y1126D01*
X2509Y1125D01*
X2508Y1125D01*
X2505Y1123D01*
X2503Y1120D01*
X2501Y1117D01*
X2500Y1114D01*
X2499Y1111D01*
X2498Y1110D01*
X2498Y1109D01*
Y1108D01*
X2497Y1108D01*
Y1108D01*
X2469Y1115D01*
X2471Y1121D01*
X2473Y1126D01*
X2475Y1130D01*
X2478Y1134D01*
X2480Y1137D01*
X2481Y1138D01*
X2482Y1139D01*
X2482Y1140D01*
X2483Y1141D01*
X2483Y1141D01*
X2483D01*
X2486Y1144D01*
X2490Y1146D01*
X2493Y1148D01*
X2497Y1150D01*
X2501Y1152D01*
X2504Y1153D01*
X2508Y1154D01*
X2511Y1155D01*
X2514Y1155D01*
X2517Y1156D01*
X2520Y1156D01*
X2522Y1156D01*
X2524Y1157D01*
X2526D01*
X2532Y1156D01*
D02*
G37*
G36*
X3450Y1010D02*
X3340D01*
Y1034D01*
X3421D01*
Y1073D01*
X3349D01*
Y1098D01*
X3421D01*
Y1130D01*
X3343D01*
Y1154D01*
X3450D01*
Y1010D01*
D02*
G37*
G36*
X3315D02*
X3213D01*
Y1034D01*
X3286D01*
Y1153D01*
X3315D01*
Y1010D01*
D02*
G37*
G36*
X3193D02*
X3083D01*
Y1034D01*
X3163D01*
Y1073D01*
X3091D01*
Y1098D01*
X3163D01*
Y1130D01*
X3086D01*
Y1154D01*
X3193D01*
Y1010D01*
D02*
G37*
G36*
X2923Y1130D02*
X2880D01*
Y1010D01*
X2851D01*
Y1130D01*
X2809D01*
Y1154D01*
X2923D01*
Y1130D01*
D02*
G37*
G36*
X2790Y1010D02*
X2761D01*
Y1070D01*
X2751D01*
X2748Y1070D01*
X2746Y1070D01*
X2744Y1069D01*
X2742Y1069D01*
X2741Y1069D01*
X2740Y1068D01*
X2740D01*
X2739Y1067D01*
X2737Y1067D01*
X2735Y1066D01*
X2734Y1065D01*
X2733Y1064D01*
X2732Y1063D01*
X2732Y1062D01*
X2731Y1062D01*
X2731Y1061D01*
X2730Y1060D01*
X2727Y1057D01*
X2725Y1054D01*
X2722Y1050D01*
X2720Y1047D01*
X2719Y1045D01*
X2718Y1044D01*
X2717Y1043D01*
X2716Y1042D01*
X2716Y1041D01*
X2716Y1041D01*
X2695Y1010D01*
X2660D01*
X2678Y1038D01*
X2680Y1041D01*
X2682Y1044D01*
X2683Y1046D01*
X2685Y1049D01*
X2686Y1051D01*
X2688Y1053D01*
X2690Y1056D01*
X2692Y1058D01*
X2693Y1060D01*
X2694Y1061D01*
X2695Y1061D01*
X2697Y1064D01*
X2700Y1066D01*
X2702Y1068D01*
X2705Y1070D01*
X2707Y1071D01*
X2708Y1072D01*
X2710Y1073D01*
X2710Y1073D01*
X2710D01*
X2706Y1074D01*
X2703Y1075D01*
X2700Y1076D01*
X2697Y1077D01*
X2695Y1078D01*
X2693Y1079D01*
X2690Y1080D01*
X2689Y1081D01*
X2687Y1082D01*
X2685Y1083D01*
X2684Y1084D01*
X2683Y1085D01*
X2682Y1086D01*
X2682Y1086D01*
X2682Y1086D01*
X2681Y1087D01*
X2680Y1089D01*
X2678Y1091D01*
X2676Y1095D01*
X2674Y1100D01*
X2673Y1104D01*
X2672Y1108D01*
X2672Y1109D01*
Y1111D01*
X2672Y1112D01*
Y1113D01*
Y1113D01*
Y1114D01*
X2672Y1118D01*
X2673Y1122D01*
X2674Y1126D01*
X2675Y1130D01*
X2676Y1132D01*
X2677Y1134D01*
X2678Y1135D01*
X2678Y1136D01*
X2678Y1136D01*
Y1136D01*
X2681Y1140D01*
X2684Y1142D01*
X2686Y1145D01*
X2689Y1147D01*
X2691Y1148D01*
X2693Y1149D01*
X2695Y1150D01*
X2695Y1150D01*
X2695D01*
X2697Y1151D01*
X2699Y1151D01*
X2705Y1152D01*
X2710Y1153D01*
X2716Y1153D01*
X2718D01*
X2721Y1154D01*
X2723D01*
X2725Y1154D01*
X2790D01*
Y1010D01*
D02*
G37*
G36*
X2645Y1010D02*
X2616D01*
Y1154D01*
X2645D01*
Y1010D01*
D02*
G37*
G36*
X2458D02*
X2427D01*
X2415Y1042D01*
X2357D01*
X2345Y1010D01*
X2313D01*
X2371Y1154D01*
X2402D01*
X2458Y1010D01*
D02*
G37*
G36*
X2253Y1156D02*
X2259Y1156D01*
X2264Y1155D01*
X2268Y1154D01*
X2270Y1153D01*
X2271Y1153D01*
X2273Y1153D01*
X2274Y1152D01*
X2275Y1152D01*
X2275Y1152D01*
X2276Y1151D01*
X2276D01*
X2280Y1149D01*
X2284Y1147D01*
X2287Y1145D01*
X2289Y1142D01*
X2291Y1140D01*
X2293Y1139D01*
X2294Y1137D01*
X2294Y1137D01*
Y1137D01*
X2296Y1133D01*
X2297Y1130D01*
X2298Y1126D01*
X2299Y1123D01*
X2299Y1120D01*
X2300Y1118D01*
Y1117D01*
Y1117D01*
Y1116D01*
Y1116D01*
X2300Y1113D01*
X2299Y1110D01*
X2299Y1107D01*
X2298Y1105D01*
X2296Y1100D01*
X2293Y1095D01*
X2292Y1093D01*
X2291Y1092D01*
X2290Y1090D01*
X2289Y1089D01*
X2288Y1088D01*
X2287Y1088D01*
X2287Y1087D01*
X2287Y1087D01*
X2285Y1086D01*
X2283Y1084D01*
X2280Y1083D01*
X2278Y1081D01*
X2272Y1079D01*
X2267Y1077D01*
X2264Y1076D01*
X2262Y1075D01*
X2260Y1075D01*
X2258Y1074D01*
X2256Y1074D01*
X2255Y1073D01*
X2254Y1073D01*
X2254D01*
X2251Y1072D01*
X2248Y1071D01*
X2245Y1071D01*
X2243Y1070D01*
X2241Y1069D01*
X2239Y1069D01*
X2237Y1068D01*
X2236Y1068D01*
X2234Y1068D01*
X2233Y1067D01*
X2232Y1067D01*
X2231Y1066D01*
X2231D01*
X2228Y1065D01*
X2226Y1064D01*
X2224Y1063D01*
X2223Y1062D01*
X2222Y1061D01*
X2221Y1061D01*
X2221Y1060D01*
X2220Y1060D01*
X2219Y1059D01*
X2218Y1057D01*
X2218Y1056D01*
X2218Y1055D01*
X2217Y1053D01*
X2217Y1052D01*
Y1052D01*
Y1051D01*
X2217Y1049D01*
X2218Y1046D01*
X2219Y1044D01*
X2221Y1041D01*
X2222Y1040D01*
X2223Y1039D01*
X2224Y1038D01*
X2224Y1037D01*
X2227Y1036D01*
X2231Y1034D01*
X2234Y1033D01*
X2238Y1032D01*
X2241Y1032D01*
X2243Y1032D01*
X2246D01*
X2250Y1032D01*
X2254Y1033D01*
X2258Y1034D01*
X2261Y1035D01*
X2264Y1036D01*
X2265Y1037D01*
X2266Y1038D01*
X2267Y1038D01*
X2269Y1041D01*
X2272Y1044D01*
X2273Y1048D01*
X2275Y1051D01*
X2276Y1055D01*
X2277Y1057D01*
X2277Y1058D01*
Y1059D01*
X2277Y1059D01*
Y1059D01*
X2305Y1057D01*
X2305Y1052D01*
X2304Y1048D01*
X2303Y1044D01*
X2302Y1041D01*
X2300Y1037D01*
X2299Y1034D01*
X2297Y1031D01*
X2296Y1029D01*
X2294Y1027D01*
X2293Y1025D01*
X2292Y1023D01*
X2290Y1022D01*
X2289Y1021D01*
X2289Y1020D01*
X2288Y1020D01*
X2288Y1020D01*
X2285Y1017D01*
X2282Y1015D01*
X2279Y1014D01*
X2275Y1012D01*
X2272Y1011D01*
X2268Y1010D01*
X2261Y1009D01*
X2258Y1008D01*
X2255Y1008D01*
X2253Y1007D01*
X2251Y1007D01*
X2249Y1007D01*
X2246D01*
X2239Y1007D01*
X2233Y1008D01*
X2228Y1009D01*
X2226Y1009D01*
X2223Y1010D01*
X2221Y1010D01*
X2220Y1011D01*
X2218Y1011D01*
X2217Y1011D01*
X2216Y1012D01*
X2215Y1012D01*
X2215Y1012D01*
X2215D01*
X2210Y1015D01*
X2206Y1017D01*
X2203Y1020D01*
X2200Y1022D01*
X2198Y1025D01*
X2196Y1027D01*
X2196Y1028D01*
X2195Y1028D01*
Y1028D01*
X2193Y1032D01*
X2191Y1036D01*
X2190Y1040D01*
X2189Y1044D01*
X2188Y1047D01*
X2188Y1049D01*
X2188Y1050D01*
Y1050D01*
Y1051D01*
Y1051D01*
Y1052D01*
X2188Y1057D01*
X2189Y1061D01*
X2190Y1065D01*
X2191Y1068D01*
X2192Y1071D01*
X2193Y1073D01*
X2194Y1074D01*
X2194Y1075D01*
X2196Y1078D01*
X2199Y1081D01*
X2202Y1083D01*
X2204Y1085D01*
X2206Y1087D01*
X2208Y1088D01*
X2209Y1089D01*
X2210Y1089D01*
X2210D01*
X2212Y1090D01*
X2214Y1091D01*
X2219Y1093D01*
X2224Y1095D01*
X2229Y1097D01*
X2232Y1097D01*
X2234Y1098D01*
X2236Y1099D01*
X2238Y1099D01*
X2239Y1099D01*
X2240Y1100D01*
X2241Y1100D01*
X2241D01*
X2245Y1101D01*
X2248Y1102D01*
X2251Y1102D01*
X2254Y1103D01*
X2257Y1104D01*
X2259Y1105D01*
X2261Y1106D01*
X2262Y1106D01*
X2264Y1107D01*
X2265Y1108D01*
X2266Y1108D01*
X2267Y1109D01*
X2268Y1109D01*
X2268Y1109D01*
X2269Y1111D01*
X2270Y1112D01*
X2271Y1114D01*
X2271Y1115D01*
X2272Y1116D01*
X2272Y1117D01*
Y1118D01*
Y1118D01*
X2272Y1120D01*
X2271Y1122D01*
X2271Y1124D01*
X2270Y1125D01*
X2269Y1126D01*
X2268Y1126D01*
X2268Y1127D01*
X2267Y1127D01*
X2264Y1129D01*
X2261Y1130D01*
X2258Y1131D01*
X2255Y1132D01*
X2252Y1132D01*
X2250Y1132D01*
X2248D01*
X2243Y1132D01*
X2240Y1132D01*
X2237Y1131D01*
X2234Y1130D01*
X2232Y1129D01*
X2231Y1128D01*
X2230Y1128D01*
X2229Y1127D01*
X2227Y1125D01*
X2226Y1123D01*
X2224Y1120D01*
X2223Y1118D01*
X2222Y1115D01*
X2222Y1114D01*
X2221Y1112D01*
Y1112D01*
Y1112D01*
X2192Y1113D01*
X2192Y1116D01*
X2193Y1120D01*
X2194Y1123D01*
X2195Y1126D01*
X2196Y1129D01*
X2197Y1132D01*
X2198Y1134D01*
X2200Y1136D01*
X2201Y1138D01*
X2202Y1140D01*
X2204Y1141D01*
X2205Y1142D01*
X2206Y1143D01*
X2206Y1144D01*
X2207Y1144D01*
X2207Y1145D01*
X2209Y1147D01*
X2212Y1148D01*
X2216Y1150D01*
X2219Y1152D01*
X2222Y1153D01*
X2226Y1154D01*
X2232Y1155D01*
X2235Y1156D01*
X2238Y1156D01*
X2241Y1156D01*
X2243Y1156D01*
X2245Y1157D01*
X2247D01*
X2253Y1156D01*
D02*
G37*
G36*
X2007Y278D02*
X1987D01*
Y301D01*
X2007D01*
Y278D01*
D02*
G37*
G36*
X1422Y278D02*
X1402D01*
Y301D01*
X1422D01*
Y278D01*
D02*
G37*
G36*
X2567Y141D02*
X2549D01*
Y155D01*
X2547Y152D01*
X2544Y150D01*
X2542Y147D01*
X2539Y145D01*
X2537Y144D01*
X2534Y142D01*
X2531Y141D01*
X2529Y140D01*
X2524Y139D01*
X2522Y139D01*
X2520Y138D01*
X2519D01*
X2518Y138D01*
X2517D01*
X2513Y138D01*
X2509Y139D01*
X2506Y140D01*
X2503Y141D01*
X2496Y143D01*
X2494Y145D01*
X2491Y146D01*
X2489Y148D01*
X2487Y149D01*
X2486Y151D01*
X2484Y152D01*
X2483Y153D01*
X2482Y154D01*
X2482Y154D01*
X2481Y154D01*
X2479Y158D01*
X2477Y161D01*
X2475Y165D01*
X2473Y169D01*
X2472Y172D01*
X2470Y176D01*
X2468Y184D01*
X2468Y187D01*
X2467Y190D01*
X2467Y193D01*
X2467Y196D01*
X2467Y198D01*
Y199D01*
Y200D01*
Y200D01*
X2467Y205D01*
X2467Y209D01*
X2468Y213D01*
X2468Y217D01*
X2469Y220D01*
X2470Y222D01*
X2470Y223D01*
X2470Y224D01*
X2470Y224D01*
Y224D01*
X2472Y228D01*
X2473Y232D01*
X2475Y235D01*
X2477Y238D01*
X2478Y240D01*
X2479Y241D01*
X2480Y243D01*
X2480Y243D01*
X2482Y246D01*
X2485Y248D01*
X2488Y250D01*
X2490Y252D01*
X2492Y253D01*
X2494Y254D01*
X2495Y255D01*
X2496Y255D01*
X2499Y256D01*
X2503Y258D01*
X2506Y258D01*
X2509Y259D01*
X2512Y259D01*
X2514Y259D01*
X2516D01*
X2519Y259D01*
X2523Y259D01*
X2526Y258D01*
X2529Y257D01*
X2534Y255D01*
X2539Y252D01*
X2541Y250D01*
X2543Y249D01*
X2544Y247D01*
X2545Y246D01*
X2546Y245D01*
X2547Y244D01*
X2547Y244D01*
X2548Y244D01*
Y301D01*
X2567D01*
Y141D01*
D02*
G37*
G36*
X3799Y141D02*
X3779D01*
Y204D01*
X3779Y209D01*
X3779Y213D01*
X3778Y217D01*
X3778Y220D01*
X3777Y222D01*
X3777Y224D01*
X3776Y225D01*
X3776Y225D01*
X3775Y228D01*
X3773Y231D01*
X3771Y233D01*
X3769Y235D01*
X3768Y236D01*
X3766Y237D01*
X3765Y238D01*
X3765Y238D01*
X3762Y240D01*
X3759Y241D01*
X3757Y241D01*
X3754Y242D01*
X3752Y242D01*
X3750Y243D01*
X3749D01*
X3745Y242D01*
X3741Y241D01*
X3738Y240D01*
X3736Y239D01*
X3734Y238D01*
X3732Y237D01*
X3731Y236D01*
X3731Y236D01*
X3729Y233D01*
X3727Y229D01*
X3726Y226D01*
X3725Y222D01*
X3725Y219D01*
X3725Y217D01*
Y216D01*
Y215D01*
Y215D01*
Y214D01*
Y141D01*
X3705D01*
Y214D01*
X3705Y220D01*
X3706Y225D01*
X3706Y230D01*
X3707Y234D01*
X3708Y237D01*
X3708Y239D01*
X3709Y240D01*
X3709Y240D01*
X3711Y244D01*
X3713Y246D01*
X3715Y249D01*
X3717Y251D01*
X3719Y252D01*
X3721Y253D01*
X3722Y254D01*
X3723Y254D01*
X3726Y256D01*
X3730Y257D01*
X3734Y258D01*
X3737Y259D01*
X3740Y259D01*
X3743Y259D01*
X3745D01*
X3749Y259D01*
X3752Y259D01*
X3756Y258D01*
X3759Y257D01*
X3765Y254D01*
X3768Y253D01*
X3770Y252D01*
X3772Y250D01*
X3774Y249D01*
X3776Y247D01*
X3777Y246D01*
X3778Y245D01*
X3779Y244D01*
X3779Y244D01*
X3779Y244D01*
Y301D01*
X3799D01*
Y141D01*
D02*
G37*
G36*
X789Y259D02*
X793Y259D01*
X796Y258D01*
X799Y257D01*
X802Y256D01*
X803Y255D01*
X805Y254D01*
X805Y254D01*
X808Y252D01*
X811Y250D01*
X814Y247D01*
X816Y245D01*
X817Y243D01*
X819Y242D01*
X819Y241D01*
X820Y240D01*
Y257D01*
X837D01*
Y141D01*
X817D01*
Y201D01*
X817Y206D01*
X817Y211D01*
X817Y216D01*
X816Y219D01*
X815Y222D01*
X815Y223D01*
X814Y225D01*
X814Y225D01*
X813Y228D01*
X811Y231D01*
X810Y233D01*
X808Y235D01*
X806Y236D01*
X805Y237D01*
X804Y238D01*
X804Y238D01*
X801Y239D01*
X799Y240D01*
X796Y241D01*
X794Y242D01*
X792Y242D01*
X790Y242D01*
X789D01*
X785Y242D01*
X782Y241D01*
X779Y240D01*
X777Y239D01*
X775Y238D01*
X774Y237D01*
X773Y236D01*
X773Y236D01*
X771Y233D01*
X770Y230D01*
X769Y227D01*
X769Y223D01*
X768Y221D01*
X768Y218D01*
Y217D01*
Y217D01*
Y216D01*
Y216D01*
Y141D01*
X749D01*
Y208D01*
X748Y214D01*
X747Y220D01*
X746Y224D01*
X744Y228D01*
X743Y231D01*
X742Y232D01*
X741Y234D01*
X740Y234D01*
X737Y237D01*
X734Y239D01*
X730Y240D01*
X727Y241D01*
X724Y242D01*
X722Y242D01*
X721Y242D01*
X720D01*
X717Y242D01*
X715Y242D01*
X713Y241D01*
X712Y241D01*
X710Y240D01*
X709Y240D01*
X708Y239D01*
X708Y239D01*
X706Y238D01*
X705Y236D01*
X704Y235D01*
X703Y234D01*
X702Y232D01*
X702Y231D01*
X701Y231D01*
Y231D01*
X700Y228D01*
X700Y226D01*
X700Y223D01*
X699Y220D01*
X699Y218D01*
Y216D01*
Y214D01*
Y214D01*
Y214D01*
Y141D01*
X680D01*
Y220D01*
Y224D01*
X680Y227D01*
X681Y231D01*
X681Y233D01*
X682Y236D01*
X683Y238D01*
X683Y240D01*
X684Y243D01*
X685Y244D01*
X686Y246D01*
X687Y248D01*
X688Y249D01*
X689Y250D01*
X693Y253D01*
X697Y255D01*
X701Y257D01*
X706Y258D01*
X709Y259D01*
X711Y259D01*
X713D01*
X714Y259D01*
X715D01*
X720Y259D01*
X723Y259D01*
X727Y258D01*
X730Y256D01*
X734Y255D01*
X737Y253D01*
X739Y251D01*
X742Y249D01*
X744Y247D01*
X746Y245D01*
X748Y244D01*
X749Y242D01*
X750Y241D01*
X751Y240D01*
X751Y239D01*
X752Y239D01*
X753Y242D01*
X755Y245D01*
X757Y248D01*
X759Y250D01*
X761Y252D01*
X762Y253D01*
X763Y254D01*
X763Y254D01*
X767Y256D01*
X770Y257D01*
X774Y258D01*
X777Y259D01*
X780Y259D01*
X782Y259D01*
X784D01*
X789Y259D01*
D02*
G37*
G36*
X3308Y234D02*
X3286D01*
Y257D01*
X3308D01*
Y234D01*
D02*
G37*
G36*
X2399Y259D02*
X2404Y259D01*
X2408Y258D01*
X2412Y257D01*
X2415Y257D01*
X2418Y256D01*
X2419Y256D01*
X2419Y256D01*
X2419Y255D01*
X2420D01*
X2424Y254D01*
X2427Y252D01*
X2430Y250D01*
X2433Y248D01*
X2434Y246D01*
X2436Y245D01*
X2437Y244D01*
X2437Y244D01*
X2439Y240D01*
X2441Y237D01*
X2442Y234D01*
X2444Y231D01*
X2444Y228D01*
X2445Y226D01*
X2445Y225D01*
Y224D01*
X2446Y224D01*
Y224D01*
X2426Y221D01*
X2425Y225D01*
X2424Y229D01*
X2422Y232D01*
X2421Y234D01*
X2419Y236D01*
X2418Y237D01*
X2417Y238D01*
X2417Y238D01*
X2414Y240D01*
X2411Y241D01*
X2407Y242D01*
X2404Y243D01*
X2401Y243D01*
X2399Y243D01*
X2396D01*
X2391Y243D01*
X2386Y242D01*
X2383Y241D01*
X2379Y240D01*
X2377Y239D01*
X2375Y238D01*
X2374Y237D01*
X2374Y237D01*
X2372Y234D01*
X2371Y232D01*
X2369Y229D01*
X2369Y226D01*
X2368Y224D01*
X2368Y222D01*
Y220D01*
Y220D01*
Y220D01*
Y219D01*
Y218D01*
Y217D01*
X2368Y215D01*
Y215D01*
Y215D01*
X2371Y214D01*
X2373Y213D01*
X2378Y212D01*
X2384Y211D01*
X2390Y209D01*
X2393Y209D01*
X2395Y209D01*
X2398Y208D01*
X2400Y208D01*
X2401Y208D01*
X2402D01*
X2403Y208D01*
X2403D01*
X2408Y207D01*
X2411Y206D01*
X2414Y206D01*
X2416Y206D01*
X2418Y205D01*
X2420Y205D01*
X2421Y205D01*
X2421D01*
X2424Y204D01*
X2426Y203D01*
X2429Y202D01*
X2431Y201D01*
X2433Y200D01*
X2434Y199D01*
X2435Y198D01*
X2435Y198D01*
X2437Y197D01*
X2439Y195D01*
X2441Y193D01*
X2443Y191D01*
X2444Y189D01*
X2445Y188D01*
X2445Y187D01*
X2445Y187D01*
X2447Y184D01*
X2447Y181D01*
X2448Y179D01*
X2449Y176D01*
X2449Y174D01*
X2449Y173D01*
Y172D01*
Y171D01*
X2449Y169D01*
X2449Y166D01*
X2447Y161D01*
X2446Y157D01*
X2444Y154D01*
X2442Y151D01*
X2440Y149D01*
X2439Y148D01*
X2439Y147D01*
X2435Y144D01*
X2430Y142D01*
X2425Y141D01*
X2420Y139D01*
X2416Y139D01*
X2414Y138D01*
X2413D01*
X2411Y138D01*
X2409D01*
X2405Y138D01*
X2401Y139D01*
X2397Y139D01*
X2394Y140D01*
X2392Y141D01*
X2390Y141D01*
X2388Y142D01*
X2388Y142D01*
X2384Y144D01*
X2380Y146D01*
X2377Y148D01*
X2373Y150D01*
X2370Y152D01*
X2368Y154D01*
X2367Y155D01*
X2367Y155D01*
X2366D01*
X2366Y152D01*
X2366Y150D01*
X2365Y147D01*
X2364Y145D01*
X2364Y143D01*
X2363Y142D01*
X2363Y141D01*
X2363Y141D01*
X2342D01*
X2343Y143D01*
X2344Y146D01*
X2345Y148D01*
X2346Y150D01*
X2347Y152D01*
X2347Y153D01*
X2347Y154D01*
Y155D01*
X2347Y156D01*
X2347Y158D01*
Y161D01*
X2348Y163D01*
X2348Y169D01*
Y175D01*
X2348Y180D01*
Y183D01*
Y185D01*
Y187D01*
Y188D01*
Y189D01*
Y189D01*
Y216D01*
Y220D01*
X2348Y224D01*
X2349Y227D01*
Y230D01*
X2349Y231D01*
X2349Y233D01*
X2349Y234D01*
Y234D01*
X2350Y237D01*
X2351Y239D01*
X2352Y241D01*
X2353Y244D01*
X2354Y245D01*
X2355Y246D01*
X2355Y247D01*
X2355Y247D01*
X2357Y249D01*
X2359Y251D01*
X2362Y252D01*
X2364Y253D01*
X2366Y254D01*
X2368Y255D01*
X2369Y256D01*
X2369Y256D01*
X2373Y257D01*
X2377Y258D01*
X2381Y259D01*
X2385Y259D01*
X2388Y259D01*
X2391Y259D01*
X2393D01*
X2399Y259D01*
D02*
G37*
G36*
X1329Y259D02*
X1334Y259D01*
X1338Y258D01*
X1342Y257D01*
X1345Y257D01*
X1347Y256D01*
X1348Y256D01*
X1349Y256D01*
X1349Y255D01*
X1349D01*
X1353Y254D01*
X1357Y252D01*
X1360Y250D01*
X1362Y248D01*
X1364Y246D01*
X1366Y245D01*
X1367Y244D01*
X1367Y244D01*
X1369Y240D01*
X1371Y237D01*
X1372Y234D01*
X1373Y231D01*
X1374Y228D01*
X1375Y226D01*
X1375Y225D01*
Y224D01*
X1375Y224D01*
Y224D01*
X1356Y221D01*
X1355Y225D01*
X1353Y229D01*
X1352Y232D01*
X1350Y234D01*
X1349Y236D01*
X1348Y237D01*
X1347Y238D01*
X1347Y238D01*
X1344Y240D01*
X1341Y241D01*
X1337Y242D01*
X1334Y243D01*
X1331Y243D01*
X1328Y243D01*
X1326D01*
X1321Y243D01*
X1316Y242D01*
X1312Y241D01*
X1309Y240D01*
X1307Y239D01*
X1305Y238D01*
X1304Y237D01*
X1304Y237D01*
X1302Y234D01*
X1300Y232D01*
X1299Y229D01*
X1299Y226D01*
X1298Y224D01*
X1298Y222D01*
Y220D01*
Y220D01*
Y220D01*
Y219D01*
Y218D01*
Y217D01*
X1298Y215D01*
Y215D01*
Y215D01*
X1300Y214D01*
X1303Y213D01*
X1308Y212D01*
X1314Y211D01*
X1320Y209D01*
X1323Y209D01*
X1325Y209D01*
X1327Y208D01*
X1329Y208D01*
X1331Y208D01*
X1332D01*
X1333Y208D01*
X1333D01*
X1337Y207D01*
X1341Y206D01*
X1344Y206D01*
X1346Y206D01*
X1348Y205D01*
X1349Y205D01*
X1350Y205D01*
X1351D01*
X1354Y204D01*
X1356Y203D01*
X1359Y202D01*
X1361Y201D01*
X1363Y200D01*
X1364Y199D01*
X1365Y198D01*
X1365Y198D01*
X1367Y197D01*
X1369Y195D01*
X1371Y193D01*
X1372Y191D01*
X1374Y189D01*
X1374Y188D01*
X1375Y187D01*
X1375Y187D01*
X1376Y184D01*
X1377Y181D01*
X1378Y179D01*
X1378Y176D01*
X1379Y174D01*
X1379Y173D01*
Y172D01*
Y171D01*
X1379Y169D01*
X1378Y166D01*
X1377Y161D01*
X1376Y157D01*
X1374Y154D01*
X1372Y151D01*
X1370Y149D01*
X1369Y148D01*
X1369Y147D01*
X1365Y144D01*
X1360Y142D01*
X1355Y141D01*
X1350Y139D01*
X1346Y139D01*
X1344Y138D01*
X1343D01*
X1341Y138D01*
X1339D01*
X1335Y138D01*
X1331Y139D01*
X1327Y139D01*
X1324Y140D01*
X1321Y141D01*
X1319Y141D01*
X1318Y142D01*
X1318Y142D01*
X1314Y144D01*
X1310Y146D01*
X1306Y148D01*
X1303Y150D01*
X1300Y152D01*
X1298Y154D01*
X1297Y155D01*
X1296Y155D01*
X1296D01*
X1296Y152D01*
X1295Y150D01*
X1295Y147D01*
X1294Y145D01*
X1293Y143D01*
X1293Y142D01*
X1293Y141D01*
X1293Y141D01*
X1272D01*
X1273Y143D01*
X1274Y146D01*
X1275Y148D01*
X1276Y150D01*
X1276Y152D01*
X1277Y153D01*
X1277Y154D01*
Y155D01*
X1277Y156D01*
X1277Y158D01*
Y161D01*
X1278Y163D01*
X1278Y169D01*
Y175D01*
X1278Y180D01*
Y183D01*
Y185D01*
Y187D01*
Y188D01*
Y189D01*
Y189D01*
Y216D01*
Y220D01*
X1278Y224D01*
X1278Y227D01*
Y230D01*
X1279Y231D01*
X1279Y233D01*
X1279Y234D01*
Y234D01*
X1280Y237D01*
X1281Y239D01*
X1282Y241D01*
X1283Y244D01*
X1284Y245D01*
X1284Y246D01*
X1285Y247D01*
X1285Y247D01*
X1287Y249D01*
X1289Y251D01*
X1291Y252D01*
X1294Y253D01*
X1296Y254D01*
X1297Y255D01*
X1299Y256D01*
X1299Y256D01*
X1303Y257D01*
X1307Y258D01*
X1311Y259D01*
X1315Y259D01*
X1318Y259D01*
X1321Y259D01*
X1323D01*
X1329Y259D01*
D02*
G37*
G36*
X545D02*
X550Y259D01*
X554Y258D01*
X558Y257D01*
X561Y257D01*
X563Y256D01*
X564Y256D01*
X565Y256D01*
X565Y255D01*
X566D01*
X569Y254D01*
X573Y252D01*
X576Y250D01*
X578Y248D01*
X580Y246D01*
X582Y245D01*
X583Y244D01*
X583Y244D01*
X585Y240D01*
X587Y237D01*
X588Y234D01*
X589Y231D01*
X590Y228D01*
X591Y226D01*
X591Y225D01*
Y224D01*
X591Y224D01*
Y224D01*
X572Y221D01*
X571Y225D01*
X569Y229D01*
X568Y232D01*
X566Y234D01*
X565Y236D01*
X564Y237D01*
X563Y238D01*
X563Y238D01*
X560Y240D01*
X557Y241D01*
X553Y242D01*
X550Y243D01*
X547Y243D01*
X544Y243D01*
X542D01*
X537Y243D01*
X532Y242D01*
X528Y241D01*
X525Y240D01*
X523Y239D01*
X521Y238D01*
X520Y237D01*
X520Y237D01*
X518Y234D01*
X516Y232D01*
X515Y229D01*
X515Y226D01*
X514Y224D01*
X514Y222D01*
Y220D01*
Y220D01*
Y220D01*
Y219D01*
Y218D01*
Y217D01*
X514Y215D01*
Y215D01*
Y215D01*
X516Y214D01*
X519Y213D01*
X524Y212D01*
X530Y211D01*
X536Y209D01*
X539Y209D01*
X541Y209D01*
X544Y208D01*
X545Y208D01*
X547Y208D01*
X548D01*
X549Y208D01*
X549D01*
X553Y207D01*
X557Y206D01*
X560Y206D01*
X562Y206D01*
X564Y205D01*
X566Y205D01*
X566Y205D01*
X567D01*
X570Y204D01*
X572Y203D01*
X575Y202D01*
X577Y201D01*
X579Y200D01*
X580Y199D01*
X581Y198D01*
X581Y198D01*
X583Y197D01*
X585Y195D01*
X587Y193D01*
X588Y191D01*
X590Y189D01*
X591Y188D01*
X591Y187D01*
X591Y187D01*
X592Y184D01*
X593Y181D01*
X594Y179D01*
X594Y176D01*
X595Y174D01*
X595Y173D01*
Y172D01*
Y171D01*
X595Y169D01*
X594Y166D01*
X593Y161D01*
X592Y157D01*
X590Y154D01*
X588Y151D01*
X586Y149D01*
X585Y148D01*
X585Y147D01*
X581Y144D01*
X576Y142D01*
X571Y141D01*
X566Y139D01*
X562Y139D01*
X560Y138D01*
X559D01*
X557Y138D01*
X555D01*
X551Y138D01*
X547Y139D01*
X543Y139D01*
X540Y140D01*
X538Y141D01*
X535Y141D01*
X534Y142D01*
X534Y142D01*
X530Y144D01*
X526Y146D01*
X522Y148D01*
X519Y150D01*
X516Y152D01*
X514Y154D01*
X513Y155D01*
X513Y155D01*
X512D01*
X512Y152D01*
X511Y150D01*
X511Y147D01*
X510Y145D01*
X510Y143D01*
X509Y142D01*
X509Y141D01*
X509Y141D01*
X488D01*
X489Y143D01*
X490Y146D01*
X491Y148D01*
X492Y150D01*
X492Y152D01*
X493Y153D01*
X493Y154D01*
Y155D01*
X493Y156D01*
X493Y158D01*
Y161D01*
X494Y163D01*
X494Y169D01*
Y175D01*
X494Y180D01*
Y183D01*
Y185D01*
Y187D01*
Y188D01*
Y189D01*
Y189D01*
Y216D01*
Y220D01*
X494Y224D01*
X494Y227D01*
Y230D01*
X495Y231D01*
X495Y233D01*
X495Y234D01*
Y234D01*
X496Y237D01*
X497Y239D01*
X498Y241D01*
X499Y244D01*
X500Y245D01*
X500Y246D01*
X501Y247D01*
X501Y247D01*
X503Y249D01*
X505Y251D01*
X507Y252D01*
X510Y253D01*
X512Y254D01*
X513Y255D01*
X515Y256D01*
X515Y256D01*
X519Y257D01*
X523Y258D01*
X527Y259D01*
X531Y259D01*
X534Y259D01*
X537Y259D01*
X539D01*
X545Y259D01*
D02*
G37*
G36*
X3671Y286D02*
Y257D01*
X3686D01*
Y242D01*
X3671D01*
Y175D01*
Y171D01*
Y169D01*
X3671Y166D01*
X3671Y163D01*
Y161D01*
X3671Y160D01*
X3670Y156D01*
X3670Y154D01*
X3669Y153D01*
X3669Y152D01*
Y151D01*
X3668Y149D01*
X3667Y148D01*
X3665Y146D01*
X3664Y145D01*
X3663Y144D01*
X3662Y143D01*
X3661Y143D01*
X3661Y142D01*
X3658Y141D01*
X3656Y141D01*
X3653Y140D01*
X3650Y140D01*
X3648Y139D01*
X3646Y139D01*
X3644D01*
X3639Y139D01*
X3637Y140D01*
X3634Y140D01*
X3632Y140D01*
X3631Y141D01*
X3630Y141D01*
X3629D01*
X3632Y158D01*
X3634Y158D01*
X3635Y158D01*
X3637D01*
X3638Y157D01*
X3641D01*
X3644Y158D01*
X3646Y158D01*
X3647Y159D01*
X3647Y159D01*
X3649Y160D01*
X3650Y161D01*
X3650Y162D01*
X3651Y163D01*
X3651Y164D01*
X3651Y165D01*
X3651Y169D01*
X3652Y171D01*
Y172D01*
Y173D01*
Y173D01*
Y242D01*
X3632D01*
Y257D01*
X3652D01*
Y297D01*
X3671Y286D01*
D02*
G37*
G36*
X3609D02*
Y257D01*
X3624D01*
Y242D01*
X3609D01*
Y175D01*
Y171D01*
Y169D01*
X3609Y166D01*
X3609Y163D01*
Y161D01*
X3608Y160D01*
X3608Y156D01*
X3607Y154D01*
X3607Y153D01*
X3607Y152D01*
Y151D01*
X3606Y149D01*
X3604Y148D01*
X3603Y146D01*
X3602Y145D01*
X3600Y144D01*
X3600Y143D01*
X3599Y143D01*
X3599Y142D01*
X3596Y141D01*
X3594Y141D01*
X3591Y140D01*
X3588Y140D01*
X3586Y139D01*
X3584Y139D01*
X3582D01*
X3577Y139D01*
X3574Y140D01*
X3572Y140D01*
X3570Y140D01*
X3568Y141D01*
X3567Y141D01*
X3567D01*
X3569Y158D01*
X3571Y158D01*
X3573Y158D01*
X3575D01*
X3576Y157D01*
X3578D01*
X3581Y158D01*
X3583Y158D01*
X3585Y159D01*
X3585Y159D01*
X3587Y160D01*
X3588Y161D01*
X3588Y162D01*
X3588Y163D01*
X3589Y164D01*
X3589Y165D01*
X3589Y169D01*
X3589Y171D01*
Y172D01*
Y173D01*
Y173D01*
Y242D01*
X3569D01*
Y257D01*
X3589D01*
Y297D01*
X3609Y286D01*
D02*
G37*
G36*
X1842Y286D02*
Y257D01*
X1856D01*
Y242D01*
X1842D01*
Y175D01*
Y171D01*
Y169D01*
X1842Y166D01*
X1841Y163D01*
Y161D01*
X1841Y160D01*
X1841Y156D01*
X1840Y154D01*
X1840Y153D01*
X1840Y152D01*
Y151D01*
X1839Y149D01*
X1837Y148D01*
X1836Y146D01*
X1835Y145D01*
X1833Y144D01*
X1832Y143D01*
X1832Y143D01*
X1831Y142D01*
X1829Y141D01*
X1826Y141D01*
X1824Y140D01*
X1821Y140D01*
X1819Y139D01*
X1817Y139D01*
X1815D01*
X1810Y139D01*
X1807Y140D01*
X1805Y140D01*
X1803Y140D01*
X1801Y141D01*
X1800Y141D01*
X1800D01*
X1802Y158D01*
X1804Y158D01*
X1806Y158D01*
X1808D01*
X1809Y157D01*
X1811D01*
X1814Y158D01*
X1816Y158D01*
X1817Y159D01*
X1818Y159D01*
X1819Y160D01*
X1820Y161D01*
X1821Y162D01*
X1821Y163D01*
X1822Y164D01*
X1822Y165D01*
X1822Y169D01*
X1822Y171D01*
Y172D01*
Y173D01*
Y173D01*
Y242D01*
X1802D01*
Y257D01*
X1822D01*
Y297D01*
X1842Y286D01*
D02*
G37*
G36*
X3085Y259D02*
X3090Y258D01*
X3095Y257D01*
X3099Y256D01*
X3103Y255D01*
X3104Y254D01*
X3105Y253D01*
X3106Y253D01*
X3107Y253D01*
X3107Y252D01*
X3108D01*
X3112Y250D01*
X3116Y246D01*
X3119Y243D01*
X3122Y239D01*
X3124Y236D01*
X3125Y234D01*
X3126Y233D01*
X3126Y232D01*
X3127Y231D01*
Y231D01*
X3129Y226D01*
X3130Y220D01*
X3131Y215D01*
X3132Y209D01*
X3132Y207D01*
X3132Y205D01*
Y203D01*
X3133Y202D01*
Y200D01*
Y199D01*
Y199D01*
Y198D01*
X3132Y193D01*
X3132Y188D01*
X3131Y183D01*
X3130Y179D01*
X3129Y175D01*
X3128Y172D01*
X3127Y168D01*
X3125Y165D01*
X3124Y163D01*
X3123Y160D01*
X3121Y158D01*
X3121Y156D01*
X3120Y155D01*
X3119Y154D01*
X3118Y154D01*
X3118Y154D01*
X3115Y151D01*
X3112Y149D01*
X3109Y147D01*
X3106Y145D01*
X3103Y143D01*
X3100Y142D01*
X3094Y140D01*
X3091Y140D01*
X3088Y139D01*
X3086Y139D01*
X3084Y138D01*
X3082Y138D01*
X3080D01*
X3077Y138D01*
X3073Y139D01*
X3067Y140D01*
X3062Y142D01*
X3057Y144D01*
X3055Y145D01*
X3053Y146D01*
X3052Y147D01*
X3050Y148D01*
X3050Y148D01*
X3049Y149D01*
X3048Y149D01*
X3048Y149D01*
X3046Y152D01*
X3044Y154D01*
X3040Y159D01*
X3037Y164D01*
X3035Y169D01*
X3033Y174D01*
X3033Y176D01*
X3032Y178D01*
X3032Y179D01*
X3032Y180D01*
X3032Y181D01*
Y181D01*
X3051Y183D01*
X3052Y178D01*
X3053Y174D01*
X3055Y170D01*
X3057Y167D01*
X3059Y164D01*
X3060Y163D01*
X3061Y162D01*
X3061Y161D01*
X3064Y159D01*
X3067Y157D01*
X3071Y156D01*
X3074Y155D01*
X3076Y155D01*
X3078Y155D01*
X3080Y154D01*
X3080D01*
X3083Y155D01*
X3085Y155D01*
X3090Y156D01*
X3094Y158D01*
X3097Y160D01*
X3100Y162D01*
X3102Y163D01*
X3103Y164D01*
X3104Y165D01*
X3105Y167D01*
X3107Y169D01*
X3109Y175D01*
X3110Y180D01*
X3111Y186D01*
X3112Y191D01*
X3112Y193D01*
Y195D01*
X3112Y197D01*
Y198D01*
Y199D01*
Y199D01*
Y203D01*
X3112Y207D01*
X3112Y211D01*
X3111Y214D01*
X3110Y217D01*
X3109Y220D01*
X3109Y222D01*
X3108Y225D01*
X3107Y226D01*
X3106Y228D01*
X3105Y229D01*
X3105Y231D01*
X3104Y231D01*
X3104Y232D01*
X3103Y232D01*
Y233D01*
X3101Y234D01*
X3100Y236D01*
X3096Y239D01*
X3091Y241D01*
X3088Y242D01*
X3084Y243D01*
X3082Y243D01*
X3081Y243D01*
X3079D01*
X3076Y243D01*
X3072Y242D01*
X3070Y241D01*
X3067Y240D01*
X3065Y239D01*
X3064Y238D01*
X3063Y237D01*
X3062Y237D01*
X3060Y235D01*
X3058Y232D01*
X3056Y229D01*
X3055Y226D01*
X3054Y224D01*
X3053Y222D01*
X3053Y220D01*
X3053Y220D01*
Y220D01*
X3034Y223D01*
X3035Y229D01*
X3037Y234D01*
X3040Y239D01*
X3043Y243D01*
X3045Y246D01*
X3047Y248D01*
X3049Y249D01*
X3049Y250D01*
X3049D01*
X3054Y253D01*
X3059Y255D01*
X3064Y257D01*
X3069Y258D01*
X3073Y259D01*
X3075Y259D01*
X3077D01*
X3078Y259D01*
X3080D01*
X3085Y259D01*
D02*
G37*
G36*
X2200D02*
X2204Y259D01*
X2208Y258D01*
X2212Y257D01*
X2216Y256D01*
X2219Y254D01*
X2222Y253D01*
X2224Y251D01*
X2227Y250D01*
X2229Y248D01*
X2231Y247D01*
X2232Y246D01*
X2233Y245D01*
X2234Y244D01*
X2235Y244D01*
X2235Y243D01*
X2238Y240D01*
X2240Y237D01*
X2242Y233D01*
X2244Y229D01*
X2245Y225D01*
X2246Y222D01*
X2248Y214D01*
X2249Y211D01*
X2249Y208D01*
X2250Y205D01*
X2250Y203D01*
X2250Y200D01*
Y199D01*
Y198D01*
Y198D01*
X2250Y193D01*
X2249Y188D01*
X2249Y183D01*
X2248Y179D01*
X2247Y175D01*
X2245Y171D01*
X2244Y168D01*
X2243Y165D01*
X2241Y163D01*
X2240Y160D01*
X2239Y158D01*
X2238Y157D01*
X2237Y155D01*
X2236Y154D01*
X2235Y154D01*
X2235Y154D01*
X2232Y151D01*
X2229Y149D01*
X2226Y147D01*
X2223Y145D01*
X2219Y143D01*
X2216Y142D01*
X2209Y140D01*
X2206Y140D01*
X2204Y139D01*
X2201Y139D01*
X2199Y138D01*
X2197Y138D01*
X2195D01*
X2188Y139D01*
X2181Y140D01*
X2175Y141D01*
X2173Y142D01*
X2171Y143D01*
X2169Y144D01*
X2167Y145D01*
X2165Y146D01*
X2164Y146D01*
X2163Y147D01*
X2162Y147D01*
X2162Y148D01*
X2162D01*
X2157Y152D01*
X2153Y156D01*
X2150Y161D01*
X2148Y166D01*
X2146Y169D01*
X2145Y171D01*
X2145Y173D01*
X2144Y174D01*
X2144Y175D01*
X2144Y175D01*
Y176D01*
X2164Y178D01*
X2166Y174D01*
X2168Y170D01*
X2170Y167D01*
X2172Y164D01*
X2173Y163D01*
X2175Y161D01*
X2176Y160D01*
X2176Y160D01*
X2179Y158D01*
X2182Y157D01*
X2185Y156D01*
X2188Y155D01*
X2191Y155D01*
X2193Y154D01*
X2195D01*
X2198Y155D01*
X2200Y155D01*
X2205Y156D01*
X2209Y158D01*
X2213Y160D01*
X2215Y161D01*
X2217Y163D01*
X2219Y164D01*
X2219Y164D01*
X2219D01*
X2223Y169D01*
X2225Y173D01*
X2227Y178D01*
X2228Y183D01*
X2229Y187D01*
X2229Y189D01*
X2230Y191D01*
Y192D01*
X2230Y193D01*
Y194D01*
Y194D01*
X2143D01*
X2143Y196D01*
Y198D01*
Y199D01*
Y199D01*
X2143Y204D01*
X2144Y209D01*
X2144Y214D01*
X2145Y218D01*
X2146Y222D01*
X2148Y226D01*
X2149Y229D01*
X2150Y232D01*
X2152Y235D01*
X2153Y237D01*
X2154Y239D01*
X2155Y240D01*
X2156Y242D01*
X2157Y243D01*
X2158Y243D01*
X2158Y244D01*
X2161Y246D01*
X2164Y249D01*
X2167Y251D01*
X2170Y253D01*
X2173Y254D01*
X2176Y256D01*
X2179Y257D01*
X2182Y257D01*
X2185Y258D01*
X2188Y259D01*
X2190Y259D01*
X2192Y259D01*
X2194Y259D01*
X2196D01*
X2200Y259D01*
D02*
G37*
G36*
X1740D02*
X1744Y259D01*
X1748Y258D01*
X1752Y257D01*
X1755Y256D01*
X1758Y254D01*
X1761Y253D01*
X1764Y251D01*
X1766Y250D01*
X1769Y248D01*
X1770Y247D01*
X1772Y246D01*
X1773Y245D01*
X1774Y244D01*
X1774Y244D01*
X1775Y243D01*
X1777Y240D01*
X1779Y237D01*
X1781Y233D01*
X1783Y229D01*
X1785Y225D01*
X1786Y222D01*
X1788Y214D01*
X1788Y211D01*
X1789Y208D01*
X1789Y205D01*
X1789Y203D01*
X1790Y200D01*
Y199D01*
Y198D01*
Y198D01*
X1789Y193D01*
X1789Y188D01*
X1788Y183D01*
X1787Y179D01*
X1786Y175D01*
X1785Y171D01*
X1784Y168D01*
X1782Y165D01*
X1781Y163D01*
X1779Y160D01*
X1778Y158D01*
X1777Y157D01*
X1776Y155D01*
X1775Y154D01*
X1775Y154D01*
X1775Y154D01*
X1772Y151D01*
X1769Y149D01*
X1766Y147D01*
X1762Y145D01*
X1759Y143D01*
X1755Y142D01*
X1749Y140D01*
X1746Y140D01*
X1743Y139D01*
X1741Y139D01*
X1738Y138D01*
X1737Y138D01*
X1734D01*
X1727Y139D01*
X1721Y140D01*
X1715Y141D01*
X1713Y142D01*
X1710Y143D01*
X1708Y144D01*
X1706Y145D01*
X1705Y146D01*
X1704Y146D01*
X1703Y147D01*
X1702Y147D01*
X1701Y148D01*
X1701D01*
X1697Y152D01*
X1693Y156D01*
X1690Y161D01*
X1687Y166D01*
X1685Y169D01*
X1685Y171D01*
X1684Y173D01*
X1684Y174D01*
X1683Y175D01*
X1683Y175D01*
Y176D01*
X1704Y178D01*
X1705Y174D01*
X1707Y170D01*
X1710Y167D01*
X1711Y164D01*
X1713Y163D01*
X1714Y161D01*
X1716Y160D01*
X1716Y160D01*
X1719Y158D01*
X1722Y157D01*
X1725Y156D01*
X1728Y155D01*
X1730Y155D01*
X1732Y154D01*
X1734D01*
X1737Y155D01*
X1740Y155D01*
X1744Y156D01*
X1748Y158D01*
X1752Y160D01*
X1755Y161D01*
X1757Y163D01*
X1758Y164D01*
X1759Y164D01*
X1759D01*
X1762Y169D01*
X1765Y173D01*
X1766Y178D01*
X1768Y183D01*
X1769Y187D01*
X1769Y189D01*
X1769Y191D01*
Y192D01*
X1769Y193D01*
Y194D01*
Y194D01*
X1683D01*
X1682Y196D01*
Y198D01*
Y199D01*
Y199D01*
X1683Y204D01*
X1683Y209D01*
X1684Y214D01*
X1685Y218D01*
X1686Y222D01*
X1687Y226D01*
X1688Y229D01*
X1690Y232D01*
X1691Y235D01*
X1693Y237D01*
X1694Y239D01*
X1695Y240D01*
X1696Y242D01*
X1697Y243D01*
X1697Y243D01*
X1697Y244D01*
X1700Y246D01*
X1703Y249D01*
X1706Y251D01*
X1710Y253D01*
X1713Y254D01*
X1716Y256D01*
X1719Y257D01*
X1722Y257D01*
X1725Y258D01*
X1727Y259D01*
X1730Y259D01*
X1732Y259D01*
X1733Y259D01*
X1735D01*
X1740Y259D01*
D02*
G37*
G36*
X1492Y259D02*
X1498Y258D01*
X1502Y257D01*
X1506Y256D01*
X1510Y255D01*
X1511Y254D01*
X1512Y253D01*
X1513Y253D01*
X1514Y253D01*
X1514Y252D01*
X1515D01*
X1519Y250D01*
X1523Y246D01*
X1526Y243D01*
X1529Y239D01*
X1531Y236D01*
X1533Y234D01*
X1533Y233D01*
X1533Y232D01*
X1534Y231D01*
Y231D01*
X1536Y226D01*
X1537Y220D01*
X1538Y215D01*
X1539Y209D01*
X1539Y207D01*
X1539Y205D01*
Y203D01*
X1540Y202D01*
Y200D01*
Y199D01*
Y199D01*
Y198D01*
X1539Y193D01*
X1539Y188D01*
X1538Y183D01*
X1537Y179D01*
X1536Y175D01*
X1535Y172D01*
X1534Y168D01*
X1533Y165D01*
X1531Y163D01*
X1530Y160D01*
X1529Y158D01*
X1528Y156D01*
X1527Y155D01*
X1526Y154D01*
X1526Y154D01*
X1525Y154D01*
X1523Y151D01*
X1520Y149D01*
X1517Y147D01*
X1513Y145D01*
X1510Y143D01*
X1507Y142D01*
X1501Y140D01*
X1498Y140D01*
X1495Y139D01*
X1493Y139D01*
X1491Y138D01*
X1489Y138D01*
X1487D01*
X1484Y138D01*
X1480Y139D01*
X1474Y140D01*
X1469Y142D01*
X1464Y144D01*
X1462Y145D01*
X1460Y146D01*
X1459Y147D01*
X1458Y148D01*
X1457Y148D01*
X1456Y149D01*
X1455Y149D01*
X1455Y149D01*
X1453Y152D01*
X1451Y154D01*
X1447Y159D01*
X1444Y164D01*
X1442Y169D01*
X1440Y174D01*
X1440Y176D01*
X1439Y178D01*
X1439Y179D01*
X1439Y180D01*
X1439Y181D01*
Y181D01*
X1458Y183D01*
X1459Y178D01*
X1461Y174D01*
X1462Y170D01*
X1464Y167D01*
X1466Y164D01*
X1467Y163D01*
X1468Y162D01*
X1468Y161D01*
X1471Y159D01*
X1474Y157D01*
X1478Y156D01*
X1481Y155D01*
X1483Y155D01*
X1486Y155D01*
X1487Y154D01*
X1487D01*
X1490Y155D01*
X1492Y155D01*
X1497Y156D01*
X1501Y158D01*
X1505Y160D01*
X1507Y162D01*
X1509Y163D01*
X1510Y164D01*
X1511Y165D01*
X1512Y167D01*
X1514Y169D01*
X1516Y175D01*
X1517Y180D01*
X1518Y186D01*
X1519Y191D01*
X1519Y193D01*
Y195D01*
X1520Y197D01*
Y198D01*
Y199D01*
Y199D01*
Y203D01*
X1519Y207D01*
X1519Y211D01*
X1518Y214D01*
X1517Y217D01*
X1517Y220D01*
X1516Y222D01*
X1515Y225D01*
X1514Y226D01*
X1513Y228D01*
X1512Y229D01*
X1512Y231D01*
X1511Y231D01*
X1511Y232D01*
X1510Y232D01*
Y233D01*
X1508Y234D01*
X1507Y236D01*
X1503Y239D01*
X1498Y241D01*
X1495Y242D01*
X1491Y243D01*
X1489Y243D01*
X1488Y243D01*
X1486D01*
X1483Y243D01*
X1480Y242D01*
X1477Y241D01*
X1474Y240D01*
X1472Y239D01*
X1471Y238D01*
X1470Y237D01*
X1470Y237D01*
X1467Y235D01*
X1465Y232D01*
X1463Y229D01*
X1462Y226D01*
X1461Y224D01*
X1460Y222D01*
X1460Y220D01*
X1460Y220D01*
Y220D01*
X1441Y223D01*
X1442Y229D01*
X1445Y234D01*
X1447Y239D01*
X1450Y243D01*
X1452Y246D01*
X1454Y248D01*
X1456Y249D01*
X1456Y250D01*
X1456D01*
X1461Y253D01*
X1466Y255D01*
X1471Y257D01*
X1476Y258D01*
X1480Y259D01*
X1482Y259D01*
X1484D01*
X1485Y259D01*
X1487D01*
X1492Y259D01*
D02*
G37*
G36*
X1032D02*
X1037Y258D01*
X1042Y257D01*
X1046Y256D01*
X1049Y255D01*
X1051Y254D01*
X1052Y253D01*
X1053Y253D01*
X1054Y253D01*
X1054Y252D01*
X1054D01*
X1059Y250D01*
X1063Y246D01*
X1066Y243D01*
X1069Y239D01*
X1071Y236D01*
X1072Y234D01*
X1072Y233D01*
X1073Y232D01*
X1073Y231D01*
Y231D01*
X1075Y226D01*
X1077Y220D01*
X1078Y215D01*
X1079Y209D01*
X1079Y207D01*
X1079Y205D01*
Y203D01*
X1079Y202D01*
Y200D01*
Y199D01*
Y199D01*
Y198D01*
X1079Y193D01*
X1079Y188D01*
X1078Y183D01*
X1077Y179D01*
X1076Y175D01*
X1075Y172D01*
X1073Y168D01*
X1072Y165D01*
X1071Y163D01*
X1069Y160D01*
X1068Y158D01*
X1067Y156D01*
X1066Y155D01*
X1066Y154D01*
X1065Y154D01*
X1065Y154D01*
X1062Y151D01*
X1059Y149D01*
X1056Y147D01*
X1053Y145D01*
X1050Y143D01*
X1047Y142D01*
X1040Y140D01*
X1038Y140D01*
X1035Y139D01*
X1033Y139D01*
X1031Y138D01*
X1029Y138D01*
X1027D01*
X1023Y138D01*
X1020Y139D01*
X1014Y140D01*
X1008Y142D01*
X1004Y144D01*
X1002Y145D01*
X1000Y146D01*
X998Y147D01*
X997Y148D01*
X996Y148D01*
X995Y149D01*
X995Y149D01*
X995Y149D01*
X992Y152D01*
X990Y154D01*
X987Y159D01*
X984Y164D01*
X982Y169D01*
X980Y174D01*
X979Y176D01*
X979Y178D01*
X979Y179D01*
X979Y180D01*
X978Y181D01*
Y181D01*
X998Y183D01*
X999Y178D01*
X1000Y174D01*
X1002Y170D01*
X1004Y167D01*
X1005Y164D01*
X1007Y163D01*
X1007Y162D01*
X1008Y161D01*
X1011Y159D01*
X1014Y157D01*
X1017Y156D01*
X1020Y155D01*
X1023Y155D01*
X1025Y155D01*
X1026Y154D01*
X1027D01*
X1029Y155D01*
X1032Y155D01*
X1037Y156D01*
X1041Y158D01*
X1044Y160D01*
X1047Y162D01*
X1049Y163D01*
X1050Y164D01*
X1050Y165D01*
X1052Y167D01*
X1053Y169D01*
X1055Y175D01*
X1057Y180D01*
X1058Y186D01*
X1059Y191D01*
X1059Y193D01*
Y195D01*
X1059Y197D01*
Y198D01*
Y199D01*
Y199D01*
Y203D01*
X1059Y207D01*
X1058Y211D01*
X1058Y214D01*
X1057Y217D01*
X1056Y220D01*
X1055Y222D01*
X1054Y225D01*
X1054Y226D01*
X1053Y228D01*
X1052Y229D01*
X1051Y231D01*
X1051Y231D01*
X1050Y232D01*
X1050Y232D01*
Y233D01*
X1048Y234D01*
X1046Y236D01*
X1042Y239D01*
X1038Y241D01*
X1034Y242D01*
X1031Y243D01*
X1028Y243D01*
X1027Y243D01*
X1026D01*
X1022Y243D01*
X1019Y242D01*
X1016Y241D01*
X1014Y240D01*
X1012Y239D01*
X1010Y238D01*
X1009Y237D01*
X1009Y237D01*
X1007Y235D01*
X1005Y232D01*
X1003Y229D01*
X1002Y226D01*
X1001Y224D01*
X1000Y222D01*
X1000Y220D01*
X999Y220D01*
Y220D01*
X980Y223D01*
X982Y229D01*
X984Y234D01*
X987Y239D01*
X989Y243D01*
X992Y246D01*
X994Y248D01*
X995Y249D01*
X995Y250D01*
X996D01*
X1001Y253D01*
X1006Y255D01*
X1011Y257D01*
X1016Y258D01*
X1020Y259D01*
X1022Y259D01*
X1023D01*
X1025Y259D01*
X1026D01*
X1032Y259D01*
D02*
G37*
G36*
X3308Y141D02*
X3286D01*
Y163D01*
X3308D01*
Y141D01*
D02*
G37*
G36*
X2850Y259D02*
X2853Y259D01*
X2855Y258D01*
X2857Y257D01*
X2858Y257D01*
X2860Y256D01*
X2860Y256D01*
X2860Y255D01*
X2863Y253D01*
X2865Y251D01*
X2867Y248D01*
X2869Y246D01*
X2870Y243D01*
X2872Y241D01*
X2873Y240D01*
X2873Y239D01*
Y257D01*
X2891D01*
Y141D01*
X2871D01*
Y201D01*
X2871Y206D01*
X2870Y210D01*
X2870Y214D01*
X2869Y218D01*
X2869Y220D01*
X2868Y222D01*
X2868Y224D01*
X2868Y224D01*
X2867Y227D01*
X2866Y229D01*
X2864Y231D01*
X2863Y232D01*
X2862Y234D01*
X2861Y234D01*
X2861Y235D01*
X2860Y235D01*
X2859Y237D01*
X2857Y237D01*
X2854Y238D01*
X2853Y239D01*
X2851Y239D01*
X2850Y239D01*
X2849D01*
X2846Y239D01*
X2844Y238D01*
X2841Y238D01*
X2839Y237D01*
X2837Y236D01*
X2836Y236D01*
X2835Y235D01*
X2835Y235D01*
X2828Y253D01*
X2832Y255D01*
X2835Y257D01*
X2838Y258D01*
X2842Y259D01*
X2844Y259D01*
X2846Y259D01*
X2848D01*
X2850Y259D01*
D02*
G37*
G36*
X2278D02*
X2280Y259D01*
X2282Y258D01*
X2284Y257D01*
X2286Y257D01*
X2287Y256D01*
X2288Y256D01*
X2288Y255D01*
X2290Y253D01*
X2292Y251D01*
X2294Y248D01*
X2296Y246D01*
X2298Y243D01*
X2299Y241D01*
X2300Y240D01*
X2300Y239D01*
Y257D01*
X2318D01*
Y141D01*
X2298D01*
Y201D01*
X2298Y206D01*
X2298Y210D01*
X2297Y214D01*
X2297Y218D01*
X2296Y220D01*
X2296Y222D01*
X2295Y224D01*
X2295Y224D01*
X2294Y227D01*
X2293Y229D01*
X2292Y231D01*
X2291Y232D01*
X2290Y234D01*
X2289Y234D01*
X2288Y235D01*
X2288Y235D01*
X2286Y237D01*
X2284Y237D01*
X2282Y238D01*
X2280Y239D01*
X2279Y239D01*
X2278Y239D01*
X2276D01*
X2274Y239D01*
X2271Y238D01*
X2269Y238D01*
X2267Y237D01*
X2265Y236D01*
X2263Y236D01*
X2263Y235D01*
X2262Y235D01*
X2255Y253D01*
X2259Y255D01*
X2263Y257D01*
X2266Y258D01*
X2269Y259D01*
X2272Y259D01*
X2274Y259D01*
X2275D01*
X2278Y259D01*
D02*
G37*
G36*
X2007Y141D02*
X1987D01*
Y257D01*
X2007D01*
Y141D01*
D02*
G37*
G36*
X1608Y259D02*
X1613Y259D01*
X1616Y258D01*
X1620Y256D01*
X1623Y255D01*
X1626Y253D01*
X1629Y252D01*
X1631Y250D01*
X1634Y248D01*
X1635Y246D01*
X1637Y245D01*
X1638Y243D01*
X1639Y242D01*
X1640Y241D01*
X1641Y240D01*
X1641Y240D01*
Y257D01*
X1658Y257D01*
Y141D01*
X1639Y141D01*
Y204D01*
Y208D01*
X1638Y212D01*
X1638Y215D01*
X1637Y218D01*
X1637Y221D01*
X1636Y223D01*
X1635Y226D01*
X1634Y228D01*
X1633Y229D01*
X1632Y231D01*
X1632Y232D01*
X1631Y233D01*
X1630Y234D01*
X1630Y234D01*
X1626Y237D01*
X1623Y239D01*
X1619Y240D01*
X1616Y241D01*
X1613Y242D01*
X1610Y242D01*
X1609Y242D01*
X1608D01*
X1605Y242D01*
X1603Y242D01*
X1600Y241D01*
X1598Y240D01*
X1597Y240D01*
X1595Y239D01*
X1595Y239D01*
X1595Y239D01*
X1592Y237D01*
X1591Y236D01*
X1589Y234D01*
X1588Y233D01*
X1587Y231D01*
X1587Y230D01*
X1586Y229D01*
Y229D01*
X1585Y227D01*
X1585Y224D01*
X1584Y221D01*
X1584Y218D01*
X1584Y215D01*
Y213D01*
Y212D01*
Y211D01*
Y211D01*
Y141D01*
X1564D01*
Y212D01*
Y217D01*
X1564Y221D01*
X1565Y224D01*
Y227D01*
X1565Y229D01*
X1565Y230D01*
X1565Y231D01*
Y231D01*
X1566Y234D01*
X1567Y237D01*
X1568Y239D01*
X1569Y242D01*
X1570Y243D01*
X1571Y244D01*
X1571Y245D01*
X1572Y246D01*
X1573Y248D01*
X1576Y250D01*
X1578Y252D01*
X1580Y253D01*
X1582Y254D01*
X1583Y255D01*
X1584Y255D01*
X1585Y256D01*
X1588Y257D01*
X1592Y258D01*
X1595Y259D01*
X1598Y259D01*
X1600Y259D01*
X1602Y259D01*
X1604D01*
X1608Y259D01*
D02*
G37*
G36*
X1422Y141D02*
X1402D01*
Y257D01*
X1422D01*
Y141D01*
D02*
G37*
G36*
X1130D02*
X1108D01*
Y163D01*
X1130D01*
Y141D01*
D02*
G37*
G36*
X645D02*
X622D01*
Y163D01*
X645D01*
Y141D01*
D02*
G37*
G36*
X424Y259D02*
X426Y259D01*
X428Y258D01*
X430Y257D01*
X432Y257D01*
X433Y256D01*
X434Y256D01*
X434Y255D01*
X436Y253D01*
X438Y251D01*
X440Y248D01*
X442Y246D01*
X444Y243D01*
X445Y241D01*
X446Y240D01*
X446Y239D01*
Y257D01*
X464D01*
Y141D01*
X444D01*
Y201D01*
X444Y206D01*
X444Y210D01*
X443Y214D01*
X443Y218D01*
X442Y220D01*
X441Y222D01*
X441Y224D01*
X441Y224D01*
X440Y227D01*
X439Y229D01*
X438Y231D01*
X437Y232D01*
X435Y234D01*
X435Y234D01*
X434Y235D01*
X434Y235D01*
X432Y237D01*
X430Y237D01*
X428Y238D01*
X426Y239D01*
X425Y239D01*
X423Y239D01*
X422D01*
X420Y239D01*
X417Y238D01*
X415Y238D01*
X413Y237D01*
X411Y236D01*
X409Y236D01*
X408Y235D01*
X408Y235D01*
X401Y253D01*
X405Y255D01*
X409Y257D01*
X412Y258D01*
X415Y259D01*
X417Y259D01*
X420Y259D01*
X421D01*
X424Y259D01*
D02*
G37*
G36*
X3394Y259D02*
X3397Y259D01*
X3399Y258D01*
X3401Y258D01*
X3403Y257D01*
X3404Y257D01*
X3404Y257D01*
X3407Y256D01*
X3410Y255D01*
X3412Y254D01*
X3414Y253D01*
X3415Y253D01*
X3416Y252D01*
X3417Y252D01*
X3417Y251D01*
X3419Y250D01*
X3421Y248D01*
X3423Y246D01*
X3424Y244D01*
X3425Y243D01*
X3426Y241D01*
X3426Y240D01*
X3427Y240D01*
X3428Y238D01*
X3429Y235D01*
X3429Y233D01*
X3430Y231D01*
X3430Y229D01*
X3430Y227D01*
Y226D01*
Y226D01*
X3430Y223D01*
X3429Y220D01*
X3429Y217D01*
X3428Y215D01*
X3427Y213D01*
X3427Y211D01*
X3426Y210D01*
X3426Y210D01*
X3424Y208D01*
X3422Y206D01*
X3420Y204D01*
X3418Y202D01*
X3416Y201D01*
X3415Y200D01*
X3414Y200D01*
X3413Y199D01*
X3412Y199D01*
X3410Y198D01*
X3405Y196D01*
X3400Y195D01*
X3395Y193D01*
X3391Y192D01*
X3389Y191D01*
X3387Y191D01*
X3385Y190D01*
X3384Y190D01*
X3383Y190D01*
X3383D01*
X3380Y189D01*
X3378Y188D01*
X3375Y188D01*
X3373Y187D01*
X3371Y187D01*
X3370Y186D01*
X3367Y185D01*
X3365Y184D01*
X3364Y184D01*
X3363Y183D01*
X3363Y183D01*
X3361Y182D01*
X3360Y180D01*
X3358Y178D01*
X3358Y177D01*
X3357Y175D01*
X3357Y174D01*
Y173D01*
Y173D01*
X3357Y170D01*
X3358Y168D01*
X3359Y165D01*
X3360Y163D01*
X3362Y162D01*
X3363Y161D01*
X3364Y160D01*
X3364Y160D01*
X3367Y158D01*
X3370Y157D01*
X3373Y156D01*
X3376Y155D01*
X3379Y155D01*
X3382Y154D01*
X3384D01*
X3389Y155D01*
X3393Y155D01*
X3396Y156D01*
X3399Y157D01*
X3402Y159D01*
X3404Y160D01*
X3404Y160D01*
X3405Y160D01*
X3407Y163D01*
X3410Y166D01*
X3411Y169D01*
X3412Y172D01*
X3413Y174D01*
X3414Y177D01*
X3414Y178D01*
Y178D01*
Y178D01*
X3433Y175D01*
X3432Y169D01*
X3430Y163D01*
X3427Y159D01*
X3425Y155D01*
X3422Y151D01*
X3420Y149D01*
X3419Y148D01*
X3419Y148D01*
X3418Y147D01*
X3416Y146D01*
X3414Y144D01*
X3408Y142D01*
X3402Y141D01*
X3397Y139D01*
X3394Y139D01*
X3392Y139D01*
X3389Y138D01*
X3388D01*
X3386Y138D01*
X3384D01*
X3379Y138D01*
X3374Y139D01*
X3370Y140D01*
X3367Y141D01*
X3364Y141D01*
X3361Y142D01*
X3360Y143D01*
X3360Y143D01*
X3359D01*
X3355Y145D01*
X3352Y147D01*
X3349Y149D01*
X3347Y151D01*
X3345Y153D01*
X3344Y155D01*
X3343Y156D01*
X3343Y156D01*
X3341Y160D01*
X3339Y163D01*
X3338Y166D01*
X3338Y169D01*
X3337Y171D01*
X3337Y173D01*
Y174D01*
Y175D01*
X3337Y178D01*
X3338Y182D01*
X3339Y184D01*
X3339Y187D01*
X3340Y189D01*
X3341Y191D01*
X3342Y191D01*
X3342Y192D01*
X3344Y194D01*
X3346Y196D01*
X3348Y198D01*
X3350Y199D01*
X3352Y200D01*
X3353Y201D01*
X3354Y202D01*
X3355Y202D01*
X3356Y203D01*
X3358Y203D01*
X3363Y205D01*
X3367Y206D01*
X3372Y208D01*
X3377Y209D01*
X3379Y210D01*
X3380Y210D01*
X3382Y211D01*
X3383Y211D01*
X3384Y211D01*
X3384D01*
X3386Y212D01*
X3389Y212D01*
X3391Y213D01*
X3393Y214D01*
X3396Y214D01*
X3398Y215D01*
X3400Y216D01*
X3401Y216D01*
X3401Y216D01*
X3401D01*
X3403Y217D01*
X3405Y218D01*
X3406Y219D01*
X3407Y219D01*
X3408Y220D01*
X3408Y221D01*
X3409Y221D01*
X3409Y221D01*
X3410Y224D01*
X3411Y226D01*
Y227D01*
X3411Y228D01*
Y228D01*
Y228D01*
X3411Y230D01*
X3410Y232D01*
X3409Y234D01*
X3408Y236D01*
X3407Y237D01*
X3406Y238D01*
X3406Y238D01*
X3405Y239D01*
X3403Y240D01*
X3400Y241D01*
X3397Y242D01*
X3394Y243D01*
X3391Y243D01*
X3388Y243D01*
X3386D01*
X3382Y243D01*
X3378Y243D01*
X3375Y242D01*
X3373Y241D01*
X3371Y240D01*
X3370Y239D01*
X3369Y238D01*
X3368Y238D01*
X3366Y236D01*
X3364Y234D01*
X3363Y231D01*
X3362Y229D01*
X3361Y227D01*
X3361Y226D01*
X3361Y225D01*
Y224D01*
X3341Y227D01*
X3342Y231D01*
X3343Y234D01*
X3344Y237D01*
X3345Y240D01*
X3347Y242D01*
X3348Y244D01*
X3348Y244D01*
X3348Y245D01*
X3350Y247D01*
X3353Y249D01*
X3355Y251D01*
X3358Y253D01*
X3360Y254D01*
X3362Y255D01*
X3363Y255D01*
X3363Y255D01*
X3364D01*
X3367Y257D01*
X3372Y258D01*
X3376Y259D01*
X3379Y259D01*
X3383Y259D01*
X3385Y259D01*
X3391D01*
X3394Y259D01*
D02*
G37*
G36*
X2972Y259D02*
X2975Y259D01*
X2983Y257D01*
X2989Y255D01*
X2992Y254D01*
X2994Y253D01*
X2997Y252D01*
X2998Y251D01*
X3000Y250D01*
X3002Y249D01*
X3003Y248D01*
X3004Y247D01*
X3004Y247D01*
X3004Y247D01*
X3008Y244D01*
X3010Y240D01*
X3013Y236D01*
X3015Y233D01*
X3016Y229D01*
X3018Y225D01*
X3019Y221D01*
X3020Y217D01*
X3021Y213D01*
X3021Y210D01*
X3022Y207D01*
X3022Y204D01*
Y202D01*
X3022Y200D01*
Y199D01*
Y199D01*
X3022Y194D01*
X3022Y188D01*
X3021Y184D01*
X3020Y179D01*
X3019Y175D01*
X3018Y172D01*
X3016Y168D01*
X3015Y165D01*
X3013Y163D01*
X3012Y160D01*
X3011Y158D01*
X3010Y157D01*
X3009Y155D01*
X3008Y154D01*
X3008Y154D01*
X3007Y154D01*
X3004Y151D01*
X3001Y149D01*
X2998Y147D01*
X2995Y145D01*
X2992Y143D01*
X2988Y142D01*
X2982Y140D01*
X2979Y140D01*
X2976Y139D01*
X2974Y139D01*
X2972Y138D01*
X2970Y138D01*
X2968D01*
X2962Y138D01*
X2957Y139D01*
X2952Y141D01*
X2948Y142D01*
X2945Y143D01*
X2944Y144D01*
X2942Y144D01*
X2941Y144D01*
X2941Y145D01*
X2940Y145D01*
X2940D01*
X2935Y148D01*
X2932Y151D01*
X2928Y155D01*
X2925Y158D01*
X2923Y161D01*
X2922Y163D01*
X2921Y164D01*
X2921Y165D01*
X2920Y165D01*
Y165D01*
X2918Y170D01*
X2916Y176D01*
X2915Y182D01*
X2914Y188D01*
X2914Y190D01*
Y193D01*
X2914Y195D01*
X2913Y197D01*
Y198D01*
Y200D01*
Y200D01*
Y200D01*
X2914Y206D01*
X2914Y210D01*
X2915Y215D01*
X2916Y219D01*
X2917Y223D01*
X2918Y226D01*
X2920Y230D01*
X2921Y232D01*
X2922Y235D01*
X2924Y237D01*
X2925Y239D01*
X2926Y241D01*
X2927Y242D01*
X2928Y243D01*
X2929Y244D01*
X2929Y244D01*
X2932Y247D01*
X2935Y249D01*
X2938Y251D01*
X2941Y253D01*
X2944Y254D01*
X2948Y256D01*
X2954Y258D01*
X2957Y258D01*
X2960Y259D01*
X2962Y259D01*
X2964Y259D01*
X2966Y259D01*
X2968D01*
X2972Y259D01*
D02*
G37*
G36*
X2742Y244D02*
X2744Y246D01*
X2747Y248D01*
X2749Y250D01*
X2751Y252D01*
X2753Y253D01*
X2754Y254D01*
X2755Y255D01*
X2756Y255D01*
X2759Y256D01*
X2762Y258D01*
X2765Y258D01*
X2768Y259D01*
X2771Y259D01*
X2773Y259D01*
X2774D01*
X2779Y259D01*
X2784Y258D01*
X2789Y257D01*
X2792Y256D01*
X2796Y254D01*
X2798Y253D01*
X2799Y253D01*
X2800Y252D01*
X2800Y252D01*
X2800D01*
X2804Y249D01*
X2808Y245D01*
X2811Y242D01*
X2813Y238D01*
X2815Y235D01*
X2816Y232D01*
X2817Y231D01*
X2817Y231D01*
X2817Y230D01*
Y230D01*
X2819Y225D01*
X2821Y219D01*
X2822Y214D01*
X2823Y209D01*
X2823Y205D01*
Y203D01*
X2823Y202D01*
Y200D01*
Y199D01*
Y199D01*
Y199D01*
X2823Y192D01*
X2822Y186D01*
X2821Y181D01*
X2820Y176D01*
X2820Y174D01*
X2819Y172D01*
X2818Y171D01*
X2818Y169D01*
X2817Y169D01*
X2817Y168D01*
X2817Y167D01*
Y167D01*
X2814Y162D01*
X2811Y158D01*
X2808Y154D01*
X2805Y151D01*
X2803Y149D01*
X2801Y147D01*
X2799Y146D01*
X2799Y146D01*
X2799D01*
X2795Y143D01*
X2790Y141D01*
X2786Y140D01*
X2782Y139D01*
X2779Y139D01*
X2776Y138D01*
X2775Y138D01*
X2773D01*
X2770Y138D01*
X2766Y139D01*
X2762Y140D01*
X2759Y141D01*
X2756Y142D01*
X2754Y144D01*
X2751Y145D01*
X2749Y147D01*
X2747Y148D01*
X2745Y150D01*
X2744Y151D01*
X2743Y153D01*
X2742Y154D01*
X2741Y155D01*
X2741Y155D01*
X2741Y155D01*
Y141D01*
X2723D01*
Y301D01*
X2742D01*
Y244D01*
D02*
G37*
G36*
X2648Y259D02*
X2652Y259D01*
X2659Y257D01*
X2665Y255D01*
X2668Y254D01*
X2671Y253D01*
X2673Y252D01*
X2675Y251D01*
X2677Y250D01*
X2678Y249D01*
X2679Y248D01*
X2680Y247D01*
X2681Y247D01*
X2681Y247D01*
X2684Y244D01*
X2687Y240D01*
X2689Y236D01*
X2691Y233D01*
X2693Y229D01*
X2694Y225D01*
X2695Y221D01*
X2696Y217D01*
X2697Y213D01*
X2698Y210D01*
X2698Y207D01*
X2699Y204D01*
Y202D01*
X2699Y200D01*
Y199D01*
Y199D01*
X2699Y194D01*
X2698Y188D01*
X2697Y184D01*
X2696Y179D01*
X2695Y175D01*
X2694Y172D01*
X2693Y168D01*
X2691Y165D01*
X2690Y163D01*
X2689Y160D01*
X2687Y158D01*
X2686Y157D01*
X2685Y155D01*
X2685Y154D01*
X2684Y154D01*
X2684Y154D01*
X2681Y151D01*
X2678Y149D01*
X2675Y147D01*
X2671Y145D01*
X2668Y143D01*
X2665Y142D01*
X2658Y140D01*
X2656Y140D01*
X2653Y139D01*
X2651Y139D01*
X2649Y138D01*
X2647Y138D01*
X2644D01*
X2639Y138D01*
X2634Y139D01*
X2629Y141D01*
X2625Y142D01*
X2621Y143D01*
X2620Y144D01*
X2619Y144D01*
X2618Y144D01*
X2617Y145D01*
X2617Y145D01*
X2617D01*
X2612Y148D01*
X2608Y151D01*
X2605Y155D01*
X2602Y158D01*
X2600Y161D01*
X2598Y163D01*
X2598Y164D01*
X2597Y165D01*
X2597Y165D01*
Y165D01*
X2595Y170D01*
X2593Y176D01*
X2592Y182D01*
X2591Y188D01*
X2590Y190D01*
Y193D01*
X2590Y195D01*
X2590Y197D01*
Y198D01*
Y200D01*
Y200D01*
Y200D01*
X2590Y206D01*
X2591Y210D01*
X2591Y215D01*
X2592Y219D01*
X2593Y223D01*
X2595Y226D01*
X2596Y230D01*
X2598Y232D01*
X2599Y235D01*
X2600Y237D01*
X2602Y239D01*
X2603Y241D01*
X2604Y242D01*
X2605Y243D01*
X2605Y244D01*
X2605Y244D01*
X2608Y247D01*
X2611Y249D01*
X2615Y251D01*
X2618Y253D01*
X2621Y254D01*
X2624Y256D01*
X2630Y258D01*
X2633Y258D01*
X2636Y259D01*
X2638Y259D01*
X2640Y259D01*
X2642Y259D01*
X2644D01*
X2648Y259D01*
D02*
G37*
G36*
X2087Y259D02*
X2090Y259D01*
X2093Y258D01*
X2095Y258D01*
X2096Y257D01*
X2097Y257D01*
X2098Y257D01*
X2101Y256D01*
X2103Y255D01*
X2105Y254D01*
X2107Y253D01*
X2108Y253D01*
X2109Y252D01*
X2110Y252D01*
X2110Y251D01*
X2113Y250D01*
X2114Y248D01*
X2116Y246D01*
X2117Y244D01*
X2119Y243D01*
X2119Y241D01*
X2120Y240D01*
X2120Y240D01*
X2121Y238D01*
X2122Y235D01*
X2123Y233D01*
X2123Y231D01*
X2123Y229D01*
X2123Y227D01*
Y226D01*
Y226D01*
X2123Y223D01*
X2123Y220D01*
X2122Y217D01*
X2121Y215D01*
X2121Y213D01*
X2120Y211D01*
X2120Y210D01*
X2119Y210D01*
X2117Y208D01*
X2115Y206D01*
X2113Y204D01*
X2111Y202D01*
X2109Y201D01*
X2108Y200D01*
X2107Y200D01*
X2107Y199D01*
X2105Y199D01*
X2103Y198D01*
X2098Y196D01*
X2093Y195D01*
X2088Y193D01*
X2084Y192D01*
X2082Y191D01*
X2080Y191D01*
X2079Y190D01*
X2077Y190D01*
X2077Y190D01*
X2077D01*
X2074Y189D01*
X2071Y188D01*
X2069Y188D01*
X2067Y187D01*
X2065Y187D01*
X2063Y186D01*
X2060Y185D01*
X2058Y184D01*
X2057Y184D01*
X2057Y183D01*
X2056Y183D01*
X2054Y182D01*
X2053Y180D01*
X2052Y178D01*
X2051Y177D01*
X2051Y175D01*
X2050Y174D01*
Y173D01*
Y173D01*
X2051Y170D01*
X2051Y168D01*
X2052Y165D01*
X2054Y163D01*
X2055Y162D01*
X2056Y161D01*
X2057Y160D01*
X2057Y160D01*
X2060Y158D01*
X2063Y157D01*
X2066Y156D01*
X2070Y155D01*
X2073Y155D01*
X2075Y154D01*
X2077D01*
X2082Y155D01*
X2086Y155D01*
X2090Y156D01*
X2093Y157D01*
X2095Y159D01*
X2097Y160D01*
X2098Y160D01*
X2098Y160D01*
X2101Y163D01*
X2103Y166D01*
X2104Y169D01*
X2105Y172D01*
X2106Y174D01*
X2107Y177D01*
X2107Y178D01*
Y178D01*
Y178D01*
X2127Y175D01*
X2125Y169D01*
X2123Y163D01*
X2120Y159D01*
X2118Y155D01*
X2116Y151D01*
X2114Y149D01*
X2112Y148D01*
X2112Y148D01*
X2112Y147D01*
X2109Y146D01*
X2107Y144D01*
X2101Y142D01*
X2095Y141D01*
X2090Y139D01*
X2087Y139D01*
X2085Y139D01*
X2083Y138D01*
X2081D01*
X2079Y138D01*
X2077D01*
X2072Y138D01*
X2068Y139D01*
X2064Y140D01*
X2060Y141D01*
X2057Y141D01*
X2055Y142D01*
X2053Y143D01*
X2053Y143D01*
X2053D01*
X2049Y145D01*
X2046Y147D01*
X2043Y149D01*
X2040Y151D01*
X2038Y153D01*
X2037Y155D01*
X2036Y156D01*
X2036Y156D01*
X2034Y160D01*
X2033Y163D01*
X2032Y166D01*
X2031Y169D01*
X2030Y171D01*
X2030Y173D01*
Y174D01*
Y175D01*
X2030Y178D01*
X2031Y182D01*
X2032Y184D01*
X2033Y187D01*
X2033Y189D01*
X2034Y191D01*
X2035Y191D01*
X2035Y192D01*
X2037Y194D01*
X2039Y196D01*
X2041Y198D01*
X2043Y199D01*
X2045Y200D01*
X2047Y201D01*
X2048Y202D01*
X2048Y202D01*
X2050Y203D01*
X2052Y203D01*
X2056Y205D01*
X2061Y206D01*
X2066Y208D01*
X2070Y209D01*
X2072Y210D01*
X2074Y210D01*
X2075Y211D01*
X2076Y211D01*
X2077Y211D01*
X2077D01*
X2080Y212D01*
X2082Y212D01*
X2084Y213D01*
X2086Y214D01*
X2089Y214D01*
X2091Y215D01*
X2093Y216D01*
X2094Y216D01*
X2094Y216D01*
X2095D01*
X2096Y217D01*
X2098Y218D01*
X2099Y219D01*
X2100Y219D01*
X2101Y220D01*
X2102Y221D01*
X2102Y221D01*
X2102Y221D01*
X2104Y224D01*
X2104Y226D01*
Y227D01*
X2105Y228D01*
Y228D01*
Y228D01*
X2104Y230D01*
X2104Y232D01*
X2103Y234D01*
X2102Y236D01*
X2101Y237D01*
X2100Y238D01*
X2099Y238D01*
X2099Y239D01*
X2096Y240D01*
X2093Y241D01*
X2090Y242D01*
X2087Y243D01*
X2084Y243D01*
X2082Y243D01*
X2079D01*
X2075Y243D01*
X2072Y243D01*
X2069Y242D01*
X2066Y241D01*
X2064Y240D01*
X2063Y239D01*
X2062Y238D01*
X2062Y238D01*
X2059Y236D01*
X2058Y234D01*
X2056Y231D01*
X2055Y229D01*
X2055Y227D01*
X2054Y226D01*
X2054Y225D01*
Y224D01*
X2035Y227D01*
X2036Y231D01*
X2036Y234D01*
X2038Y237D01*
X2039Y240D01*
X2040Y242D01*
X2041Y244D01*
X2041Y244D01*
X2042Y245D01*
X2044Y247D01*
X2046Y249D01*
X2049Y251D01*
X2051Y253D01*
X2053Y254D01*
X2055Y255D01*
X2056Y255D01*
X2057Y255D01*
X2057D01*
X2061Y257D01*
X2065Y258D01*
X2069Y259D01*
X2073Y259D01*
X2076Y259D01*
X2079Y259D01*
X2084D01*
X2087Y259D01*
D02*
G37*
G36*
X1926D02*
X1928Y259D01*
X1931Y258D01*
X1933Y258D01*
X1935Y257D01*
X1936Y257D01*
X1936Y257D01*
X1939Y256D01*
X1941Y255D01*
X1943Y254D01*
X1945Y253D01*
X1947Y253D01*
X1948Y252D01*
X1948Y252D01*
X1949Y251D01*
X1951Y250D01*
X1953Y248D01*
X1954Y246D01*
X1956Y244D01*
X1957Y243D01*
X1958Y241D01*
X1958Y240D01*
X1958Y240D01*
X1959Y238D01*
X1960Y235D01*
X1961Y233D01*
X1961Y231D01*
X1962Y229D01*
X1962Y227D01*
Y226D01*
Y226D01*
X1962Y223D01*
X1961Y220D01*
X1960Y217D01*
X1960Y215D01*
X1959Y213D01*
X1958Y211D01*
X1958Y210D01*
X1958Y210D01*
X1956Y208D01*
X1954Y206D01*
X1952Y204D01*
X1949Y202D01*
X1948Y201D01*
X1946Y200D01*
X1945Y200D01*
X1945Y199D01*
X1943Y199D01*
X1941Y198D01*
X1937Y196D01*
X1932Y195D01*
X1927Y193D01*
X1922Y192D01*
X1920Y191D01*
X1918Y191D01*
X1917Y190D01*
X1916Y190D01*
X1915Y190D01*
X1915D01*
X1912Y189D01*
X1909Y188D01*
X1907Y188D01*
X1905Y187D01*
X1903Y187D01*
X1901Y186D01*
X1899Y185D01*
X1897Y184D01*
X1896Y184D01*
X1895Y183D01*
X1895Y183D01*
X1893Y182D01*
X1891Y180D01*
X1890Y178D01*
X1889Y177D01*
X1889Y175D01*
X1889Y174D01*
Y173D01*
Y173D01*
X1889Y170D01*
X1890Y168D01*
X1891Y165D01*
X1892Y163D01*
X1893Y162D01*
X1894Y161D01*
X1895Y160D01*
X1895Y160D01*
X1898Y158D01*
X1901Y157D01*
X1905Y156D01*
X1908Y155D01*
X1911Y155D01*
X1913Y154D01*
X1915D01*
X1920Y155D01*
X1924Y155D01*
X1928Y156D01*
X1931Y157D01*
X1933Y159D01*
X1935Y160D01*
X1936Y160D01*
X1937Y160D01*
X1939Y163D01*
X1941Y166D01*
X1943Y169D01*
X1944Y172D01*
X1945Y174D01*
X1945Y177D01*
X1946Y178D01*
Y178D01*
Y178D01*
X1965Y175D01*
X1963Y169D01*
X1961Y163D01*
X1959Y159D01*
X1956Y155D01*
X1954Y151D01*
X1952Y149D01*
X1950Y148D01*
X1950Y148D01*
X1950Y147D01*
X1948Y146D01*
X1945Y144D01*
X1940Y142D01*
X1934Y141D01*
X1928Y139D01*
X1926Y139D01*
X1923Y139D01*
X1921Y138D01*
X1919D01*
X1918Y138D01*
X1915D01*
X1910Y138D01*
X1906Y139D01*
X1902Y140D01*
X1898Y141D01*
X1895Y141D01*
X1893Y142D01*
X1891Y143D01*
X1891Y143D01*
X1891D01*
X1887Y145D01*
X1884Y147D01*
X1881Y149D01*
X1878Y151D01*
X1877Y153D01*
X1875Y155D01*
X1875Y156D01*
X1874Y156D01*
X1872Y160D01*
X1871Y163D01*
X1870Y166D01*
X1869Y169D01*
X1869Y171D01*
X1868Y173D01*
Y174D01*
Y175D01*
X1869Y178D01*
X1869Y182D01*
X1870Y184D01*
X1871Y187D01*
X1872Y189D01*
X1873Y191D01*
X1873Y191D01*
X1873Y192D01*
X1875Y194D01*
X1877Y196D01*
X1879Y198D01*
X1881Y199D01*
X1884Y200D01*
X1885Y201D01*
X1886Y202D01*
X1886Y202D01*
X1888Y203D01*
X1890Y203D01*
X1894Y205D01*
X1899Y206D01*
X1904Y208D01*
X1908Y209D01*
X1910Y210D01*
X1912Y210D01*
X1913Y211D01*
X1915Y211D01*
X1915Y211D01*
X1915D01*
X1918Y212D01*
X1920Y212D01*
X1922Y213D01*
X1924Y214D01*
X1927Y214D01*
X1930Y215D01*
X1931Y216D01*
X1932Y216D01*
X1933Y216D01*
X1933D01*
X1935Y217D01*
X1936Y218D01*
X1938Y219D01*
X1939Y219D01*
X1940Y220D01*
X1940Y221D01*
X1940Y221D01*
X1940Y221D01*
X1942Y224D01*
X1943Y226D01*
Y227D01*
X1943Y228D01*
Y228D01*
Y228D01*
X1943Y230D01*
X1942Y232D01*
X1941Y234D01*
X1940Y236D01*
X1939Y237D01*
X1938Y238D01*
X1937Y238D01*
X1937Y239D01*
X1934Y240D01*
X1931Y241D01*
X1928Y242D01*
X1925Y243D01*
X1922Y243D01*
X1920Y243D01*
X1918D01*
X1914Y243D01*
X1910Y243D01*
X1907Y242D01*
X1905Y241D01*
X1903Y240D01*
X1901Y239D01*
X1900Y238D01*
X1900Y238D01*
X1898Y236D01*
X1896Y234D01*
X1895Y231D01*
X1893Y229D01*
X1893Y227D01*
X1892Y226D01*
X1892Y225D01*
Y224D01*
X1873Y227D01*
X1874Y231D01*
X1875Y234D01*
X1876Y237D01*
X1877Y240D01*
X1878Y242D01*
X1879Y244D01*
X1880Y244D01*
X1880Y245D01*
X1882Y247D01*
X1884Y249D01*
X1887Y251D01*
X1889Y253D01*
X1892Y254D01*
X1893Y255D01*
X1895Y255D01*
X1895Y255D01*
X1895D01*
X1899Y257D01*
X1903Y258D01*
X1907Y259D01*
X1911Y259D01*
X1914Y259D01*
X1917Y259D01*
X1922D01*
X1926Y259D01*
D02*
G37*
G36*
X1216Y259D02*
X1219Y259D01*
X1222Y258D01*
X1224Y258D01*
X1225Y257D01*
X1226Y257D01*
X1227Y257D01*
X1229Y256D01*
X1232Y255D01*
X1234Y254D01*
X1236Y253D01*
X1237Y253D01*
X1238Y252D01*
X1239Y252D01*
X1239Y251D01*
X1241Y250D01*
X1243Y248D01*
X1245Y246D01*
X1246Y244D01*
X1247Y243D01*
X1248Y241D01*
X1249Y240D01*
X1249Y240D01*
X1250Y238D01*
X1251Y235D01*
X1251Y233D01*
X1252Y231D01*
X1252Y229D01*
X1252Y227D01*
Y226D01*
Y226D01*
X1252Y223D01*
X1252Y220D01*
X1251Y217D01*
X1250Y215D01*
X1250Y213D01*
X1249Y211D01*
X1248Y210D01*
X1248Y210D01*
X1246Y208D01*
X1244Y206D01*
X1242Y204D01*
X1240Y202D01*
X1238Y201D01*
X1237Y200D01*
X1236Y200D01*
X1235Y199D01*
X1234Y199D01*
X1232Y198D01*
X1227Y196D01*
X1222Y195D01*
X1217Y193D01*
X1213Y192D01*
X1211Y191D01*
X1209Y191D01*
X1207Y190D01*
X1206Y190D01*
X1206Y190D01*
X1205D01*
X1202Y189D01*
X1200Y188D01*
X1197Y188D01*
X1195Y187D01*
X1194Y187D01*
X1192Y186D01*
X1189Y185D01*
X1187Y184D01*
X1186Y184D01*
X1185Y183D01*
X1185Y183D01*
X1183Y182D01*
X1182Y180D01*
X1181Y178D01*
X1180Y177D01*
X1179Y175D01*
X1179Y174D01*
Y173D01*
Y173D01*
X1179Y170D01*
X1180Y168D01*
X1181Y165D01*
X1182Y163D01*
X1184Y162D01*
X1185Y161D01*
X1186Y160D01*
X1186Y160D01*
X1189Y158D01*
X1192Y157D01*
X1195Y156D01*
X1198Y155D01*
X1201Y155D01*
X1204Y154D01*
X1206D01*
X1211Y155D01*
X1215Y155D01*
X1219Y156D01*
X1222Y157D01*
X1224Y159D01*
X1226Y160D01*
X1227Y160D01*
X1227Y160D01*
X1230Y163D01*
X1232Y166D01*
X1233Y169D01*
X1234Y172D01*
X1235Y174D01*
X1236Y177D01*
X1236Y178D01*
Y178D01*
Y178D01*
X1256Y175D01*
X1254Y169D01*
X1252Y163D01*
X1249Y159D01*
X1247Y155D01*
X1244Y151D01*
X1242Y149D01*
X1241Y148D01*
X1241Y148D01*
X1240Y147D01*
X1238Y146D01*
X1236Y144D01*
X1230Y142D01*
X1224Y141D01*
X1219Y139D01*
X1216Y139D01*
X1214Y139D01*
X1212Y138D01*
X1210D01*
X1208Y138D01*
X1206D01*
X1201Y138D01*
X1197Y139D01*
X1192Y140D01*
X1189Y141D01*
X1186Y141D01*
X1183Y142D01*
X1182Y143D01*
X1182Y143D01*
X1181D01*
X1178Y145D01*
X1174Y147D01*
X1172Y149D01*
X1169Y151D01*
X1167Y153D01*
X1166Y155D01*
X1165Y156D01*
X1165Y156D01*
X1163Y160D01*
X1162Y163D01*
X1160Y166D01*
X1160Y169D01*
X1159Y171D01*
X1159Y173D01*
Y174D01*
Y175D01*
X1159Y178D01*
X1160Y182D01*
X1161Y184D01*
X1161Y187D01*
X1162Y189D01*
X1163Y191D01*
X1164Y191D01*
X1164Y192D01*
X1166Y194D01*
X1168Y196D01*
X1170Y198D01*
X1172Y199D01*
X1174Y200D01*
X1175Y201D01*
X1176Y202D01*
X1177Y202D01*
X1178Y203D01*
X1180Y203D01*
X1185Y205D01*
X1190Y206D01*
X1194Y208D01*
X1199Y209D01*
X1201Y210D01*
X1203Y210D01*
X1204Y211D01*
X1205Y211D01*
X1206Y211D01*
X1206D01*
X1209Y212D01*
X1211Y212D01*
X1213Y213D01*
X1215Y214D01*
X1218Y214D01*
X1220Y215D01*
X1222Y216D01*
X1223Y216D01*
X1223Y216D01*
X1223D01*
X1225Y217D01*
X1227Y218D01*
X1228Y219D01*
X1229Y219D01*
X1230Y220D01*
X1231Y221D01*
X1231Y221D01*
X1231Y221D01*
X1232Y224D01*
X1233Y226D01*
Y227D01*
X1233Y228D01*
Y228D01*
Y228D01*
X1233Y230D01*
X1232Y232D01*
X1231Y234D01*
X1230Y236D01*
X1229Y237D01*
X1228Y238D01*
X1228Y238D01*
X1228Y239D01*
X1225Y240D01*
X1222Y241D01*
X1219Y242D01*
X1216Y243D01*
X1213Y243D01*
X1210Y243D01*
X1208D01*
X1204Y243D01*
X1200Y243D01*
X1197Y242D01*
X1195Y241D01*
X1193Y240D01*
X1192Y239D01*
X1191Y238D01*
X1191Y238D01*
X1188Y236D01*
X1187Y234D01*
X1185Y231D01*
X1184Y229D01*
X1183Y227D01*
X1183Y226D01*
X1183Y225D01*
Y224D01*
X1163Y227D01*
X1164Y231D01*
X1165Y234D01*
X1166Y237D01*
X1168Y240D01*
X1169Y242D01*
X1170Y244D01*
X1170Y244D01*
X1170Y245D01*
X1172Y247D01*
X1175Y249D01*
X1177Y251D01*
X1180Y253D01*
X1182Y254D01*
X1184Y255D01*
X1185Y255D01*
X1185Y255D01*
X1186D01*
X1190Y257D01*
X1194Y258D01*
X1198Y259D01*
X1201Y259D01*
X1205Y259D01*
X1207Y259D01*
X1213D01*
X1216Y259D01*
D02*
G37*
G36*
X918Y259D02*
X922Y259D01*
X929Y257D01*
X936Y255D01*
X938Y254D01*
X941Y253D01*
X943Y252D01*
X945Y251D01*
X947Y250D01*
X948Y249D01*
X949Y248D01*
X950Y247D01*
X951Y247D01*
X951Y247D01*
X954Y244D01*
X957Y240D01*
X959Y236D01*
X961Y233D01*
X963Y229D01*
X964Y225D01*
X966Y221D01*
X967Y217D01*
X967Y213D01*
X968Y210D01*
X968Y207D01*
X969Y204D01*
Y202D01*
X969Y200D01*
Y199D01*
Y199D01*
X969Y194D01*
X968Y188D01*
X967Y184D01*
X967Y179D01*
X965Y175D01*
X964Y172D01*
X963Y168D01*
X961Y165D01*
X960Y163D01*
X959Y160D01*
X957Y158D01*
X956Y157D01*
X955Y155D01*
X955Y154D01*
X954Y154D01*
X954Y154D01*
X951Y151D01*
X948Y149D01*
X945Y147D01*
X942Y145D01*
X938Y143D01*
X935Y142D01*
X929Y140D01*
X926Y140D01*
X923Y139D01*
X921Y139D01*
X919Y138D01*
X917Y138D01*
X914D01*
X909Y138D01*
X904Y139D01*
X899Y141D01*
X895Y142D01*
X892Y143D01*
X890Y144D01*
X889Y144D01*
X888Y144D01*
X887Y145D01*
X887Y145D01*
X887D01*
X882Y148D01*
X878Y151D01*
X875Y155D01*
X872Y158D01*
X870Y161D01*
X868Y163D01*
X868Y164D01*
X867Y165D01*
X867Y165D01*
Y165D01*
X865Y170D01*
X863Y176D01*
X862Y182D01*
X861Y188D01*
X861Y190D01*
Y193D01*
X860Y195D01*
X860Y197D01*
Y198D01*
Y200D01*
Y200D01*
Y200D01*
X860Y206D01*
X861Y210D01*
X861Y215D01*
X862Y219D01*
X864Y223D01*
X865Y226D01*
X866Y230D01*
X868Y232D01*
X869Y235D01*
X870Y237D01*
X872Y239D01*
X873Y241D01*
X874Y242D01*
X875Y243D01*
X875Y244D01*
X875Y244D01*
X878Y247D01*
X881Y249D01*
X885Y251D01*
X888Y253D01*
X891Y254D01*
X894Y256D01*
X901Y258D01*
X904Y258D01*
X906Y259D01*
X908Y259D01*
X911Y259D01*
X912Y259D01*
X914D01*
X918Y259D01*
D02*
G37*
G36*
X3266Y138D02*
X3250D01*
X3204Y304D01*
X3220D01*
X3266Y138D01*
D02*
G37*
G36*
X3204D02*
X3188D01*
X3142Y304D01*
X3157D01*
X3204Y138D01*
D02*
G37*
G36*
X3503Y259D02*
X3507Y259D01*
X3510Y258D01*
X3513Y257D01*
X3515Y256D01*
X3517Y256D01*
X3518Y255D01*
X3518Y255D01*
X3521Y253D01*
X3524Y251D01*
X3526Y249D01*
X3528Y247D01*
X3530Y245D01*
X3531Y243D01*
X3532Y242D01*
X3532Y242D01*
Y257D01*
X3550D01*
Y96D01*
X3530D01*
Y153D01*
X3529Y150D01*
X3526Y148D01*
X3524Y147D01*
X3522Y145D01*
X3520Y144D01*
X3519Y143D01*
X3518Y142D01*
X3518Y142D01*
X3515Y141D01*
X3512Y140D01*
X3509Y139D01*
X3506Y139D01*
X3504Y138D01*
X3502Y138D01*
X3500D01*
X3495Y138D01*
X3490Y139D01*
X3486Y141D01*
X3482Y142D01*
X3479Y143D01*
X3477Y144D01*
X3476Y145D01*
X3475Y145D01*
X3475Y146D01*
X3475D01*
X3470Y149D01*
X3466Y152D01*
X3463Y156D01*
X3461Y159D01*
X3459Y163D01*
X3457Y165D01*
X3457Y166D01*
X3456Y167D01*
X3456Y167D01*
Y167D01*
X3454Y173D01*
X3452Y178D01*
X3451Y184D01*
X3450Y189D01*
X3450Y193D01*
Y195D01*
X3449Y197D01*
Y198D01*
Y199D01*
Y199D01*
Y200D01*
X3450Y206D01*
X3450Y211D01*
X3451Y216D01*
X3452Y221D01*
X3454Y225D01*
X3454Y226D01*
X3454Y228D01*
X3455Y229D01*
X3455Y229D01*
X3455Y230D01*
Y230D01*
X3458Y235D01*
X3460Y239D01*
X3463Y243D01*
X3466Y246D01*
X3469Y248D01*
X3471Y250D01*
X3472Y251D01*
X3472Y252D01*
X3473D01*
X3477Y254D01*
X3481Y256D01*
X3486Y258D01*
X3490Y259D01*
X3493Y259D01*
X3495Y259D01*
X3496Y259D01*
X3499D01*
X3503Y259D01*
D02*
G37*
G36*
X3946Y3196D02*
X3948Y3194D01*
X3950Y3191D01*
X3951Y3189D01*
X3953Y3188D01*
X3954Y3186D01*
X3955Y3186D01*
X3955Y3186D01*
X3955Y3185D01*
X3955Y3185D01*
X3958Y3183D01*
X3961Y3181D01*
X3964Y3179D01*
X3967Y3177D01*
X3969Y3176D01*
X3970Y3175D01*
X3971Y3175D01*
X3972Y3174D01*
X3972Y3174D01*
X3972Y3174D01*
X3973D01*
Y3163D01*
X3970Y3164D01*
X3968Y3164D01*
X3966Y3165D01*
X3964Y3166D01*
X3963Y3167D01*
X3961Y3168D01*
X3960Y3169D01*
X3960Y3169D01*
X3960D01*
X3958Y3170D01*
X3955Y3172D01*
X3954Y3173D01*
X3952Y3174D01*
X3951Y3175D01*
X3950Y3176D01*
X3949Y3177D01*
X3949Y3177D01*
Y3102D01*
X3937D01*
Y3198D01*
X3945D01*
X3946Y3196D01*
D02*
G37*
G36*
X4039Y3102D02*
X4026D01*
X3988Y3198D01*
X4001D01*
X4027Y3128D01*
X4028Y3125D01*
X4029Y3122D01*
X4030Y3120D01*
X4031Y3117D01*
X4031Y3115D01*
X4032Y3114D01*
X4032Y3113D01*
X4032Y3113D01*
X4032Y3112D01*
Y3112D01*
X4034Y3118D01*
X4035Y3121D01*
X4036Y3123D01*
X4036Y3125D01*
X4037Y3126D01*
X4037Y3127D01*
X4037Y3127D01*
X4037Y3128D01*
X4037Y3128D01*
Y3128D01*
X4062Y3198D01*
X4076D01*
X4039Y3102D01*
D02*
G37*
G36*
X4163D02*
X4150D01*
Y3144D01*
X4134D01*
X4132Y3144D01*
X4131D01*
X4130Y3144D01*
X4129Y3144D01*
X4129D01*
X4129Y3144D01*
X4128D01*
X4126Y3143D01*
X4125Y3143D01*
X4124Y3142D01*
X4124Y3142D01*
X4123Y3142D01*
X4123Y3141D01*
X4123Y3141D01*
X4121Y3141D01*
X4120Y3140D01*
X4118Y3137D01*
X4117Y3136D01*
X4117Y3136D01*
X4116Y3135D01*
X4116Y3135D01*
X4115Y3133D01*
X4113Y3131D01*
X4112Y3129D01*
X4110Y3127D01*
X4109Y3125D01*
X4108Y3123D01*
X4107Y3123D01*
X4107Y3122D01*
X4107Y3122D01*
Y3122D01*
X4094Y3102D01*
X4078D01*
X4095Y3128D01*
X4097Y3131D01*
X4099Y3133D01*
X4101Y3135D01*
X4102Y3137D01*
X4103Y3139D01*
X4105Y3140D01*
X4105Y3140D01*
X4106Y3141D01*
X4107Y3141D01*
X4108Y3142D01*
X4110Y3144D01*
X4112Y3145D01*
X4112Y3145D01*
X4113Y3145D01*
X4113Y3145D01*
X4111Y3146D01*
X4108Y3146D01*
X4106Y3147D01*
X4104Y3148D01*
X4102Y3148D01*
X4101Y3149D01*
X4099Y3150D01*
X4098Y3150D01*
X4097Y3151D01*
X4096Y3152D01*
X4095Y3153D01*
X4094Y3153D01*
X4093Y3154D01*
X4093Y3154D01*
X4093Y3154D01*
X4093Y3154D01*
X4092Y3156D01*
X4091Y3157D01*
X4089Y3160D01*
X4088Y3163D01*
X4087Y3166D01*
X4086Y3168D01*
X4086Y3169D01*
Y3170D01*
X4086Y3171D01*
Y3171D01*
Y3171D01*
Y3172D01*
X4086Y3174D01*
X4087Y3177D01*
X4087Y3180D01*
X4088Y3182D01*
X4089Y3183D01*
X4089Y3185D01*
X4090Y3186D01*
X4090Y3186D01*
Y3186D01*
X4092Y3188D01*
X4093Y3190D01*
X4095Y3192D01*
X4097Y3193D01*
X4098Y3194D01*
X4100Y3195D01*
X4101Y3195D01*
X4101Y3195D01*
X4101D01*
X4102Y3196D01*
X4104Y3196D01*
X4107Y3197D01*
X4110Y3197D01*
X4113Y3197D01*
X4116Y3198D01*
X4117D01*
X4118Y3198D01*
X4163D01*
Y3102D01*
D02*
G37*
G36*
X2009Y4346D02*
X2010Y4344D01*
X2012Y4341D01*
X2014Y4339D01*
X2015Y4338D01*
X2016Y4336D01*
X2017Y4336D01*
X2017Y4336D01*
X2018Y4335D01*
X2018Y4335D01*
X2021Y4333D01*
X2024Y4331D01*
X2026Y4329D01*
X2029Y4327D01*
X2031Y4326D01*
X2032Y4325D01*
X2033Y4325D01*
X2034Y4324D01*
X2034Y4324D01*
X2035Y4324D01*
X2035D01*
Y4313D01*
X2033Y4314D01*
X2031Y4314D01*
X2029Y4315D01*
X2027Y4316D01*
X2025Y4317D01*
X2024Y4318D01*
X2023Y4319D01*
X2023Y4319D01*
X2023D01*
X2020Y4320D01*
X2018Y4322D01*
X2016Y4323D01*
X2014Y4324D01*
X2013Y4325D01*
X2012Y4326D01*
X2011Y4327D01*
X2011Y4327D01*
Y4252D01*
X2000D01*
Y4348D01*
X2007D01*
X2009Y4346D01*
D02*
G37*
G36*
X2300Y4252D02*
X2240D01*
Y4263D01*
X2288D01*
Y4348D01*
X2300D01*
Y4252D01*
D02*
G37*
G36*
X2225D02*
X2153D01*
Y4263D01*
X2212D01*
Y4296D01*
X2159D01*
Y4307D01*
X2212D01*
Y4336D01*
X2156D01*
Y4348D01*
X2225D01*
Y4252D01*
D02*
G37*
G36*
X2136D02*
X2101D01*
X2098Y4252D01*
X2095Y4252D01*
X2093Y4252D01*
X2090Y4253D01*
X2088Y4253D01*
X2087Y4253D01*
X2087Y4253D01*
X2086Y4253D01*
X2086D01*
X2083Y4254D01*
X2081Y4255D01*
X2079Y4256D01*
X2078Y4256D01*
X2076Y4257D01*
X2075Y4258D01*
X2075Y4258D01*
X2074Y4258D01*
X2073Y4259D01*
X2071Y4261D01*
X2070Y4262D01*
X2068Y4264D01*
X2067Y4265D01*
X2066Y4266D01*
X2066Y4267D01*
X2066Y4267D01*
X2064Y4269D01*
X2063Y4272D01*
X2062Y4274D01*
X2061Y4276D01*
X2060Y4278D01*
X2060Y4279D01*
X2059Y4280D01*
X2059Y4280D01*
X2059Y4281D01*
Y4281D01*
X2058Y4284D01*
X2058Y4287D01*
X2057Y4291D01*
X2057Y4294D01*
X2057Y4296D01*
Y4297D01*
X2057Y4298D01*
Y4299D01*
Y4300D01*
Y4300D01*
Y4300D01*
X2057Y4305D01*
X2057Y4309D01*
X2058Y4313D01*
X2058Y4315D01*
X2058Y4316D01*
X2059Y4318D01*
X2059Y4319D01*
X2059Y4320D01*
X2060Y4321D01*
X2060Y4322D01*
X2060Y4323D01*
X2060Y4323D01*
Y4323D01*
X2062Y4327D01*
X2064Y4330D01*
X2066Y4333D01*
X2067Y4335D01*
X2069Y4337D01*
X2071Y4338D01*
X2071Y4339D01*
X2072Y4339D01*
X2072Y4339D01*
X2072Y4339D01*
X2074Y4341D01*
X2076Y4343D01*
X2079Y4344D01*
X2081Y4345D01*
X2083Y4346D01*
X2084Y4346D01*
X2085Y4346D01*
X2085D01*
X2086Y4346D01*
X2086D01*
X2088Y4347D01*
X2091Y4347D01*
X2094Y4347D01*
X2096Y4348D01*
X2099Y4348D01*
X2136D01*
Y4252D01*
D02*
G37*
%LPC*%
G36*
X3114Y1526D02*
X3080D01*
X3078Y1526D01*
X3074D01*
X3072Y1526D01*
X3071D01*
X3070Y1525D01*
X3070D01*
X3067Y1525D01*
X3065Y1524D01*
X3063Y1523D01*
X3062Y1522D01*
X3061Y1521D01*
X3059Y1520D01*
X3059Y1520D01*
X3059Y1520D01*
X3058Y1518D01*
X3057Y1516D01*
X3056Y1514D01*
X3055Y1512D01*
X3055Y1510D01*
X3055Y1509D01*
Y1508D01*
Y1508D01*
X3055Y1506D01*
X3055Y1504D01*
X3056Y1502D01*
X3056Y1500D01*
X3057Y1499D01*
X3058Y1498D01*
X3058Y1497D01*
X3058Y1497D01*
X3059Y1496D01*
X3061Y1494D01*
X3063Y1493D01*
X3064Y1492D01*
X3065Y1491D01*
X3066Y1491D01*
X3066D01*
X3067Y1491D01*
X3069Y1490D01*
X3071Y1490D01*
X3072Y1490D01*
X3077Y1490D01*
X3081Y1490D01*
X3085Y1489D01*
X3114D01*
Y1526D01*
D02*
G37*
G36*
X2968D02*
X2949D01*
X2947Y1526D01*
X2944D01*
X2942Y1526D01*
X2940D01*
X2938Y1525D01*
X2937D01*
X2935Y1525D01*
X2933Y1525D01*
X2932Y1525D01*
X2932D01*
X2929Y1524D01*
X2926Y1523D01*
X2924Y1522D01*
X2922Y1520D01*
X2920Y1519D01*
X2919Y1519D01*
X2918Y1518D01*
X2918Y1518D01*
X2916Y1516D01*
X2915Y1513D01*
X2913Y1511D01*
X2912Y1509D01*
X2911Y1507D01*
X2911Y1505D01*
X2910Y1504D01*
X2910Y1504D01*
Y1504D01*
X2909Y1500D01*
X2908Y1496D01*
X2908Y1492D01*
X2907Y1488D01*
X2907Y1484D01*
X2907Y1482D01*
Y1481D01*
Y1480D01*
Y1479D01*
Y1478D01*
Y1478D01*
X2907Y1472D01*
X2907Y1467D01*
X2908Y1463D01*
X2908Y1459D01*
X2909Y1456D01*
X2909Y1454D01*
X2910Y1454D01*
X2910Y1453D01*
Y1452D01*
X2910Y1452D01*
Y1452D01*
X2911Y1448D01*
X2912Y1445D01*
X2914Y1443D01*
X2915Y1441D01*
X2916Y1440D01*
X2917Y1439D01*
X2917Y1438D01*
X2917Y1438D01*
X2919Y1437D01*
X2921Y1435D01*
X2923Y1434D01*
X2925Y1433D01*
X2927Y1433D01*
X2928Y1432D01*
X2929Y1432D01*
X2929D01*
X2931Y1432D01*
X2934Y1431D01*
X2937Y1431D01*
X2940D01*
X2943Y1431D01*
X2968D01*
Y1526D01*
D02*
G37*
G36*
X2666Y1526D02*
X2637D01*
X2635Y1526D01*
X2630D01*
X2628Y1526D01*
X2626D01*
X2625Y1526D01*
X2625D01*
X2623Y1525D01*
X2620Y1525D01*
X2618Y1524D01*
X2617Y1523D01*
X2616Y1522D01*
X2615Y1521D01*
X2614Y1521D01*
X2614Y1521D01*
X2613Y1519D01*
X2612Y1517D01*
X2611Y1516D01*
X2611Y1514D01*
X2610Y1512D01*
X2610Y1511D01*
Y1510D01*
Y1510D01*
X2610Y1508D01*
X2611Y1505D01*
X2612Y1503D01*
X2612Y1502D01*
X2613Y1500D01*
X2614Y1499D01*
X2614Y1499D01*
X2615Y1499D01*
X2616Y1497D01*
X2618Y1496D01*
X2620Y1495D01*
X2622Y1495D01*
X2624Y1494D01*
X2625Y1494D01*
X2626Y1494D01*
X2627D01*
X2628Y1493D01*
X2635D01*
X2638Y1493D01*
X2666D01*
Y1526D01*
D02*
G37*
G36*
Y1469D02*
X2636D01*
X2633Y1469D01*
X2631Y1469D01*
X2628D01*
X2626Y1469D01*
X2624Y1468D01*
X2623Y1468D01*
X2621Y1468D01*
X2620Y1468D01*
X2619Y1468D01*
X2618Y1467D01*
X2617D01*
X2615Y1466D01*
X2613Y1465D01*
X2612Y1464D01*
X2610Y1463D01*
X2609Y1462D01*
X2609Y1461D01*
X2608Y1461D01*
X2608Y1460D01*
X2607Y1459D01*
X2606Y1457D01*
X2606Y1455D01*
X2605Y1453D01*
X2605Y1452D01*
X2605Y1450D01*
Y1450D01*
Y1449D01*
X2605Y1447D01*
X2605Y1444D01*
X2606Y1442D01*
X2607Y1440D01*
X2608Y1439D01*
X2608Y1438D01*
X2609Y1437D01*
X2609Y1437D01*
X2611Y1436D01*
X2612Y1434D01*
X2614Y1433D01*
X2616Y1433D01*
X2617Y1432D01*
X2619Y1432D01*
X2619Y1432D01*
X2620D01*
X2620Y1431D01*
X2622D01*
X2624Y1431D01*
X2628Y1431D01*
X2631D01*
X2634Y1431D01*
X2666D01*
Y1469D01*
D02*
G37*
G36*
X2494Y1517D02*
X2474Y1463D01*
X2513D01*
X2494Y1517D01*
D02*
G37*
G36*
X3237Y1528D02*
X3235D01*
X3232Y1528D01*
X3229Y1528D01*
X3226Y1527D01*
X3223Y1526D01*
X3219Y1524D01*
X3216Y1523D01*
X3214Y1522D01*
X3213Y1521D01*
X3211Y1520D01*
X3210Y1519D01*
X3209Y1518D01*
X3208Y1517D01*
X3207Y1517D01*
X3207Y1516D01*
X3207Y1516D01*
X3205Y1514D01*
X3203Y1511D01*
X3202Y1508D01*
X3200Y1505D01*
X3198Y1499D01*
X3197Y1493D01*
X3197Y1490D01*
X3196Y1487D01*
X3196Y1485D01*
X3196Y1483D01*
X3196Y1481D01*
Y1480D01*
Y1479D01*
Y1479D01*
X3196Y1474D01*
X3196Y1470D01*
X3197Y1466D01*
X3197Y1462D01*
X3198Y1459D01*
X3199Y1456D01*
X3200Y1453D01*
X3201Y1450D01*
X3202Y1448D01*
X3203Y1446D01*
X3204Y1445D01*
X3205Y1443D01*
X3206Y1442D01*
X3207Y1442D01*
X3207Y1441D01*
X3207Y1441D01*
X3209Y1439D01*
X3211Y1437D01*
X3214Y1435D01*
X3216Y1434D01*
X3219Y1433D01*
X3221Y1432D01*
X3225Y1430D01*
X3229Y1429D01*
X3231Y1429D01*
X3233Y1429D01*
X3234Y1428D01*
X3235D01*
X3239Y1429D01*
X3242Y1429D01*
X3245Y1430D01*
X3247Y1430D01*
X3252Y1432D01*
X3256Y1435D01*
X3258Y1436D01*
X3260Y1437D01*
X3261Y1438D01*
X3262Y1439D01*
X3263Y1440D01*
X3264Y1440D01*
X3264Y1441D01*
X3264Y1441D01*
X3266Y1444D01*
X3268Y1446D01*
X3269Y1449D01*
X3271Y1452D01*
X3273Y1458D01*
X3274Y1464D01*
X3274Y1467D01*
X3275Y1470D01*
X3275Y1472D01*
X3275Y1474D01*
X3275Y1476D01*
Y1477D01*
Y1478D01*
Y1478D01*
X3275Y1483D01*
X3275Y1487D01*
X3274Y1491D01*
X3274Y1495D01*
X3273Y1498D01*
X3272Y1501D01*
X3271Y1504D01*
X3270Y1506D01*
X3269Y1509D01*
X3268Y1511D01*
X3267Y1512D01*
X3266Y1514D01*
X3266Y1515D01*
X3265Y1515D01*
X3265Y1516D01*
X3265Y1516D01*
X3263Y1518D01*
X3260Y1520D01*
X3258Y1522D01*
X3255Y1523D01*
X3253Y1524D01*
X3250Y1525D01*
X3246Y1527D01*
X3242Y1528D01*
X3240Y1528D01*
X3238Y1528D01*
X3237Y1528D01*
D02*
G37*
G36*
X2790D02*
X2788D01*
X2785Y1528D01*
X2782Y1528D01*
X2779Y1527D01*
X2776Y1526D01*
X2771Y1524D01*
X2769Y1523D01*
X2767Y1522D01*
X2765Y1521D01*
X2764Y1520D01*
X2762Y1519D01*
X2761Y1518D01*
X2760Y1517D01*
X2760Y1517D01*
X2760Y1516D01*
X2759Y1516D01*
X2757Y1514D01*
X2756Y1511D01*
X2754Y1508D01*
X2753Y1505D01*
X2751Y1499D01*
X2750Y1493D01*
X2749Y1490D01*
X2749Y1487D01*
X2749Y1485D01*
X2749Y1483D01*
X2748Y1481D01*
Y1480D01*
Y1479D01*
Y1479D01*
X2749Y1474D01*
X2749Y1470D01*
X2749Y1466D01*
X2750Y1462D01*
X2751Y1459D01*
X2752Y1456D01*
X2753Y1453D01*
X2754Y1450D01*
X2755Y1448D01*
X2756Y1446D01*
X2757Y1445D01*
X2758Y1443D01*
X2759Y1442D01*
X2759Y1442D01*
X2759Y1441D01*
X2760Y1441D01*
X2762Y1439D01*
X2764Y1437D01*
X2766Y1435D01*
X2769Y1434D01*
X2771Y1433D01*
X2774Y1432D01*
X2778Y1430D01*
X2782Y1429D01*
X2784Y1429D01*
X2785Y1429D01*
X2786Y1428D01*
X2788D01*
X2791Y1429D01*
X2794Y1429D01*
X2797Y1430D01*
X2800Y1430D01*
X2805Y1432D01*
X2809Y1435D01*
X2811Y1436D01*
X2812Y1437D01*
X2814Y1438D01*
X2815Y1439D01*
X2816Y1440D01*
X2816Y1440D01*
X2817Y1441D01*
X2817Y1441D01*
X2819Y1444D01*
X2821Y1446D01*
X2822Y1449D01*
X2823Y1452D01*
X2825Y1458D01*
X2827Y1464D01*
X2827Y1467D01*
X2827Y1470D01*
X2828Y1472D01*
X2828Y1474D01*
X2828Y1476D01*
Y1477D01*
Y1478D01*
Y1478D01*
X2828Y1483D01*
X2828Y1487D01*
X2827Y1491D01*
X2826Y1495D01*
X2826Y1498D01*
X2825Y1501D01*
X2824Y1504D01*
X2823Y1506D01*
X2822Y1509D01*
X2821Y1511D01*
X2820Y1512D01*
X2819Y1514D01*
X2818Y1515D01*
X2818Y1515D01*
X2817Y1516D01*
X2817Y1516D01*
X2815Y1518D01*
X2813Y1520D01*
X2810Y1522D01*
X2808Y1523D01*
X2806Y1524D01*
X2803Y1525D01*
X2799Y1527D01*
X2794Y1528D01*
X2793Y1528D01*
X2791Y1528D01*
X2790Y1528D01*
D02*
G37*
G36*
X3421Y1348D02*
X3388D01*
X3386Y1347D01*
X3381D01*
X3379Y1347D01*
X3378D01*
X3377Y1347D01*
X3377D01*
X3375Y1346D01*
X3372Y1346D01*
X3370Y1345D01*
X3369Y1344D01*
X3368Y1343D01*
X3367Y1342D01*
X3366Y1341D01*
X3366Y1341D01*
X3365Y1340D01*
X3364Y1337D01*
X3363Y1336D01*
X3363Y1334D01*
X3362Y1332D01*
X3362Y1331D01*
Y1330D01*
Y1330D01*
X3362Y1327D01*
X3363Y1325D01*
X3363Y1323D01*
X3364Y1322D01*
X3364Y1320D01*
X3365Y1320D01*
X3365Y1319D01*
X3365Y1319D01*
X3366Y1317D01*
X3368Y1316D01*
X3370Y1314D01*
X3371Y1314D01*
X3373Y1313D01*
X3373Y1313D01*
X3373D01*
X3374Y1312D01*
X3376Y1312D01*
X3378Y1312D01*
X3380Y1312D01*
X3384Y1311D01*
X3388Y1311D01*
X3393Y1311D01*
X3421D01*
Y1348D01*
D02*
G37*
G36*
X2185Y1339D02*
X2165Y1285D01*
X2205D01*
X2185Y1339D01*
D02*
G37*
G36*
X2761Y1130D02*
X2727D01*
X2725Y1129D01*
X2721Y1129D01*
X2719Y1129D01*
X2718D01*
X2717Y1129D01*
X2717D01*
X2714Y1128D01*
X2712Y1127D01*
X2710Y1127D01*
X2709Y1126D01*
X2707Y1125D01*
X2706Y1124D01*
X2706Y1123D01*
X2706Y1123D01*
X2705Y1121D01*
X2704Y1119D01*
X2703Y1117D01*
X2702Y1116D01*
X2702Y1114D01*
X2702Y1113D01*
Y1112D01*
Y1111D01*
X2702Y1109D01*
X2702Y1107D01*
X2703Y1105D01*
X2703Y1104D01*
X2704Y1102D01*
X2705Y1101D01*
X2705Y1101D01*
X2705Y1101D01*
X2706Y1099D01*
X2707Y1098D01*
X2710Y1096D01*
X2711Y1095D01*
X2712Y1095D01*
X2713Y1095D01*
X2713D01*
X2714Y1094D01*
X2716Y1094D01*
X2717Y1094D01*
X2719Y1094D01*
X2724Y1093D01*
X2728Y1093D01*
X2732Y1093D01*
X2761D01*
Y1130D01*
D02*
G37*
G36*
X2387Y1120D02*
X2367Y1067D01*
X2406D01*
X2387Y1120D01*
D02*
G37*
G36*
X2519Y243D02*
X2515D01*
X2513Y243D01*
X2509Y242D01*
X2505Y240D01*
X2502Y238D01*
X2499Y236D01*
X2497Y234D01*
X2496Y233D01*
X2496Y233D01*
Y232D01*
X2494Y230D01*
X2493Y228D01*
X2490Y223D01*
X2489Y217D01*
X2488Y212D01*
X2487Y207D01*
X2487Y204D01*
Y203D01*
X2487Y201D01*
Y200D01*
Y199D01*
Y199D01*
Y195D01*
X2487Y191D01*
X2488Y188D01*
X2488Y184D01*
X2489Y181D01*
X2490Y178D01*
X2491Y176D01*
X2491Y174D01*
X2492Y172D01*
X2493Y170D01*
X2494Y169D01*
X2495Y168D01*
X2495Y167D01*
X2496Y166D01*
X2496Y166D01*
Y166D01*
X2498Y164D01*
X2500Y162D01*
X2504Y159D01*
X2507Y157D01*
X2511Y156D01*
X2514Y155D01*
X2516Y155D01*
X2517Y154D01*
X2518D01*
X2521Y155D01*
X2524Y155D01*
X2527Y156D01*
X2529Y157D01*
X2534Y159D01*
X2537Y162D01*
X2540Y165D01*
X2542Y167D01*
X2543Y168D01*
X2543Y169D01*
X2544Y169D01*
Y169D01*
X2545Y171D01*
X2546Y173D01*
X2547Y178D01*
X2548Y183D01*
X2549Y188D01*
X2549Y192D01*
Y194D01*
X2549Y196D01*
Y197D01*
Y199D01*
Y199D01*
Y200D01*
Y203D01*
X2549Y207D01*
X2548Y210D01*
X2548Y214D01*
X2547Y216D01*
X2546Y219D01*
X2546Y222D01*
X2545Y224D01*
X2544Y226D01*
X2543Y227D01*
X2542Y229D01*
X2541Y230D01*
X2541Y231D01*
X2540Y231D01*
X2540Y232D01*
Y232D01*
X2538Y234D01*
X2536Y236D01*
X2534Y237D01*
X2533Y238D01*
X2529Y240D01*
X2525Y242D01*
X2522Y243D01*
X2520Y243D01*
X2519Y243D01*
D02*
G37*
G36*
X2368Y199D02*
X2368D01*
X2368Y192D01*
X2369Y187D01*
X2369Y183D01*
X2369Y180D01*
X2370Y177D01*
X2371Y175D01*
X2371Y173D01*
X2371Y172D01*
X2372Y172D01*
X2373Y169D01*
X2375Y166D01*
X2378Y164D01*
X2380Y162D01*
X2381Y161D01*
X2383Y160D01*
X2384Y159D01*
X2384Y159D01*
X2388Y157D01*
X2391Y156D01*
X2395Y155D01*
X2398Y154D01*
X2400Y154D01*
X2403Y154D01*
X2405D01*
X2409Y154D01*
X2412Y154D01*
X2415Y155D01*
X2418Y156D01*
X2420Y157D01*
X2421Y158D01*
X2422Y159D01*
X2422Y159D01*
X2424Y161D01*
X2425Y163D01*
X2427Y165D01*
X2427Y167D01*
X2428Y169D01*
X2428Y171D01*
Y172D01*
Y172D01*
X2428Y174D01*
X2428Y176D01*
X2427Y177D01*
X2427Y178D01*
X2426Y180D01*
X2426Y181D01*
X2425Y181D01*
Y181D01*
X2423Y184D01*
X2420Y186D01*
X2419Y187D01*
X2419Y187D01*
X2418Y188D01*
X2418D01*
X2415Y188D01*
X2413Y189D01*
X2410Y190D01*
X2407Y190D01*
X2405Y191D01*
X2402Y191D01*
X2401Y191D01*
X2400D01*
X2397Y192D01*
X2393Y193D01*
X2390Y193D01*
X2386Y194D01*
X2383Y195D01*
X2381Y195D01*
X2378Y196D01*
X2376Y197D01*
X2374Y197D01*
X2373Y197D01*
X2371Y198D01*
X2370Y198D01*
X2369Y199D01*
X2369Y199D01*
X2368Y199D01*
D02*
G37*
G36*
X1298Y199D02*
X1298D01*
X1298Y192D01*
X1298Y187D01*
X1299Y183D01*
X1299Y180D01*
X1300Y177D01*
X1300Y175D01*
X1301Y173D01*
X1301Y172D01*
X1301Y172D01*
X1303Y169D01*
X1305Y166D01*
X1307Y164D01*
X1309Y162D01*
X1311Y161D01*
X1313Y160D01*
X1314Y159D01*
X1314Y159D01*
X1318Y157D01*
X1321Y156D01*
X1324Y155D01*
X1328Y154D01*
X1330Y154D01*
X1333Y154D01*
X1334D01*
X1339Y154D01*
X1342Y154D01*
X1345Y155D01*
X1348Y156D01*
X1349Y157D01*
X1351Y158D01*
X1352Y159D01*
X1352Y159D01*
X1354Y161D01*
X1355Y163D01*
X1356Y165D01*
X1357Y167D01*
X1358Y169D01*
X1358Y171D01*
Y172D01*
Y172D01*
X1358Y174D01*
X1357Y176D01*
X1357Y177D01*
X1356Y178D01*
X1356Y180D01*
X1356Y181D01*
X1355Y181D01*
Y181D01*
X1353Y184D01*
X1350Y186D01*
X1349Y187D01*
X1348Y187D01*
X1348Y188D01*
X1347D01*
X1345Y188D01*
X1343Y189D01*
X1340Y190D01*
X1337Y190D01*
X1334Y191D01*
X1332Y191D01*
X1331Y191D01*
X1330D01*
X1326Y192D01*
X1323Y193D01*
X1319Y193D01*
X1316Y194D01*
X1313Y195D01*
X1311Y195D01*
X1308Y196D01*
X1306Y197D01*
X1304Y197D01*
X1303Y197D01*
X1301Y198D01*
X1300Y198D01*
X1299Y199D01*
X1298Y199D01*
X1298Y199D01*
D02*
G37*
G36*
X514D02*
X514D01*
X514Y192D01*
X514Y187D01*
X515Y183D01*
X515Y180D01*
X516Y177D01*
X516Y175D01*
X517Y173D01*
X517Y172D01*
X517Y172D01*
X519Y169D01*
X521Y166D01*
X523Y164D01*
X525Y162D01*
X527Y161D01*
X529Y160D01*
X530Y159D01*
X530Y159D01*
X534Y157D01*
X537Y156D01*
X541Y155D01*
X544Y154D01*
X546Y154D01*
X549Y154D01*
X550D01*
X555Y154D01*
X558Y154D01*
X561Y155D01*
X564Y156D01*
X566Y157D01*
X567Y158D01*
X568Y159D01*
X568Y159D01*
X570Y161D01*
X571Y163D01*
X572Y165D01*
X573Y167D01*
X574Y169D01*
X574Y171D01*
Y172D01*
Y172D01*
X574Y174D01*
X573Y176D01*
X573Y177D01*
X572Y178D01*
X572Y180D01*
X572Y181D01*
X571Y181D01*
Y181D01*
X569Y184D01*
X566Y186D01*
X565Y187D01*
X564Y187D01*
X564Y188D01*
X563D01*
X561Y188D01*
X559Y189D01*
X556Y190D01*
X553Y190D01*
X550Y191D01*
X548Y191D01*
X547Y191D01*
X546D01*
X542Y192D01*
X539Y193D01*
X535Y193D01*
X532Y194D01*
X529Y195D01*
X527Y195D01*
X524Y196D01*
X522Y197D01*
X520Y197D01*
X519Y197D01*
X517Y198D01*
X516Y198D01*
X515Y199D01*
X514Y199D01*
X514Y199D01*
D02*
G37*
G36*
X2197Y243D02*
X2196D01*
X2193Y243D01*
X2190Y243D01*
X2185Y241D01*
X2181Y240D01*
X2178Y237D01*
X2175Y235D01*
X2173Y234D01*
X2172Y232D01*
X2171Y232D01*
Y232D01*
X2169Y229D01*
X2167Y225D01*
X2166Y222D01*
X2165Y218D01*
X2164Y215D01*
X2164Y212D01*
Y211D01*
X2164Y211D01*
Y210D01*
Y210D01*
X2229D01*
X2228Y215D01*
X2227Y220D01*
X2225Y224D01*
X2223Y228D01*
X2222Y230D01*
X2220Y232D01*
X2219Y234D01*
X2219Y234D01*
X2215Y237D01*
X2211Y239D01*
X2207Y241D01*
X2204Y242D01*
X2201Y243D01*
X2198Y243D01*
X2197Y243D01*
D02*
G37*
G36*
X1737D02*
X1735D01*
X1732Y243D01*
X1730Y243D01*
X1725Y241D01*
X1721Y240D01*
X1717Y237D01*
X1715Y235D01*
X1713Y234D01*
X1711Y232D01*
X1711Y232D01*
Y232D01*
X1709Y229D01*
X1707Y225D01*
X1706Y222D01*
X1705Y218D01*
X1704Y215D01*
X1704Y212D01*
Y211D01*
X1703Y211D01*
Y210D01*
Y210D01*
X1768D01*
X1768Y215D01*
X1766Y220D01*
X1765Y224D01*
X1763Y228D01*
X1761Y230D01*
X1760Y232D01*
X1759Y234D01*
X1758Y234D01*
X1754Y237D01*
X1751Y239D01*
X1747Y241D01*
X1743Y242D01*
X1740Y243D01*
X1738Y243D01*
X1737Y243D01*
D02*
G37*
G36*
X2969D02*
X2968D01*
X2965Y243D01*
X2963Y243D01*
X2958Y242D01*
X2954Y240D01*
X2950Y238D01*
X2947Y236D01*
X2945Y234D01*
X2944Y233D01*
X2944Y232D01*
Y232D01*
X2942Y230D01*
X2940Y228D01*
X2938Y222D01*
X2936Y217D01*
X2935Y212D01*
X2934Y207D01*
X2934Y205D01*
Y203D01*
X2934Y202D01*
Y200D01*
Y200D01*
Y200D01*
Y195D01*
X2934Y191D01*
X2935Y188D01*
X2935Y184D01*
X2936Y181D01*
X2937Y179D01*
X2938Y176D01*
X2938Y174D01*
X2939Y172D01*
X2940Y170D01*
X2941Y169D01*
X2942Y168D01*
X2943Y167D01*
X2943Y166D01*
X2943Y166D01*
X2944Y166D01*
X2945Y164D01*
X2947Y162D01*
X2951Y159D01*
X2956Y157D01*
X2959Y156D01*
X2963Y155D01*
X2965Y155D01*
X2966Y154D01*
X2968D01*
X2971Y155D01*
X2973Y155D01*
X2978Y156D01*
X2982Y158D01*
X2986Y160D01*
X2988Y162D01*
X2991Y164D01*
X2992Y165D01*
X2992Y165D01*
X2992D01*
X2994Y168D01*
X2996Y170D01*
X2998Y175D01*
X3000Y181D01*
X3001Y186D01*
X3002Y191D01*
X3002Y193D01*
Y195D01*
X3002Y197D01*
Y198D01*
Y199D01*
Y199D01*
X3002Y203D01*
X3002Y207D01*
X3001Y210D01*
X3000Y213D01*
X3000Y216D01*
X2999Y219D01*
X2998Y222D01*
X2997Y224D01*
X2996Y226D01*
X2995Y228D01*
X2995Y229D01*
X2994Y230D01*
X2993Y231D01*
X2993Y232D01*
X2992Y232D01*
Y232D01*
X2991Y234D01*
X2988Y236D01*
X2985Y239D01*
X2980Y240D01*
X2976Y242D01*
X2973Y243D01*
X2970Y243D01*
X2969Y243D01*
D02*
G37*
G36*
X2773D02*
X2772D01*
X2770Y243D01*
X2767Y243D01*
X2763Y241D01*
X2759Y240D01*
X2756Y238D01*
X2753Y236D01*
X2751Y234D01*
X2750Y232D01*
X2750Y232D01*
Y232D01*
X2748Y230D01*
X2747Y227D01*
X2744Y222D01*
X2743Y216D01*
X2742Y210D01*
X2741Y208D01*
X2741Y205D01*
X2741Y203D01*
Y201D01*
X2740Y199D01*
Y198D01*
Y197D01*
Y197D01*
Y193D01*
X2741Y189D01*
X2741Y186D01*
X2742Y183D01*
X2742Y180D01*
X2743Y177D01*
X2744Y175D01*
X2745Y173D01*
X2746Y171D01*
X2747Y169D01*
X2748Y168D01*
X2748Y167D01*
X2749Y166D01*
X2749Y165D01*
X2750Y165D01*
Y165D01*
X2751Y163D01*
X2753Y161D01*
X2757Y159D01*
X2761Y157D01*
X2764Y156D01*
X2767Y155D01*
X2770Y155D01*
X2770Y154D01*
X2772D01*
X2774Y155D01*
X2776Y155D01*
X2780Y156D01*
X2784Y158D01*
X2788Y160D01*
X2790Y162D01*
X2792Y164D01*
X2793Y165D01*
X2794Y165D01*
X2794D01*
X2795Y168D01*
X2797Y170D01*
X2799Y175D01*
X2801Y181D01*
X2802Y186D01*
X2803Y191D01*
X2803Y193D01*
Y195D01*
X2803Y197D01*
Y198D01*
Y198D01*
Y199D01*
Y203D01*
X2803Y207D01*
X2802Y210D01*
X2802Y214D01*
X2801Y217D01*
X2800Y219D01*
X2800Y222D01*
X2799Y224D01*
X2798Y226D01*
X2797Y228D01*
X2796Y229D01*
X2796Y230D01*
X2795Y231D01*
X2795Y232D01*
X2794Y232D01*
Y232D01*
X2793Y234D01*
X2791Y236D01*
X2787Y239D01*
X2783Y241D01*
X2780Y242D01*
X2777Y243D01*
X2774Y243D01*
X2773Y243D01*
D02*
G37*
G36*
X2646D02*
X2644D01*
X2642Y243D01*
X2639Y243D01*
X2634Y242D01*
X2630Y240D01*
X2627Y238D01*
X2624Y236D01*
X2622Y234D01*
X2621Y233D01*
X2620Y232D01*
Y232D01*
X2618Y230D01*
X2617Y228D01*
X2614Y222D01*
X2612Y217D01*
X2611Y212D01*
X2611Y207D01*
X2610Y205D01*
Y203D01*
X2610Y202D01*
Y200D01*
Y200D01*
Y200D01*
Y195D01*
X2611Y191D01*
X2611Y188D01*
X2612Y184D01*
X2612Y181D01*
X2613Y179D01*
X2614Y176D01*
X2615Y174D01*
X2616Y172D01*
X2617Y170D01*
X2618Y169D01*
X2618Y168D01*
X2619Y167D01*
X2620Y166D01*
X2620Y166D01*
X2620Y166D01*
X2622Y164D01*
X2624Y162D01*
X2628Y159D01*
X2632Y157D01*
X2636Y156D01*
X2639Y155D01*
X2642Y155D01*
X2643Y154D01*
X2644D01*
X2647Y155D01*
X2650Y155D01*
X2655Y156D01*
X2659Y158D01*
X2662Y160D01*
X2665Y162D01*
X2667Y164D01*
X2668Y165D01*
X2669Y165D01*
X2669D01*
X2671Y168D01*
X2672Y170D01*
X2674Y175D01*
X2676Y181D01*
X2677Y186D01*
X2678Y191D01*
X2678Y193D01*
Y195D01*
X2679Y197D01*
Y198D01*
Y199D01*
Y199D01*
X2678Y203D01*
X2678Y207D01*
X2678Y210D01*
X2677Y213D01*
X2676Y216D01*
X2676Y219D01*
X2675Y222D01*
X2674Y224D01*
X2673Y226D01*
X2672Y228D01*
X2671Y229D01*
X2671Y230D01*
X2670Y231D01*
X2669Y232D01*
X2669Y232D01*
Y232D01*
X2667Y234D01*
X2665Y236D01*
X2661Y239D01*
X2657Y240D01*
X2653Y242D01*
X2649Y243D01*
X2647Y243D01*
X2646Y243D01*
D02*
G37*
G36*
X916Y243D02*
X914D01*
X912Y243D01*
X909Y243D01*
X905Y242D01*
X900Y240D01*
X897Y238D01*
X894Y236D01*
X892Y234D01*
X891Y233D01*
X890Y232D01*
Y232D01*
X888Y230D01*
X887Y228D01*
X884Y222D01*
X883Y217D01*
X881Y212D01*
X881Y207D01*
X880Y205D01*
Y203D01*
X880Y202D01*
Y200D01*
Y200D01*
Y200D01*
Y195D01*
X881Y191D01*
X881Y188D01*
X882Y184D01*
X883Y181D01*
X883Y179D01*
X884Y176D01*
X885Y174D01*
X886Y172D01*
X887Y170D01*
X888Y169D01*
X889Y168D01*
X889Y167D01*
X890Y166D01*
X890Y166D01*
X890Y166D01*
X892Y164D01*
X894Y162D01*
X898Y159D01*
X902Y157D01*
X906Y156D01*
X909Y155D01*
X912Y155D01*
X913Y154D01*
X914D01*
X917Y155D01*
X920Y155D01*
X925Y156D01*
X929Y158D01*
X932Y160D01*
X935Y162D01*
X937Y164D01*
X939Y165D01*
X939Y165D01*
X939D01*
X941Y168D01*
X942Y170D01*
X945Y175D01*
X946Y181D01*
X948Y186D01*
X948Y191D01*
X948Y193D01*
Y195D01*
X949Y197D01*
Y198D01*
Y199D01*
Y199D01*
X948Y203D01*
X948Y207D01*
X948Y210D01*
X947Y213D01*
X946Y216D01*
X946Y219D01*
X945Y222D01*
X944Y224D01*
X943Y226D01*
X942Y228D01*
X941Y229D01*
X941Y230D01*
X940Y231D01*
X939Y232D01*
X939Y232D01*
Y232D01*
X937Y234D01*
X935Y236D01*
X931Y239D01*
X927Y240D01*
X923Y242D01*
X920Y243D01*
X917Y243D01*
X916Y243D01*
D02*
G37*
G36*
X3502Y244D02*
X3501D01*
X3498Y244D01*
X3496Y244D01*
X3492Y242D01*
X3488Y240D01*
X3485Y238D01*
X3482Y236D01*
X3480Y235D01*
X3479Y233D01*
X3479Y233D01*
Y233D01*
X3477Y231D01*
X3476Y228D01*
X3473Y223D01*
X3472Y218D01*
X3471Y212D01*
X3470Y207D01*
X3470Y205D01*
Y203D01*
X3470Y202D01*
Y201D01*
Y200D01*
Y200D01*
Y196D01*
X3470Y192D01*
X3470Y188D01*
X3471Y184D01*
X3472Y181D01*
X3473Y179D01*
X3473Y176D01*
X3474Y174D01*
X3475Y172D01*
X3476Y170D01*
X3477Y169D01*
X3478Y167D01*
X3478Y166D01*
X3479Y166D01*
X3479Y166D01*
Y165D01*
X3481Y163D01*
X3483Y162D01*
X3486Y159D01*
X3490Y157D01*
X3494Y156D01*
X3497Y155D01*
X3499Y155D01*
X3500Y154D01*
X3501D01*
X3504Y155D01*
X3506Y155D01*
X3510Y156D01*
X3514Y158D01*
X3517Y160D01*
X3520Y162D01*
X3522Y163D01*
X3523Y165D01*
X3523Y165D01*
X3525Y167D01*
X3526Y169D01*
X3529Y175D01*
X3530Y180D01*
X3531Y186D01*
X3532Y191D01*
X3532Y193D01*
Y194D01*
X3532Y196D01*
Y197D01*
Y198D01*
Y198D01*
Y202D01*
X3532Y206D01*
X3531Y209D01*
X3531Y213D01*
X3530Y216D01*
X3529Y219D01*
X3528Y221D01*
X3527Y224D01*
X3527Y225D01*
X3526Y227D01*
X3525Y229D01*
X3524Y230D01*
X3524Y231D01*
X3523Y232D01*
X3523Y232D01*
Y232D01*
X3521Y234D01*
X3519Y236D01*
X3517Y238D01*
X3515Y239D01*
X3511Y241D01*
X3508Y243D01*
X3505Y243D01*
X3503Y244D01*
X3502Y244D01*
D02*
G37*
G36*
X4150Y3187D02*
X4120D01*
X4116Y3187D01*
X4113Y3186D01*
X4110Y3186D01*
X4108Y3185D01*
X4106Y3184D01*
X4105Y3183D01*
X4104Y3183D01*
X4104Y3183D01*
X4102Y3181D01*
X4101Y3179D01*
X4100Y3177D01*
X4100Y3175D01*
X4099Y3174D01*
X4099Y3173D01*
X4099Y3172D01*
Y3172D01*
Y3171D01*
X4099Y3170D01*
X4100Y3168D01*
X4100Y3167D01*
X4100Y3165D01*
X4101Y3164D01*
X4101Y3164D01*
X4102Y3163D01*
X4102Y3163D01*
X4103Y3161D01*
X4104Y3160D01*
X4105Y3159D01*
X4107Y3158D01*
X4108Y3158D01*
X4108Y3157D01*
X4109Y3157D01*
X4109Y3157D01*
X4111Y3156D01*
X4113Y3156D01*
X4116Y3156D01*
X4118Y3156D01*
X4120Y3155D01*
X4121Y3155D01*
X4150D01*
Y3187D01*
D02*
G37*
G36*
X2123Y4336D02*
X2101D01*
X2099Y4336D01*
X2097D01*
X2096Y4336D01*
X2093Y4336D01*
X2091Y4335D01*
X2089Y4335D01*
X2088Y4335D01*
X2087Y4334D01*
X2087Y4334D01*
X2084Y4333D01*
X2082Y4332D01*
X2080Y4330D01*
X2078Y4328D01*
X2076Y4326D01*
X2075Y4325D01*
X2075Y4324D01*
X2075Y4324D01*
X2075Y4324D01*
Y4324D01*
X2074Y4322D01*
X2073Y4320D01*
X2072Y4317D01*
X2071Y4313D01*
X2070Y4309D01*
X2070Y4307D01*
X2070Y4306D01*
X2070Y4304D01*
Y4303D01*
X2070Y4302D01*
Y4301D01*
Y4301D01*
Y4300D01*
X2070Y4297D01*
X2070Y4293D01*
X2070Y4290D01*
X2071Y4287D01*
X2071Y4286D01*
X2071Y4285D01*
X2072Y4284D01*
X2072Y4283D01*
X2072Y4283D01*
X2072Y4282D01*
X2072Y4282D01*
Y4282D01*
X2073Y4279D01*
X2074Y4277D01*
X2076Y4275D01*
X2077Y4273D01*
X2078Y4272D01*
X2078Y4271D01*
X2079Y4270D01*
X2079Y4270D01*
X2081Y4269D01*
X2082Y4268D01*
X2083Y4267D01*
X2085Y4266D01*
X2086Y4266D01*
X2087Y4265D01*
X2088Y4265D01*
X2088Y4265D01*
X2090Y4264D01*
X2092Y4264D01*
X2095Y4264D01*
X2097Y4263D01*
X2099Y4263D01*
X2100Y4263D01*
X2123D01*
Y4336D01*
D02*
G37*
%LPD*%
D10*
X1903Y3748D02*
G03*
X2373Y3714I247J152D01*
G01*
X2374Y4084D02*
G03*
X1913Y3733I-224J-184D01*
G01*
X2450Y3200D02*
G03*
X2450Y3200I-300J0D01*
G01*
X3923Y2519D02*
X4177D01*
Y3027D01*
X3923D02*
X4177D01*
X3923Y2519D02*
Y3027D01*
X2379Y3722D02*
Y4078D01*
D14*
X3750Y1150D02*
G03*
X3600Y1000I0J-150D01*
G01*
X3750Y1450D02*
G03*
X3750Y1150I0J-150D01*
G01*
X3950Y1000D02*
G03*
X3950Y1300I0J150D01*
G01*
Y1300D02*
G03*
X3950Y1600I0J150D01*
G01*
X3750Y1150D02*
X3900D01*
X3750Y1450D02*
X3900D01*
X3800Y1000D02*
X3950D01*
Y1300D02*
X3950D01*
X3800D02*
X3950D01*
X3800Y1600D02*
X3950D01*
D43*
X2500Y3926D02*
Y3850D01*
Y3875D01*
X2449Y3926D01*
X2487Y3888D01*
X2449Y3850D01*
D44*
X3600Y975D02*
D03*
D45*
X3925Y1150D02*
D03*
Y1450D02*
D03*
X3750Y1600D02*
D03*
Y1300D02*
D03*
Y1000D02*
D03*
M02*
