G04*
G04 #@! TF.GenerationSoftware,Altium Limited,Altium Designer,22.1.2 (22)*
G04*
G04 Layer_Color=16711935*
%FSLAX42Y42*%
%MOMM*%
G71*
G04*
G04 #@! TF.SameCoordinates,66CC876A-D426-4744-AE03-0E6BB2EB721C*
G04*
G04*
G04 #@! TF.FilePolarity,Negative*
G04*
G01*
G75*
%ADD19R,1.75X1.75*%
%ADD20C,1.75*%
%ADD21R,1.75X1.75*%
%ADD24P,2.47X4X360.0*%
%ADD25C,2.50*%
%ADD26R,2.50X2.50*%
%ADD29C,2.00*%
%ADD30R,2.00X2.00*%
%ADD34R,1.95X1.95*%
%ADD35C,1.95*%
%ADD36O,1.20X1.70*%
%ADD37C,1.70*%
G04:AMPARAMS|DCode=38|XSize=3.2mm|YSize=4.2mm|CornerRadius=0mm|HoleSize=0mm|Usage=FLASHONLY|Rotation=0.000|XOffset=0mm|YOffset=0mm|HoleType=Round|Shape=Octagon|*
%AMOCTAGOND38*
4,1,8,-0.80,2.10,0.80,2.10,1.60,1.30,1.60,-1.30,0.80,-2.10,-0.80,-2.10,-1.60,-1.30,-1.60,1.30,-0.80,2.10,0.0*
%
%ADD38OCTAGOND38*%

%ADD39R,3.20X4.20*%
%ADD40R,1.70X1.70*%
%ADD41R,1.20X1.70*%
%ADD42C,3.20*%
D19*
X1950Y2494D02*
D03*
D20*
X556Y3900D02*
D03*
X3364Y3836D02*
D03*
X1950Y1606D02*
D03*
D21*
X1644Y3900D02*
D03*
D24*
X2736Y4464D02*
D03*
D25*
X1500Y3170D02*
D03*
Y1950D02*
D03*
X300D02*
D03*
Y3170D02*
D03*
D26*
X900Y3370D02*
D03*
D29*
X2650Y2750D02*
D03*
D30*
X3150D02*
D03*
D34*
X4050Y2900D02*
D03*
D35*
Y2646D02*
D03*
X2023Y3900D02*
D03*
X3800Y3658D02*
D03*
X1808Y4200D02*
D03*
X3800Y2642D02*
D03*
X792Y4200D02*
D03*
X2600Y500D02*
D03*
Y1775D02*
D03*
X2941Y4759D02*
D03*
X2600Y2000D02*
D03*
X3659Y4041D02*
D03*
X2277Y3900D02*
D03*
X3950Y2000D02*
D03*
Y500D02*
D03*
Y1775D02*
D03*
X3500D02*
D03*
Y500D02*
D03*
Y2000D02*
D03*
X3050D02*
D03*
Y500D02*
D03*
Y1775D02*
D03*
D36*
X1773Y4600D02*
D03*
X1200D02*
D03*
X1073D02*
D03*
X1900D02*
D03*
D37*
X2773Y3600D02*
D03*
D38*
X2142Y800D02*
D03*
X1746D02*
D03*
X1350D02*
D03*
X954D02*
D03*
D39*
X558D02*
D03*
D40*
X3027Y3600D02*
D03*
D41*
X1327Y4600D02*
D03*
X2027D02*
D03*
D42*
X2150Y3200D02*
D03*
M02*
