G04*
G04 #@! TF.GenerationSoftware,Altium Limited,Altium Designer,22.1.2 (22)*
G04*
G04 Layer_Color=16777215*
%FSLAX42Y42*%
%MOMM*%
G71*
G04*
G04 #@! TF.SameCoordinates,F51AAEFD-159C-468E-B04C-332DD14EA327*
G04*
G04*
G04 #@! TF.FilePolarity,Positive*
G04*
G01*
G75*
%ADD10C,0.20*%
%ADD11C,0.25*%
%ADD12C,0.15*%
G36*
X2417Y4947D02*
X2401D01*
Y4965D01*
X2417D01*
Y4947D01*
D02*
G37*
G36*
X1949D02*
X1933D01*
Y4965D01*
X1949D01*
Y4947D01*
D02*
G37*
G36*
X1360Y4837D02*
X1346D01*
Y4849D01*
X1345Y4848D01*
X1345Y4848D01*
X1345Y4847D01*
X1344Y4846D01*
X1343Y4845D01*
X1342Y4844D01*
X1341Y4843D01*
X1339Y4842D01*
X1337Y4840D01*
X1335Y4839D01*
X1333Y4838D01*
X1331Y4837D01*
X1328Y4836D01*
X1326Y4835D01*
X1323Y4835D01*
X1319Y4835D01*
X1318D01*
X1318Y4835D01*
X1315Y4835D01*
X1313Y4836D01*
X1310Y4836D01*
X1306Y4838D01*
X1303Y4839D01*
X1299Y4841D01*
X1299D01*
X1299Y4841D01*
X1298Y4842D01*
X1296Y4844D01*
X1294Y4845D01*
X1291Y4848D01*
X1289Y4851D01*
X1287Y4854D01*
X1285Y4858D01*
Y4858D01*
X1284Y4859D01*
X1284Y4859D01*
X1284Y4860D01*
X1284Y4861D01*
X1283Y4862D01*
X1283Y4864D01*
X1282Y4865D01*
X1281Y4869D01*
X1280Y4873D01*
X1280Y4878D01*
X1280Y4883D01*
Y4883D01*
Y4884D01*
Y4885D01*
Y4886D01*
X1280Y4887D01*
Y4888D01*
X1280Y4892D01*
X1281Y4895D01*
X1282Y4900D01*
X1283Y4904D01*
X1284Y4908D01*
Y4909D01*
X1284Y4909D01*
X1285Y4910D01*
X1285Y4910D01*
X1286Y4912D01*
X1288Y4915D01*
X1290Y4918D01*
X1292Y4920D01*
X1295Y4923D01*
X1298Y4926D01*
X1298D01*
X1299Y4926D01*
X1299Y4926D01*
X1300Y4927D01*
X1302Y4928D01*
X1304Y4929D01*
X1307Y4930D01*
X1311Y4931D01*
X1315Y4932D01*
X1319Y4932D01*
X1320D01*
X1322Y4932D01*
X1324Y4932D01*
X1326Y4931D01*
X1329Y4930D01*
X1331Y4930D01*
X1334Y4928D01*
X1334Y4928D01*
X1335Y4928D01*
X1336Y4927D01*
X1337Y4926D01*
X1339Y4925D01*
X1341Y4923D01*
X1343Y4921D01*
X1344Y4919D01*
Y4965D01*
X1360D01*
Y4837D01*
D02*
G37*
G36*
X2258Y4932D02*
X2260Y4932D01*
X2263Y4931D01*
X2265Y4931D01*
X2268Y4930D01*
X2271Y4929D01*
X2271Y4929D01*
X2272Y4928D01*
X2273Y4928D01*
X2275Y4927D01*
X2276Y4926D01*
X2278Y4924D01*
X2280Y4923D01*
X2281Y4921D01*
X2281Y4921D01*
X2282Y4920D01*
X2282Y4919D01*
X2283Y4918D01*
X2284Y4916D01*
X2285Y4914D01*
X2286Y4912D01*
X2286Y4909D01*
Y4909D01*
X2286Y4908D01*
X2287Y4907D01*
X2287Y4906D01*
Y4904D01*
X2287Y4901D01*
X2287Y4898D01*
Y4894D01*
Y4837D01*
X2271D01*
Y4893D01*
Y4893D01*
Y4894D01*
Y4895D01*
Y4897D01*
X2271Y4899D01*
X2271Y4901D01*
X2271Y4903D01*
X2270Y4906D01*
X2270Y4908D01*
Y4908D01*
X2269Y4908D01*
X2269Y4909D01*
X2268Y4910D01*
X2267Y4912D01*
X2266Y4913D01*
X2265Y4914D01*
X2263Y4915D01*
X2263Y4915D01*
X2262Y4916D01*
X2261Y4916D01*
X2260Y4917D01*
X2258Y4917D01*
X2256Y4918D01*
X2254Y4918D01*
X2252Y4918D01*
X2251D01*
X2250Y4918D01*
X2248Y4918D01*
X2246Y4917D01*
X2243Y4917D01*
X2240Y4915D01*
X2237Y4914D01*
X2235Y4912D01*
X2234Y4911D01*
X2234Y4910D01*
X2233Y4910D01*
X2232Y4909D01*
X2232Y4908D01*
X2231Y4906D01*
X2230Y4905D01*
X2230Y4903D01*
X2229Y4901D01*
X2229Y4899D01*
X2228Y4896D01*
X2228Y4894D01*
X2227Y4891D01*
Y4888D01*
Y4837D01*
X2212D01*
Y4930D01*
X2226D01*
Y4917D01*
X2226Y4917D01*
X2226Y4917D01*
X2227Y4918D01*
X2228Y4919D01*
X2229Y4920D01*
X2230Y4921D01*
X2232Y4923D01*
X2233Y4924D01*
X2235Y4926D01*
X2237Y4927D01*
X2240Y4928D01*
X2242Y4930D01*
X2245Y4930D01*
X2248Y4931D01*
X2252Y4932D01*
X2255Y4932D01*
X2257D01*
X2258Y4932D01*
D02*
G37*
G36*
X3205D02*
X3207Y4931D01*
X3209Y4931D01*
X3212Y4930D01*
X3215Y4928D01*
X3218Y4927D01*
X3212Y4912D01*
X3212Y4912D01*
X3211Y4913D01*
X3210Y4913D01*
X3209Y4914D01*
X3207Y4915D01*
X3205Y4915D01*
X3203Y4915D01*
X3201Y4916D01*
X3200D01*
X3199Y4915D01*
X3198Y4915D01*
X3196Y4915D01*
X3195Y4914D01*
X3193Y4914D01*
X3192Y4912D01*
X3191Y4912D01*
X3191Y4912D01*
X3190Y4911D01*
X3189Y4910D01*
X3189Y4909D01*
X3188Y4907D01*
X3187Y4906D01*
X3186Y4904D01*
X3186Y4903D01*
X3186Y4902D01*
X3185Y4901D01*
X3185Y4898D01*
X3184Y4896D01*
X3184Y4893D01*
X3184Y4889D01*
X3183Y4885D01*
Y4837D01*
X3168D01*
Y4930D01*
X3182D01*
Y4916D01*
X3182Y4916D01*
X3183Y4917D01*
X3184Y4919D01*
X3185Y4921D01*
X3187Y4923D01*
X3188Y4925D01*
X3190Y4927D01*
X3192Y4929D01*
X3192Y4929D01*
X3192Y4929D01*
X3194Y4930D01*
X3195Y4930D01*
X3196Y4931D01*
X3198Y4931D01*
X3200Y4932D01*
X3202Y4932D01*
X3203D01*
X3205Y4932D01*
D02*
G37*
G36*
X1721D02*
X1723Y4931D01*
X1726Y4931D01*
X1728Y4930D01*
X1731Y4928D01*
X1734Y4927D01*
X1728Y4912D01*
X1728Y4912D01*
X1728Y4913D01*
X1726Y4913D01*
X1725Y4914D01*
X1723Y4915D01*
X1721Y4915D01*
X1719Y4915D01*
X1717Y4916D01*
X1716D01*
X1715Y4915D01*
X1714Y4915D01*
X1713Y4915D01*
X1711Y4914D01*
X1709Y4914D01*
X1708Y4912D01*
X1708Y4912D01*
X1707Y4912D01*
X1707Y4911D01*
X1706Y4910D01*
X1705Y4909D01*
X1704Y4907D01*
X1703Y4906D01*
X1702Y4904D01*
X1702Y4903D01*
X1702Y4902D01*
X1701Y4901D01*
X1701Y4898D01*
X1700Y4896D01*
X1700Y4893D01*
X1700Y4889D01*
X1700Y4885D01*
Y4837D01*
X1684D01*
Y4930D01*
X1698D01*
Y4916D01*
X1698Y4916D01*
X1699Y4917D01*
X1700Y4919D01*
X1701Y4921D01*
X1703Y4923D01*
X1705Y4925D01*
X1706Y4927D01*
X1708Y4929D01*
X1708Y4929D01*
X1709Y4929D01*
X1710Y4930D01*
X1711Y4930D01*
X1712Y4931D01*
X1714Y4931D01*
X1716Y4932D01*
X1718Y4932D01*
X1719D01*
X1721Y4932D01*
D02*
G37*
G36*
X1263D02*
X1265Y4931D01*
X1267Y4931D01*
X1270Y4930D01*
X1273Y4928D01*
X1276Y4927D01*
X1270Y4912D01*
X1270Y4912D01*
X1269Y4913D01*
X1268Y4913D01*
X1267Y4914D01*
X1265Y4915D01*
X1263Y4915D01*
X1261Y4915D01*
X1259Y4916D01*
X1258D01*
X1257Y4915D01*
X1256Y4915D01*
X1255Y4915D01*
X1253Y4914D01*
X1251Y4914D01*
X1250Y4912D01*
X1250Y4912D01*
X1249Y4912D01*
X1249Y4911D01*
X1248Y4910D01*
X1247Y4909D01*
X1246Y4907D01*
X1245Y4906D01*
X1244Y4904D01*
X1244Y4903D01*
X1244Y4902D01*
X1243Y4901D01*
X1243Y4898D01*
X1242Y4896D01*
X1242Y4893D01*
X1242Y4889D01*
X1241Y4885D01*
Y4837D01*
X1226D01*
Y4930D01*
X1240D01*
Y4916D01*
X1240Y4916D01*
X1241Y4917D01*
X1242Y4919D01*
X1243Y4921D01*
X1245Y4923D01*
X1246Y4925D01*
X1248Y4927D01*
X1250Y4929D01*
X1250Y4929D01*
X1251Y4929D01*
X1252Y4930D01*
X1253Y4930D01*
X1254Y4931D01*
X1256Y4931D01*
X1258Y4932D01*
X1260Y4932D01*
X1261D01*
X1263Y4932D01*
D02*
G37*
G36*
X2969D02*
X2970D01*
X2971Y4932D01*
X2974Y4931D01*
X2978Y4930D01*
X2981Y4929D01*
X2985Y4927D01*
X2988Y4924D01*
X2988Y4924D01*
X2989Y4923D01*
X2990Y4921D01*
X2991Y4920D01*
X2991Y4918D01*
X2992Y4917D01*
X2993Y4915D01*
X2993Y4913D01*
X2994Y4911D01*
X2994Y4909D01*
X2995Y4906D01*
X2995Y4904D01*
Y4901D01*
Y4837D01*
X2979D01*
Y4895D01*
Y4895D01*
Y4896D01*
Y4897D01*
Y4898D01*
X2979Y4900D01*
X2979Y4903D01*
X2979Y4905D01*
X2978Y4907D01*
X2978Y4909D01*
Y4909D01*
X2977Y4910D01*
X2977Y4910D01*
X2976Y4911D01*
X2976Y4912D01*
X2975Y4913D01*
X2974Y4915D01*
X2972Y4916D01*
X2972Y4916D01*
X2971Y4916D01*
X2971Y4916D01*
X2969Y4917D01*
X2968Y4917D01*
X2966Y4918D01*
X2965Y4918D01*
X2963Y4918D01*
X2962D01*
X2961Y4918D01*
X2959Y4918D01*
X2957Y4917D01*
X2954Y4917D01*
X2952Y4915D01*
X2949Y4914D01*
X2946Y4912D01*
X2946Y4911D01*
X2945Y4910D01*
X2944Y4909D01*
X2943Y4907D01*
X2942Y4904D01*
X2941Y4900D01*
X2940Y4896D01*
X2940Y4891D01*
Y4837D01*
X2924D01*
Y4897D01*
Y4897D01*
Y4898D01*
Y4898D01*
Y4899D01*
X2924Y4901D01*
X2924Y4903D01*
X2923Y4906D01*
X2922Y4908D01*
X2921Y4911D01*
X2920Y4913D01*
X2920Y4913D01*
X2919Y4914D01*
X2919Y4915D01*
X2917Y4916D01*
X2916Y4917D01*
X2913Y4917D01*
X2911Y4918D01*
X2908Y4918D01*
X2906D01*
X2905Y4918D01*
X2904Y4918D01*
X2902Y4917D01*
X2900Y4917D01*
X2898Y4916D01*
X2895Y4915D01*
X2895Y4915D01*
X2894Y4914D01*
X2894Y4913D01*
X2892Y4912D01*
X2891Y4911D01*
X2890Y4909D01*
X2888Y4907D01*
X2887Y4904D01*
X2887Y4904D01*
X2887Y4903D01*
X2886Y4902D01*
X2886Y4900D01*
X2885Y4897D01*
X2885Y4893D01*
X2885Y4890D01*
X2885Y4885D01*
Y4837D01*
X2869D01*
Y4930D01*
X2883D01*
Y4917D01*
X2883Y4917D01*
X2884Y4918D01*
X2885Y4919D01*
X2886Y4920D01*
X2888Y4922D01*
X2890Y4924D01*
X2892Y4926D01*
X2895Y4928D01*
X2895Y4928D01*
X2896Y4928D01*
X2897Y4929D01*
X2899Y4930D01*
X2902Y4931D01*
X2905Y4931D01*
X2908Y4932D01*
X2911Y4932D01*
X2913D01*
X2915Y4932D01*
X2917Y4931D01*
X2920Y4931D01*
X2923Y4930D01*
X2925Y4929D01*
X2928Y4927D01*
X2928Y4927D01*
X2929Y4927D01*
X2930Y4926D01*
X2932Y4924D01*
X2933Y4923D01*
X2935Y4921D01*
X2936Y4918D01*
X2937Y4915D01*
X2938Y4916D01*
X2938Y4916D01*
X2939Y4917D01*
X2939Y4918D01*
X2941Y4919D01*
X2942Y4921D01*
X2943Y4922D01*
X2945Y4924D01*
X2947Y4925D01*
X2949Y4927D01*
X2952Y4928D01*
X2954Y4929D01*
X2957Y4930D01*
X2960Y4931D01*
X2963Y4932D01*
X2966Y4932D01*
X2968D01*
X2969Y4932D01*
D02*
G37*
G36*
X2575D02*
X2577Y4932D01*
X2580Y4931D01*
X2584Y4930D01*
X2587Y4930D01*
X2590Y4929D01*
X2590D01*
X2590Y4928D01*
X2591Y4928D01*
X2593Y4927D01*
X2595Y4926D01*
X2597Y4925D01*
X2599Y4924D01*
X2601Y4922D01*
X2602Y4920D01*
X2602Y4920D01*
X2603Y4919D01*
X2604Y4918D01*
X2604Y4916D01*
X2605Y4914D01*
X2606Y4912D01*
X2607Y4909D01*
X2608Y4906D01*
X2592Y4904D01*
Y4904D01*
X2592Y4905D01*
X2592Y4906D01*
X2591Y4908D01*
X2590Y4910D01*
X2589Y4911D01*
X2588Y4913D01*
X2586Y4915D01*
X2586Y4915D01*
X2585Y4915D01*
X2584Y4916D01*
X2582Y4917D01*
X2581Y4918D01*
X2578Y4918D01*
X2575Y4919D01*
X2572Y4919D01*
X2570D01*
X2568Y4919D01*
X2566Y4919D01*
X2564Y4918D01*
X2561Y4917D01*
X2559Y4917D01*
X2557Y4915D01*
X2556Y4915D01*
X2556Y4915D01*
X2555Y4914D01*
X2554Y4913D01*
X2553Y4912D01*
X2553Y4910D01*
X2552Y4909D01*
X2552Y4907D01*
Y4907D01*
Y4906D01*
X2552Y4906D01*
Y4905D01*
X2553Y4903D01*
X2554Y4901D01*
X2554Y4901D01*
X2554Y4901D01*
X2554Y4900D01*
X2555Y4900D01*
X2556Y4899D01*
X2557Y4899D01*
X2558Y4898D01*
X2560Y4897D01*
X2560D01*
X2560Y4897D01*
X2561Y4897D01*
X2562Y4896D01*
X2564Y4896D01*
X2567Y4895D01*
X2568Y4895D01*
X2570Y4894D01*
X2572Y4894D01*
X2574Y4893D01*
X2574D01*
X2574Y4893D01*
X2575Y4893D01*
X2577Y4893D01*
X2578Y4892D01*
X2579Y4892D01*
X2583Y4891D01*
X2587Y4890D01*
X2591Y4888D01*
X2594Y4887D01*
X2596Y4886D01*
X2597Y4886D01*
X2597Y4886D01*
X2598Y4885D01*
X2599Y4885D01*
X2601Y4884D01*
X2603Y4883D01*
X2604Y4881D01*
X2606Y4880D01*
X2607Y4878D01*
X2608Y4878D01*
X2608Y4877D01*
X2609Y4876D01*
X2609Y4874D01*
X2610Y4872D01*
X2611Y4870D01*
X2611Y4867D01*
X2611Y4864D01*
Y4864D01*
Y4863D01*
X2611Y4861D01*
X2611Y4859D01*
X2610Y4857D01*
X2609Y4855D01*
X2608Y4852D01*
X2607Y4849D01*
X2607Y4849D01*
X2606Y4848D01*
X2605Y4847D01*
X2603Y4845D01*
X2601Y4844D01*
X2599Y4842D01*
X2597Y4840D01*
X2593Y4839D01*
X2593D01*
X2593Y4838D01*
X2592Y4838D01*
X2590Y4838D01*
X2588Y4837D01*
X2585Y4836D01*
X2581Y4835D01*
X2578Y4835D01*
X2574Y4835D01*
X2572D01*
X2571Y4835D01*
X2569D01*
X2567Y4835D01*
X2566Y4835D01*
X2564Y4836D01*
X2559Y4837D01*
X2554Y4838D01*
X2550Y4840D01*
X2548Y4841D01*
X2546Y4842D01*
X2546Y4843D01*
X2546Y4843D01*
X2545Y4844D01*
X2543Y4845D01*
X2541Y4848D01*
X2539Y4851D01*
X2537Y4855D01*
X2535Y4860D01*
X2534Y4865D01*
X2550Y4867D01*
Y4867D01*
Y4867D01*
X2550Y4866D01*
X2550Y4864D01*
X2551Y4862D01*
X2552Y4860D01*
X2553Y4857D01*
X2555Y4855D01*
X2557Y4853D01*
X2557Y4853D01*
X2558Y4852D01*
X2559Y4851D01*
X2561Y4850D01*
X2564Y4849D01*
X2567Y4849D01*
X2570Y4848D01*
X2574Y4848D01*
X2576D01*
X2577Y4848D01*
X2580Y4848D01*
X2582Y4849D01*
X2585Y4850D01*
X2588Y4851D01*
X2590Y4852D01*
X2590Y4852D01*
X2591Y4853D01*
X2592Y4854D01*
X2593Y4855D01*
X2594Y4857D01*
X2594Y4858D01*
X2595Y4860D01*
X2595Y4863D01*
Y4863D01*
Y4863D01*
X2595Y4864D01*
X2595Y4866D01*
X2594Y4867D01*
X2593Y4868D01*
X2592Y4870D01*
X2590Y4871D01*
X2590Y4871D01*
X2590Y4871D01*
X2589Y4872D01*
X2587Y4872D01*
X2585Y4873D01*
X2584Y4874D01*
X2582Y4874D01*
X2581Y4875D01*
X2579Y4875D01*
X2577Y4876D01*
X2574Y4876D01*
X2574D01*
X2574Y4876D01*
X2573Y4877D01*
X2572Y4877D01*
X2570Y4877D01*
X2568Y4878D01*
X2565Y4879D01*
X2561Y4880D01*
X2557Y4881D01*
X2553Y4883D01*
X2552Y4883D01*
X2550Y4884D01*
X2550Y4884D01*
X2549Y4884D01*
X2548Y4885D01*
X2547Y4886D01*
X2545Y4887D01*
X2543Y4889D01*
X2542Y4890D01*
X2540Y4893D01*
X2540Y4893D01*
X2539Y4893D01*
X2539Y4895D01*
X2538Y4896D01*
X2538Y4898D01*
X2537Y4900D01*
X2537Y4903D01*
X2537Y4905D01*
Y4905D01*
Y4906D01*
X2537Y4907D01*
X2537Y4909D01*
X2537Y4911D01*
X2538Y4913D01*
X2539Y4915D01*
X2539Y4917D01*
X2540Y4917D01*
X2540Y4917D01*
X2541Y4918D01*
X2542Y4920D01*
X2543Y4921D01*
X2544Y4923D01*
X2545Y4924D01*
X2547Y4925D01*
X2547Y4926D01*
X2548Y4926D01*
X2549Y4926D01*
X2550Y4927D01*
X2551Y4928D01*
X2553Y4928D01*
X2555Y4929D01*
X2557Y4930D01*
X2558Y4930D01*
X2558Y4930D01*
X2560Y4931D01*
X2561Y4931D01*
X2563Y4931D01*
X2566Y4932D01*
X2568Y4932D01*
X2573D01*
X2575Y4932D01*
D02*
G37*
G36*
X2007D02*
X2010Y4932D01*
X2013Y4931D01*
X2016Y4930D01*
X2019Y4930D01*
X2022Y4929D01*
X2023D01*
X2023Y4928D01*
X2024Y4928D01*
X2025Y4927D01*
X2027Y4926D01*
X2029Y4925D01*
X2031Y4924D01*
X2033Y4922D01*
X2035Y4920D01*
X2035Y4920D01*
X2035Y4919D01*
X2036Y4918D01*
X2037Y4916D01*
X2038Y4914D01*
X2039Y4912D01*
X2039Y4909D01*
X2040Y4906D01*
X2025Y4904D01*
Y4904D01*
X2025Y4905D01*
X2024Y4906D01*
X2024Y4908D01*
X2023Y4910D01*
X2022Y4911D01*
X2020Y4913D01*
X2018Y4915D01*
X2018Y4915D01*
X2018Y4915D01*
X2016Y4916D01*
X2015Y4917D01*
X2013Y4918D01*
X2010Y4918D01*
X2008Y4919D01*
X2004Y4919D01*
X2003D01*
X2001Y4919D01*
X1998Y4919D01*
X1996Y4918D01*
X1993Y4917D01*
X1991Y4917D01*
X1989Y4915D01*
X1989Y4915D01*
X1988Y4915D01*
X1987Y4914D01*
X1987Y4913D01*
X1986Y4912D01*
X1985Y4910D01*
X1984Y4909D01*
X1984Y4907D01*
Y4907D01*
Y4906D01*
X1984Y4906D01*
Y4905D01*
X1985Y4903D01*
X1986Y4901D01*
X1986Y4901D01*
X1986Y4901D01*
X1987Y4900D01*
X1988Y4900D01*
X1988Y4899D01*
X1989Y4899D01*
X1991Y4898D01*
X1992Y4897D01*
X1992D01*
X1993Y4897D01*
X1993Y4897D01*
X1995Y4896D01*
X1997Y4896D01*
X1999Y4895D01*
X2000Y4895D01*
X2002Y4894D01*
X2004Y4894D01*
X2006Y4893D01*
X2006D01*
X2007Y4893D01*
X2008Y4893D01*
X2009Y4893D01*
X2010Y4892D01*
X2012Y4892D01*
X2015Y4891D01*
X2019Y4890D01*
X2023Y4888D01*
X2027Y4887D01*
X2028Y4886D01*
X2029Y4886D01*
X2030Y4886D01*
X2030Y4885D01*
X2032Y4885D01*
X2033Y4884D01*
X2035Y4883D01*
X2037Y4881D01*
X2038Y4880D01*
X2040Y4878D01*
X2040Y4878D01*
X2040Y4877D01*
X2041Y4876D01*
X2042Y4874D01*
X2042Y4872D01*
X2043Y4870D01*
X2043Y4867D01*
X2044Y4864D01*
Y4864D01*
Y4863D01*
X2043Y4861D01*
X2043Y4859D01*
X2043Y4857D01*
X2042Y4855D01*
X2040Y4852D01*
X2039Y4849D01*
X2039Y4849D01*
X2038Y4848D01*
X2037Y4847D01*
X2036Y4845D01*
X2034Y4844D01*
X2031Y4842D01*
X2029Y4840D01*
X2026Y4839D01*
X2025D01*
X2025Y4838D01*
X2024Y4838D01*
X2022Y4838D01*
X2020Y4837D01*
X2017Y4836D01*
X2014Y4835D01*
X2010Y4835D01*
X2006Y4835D01*
X2004D01*
X2003Y4835D01*
X2002D01*
X2000Y4835D01*
X1998Y4835D01*
X1996Y4836D01*
X1991Y4837D01*
X1987Y4838D01*
X1982Y4840D01*
X1980Y4841D01*
X1978Y4842D01*
X1978Y4843D01*
X1978Y4843D01*
X1977Y4844D01*
X1975Y4845D01*
X1973Y4848D01*
X1971Y4851D01*
X1969Y4855D01*
X1968Y4860D01*
X1966Y4865D01*
X1982Y4867D01*
Y4867D01*
Y4867D01*
X1982Y4866D01*
X1983Y4864D01*
X1983Y4862D01*
X1984Y4860D01*
X1985Y4857D01*
X1987Y4855D01*
X1989Y4853D01*
X1990Y4853D01*
X1990Y4852D01*
X1992Y4851D01*
X1994Y4850D01*
X1996Y4849D01*
X1999Y4849D01*
X2002Y4848D01*
X2006Y4848D01*
X2008D01*
X2010Y4848D01*
X2012Y4848D01*
X2015Y4849D01*
X2018Y4850D01*
X2020Y4851D01*
X2022Y4852D01*
X2022Y4852D01*
X2023Y4853D01*
X2024Y4854D01*
X2025Y4855D01*
X2026Y4857D01*
X2027Y4858D01*
X2027Y4860D01*
X2028Y4863D01*
Y4863D01*
Y4863D01*
X2027Y4864D01*
X2027Y4866D01*
X2026Y4867D01*
X2025Y4868D01*
X2024Y4870D01*
X2023Y4871D01*
X2023Y4871D01*
X2022Y4871D01*
X2021Y4872D01*
X2020Y4872D01*
X2017Y4873D01*
X2016Y4874D01*
X2015Y4874D01*
X2013Y4875D01*
X2011Y4875D01*
X2009Y4876D01*
X2007Y4876D01*
X2006D01*
X2006Y4876D01*
X2005Y4877D01*
X2004Y4877D01*
X2002Y4877D01*
X2001Y4878D01*
X1997Y4879D01*
X1993Y4880D01*
X1989Y4881D01*
X1985Y4883D01*
X1984Y4883D01*
X1983Y4884D01*
X1982Y4884D01*
X1981Y4884D01*
X1980Y4885D01*
X1979Y4886D01*
X1977Y4887D01*
X1975Y4889D01*
X1974Y4890D01*
X1972Y4893D01*
X1972Y4893D01*
X1972Y4893D01*
X1971Y4895D01*
X1971Y4896D01*
X1970Y4898D01*
X1970Y4900D01*
X1969Y4903D01*
X1969Y4905D01*
Y4905D01*
Y4906D01*
X1969Y4907D01*
X1969Y4909D01*
X1970Y4911D01*
X1970Y4913D01*
X1971Y4915D01*
X1972Y4917D01*
X1972Y4917D01*
X1972Y4917D01*
X1973Y4918D01*
X1974Y4920D01*
X1975Y4921D01*
X1976Y4923D01*
X1978Y4924D01*
X1980Y4925D01*
X1980Y4926D01*
X1980Y4926D01*
X1981Y4926D01*
X1982Y4927D01*
X1984Y4928D01*
X1985Y4928D01*
X1987Y4929D01*
X1990Y4930D01*
X1990Y4930D01*
X1991Y4930D01*
X1992Y4931D01*
X1994Y4931D01*
X1996Y4931D01*
X1998Y4932D01*
X2000Y4932D01*
X2005D01*
X2007Y4932D01*
D02*
G37*
G36*
X1878D02*
X1880Y4932D01*
X1883Y4931D01*
X1886Y4930D01*
X1890Y4930D01*
X1893Y4929D01*
X1893D01*
X1893Y4928D01*
X1894Y4928D01*
X1896Y4927D01*
X1898Y4926D01*
X1900Y4925D01*
X1902Y4924D01*
X1903Y4922D01*
X1905Y4920D01*
X1905Y4920D01*
X1906Y4919D01*
X1906Y4918D01*
X1907Y4916D01*
X1908Y4914D01*
X1909Y4912D01*
X1910Y4909D01*
X1911Y4906D01*
X1895Y4904D01*
Y4904D01*
X1895Y4905D01*
X1895Y4906D01*
X1894Y4908D01*
X1893Y4910D01*
X1892Y4911D01*
X1891Y4913D01*
X1889Y4915D01*
X1889Y4915D01*
X1888Y4915D01*
X1887Y4916D01*
X1885Y4917D01*
X1883Y4918D01*
X1881Y4918D01*
X1878Y4919D01*
X1875Y4919D01*
X1873D01*
X1871Y4919D01*
X1869Y4919D01*
X1866Y4918D01*
X1864Y4917D01*
X1861Y4917D01*
X1859Y4915D01*
X1859Y4915D01*
X1859Y4915D01*
X1858Y4914D01*
X1857Y4913D01*
X1856Y4912D01*
X1855Y4910D01*
X1855Y4909D01*
X1855Y4907D01*
Y4907D01*
Y4906D01*
X1855Y4906D01*
Y4905D01*
X1855Y4903D01*
X1857Y4901D01*
X1857Y4901D01*
X1857Y4901D01*
X1857Y4900D01*
X1858Y4900D01*
X1859Y4899D01*
X1860Y4899D01*
X1861Y4898D01*
X1863Y4897D01*
X1863D01*
X1863Y4897D01*
X1864Y4897D01*
X1865Y4896D01*
X1867Y4896D01*
X1870Y4895D01*
X1871Y4895D01*
X1873Y4894D01*
X1875Y4894D01*
X1877Y4893D01*
X1877D01*
X1877Y4893D01*
X1878Y4893D01*
X1879Y4893D01*
X1881Y4892D01*
X1882Y4892D01*
X1886Y4891D01*
X1890Y4890D01*
X1894Y4888D01*
X1897Y4887D01*
X1899Y4886D01*
X1900Y4886D01*
X1900Y4886D01*
X1901Y4885D01*
X1902Y4885D01*
X1904Y4884D01*
X1905Y4883D01*
X1907Y4881D01*
X1909Y4880D01*
X1910Y4878D01*
X1910Y4878D01*
X1911Y4877D01*
X1912Y4876D01*
X1912Y4874D01*
X1913Y4872D01*
X1914Y4870D01*
X1914Y4867D01*
X1914Y4864D01*
Y4864D01*
Y4863D01*
X1914Y4861D01*
X1914Y4859D01*
X1913Y4857D01*
X1912Y4855D01*
X1911Y4852D01*
X1910Y4849D01*
X1909Y4849D01*
X1909Y4848D01*
X1908Y4847D01*
X1906Y4845D01*
X1904Y4844D01*
X1902Y4842D01*
X1899Y4840D01*
X1896Y4839D01*
X1896D01*
X1896Y4838D01*
X1895Y4838D01*
X1893Y4838D01*
X1890Y4837D01*
X1888Y4836D01*
X1884Y4835D01*
X1881Y4835D01*
X1877Y4835D01*
X1875D01*
X1874Y4835D01*
X1872D01*
X1870Y4835D01*
X1868Y4835D01*
X1866Y4836D01*
X1862Y4837D01*
X1857Y4838D01*
X1853Y4840D01*
X1851Y4841D01*
X1849Y4842D01*
X1849Y4843D01*
X1849Y4843D01*
X1848Y4844D01*
X1846Y4845D01*
X1844Y4848D01*
X1842Y4851D01*
X1840Y4855D01*
X1838Y4860D01*
X1837Y4865D01*
X1853Y4867D01*
Y4867D01*
Y4867D01*
X1853Y4866D01*
X1853Y4864D01*
X1854Y4862D01*
X1855Y4860D01*
X1856Y4857D01*
X1858Y4855D01*
X1860Y4853D01*
X1860Y4853D01*
X1861Y4852D01*
X1862Y4851D01*
X1864Y4850D01*
X1867Y4849D01*
X1869Y4849D01*
X1873Y4848D01*
X1877Y4848D01*
X1878D01*
X1880Y4848D01*
X1883Y4848D01*
X1885Y4849D01*
X1888Y4850D01*
X1890Y4851D01*
X1893Y4852D01*
X1893Y4852D01*
X1894Y4853D01*
X1894Y4854D01*
X1895Y4855D01*
X1896Y4857D01*
X1897Y4858D01*
X1898Y4860D01*
X1898Y4863D01*
Y4863D01*
Y4863D01*
X1898Y4864D01*
X1898Y4866D01*
X1897Y4867D01*
X1896Y4868D01*
X1895Y4870D01*
X1893Y4871D01*
X1893Y4871D01*
X1893Y4871D01*
X1892Y4872D01*
X1890Y4872D01*
X1888Y4873D01*
X1887Y4874D01*
X1885Y4874D01*
X1883Y4875D01*
X1882Y4875D01*
X1880Y4876D01*
X1877Y4876D01*
X1877D01*
X1876Y4876D01*
X1875Y4877D01*
X1874Y4877D01*
X1873Y4877D01*
X1871Y4878D01*
X1868Y4879D01*
X1864Y4880D01*
X1860Y4881D01*
X1856Y4883D01*
X1854Y4883D01*
X1853Y4884D01*
X1853Y4884D01*
X1852Y4884D01*
X1851Y4885D01*
X1849Y4886D01*
X1848Y4887D01*
X1846Y4889D01*
X1844Y4890D01*
X1843Y4893D01*
X1843Y4893D01*
X1842Y4893D01*
X1842Y4895D01*
X1841Y4896D01*
X1841Y4898D01*
X1840Y4900D01*
X1840Y4903D01*
X1840Y4905D01*
Y4905D01*
Y4906D01*
X1840Y4907D01*
X1840Y4909D01*
X1840Y4911D01*
X1841Y4913D01*
X1841Y4915D01*
X1842Y4917D01*
X1843Y4917D01*
X1843Y4917D01*
X1843Y4918D01*
X1844Y4920D01*
X1845Y4921D01*
X1847Y4923D01*
X1848Y4924D01*
X1850Y4925D01*
X1850Y4926D01*
X1851Y4926D01*
X1852Y4926D01*
X1853Y4927D01*
X1854Y4928D01*
X1856Y4928D01*
X1858Y4929D01*
X1860Y4930D01*
X1860Y4930D01*
X1861Y4930D01*
X1863Y4931D01*
X1864Y4931D01*
X1866Y4931D01*
X1868Y4932D01*
X1871Y4932D01*
X1875D01*
X1878Y4932D01*
D02*
G37*
G36*
X2720D02*
X2721D01*
X2723Y4932D01*
X2726Y4931D01*
X2730Y4930D01*
X2734Y4929D01*
X2738Y4927D01*
X2742Y4924D01*
X2742D01*
X2742Y4924D01*
X2744Y4923D01*
X2745Y4921D01*
X2747Y4919D01*
X2749Y4916D01*
X2751Y4912D01*
X2753Y4908D01*
X2754Y4903D01*
X2739Y4900D01*
Y4900D01*
X2739Y4901D01*
X2739Y4902D01*
X2738Y4903D01*
X2737Y4905D01*
X2736Y4908D01*
X2735Y4910D01*
X2733Y4912D01*
X2731Y4914D01*
X2731Y4914D01*
X2730Y4915D01*
X2729Y4916D01*
X2728Y4917D01*
X2726Y4917D01*
X2723Y4918D01*
X2721Y4919D01*
X2718Y4919D01*
X2717D01*
X2716Y4919D01*
X2714Y4919D01*
X2711Y4918D01*
X2708Y4917D01*
X2705Y4915D01*
X2702Y4913D01*
X2700Y4912D01*
X2699Y4910D01*
Y4910D01*
X2698Y4910D01*
X2698Y4910D01*
X2698Y4909D01*
X2697Y4908D01*
X2696Y4907D01*
X2696Y4905D01*
X2695Y4904D01*
X2694Y4902D01*
X2694Y4900D01*
X2693Y4898D01*
X2692Y4895D01*
X2692Y4893D01*
X2692Y4890D01*
X2691Y4887D01*
Y4883D01*
Y4883D01*
Y4883D01*
Y4882D01*
X2692Y4880D01*
Y4879D01*
X2692Y4877D01*
X2692Y4873D01*
X2693Y4869D01*
X2694Y4864D01*
X2696Y4860D01*
X2697Y4858D01*
X2698Y4856D01*
X2699Y4856D01*
X2700Y4855D01*
X2701Y4854D01*
X2703Y4852D01*
X2706Y4850D01*
X2709Y4849D01*
X2713Y4848D01*
X2715Y4848D01*
X2717Y4848D01*
X2717D01*
X2719Y4848D01*
X2720Y4848D01*
X2722Y4849D01*
X2725Y4849D01*
X2727Y4850D01*
X2730Y4852D01*
X2732Y4853D01*
X2733Y4854D01*
X2733Y4855D01*
X2734Y4856D01*
X2736Y4858D01*
X2737Y4860D01*
X2739Y4863D01*
X2740Y4867D01*
X2740Y4871D01*
X2756Y4869D01*
Y4869D01*
X2756Y4868D01*
X2756Y4868D01*
X2755Y4866D01*
X2755Y4865D01*
X2755Y4863D01*
X2753Y4860D01*
X2752Y4856D01*
X2749Y4852D01*
X2746Y4848D01*
X2745Y4846D01*
X2743Y4844D01*
X2743Y4844D01*
X2742Y4843D01*
X2742Y4843D01*
X2741Y4843D01*
X2740Y4842D01*
X2739Y4841D01*
X2737Y4840D01*
X2736Y4839D01*
X2732Y4838D01*
X2728Y4836D01*
X2723Y4835D01*
X2720Y4835D01*
X2717Y4835D01*
X2715D01*
X2714Y4835D01*
X2712Y4835D01*
X2711Y4836D01*
X2709Y4836D01*
X2706Y4836D01*
X2701Y4838D01*
X2699Y4839D01*
X2696Y4840D01*
X2694Y4842D01*
X2691Y4843D01*
X2689Y4845D01*
X2687Y4847D01*
X2687Y4848D01*
X2686Y4848D01*
X2686Y4849D01*
X2685Y4850D01*
X2684Y4851D01*
X2683Y4853D01*
X2682Y4854D01*
X2681Y4856D01*
X2680Y4859D01*
X2679Y4862D01*
X2678Y4864D01*
X2677Y4868D01*
X2676Y4871D01*
X2676Y4875D01*
X2675Y4879D01*
X2675Y4883D01*
Y4883D01*
Y4884D01*
Y4885D01*
Y4886D01*
X2675Y4887D01*
Y4888D01*
X2676Y4890D01*
X2676Y4892D01*
X2676Y4896D01*
X2677Y4900D01*
X2678Y4905D01*
X2680Y4909D01*
Y4910D01*
X2680Y4910D01*
X2681Y4910D01*
X2681Y4911D01*
X2682Y4913D01*
X2684Y4916D01*
X2686Y4918D01*
X2689Y4921D01*
X2692Y4924D01*
X2695Y4926D01*
X2695D01*
X2696Y4926D01*
X2696Y4927D01*
X2697Y4927D01*
X2698Y4927D01*
X2699Y4928D01*
X2702Y4929D01*
X2705Y4930D01*
X2709Y4931D01*
X2713Y4932D01*
X2717Y4932D01*
X2719D01*
X2720Y4932D01*
D02*
G37*
G36*
X2352D02*
X2353D01*
X2354Y4932D01*
X2358Y4931D01*
X2362Y4930D01*
X2366Y4929D01*
X2370Y4927D01*
X2374Y4924D01*
X2374D01*
X2374Y4924D01*
X2375Y4923D01*
X2377Y4921D01*
X2379Y4919D01*
X2381Y4916D01*
X2383Y4912D01*
X2385Y4908D01*
X2386Y4903D01*
X2371Y4900D01*
Y4900D01*
X2370Y4901D01*
X2370Y4902D01*
X2370Y4903D01*
X2369Y4905D01*
X2368Y4908D01*
X2366Y4910D01*
X2365Y4912D01*
X2363Y4914D01*
X2363Y4914D01*
X2362Y4915D01*
X2361Y4916D01*
X2359Y4917D01*
X2357Y4917D01*
X2355Y4918D01*
X2352Y4919D01*
X2350Y4919D01*
X2348D01*
X2347Y4919D01*
X2345Y4919D01*
X2343Y4918D01*
X2340Y4917D01*
X2336Y4915D01*
X2333Y4913D01*
X2332Y4912D01*
X2330Y4910D01*
Y4910D01*
X2330Y4910D01*
X2330Y4910D01*
X2329Y4909D01*
X2329Y4908D01*
X2328Y4907D01*
X2327Y4905D01*
X2327Y4904D01*
X2326Y4902D01*
X2325Y4900D01*
X2325Y4898D01*
X2324Y4895D01*
X2324Y4893D01*
X2323Y4890D01*
X2323Y4887D01*
Y4883D01*
Y4883D01*
Y4883D01*
Y4882D01*
X2323Y4880D01*
Y4879D01*
X2323Y4877D01*
X2324Y4873D01*
X2325Y4869D01*
X2326Y4864D01*
X2327Y4860D01*
X2329Y4858D01*
X2330Y4856D01*
X2330Y4856D01*
X2331Y4855D01*
X2333Y4854D01*
X2335Y4852D01*
X2338Y4850D01*
X2341Y4849D01*
X2345Y4848D01*
X2347Y4848D01*
X2349Y4848D01*
X2349D01*
X2350Y4848D01*
X2352Y4848D01*
X2354Y4849D01*
X2356Y4849D01*
X2359Y4850D01*
X2362Y4852D01*
X2364Y4853D01*
X2364Y4854D01*
X2365Y4855D01*
X2366Y4856D01*
X2367Y4858D01*
X2369Y4860D01*
X2370Y4863D01*
X2371Y4867D01*
X2372Y4871D01*
X2387Y4869D01*
Y4869D01*
X2387Y4868D01*
X2387Y4868D01*
X2387Y4866D01*
X2387Y4865D01*
X2386Y4863D01*
X2385Y4860D01*
X2383Y4856D01*
X2381Y4852D01*
X2378Y4848D01*
X2376Y4846D01*
X2374Y4844D01*
X2374Y4844D01*
X2374Y4843D01*
X2373Y4843D01*
X2372Y4843D01*
X2372Y4842D01*
X2370Y4841D01*
X2369Y4840D01*
X2367Y4839D01*
X2364Y4838D01*
X2359Y4836D01*
X2354Y4835D01*
X2352Y4835D01*
X2349Y4835D01*
X2347D01*
X2346Y4835D01*
X2344Y4835D01*
X2342Y4836D01*
X2340Y4836D01*
X2338Y4836D01*
X2333Y4838D01*
X2330Y4839D01*
X2328Y4840D01*
X2325Y4842D01*
X2323Y4843D01*
X2320Y4845D01*
X2318Y4847D01*
X2318Y4848D01*
X2318Y4848D01*
X2317Y4849D01*
X2316Y4850D01*
X2316Y4851D01*
X2315Y4853D01*
X2314Y4854D01*
X2312Y4856D01*
X2311Y4859D01*
X2310Y4862D01*
X2309Y4864D01*
X2309Y4868D01*
X2308Y4871D01*
X2307Y4875D01*
X2307Y4879D01*
X2307Y4883D01*
Y4883D01*
Y4884D01*
Y4885D01*
Y4886D01*
X2307Y4887D01*
Y4888D01*
X2307Y4890D01*
X2307Y4892D01*
X2308Y4896D01*
X2309Y4900D01*
X2310Y4905D01*
X2312Y4909D01*
Y4910D01*
X2312Y4910D01*
X2312Y4910D01*
X2312Y4911D01*
X2314Y4913D01*
X2315Y4916D01*
X2317Y4918D01*
X2320Y4921D01*
X2323Y4924D01*
X2327Y4926D01*
X2327D01*
X2327Y4926D01*
X2328Y4927D01*
X2329Y4927D01*
X2330Y4927D01*
X2331Y4928D01*
X2333Y4929D01*
X2337Y4930D01*
X2340Y4931D01*
X2345Y4932D01*
X2349Y4932D01*
X2350D01*
X2352Y4932D01*
D02*
G37*
G36*
X1077D02*
X1078D01*
X1079Y4932D01*
X1083Y4931D01*
X1087Y4930D01*
X1091Y4929D01*
X1095Y4927D01*
X1099Y4924D01*
X1099D01*
X1099Y4924D01*
X1100Y4923D01*
X1102Y4921D01*
X1104Y4919D01*
X1106Y4916D01*
X1108Y4912D01*
X1110Y4908D01*
X1111Y4903D01*
X1096Y4900D01*
Y4900D01*
X1096Y4901D01*
X1096Y4902D01*
X1095Y4903D01*
X1094Y4905D01*
X1093Y4908D01*
X1092Y4910D01*
X1090Y4912D01*
X1088Y4914D01*
X1088Y4914D01*
X1087Y4915D01*
X1086Y4916D01*
X1084Y4917D01*
X1082Y4917D01*
X1080Y4918D01*
X1078Y4919D01*
X1075Y4919D01*
X1074D01*
X1073Y4919D01*
X1071Y4919D01*
X1068Y4918D01*
X1065Y4917D01*
X1062Y4915D01*
X1059Y4913D01*
X1057Y4912D01*
X1056Y4910D01*
Y4910D01*
X1055Y4910D01*
X1055Y4910D01*
X1054Y4909D01*
X1054Y4908D01*
X1053Y4907D01*
X1053Y4905D01*
X1052Y4904D01*
X1051Y4902D01*
X1051Y4900D01*
X1050Y4898D01*
X1049Y4895D01*
X1049Y4893D01*
X1049Y4890D01*
X1048Y4887D01*
Y4883D01*
Y4883D01*
Y4883D01*
Y4882D01*
X1048Y4880D01*
Y4879D01*
X1049Y4877D01*
X1049Y4873D01*
X1050Y4869D01*
X1051Y4864D01*
X1053Y4860D01*
X1054Y4858D01*
X1055Y4856D01*
X1056Y4856D01*
X1056Y4855D01*
X1058Y4854D01*
X1060Y4852D01*
X1063Y4850D01*
X1066Y4849D01*
X1070Y4848D01*
X1072Y4848D01*
X1074Y4848D01*
X1074D01*
X1075Y4848D01*
X1077Y4848D01*
X1079Y4849D01*
X1082Y4849D01*
X1084Y4850D01*
X1087Y4852D01*
X1089Y4853D01*
X1090Y4854D01*
X1090Y4855D01*
X1091Y4856D01*
X1093Y4858D01*
X1094Y4860D01*
X1095Y4863D01*
X1096Y4867D01*
X1097Y4871D01*
X1113Y4869D01*
Y4869D01*
X1113Y4868D01*
X1112Y4868D01*
X1112Y4866D01*
X1112Y4865D01*
X1111Y4863D01*
X1110Y4860D01*
X1109Y4856D01*
X1106Y4852D01*
X1103Y4848D01*
X1101Y4846D01*
X1100Y4844D01*
X1099Y4844D01*
X1099Y4843D01*
X1099Y4843D01*
X1098Y4843D01*
X1097Y4842D01*
X1096Y4841D01*
X1094Y4840D01*
X1093Y4839D01*
X1089Y4838D01*
X1084Y4836D01*
X1080Y4835D01*
X1077Y4835D01*
X1074Y4835D01*
X1072D01*
X1071Y4835D01*
X1069Y4835D01*
X1067Y4836D01*
X1065Y4836D01*
X1063Y4836D01*
X1058Y4838D01*
X1056Y4839D01*
X1053Y4840D01*
X1051Y4842D01*
X1048Y4843D01*
X1046Y4845D01*
X1044Y4847D01*
X1043Y4848D01*
X1043Y4848D01*
X1042Y4849D01*
X1042Y4850D01*
X1041Y4851D01*
X1040Y4853D01*
X1039Y4854D01*
X1038Y4856D01*
X1037Y4859D01*
X1036Y4862D01*
X1035Y4864D01*
X1034Y4868D01*
X1033Y4871D01*
X1033Y4875D01*
X1032Y4879D01*
X1032Y4883D01*
Y4883D01*
Y4884D01*
Y4885D01*
Y4886D01*
X1032Y4887D01*
Y4888D01*
X1032Y4890D01*
X1033Y4892D01*
X1033Y4896D01*
X1034Y4900D01*
X1035Y4905D01*
X1037Y4909D01*
Y4910D01*
X1037Y4910D01*
X1037Y4910D01*
X1038Y4911D01*
X1039Y4913D01*
X1041Y4916D01*
X1043Y4918D01*
X1045Y4921D01*
X1049Y4924D01*
X1052Y4926D01*
X1052D01*
X1053Y4926D01*
X1053Y4927D01*
X1054Y4927D01*
X1055Y4927D01*
X1056Y4928D01*
X1059Y4929D01*
X1062Y4930D01*
X1066Y4931D01*
X1070Y4932D01*
X1074Y4932D01*
X1076D01*
X1077Y4932D01*
D02*
G37*
G36*
X3111D02*
X3114Y4932D01*
X3117Y4931D01*
X3121Y4931D01*
X3124Y4930D01*
X3127Y4929D01*
X3127Y4929D01*
X3128Y4928D01*
X3129Y4928D01*
X3131Y4927D01*
X3133Y4926D01*
X3135Y4925D01*
X3136Y4923D01*
X3138Y4922D01*
X3138Y4922D01*
X3138Y4921D01*
X3139Y4920D01*
X3140Y4919D01*
X3141Y4917D01*
X3141Y4916D01*
X3142Y4914D01*
X3143Y4911D01*
Y4911D01*
X3143Y4911D01*
X3143Y4910D01*
X3143Y4908D01*
Y4906D01*
X3143Y4904D01*
X3144Y4900D01*
Y4897D01*
Y4876D01*
Y4876D01*
Y4875D01*
Y4874D01*
Y4872D01*
Y4871D01*
Y4869D01*
X3144Y4864D01*
Y4860D01*
X3144Y4855D01*
X3144Y4853D01*
Y4851D01*
X3144Y4849D01*
X3144Y4848D01*
Y4848D01*
X3145Y4847D01*
X3145Y4846D01*
X3145Y4845D01*
X3146Y4843D01*
X3146Y4841D01*
X3147Y4839D01*
X3148Y4837D01*
X3132D01*
X3132Y4837D01*
X3131Y4838D01*
X3131Y4839D01*
X3131Y4840D01*
X3130Y4842D01*
X3130Y4844D01*
X3129Y4846D01*
X3129Y4849D01*
X3129D01*
X3129Y4848D01*
X3127Y4847D01*
X3126Y4846D01*
X3124Y4844D01*
X3121Y4843D01*
X3118Y4841D01*
X3115Y4839D01*
X3112Y4838D01*
X3111Y4838D01*
X3110Y4838D01*
X3109Y4837D01*
X3107Y4836D01*
X3104Y4836D01*
X3101Y4835D01*
X3098Y4835D01*
X3094Y4835D01*
X3093D01*
X3092Y4835D01*
X3091D01*
X3089Y4835D01*
X3086Y4836D01*
X3082Y4837D01*
X3078Y4838D01*
X3074Y4840D01*
X3071Y4842D01*
X3071Y4843D01*
X3070Y4844D01*
X3068Y4845D01*
X3067Y4848D01*
X3065Y4850D01*
X3064Y4853D01*
X3063Y4857D01*
X3063Y4859D01*
X3063Y4861D01*
Y4862D01*
Y4863D01*
X3063Y4864D01*
X3063Y4865D01*
X3064Y4868D01*
X3064Y4870D01*
X3065Y4872D01*
X3066Y4874D01*
X3066Y4874D01*
X3066Y4875D01*
X3067Y4876D01*
X3068Y4877D01*
X3069Y4879D01*
X3071Y4880D01*
X3072Y4882D01*
X3074Y4883D01*
X3074Y4883D01*
X3075Y4883D01*
X3076Y4884D01*
X3077Y4885D01*
X3079Y4886D01*
X3081Y4887D01*
X3083Y4887D01*
X3085Y4888D01*
X3086D01*
X3086Y4888D01*
X3087Y4889D01*
X3089Y4889D01*
X3091Y4889D01*
X3093Y4890D01*
X3096Y4890D01*
X3099Y4890D01*
X3099D01*
X3100Y4891D01*
X3101D01*
X3102Y4891D01*
X3104Y4891D01*
X3106Y4891D01*
X3108Y4892D01*
X3110Y4892D01*
X3114Y4893D01*
X3119Y4894D01*
X3124Y4895D01*
X3126Y4895D01*
X3127Y4896D01*
Y4896D01*
Y4897D01*
X3128Y4898D01*
Y4899D01*
Y4900D01*
Y4900D01*
Y4900D01*
Y4900D01*
Y4902D01*
X3127Y4903D01*
X3127Y4905D01*
X3126Y4908D01*
X3126Y4910D01*
X3124Y4912D01*
X3123Y4914D01*
X3123Y4914D01*
X3122Y4915D01*
X3120Y4915D01*
X3119Y4916D01*
X3116Y4917D01*
X3113Y4918D01*
X3109Y4919D01*
X3105Y4919D01*
X3103D01*
X3101Y4919D01*
X3099Y4918D01*
X3096Y4918D01*
X3093Y4917D01*
X3091Y4916D01*
X3089Y4915D01*
X3088Y4915D01*
X3088Y4914D01*
X3087Y4913D01*
X3086Y4912D01*
X3084Y4910D01*
X3083Y4908D01*
X3082Y4905D01*
X3081Y4901D01*
X3066Y4903D01*
Y4904D01*
X3066Y4904D01*
Y4904D01*
X3066Y4905D01*
X3066Y4907D01*
X3067Y4909D01*
X3068Y4912D01*
X3069Y4914D01*
X3071Y4917D01*
X3072Y4919D01*
X3073Y4919D01*
X3073Y4920D01*
X3074Y4921D01*
X3076Y4923D01*
X3078Y4924D01*
X3080Y4926D01*
X3083Y4927D01*
X3086Y4929D01*
X3086D01*
X3087Y4929D01*
X3087Y4929D01*
X3088Y4929D01*
X3090Y4930D01*
X3092Y4930D01*
X3095Y4931D01*
X3099Y4931D01*
X3103Y4932D01*
X3107Y4932D01*
X3109D01*
X3111Y4932D01*
D02*
G37*
G36*
X3041Y4837D02*
X3023D01*
Y4855D01*
X3041D01*
Y4837D01*
D02*
G37*
G36*
X2652D02*
X2634D01*
Y4855D01*
X2652D01*
Y4837D01*
D02*
G37*
G36*
X2484Y4932D02*
X2487Y4932D01*
X2490Y4931D01*
X2493Y4931D01*
X2496Y4930D01*
X2499Y4929D01*
X2500Y4929D01*
X2501Y4928D01*
X2502Y4928D01*
X2504Y4927D01*
X2505Y4926D01*
X2507Y4925D01*
X2509Y4923D01*
X2510Y4922D01*
X2511Y4922D01*
X2511Y4921D01*
X2512Y4920D01*
X2512Y4919D01*
X2513Y4917D01*
X2514Y4916D01*
X2515Y4914D01*
X2515Y4911D01*
Y4911D01*
X2515Y4911D01*
X2516Y4910D01*
X2516Y4908D01*
Y4906D01*
X2516Y4904D01*
X2516Y4900D01*
Y4897D01*
Y4876D01*
Y4876D01*
Y4875D01*
Y4874D01*
Y4872D01*
Y4871D01*
Y4869D01*
X2516Y4864D01*
Y4860D01*
X2517Y4855D01*
X2517Y4853D01*
Y4851D01*
X2517Y4849D01*
X2517Y4848D01*
Y4848D01*
X2517Y4847D01*
X2517Y4846D01*
X2518Y4845D01*
X2518Y4843D01*
X2519Y4841D01*
X2520Y4839D01*
X2521Y4837D01*
X2504D01*
X2504Y4837D01*
X2504Y4838D01*
X2504Y4839D01*
X2503Y4840D01*
X2503Y4842D01*
X2502Y4844D01*
X2502Y4846D01*
X2502Y4849D01*
X2501D01*
X2501Y4848D01*
X2500Y4847D01*
X2498Y4846D01*
X2496Y4844D01*
X2493Y4843D01*
X2491Y4841D01*
X2488Y4839D01*
X2484Y4838D01*
X2484Y4838D01*
X2483Y4838D01*
X2481Y4837D01*
X2479Y4836D01*
X2477Y4836D01*
X2474Y4835D01*
X2470Y4835D01*
X2467Y4835D01*
X2466D01*
X2465Y4835D01*
X2463D01*
X2462Y4835D01*
X2458Y4836D01*
X2455Y4837D01*
X2451Y4838D01*
X2447Y4840D01*
X2444Y4842D01*
X2443Y4843D01*
X2442Y4844D01*
X2441Y4845D01*
X2440Y4848D01*
X2438Y4850D01*
X2437Y4853D01*
X2436Y4857D01*
X2436Y4859D01*
X2435Y4861D01*
Y4862D01*
Y4863D01*
X2436Y4864D01*
X2436Y4865D01*
X2436Y4868D01*
X2437Y4870D01*
X2437Y4872D01*
X2438Y4874D01*
X2439Y4874D01*
X2439Y4875D01*
X2440Y4876D01*
X2441Y4877D01*
X2442Y4879D01*
X2443Y4880D01*
X2445Y4882D01*
X2447Y4883D01*
X2447Y4883D01*
X2447Y4883D01*
X2448Y4884D01*
X2450Y4885D01*
X2452Y4886D01*
X2454Y4887D01*
X2456Y4887D01*
X2458Y4888D01*
X2458D01*
X2459Y4888D01*
X2460Y4889D01*
X2462Y4889D01*
X2463Y4889D01*
X2466Y4890D01*
X2469Y4890D01*
X2472Y4890D01*
X2472D01*
X2473Y4891D01*
X2474D01*
X2475Y4891D01*
X2477Y4891D01*
X2478Y4891D01*
X2480Y4892D01*
X2483Y4892D01*
X2487Y4893D01*
X2492Y4894D01*
X2496Y4895D01*
X2498Y4895D01*
X2500Y4896D01*
Y4896D01*
Y4897D01*
X2500Y4898D01*
Y4899D01*
Y4900D01*
Y4900D01*
Y4900D01*
Y4900D01*
Y4902D01*
X2500Y4903D01*
X2500Y4905D01*
X2499Y4908D01*
X2498Y4910D01*
X2497Y4912D01*
X2496Y4914D01*
X2495Y4914D01*
X2494Y4915D01*
X2493Y4915D01*
X2491Y4916D01*
X2489Y4917D01*
X2486Y4918D01*
X2482Y4919D01*
X2478Y4919D01*
X2476D01*
X2474Y4919D01*
X2471Y4918D01*
X2469Y4918D01*
X2466Y4917D01*
X2463Y4916D01*
X2461Y4915D01*
X2461Y4915D01*
X2460Y4914D01*
X2459Y4913D01*
X2458Y4912D01*
X2457Y4910D01*
X2456Y4908D01*
X2455Y4905D01*
X2454Y4901D01*
X2438Y4903D01*
Y4904D01*
X2438Y4904D01*
Y4904D01*
X2439Y4905D01*
X2439Y4907D01*
X2440Y4909D01*
X2441Y4912D01*
X2442Y4914D01*
X2443Y4917D01*
X2445Y4919D01*
X2445Y4919D01*
X2446Y4920D01*
X2447Y4921D01*
X2449Y4923D01*
X2451Y4924D01*
X2453Y4926D01*
X2456Y4927D01*
X2459Y4929D01*
X2459D01*
X2459Y4929D01*
X2460Y4929D01*
X2461Y4929D01*
X2462Y4930D01*
X2465Y4930D01*
X2468Y4931D01*
X2472Y4931D01*
X2476Y4932D01*
X2480Y4932D01*
X2482D01*
X2484Y4932D01*
D02*
G37*
G36*
X2417Y4837D02*
X2401D01*
Y4930D01*
X2417D01*
Y4837D01*
D02*
G37*
G36*
X1949D02*
X1933D01*
Y4930D01*
X1949D01*
Y4837D01*
D02*
G37*
G36*
X1628Y4932D02*
X1631Y4932D01*
X1634Y4931D01*
X1637Y4931D01*
X1640Y4930D01*
X1643Y4929D01*
X1643Y4929D01*
X1644Y4928D01*
X1646Y4928D01*
X1647Y4927D01*
X1649Y4926D01*
X1651Y4925D01*
X1653Y4923D01*
X1654Y4922D01*
X1654Y4922D01*
X1655Y4921D01*
X1655Y4920D01*
X1656Y4919D01*
X1657Y4917D01*
X1658Y4916D01*
X1658Y4914D01*
X1659Y4911D01*
Y4911D01*
X1659Y4911D01*
X1659Y4910D01*
X1659Y4908D01*
Y4906D01*
X1660Y4904D01*
X1660Y4900D01*
Y4897D01*
Y4876D01*
Y4876D01*
Y4875D01*
Y4874D01*
Y4872D01*
Y4871D01*
Y4869D01*
X1660Y4864D01*
Y4860D01*
X1660Y4855D01*
X1660Y4853D01*
Y4851D01*
X1661Y4849D01*
X1661Y4848D01*
Y4848D01*
X1661Y4847D01*
X1661Y4846D01*
X1662Y4845D01*
X1662Y4843D01*
X1663Y4841D01*
X1664Y4839D01*
X1665Y4837D01*
X1648D01*
X1648Y4837D01*
X1648Y4838D01*
X1647Y4839D01*
X1647Y4840D01*
X1646Y4842D01*
X1646Y4844D01*
X1646Y4846D01*
X1645Y4849D01*
X1645D01*
X1645Y4848D01*
X1644Y4847D01*
X1642Y4846D01*
X1640Y4844D01*
X1637Y4843D01*
X1634Y4841D01*
X1631Y4839D01*
X1628Y4838D01*
X1628Y4838D01*
X1627Y4838D01*
X1625Y4837D01*
X1623Y4836D01*
X1620Y4836D01*
X1617Y4835D01*
X1614Y4835D01*
X1611Y4835D01*
X1609D01*
X1608Y4835D01*
X1607D01*
X1605Y4835D01*
X1602Y4836D01*
X1598Y4837D01*
X1594Y4838D01*
X1591Y4840D01*
X1587Y4842D01*
X1587Y4843D01*
X1586Y4844D01*
X1585Y4845D01*
X1583Y4848D01*
X1582Y4850D01*
X1580Y4853D01*
X1579Y4857D01*
X1579Y4859D01*
X1579Y4861D01*
Y4862D01*
Y4863D01*
X1579Y4864D01*
X1579Y4865D01*
X1580Y4868D01*
X1580Y4870D01*
X1581Y4872D01*
X1582Y4874D01*
X1582Y4874D01*
X1583Y4875D01*
X1583Y4876D01*
X1584Y4877D01*
X1585Y4879D01*
X1587Y4880D01*
X1588Y4882D01*
X1590Y4883D01*
X1590Y4883D01*
X1591Y4883D01*
X1592Y4884D01*
X1593Y4885D01*
X1595Y4886D01*
X1597Y4887D01*
X1599Y4887D01*
X1602Y4888D01*
X1602D01*
X1603Y4888D01*
X1604Y4889D01*
X1605Y4889D01*
X1607Y4889D01*
X1609Y4890D01*
X1612Y4890D01*
X1616Y4890D01*
X1616D01*
X1616Y4891D01*
X1617D01*
X1619Y4891D01*
X1620Y4891D01*
X1622Y4891D01*
X1624Y4892D01*
X1626Y4892D01*
X1631Y4893D01*
X1636Y4894D01*
X1640Y4895D01*
X1642Y4895D01*
X1644Y4896D01*
Y4896D01*
Y4897D01*
X1644Y4898D01*
Y4899D01*
Y4900D01*
Y4900D01*
Y4900D01*
Y4900D01*
Y4902D01*
X1644Y4903D01*
X1643Y4905D01*
X1643Y4908D01*
X1642Y4910D01*
X1641Y4912D01*
X1639Y4914D01*
X1639Y4914D01*
X1638Y4915D01*
X1637Y4915D01*
X1635Y4916D01*
X1632Y4917D01*
X1629Y4918D01*
X1626Y4919D01*
X1621Y4919D01*
X1619D01*
X1618Y4919D01*
X1615Y4918D01*
X1612Y4918D01*
X1610Y4917D01*
X1607Y4916D01*
X1605Y4915D01*
X1605Y4915D01*
X1604Y4914D01*
X1603Y4913D01*
X1602Y4912D01*
X1601Y4910D01*
X1599Y4908D01*
X1598Y4905D01*
X1597Y4901D01*
X1582Y4903D01*
Y4904D01*
X1582Y4904D01*
Y4904D01*
X1582Y4905D01*
X1583Y4907D01*
X1583Y4909D01*
X1584Y4912D01*
X1586Y4914D01*
X1587Y4917D01*
X1589Y4919D01*
X1589Y4919D01*
X1590Y4920D01*
X1591Y4921D01*
X1592Y4923D01*
X1594Y4924D01*
X1597Y4926D01*
X1599Y4927D01*
X1603Y4929D01*
X1603D01*
X1603Y4929D01*
X1603Y4929D01*
X1604Y4929D01*
X1606Y4930D01*
X1609Y4930D01*
X1612Y4931D01*
X1615Y4931D01*
X1619Y4932D01*
X1624Y4932D01*
X1626D01*
X1628Y4932D01*
D02*
G37*
G36*
X2081Y4930D02*
X2097D01*
Y4918D01*
X2081D01*
Y4863D01*
Y4863D01*
Y4862D01*
Y4861D01*
X2081Y4860D01*
X2081Y4857D01*
X2081Y4855D01*
X2081Y4854D01*
X2082Y4854D01*
X2082Y4853D01*
X2083Y4852D01*
X2084Y4851D01*
X2085Y4851D01*
X2085Y4851D01*
X2087Y4850D01*
X2090Y4850D01*
X2091D01*
X2092Y4850D01*
X2094D01*
X2095Y4851D01*
X2097Y4851D01*
X2099Y4837D01*
X2098D01*
X2098Y4837D01*
X2096Y4837D01*
X2095Y4836D01*
X2093Y4836D01*
X2091Y4836D01*
X2087Y4836D01*
X2085D01*
X2084Y4836D01*
X2082Y4836D01*
X2080Y4836D01*
X2077Y4837D01*
X2075Y4837D01*
X2073Y4838D01*
X2073Y4838D01*
X2073Y4839D01*
X2072Y4839D01*
X2071Y4840D01*
X2070Y4841D01*
X2069Y4843D01*
X2068Y4844D01*
X2067Y4845D01*
Y4846D01*
X2066Y4846D01*
X2066Y4848D01*
X2066Y4850D01*
X2065Y4852D01*
X2065Y4853D01*
Y4855D01*
X2065Y4857D01*
X2065Y4859D01*
Y4861D01*
Y4864D01*
Y4918D01*
X2053D01*
Y4930D01*
X2065D01*
Y4953D01*
X2081Y4962D01*
Y4930D01*
D02*
G37*
G36*
X2810Y4932D02*
X2812Y4932D01*
X2814Y4931D01*
X2816Y4931D01*
X2818Y4930D01*
X2823Y4929D01*
X2826Y4928D01*
X2828Y4927D01*
X2831Y4925D01*
X2834Y4923D01*
X2836Y4922D01*
X2838Y4919D01*
X2839Y4919D01*
X2839Y4919D01*
X2839Y4918D01*
X2840Y4917D01*
X2841Y4916D01*
X2842Y4914D01*
X2843Y4912D01*
X2844Y4910D01*
X2846Y4908D01*
X2847Y4905D01*
X2848Y4903D01*
X2849Y4899D01*
X2849Y4896D01*
X2850Y4893D01*
X2850Y4889D01*
X2851Y4885D01*
Y4885D01*
Y4884D01*
Y4883D01*
Y4882D01*
X2850Y4880D01*
X2850Y4878D01*
Y4877D01*
X2850Y4875D01*
X2849Y4870D01*
X2848Y4865D01*
X2847Y4861D01*
X2845Y4856D01*
Y4856D01*
X2845Y4856D01*
X2844Y4855D01*
X2844Y4855D01*
X2843Y4853D01*
X2841Y4851D01*
X2839Y4848D01*
X2836Y4845D01*
X2833Y4843D01*
X2829Y4840D01*
X2829D01*
X2829Y4840D01*
X2828Y4840D01*
X2827Y4840D01*
X2827Y4839D01*
X2825Y4839D01*
X2823Y4838D01*
X2819Y4837D01*
X2816Y4836D01*
X2812Y4835D01*
X2807Y4835D01*
X2805D01*
X2804Y4835D01*
X2802Y4835D01*
X2800Y4836D01*
X2798Y4836D01*
X2796Y4836D01*
X2791Y4838D01*
X2788Y4839D01*
X2785Y4840D01*
X2783Y4842D01*
X2780Y4843D01*
X2778Y4845D01*
X2775Y4847D01*
X2775Y4848D01*
X2775Y4848D01*
X2774Y4849D01*
X2774Y4850D01*
X2773Y4851D01*
X2772Y4853D01*
X2771Y4854D01*
X2769Y4857D01*
X2768Y4859D01*
X2767Y4862D01*
X2766Y4865D01*
X2765Y4868D01*
X2765Y4871D01*
X2764Y4875D01*
X2764Y4879D01*
X2764Y4883D01*
Y4884D01*
Y4885D01*
X2764Y4886D01*
Y4888D01*
X2764Y4890D01*
X2764Y4892D01*
X2765Y4895D01*
X2765Y4898D01*
X2766Y4901D01*
X2767Y4904D01*
X2768Y4907D01*
X2770Y4910D01*
X2771Y4913D01*
X2773Y4916D01*
X2775Y4919D01*
X2778Y4922D01*
X2778Y4922D01*
X2778Y4922D01*
X2779Y4922D01*
X2780Y4923D01*
X2781Y4924D01*
X2783Y4925D01*
X2784Y4926D01*
X2786Y4927D01*
X2788Y4928D01*
X2790Y4929D01*
X2795Y4930D01*
X2801Y4932D01*
X2804Y4932D01*
X2807Y4932D01*
X2809D01*
X2810Y4932D01*
D02*
G37*
G36*
X2153D02*
X2155Y4932D01*
X2157Y4931D01*
X2159Y4931D01*
X2161Y4930D01*
X2163Y4930D01*
X2166Y4929D01*
X2168Y4928D01*
X2171Y4927D01*
X2173Y4925D01*
X2176Y4923D01*
X2178Y4921D01*
X2181Y4919D01*
X2181Y4919D01*
X2181Y4919D01*
X2182Y4918D01*
X2182Y4917D01*
X2183Y4915D01*
X2184Y4914D01*
X2185Y4912D01*
X2187Y4910D01*
X2188Y4907D01*
X2189Y4905D01*
X2190Y4902D01*
X2191Y4899D01*
X2191Y4895D01*
X2192Y4892D01*
X2192Y4888D01*
X2192Y4883D01*
Y4883D01*
Y4883D01*
Y4881D01*
X2192Y4879D01*
X2123D01*
Y4879D01*
Y4879D01*
X2123Y4878D01*
Y4877D01*
X2123Y4875D01*
X2124Y4874D01*
X2124Y4871D01*
X2125Y4867D01*
X2127Y4863D01*
X2129Y4859D01*
X2131Y4856D01*
X2132D01*
X2132Y4855D01*
X2133Y4855D01*
X2135Y4853D01*
X2137Y4852D01*
X2140Y4850D01*
X2143Y4849D01*
X2147Y4848D01*
X2149Y4848D01*
X2151Y4848D01*
X2152D01*
X2154Y4848D01*
X2156Y4848D01*
X2158Y4849D01*
X2161Y4850D01*
X2163Y4851D01*
X2166Y4852D01*
X2166Y4853D01*
X2167Y4853D01*
X2168Y4854D01*
X2169Y4856D01*
X2171Y4858D01*
X2172Y4860D01*
X2174Y4863D01*
X2176Y4867D01*
X2192Y4865D01*
Y4865D01*
X2192Y4864D01*
X2192Y4864D01*
X2191Y4863D01*
X2191Y4861D01*
X2190Y4860D01*
X2189Y4857D01*
X2187Y4853D01*
X2184Y4850D01*
X2181Y4846D01*
X2177Y4843D01*
X2177D01*
X2177Y4842D01*
X2176Y4842D01*
X2176Y4841D01*
X2175Y4841D01*
X2173Y4840D01*
X2172Y4840D01*
X2170Y4839D01*
X2168Y4838D01*
X2167Y4837D01*
X2162Y4836D01*
X2157Y4835D01*
X2151Y4835D01*
X2149D01*
X2148Y4835D01*
X2146Y4835D01*
X2144Y4836D01*
X2142Y4836D01*
X2139Y4836D01*
X2134Y4838D01*
X2131Y4839D01*
X2129Y4840D01*
X2126Y4842D01*
X2123Y4843D01*
X2121Y4845D01*
X2119Y4847D01*
X2118Y4848D01*
X2118Y4848D01*
X2118Y4849D01*
X2117Y4850D01*
X2116Y4851D01*
X2115Y4853D01*
X2114Y4854D01*
X2113Y4856D01*
X2112Y4859D01*
X2110Y4861D01*
X2110Y4864D01*
X2109Y4868D01*
X2108Y4871D01*
X2107Y4875D01*
X2107Y4878D01*
X2107Y4883D01*
Y4883D01*
Y4884D01*
Y4885D01*
X2107Y4886D01*
X2107Y4888D01*
X2107Y4891D01*
X2108Y4893D01*
X2108Y4896D01*
X2110Y4902D01*
X2111Y4905D01*
X2112Y4908D01*
X2113Y4911D01*
X2115Y4914D01*
X2117Y4916D01*
X2119Y4919D01*
X2119Y4919D01*
X2119Y4920D01*
X2120Y4920D01*
X2121Y4921D01*
X2122Y4922D01*
X2124Y4923D01*
X2125Y4924D01*
X2127Y4925D01*
X2129Y4927D01*
X2132Y4928D01*
X2134Y4929D01*
X2137Y4930D01*
X2140Y4931D01*
X2143Y4931D01*
X2147Y4932D01*
X2150Y4932D01*
X2152D01*
X2153Y4932D01*
D02*
G37*
G36*
X1785D02*
X1786Y4932D01*
X1788Y4931D01*
X1790Y4931D01*
X1793Y4930D01*
X1795Y4930D01*
X1797Y4929D01*
X1800Y4928D01*
X1802Y4927D01*
X1805Y4925D01*
X1808Y4923D01*
X1810Y4921D01*
X1812Y4919D01*
X1812Y4919D01*
X1813Y4919D01*
X1813Y4918D01*
X1814Y4917D01*
X1815Y4915D01*
X1816Y4914D01*
X1817Y4912D01*
X1818Y4910D01*
X1819Y4907D01*
X1820Y4905D01*
X1821Y4902D01*
X1822Y4899D01*
X1823Y4895D01*
X1823Y4892D01*
X1824Y4888D01*
X1824Y4883D01*
Y4883D01*
Y4883D01*
Y4881D01*
X1824Y4879D01*
X1754D01*
Y4879D01*
Y4879D01*
X1755Y4878D01*
Y4877D01*
X1755Y4875D01*
X1755Y4874D01*
X1756Y4871D01*
X1757Y4867D01*
X1758Y4863D01*
X1760Y4859D01*
X1763Y4856D01*
X1763D01*
X1763Y4855D01*
X1764Y4855D01*
X1766Y4853D01*
X1768Y4852D01*
X1771Y4850D01*
X1775Y4849D01*
X1778Y4848D01*
X1780Y4848D01*
X1783Y4848D01*
X1784D01*
X1786Y4848D01*
X1788Y4848D01*
X1790Y4849D01*
X1793Y4850D01*
X1795Y4851D01*
X1797Y4852D01*
X1798Y4853D01*
X1798Y4853D01*
X1800Y4854D01*
X1801Y4856D01*
X1802Y4858D01*
X1804Y4860D01*
X1806Y4863D01*
X1807Y4867D01*
X1823Y4865D01*
Y4865D01*
X1823Y4864D01*
X1823Y4864D01*
X1823Y4863D01*
X1822Y4861D01*
X1822Y4860D01*
X1820Y4857D01*
X1818Y4853D01*
X1816Y4850D01*
X1813Y4846D01*
X1809Y4843D01*
X1809D01*
X1808Y4842D01*
X1808Y4842D01*
X1807Y4841D01*
X1806Y4841D01*
X1805Y4840D01*
X1803Y4840D01*
X1802Y4839D01*
X1800Y4838D01*
X1798Y4837D01*
X1793Y4836D01*
X1788Y4835D01*
X1783Y4835D01*
X1780D01*
X1779Y4835D01*
X1778Y4835D01*
X1775Y4836D01*
X1773Y4836D01*
X1771Y4836D01*
X1766Y4838D01*
X1763Y4839D01*
X1760Y4840D01*
X1758Y4842D01*
X1755Y4843D01*
X1753Y4845D01*
X1750Y4847D01*
X1750Y4848D01*
X1750Y4848D01*
X1749Y4849D01*
X1748Y4850D01*
X1747Y4851D01*
X1746Y4853D01*
X1745Y4854D01*
X1744Y4856D01*
X1743Y4859D01*
X1742Y4861D01*
X1741Y4864D01*
X1740Y4868D01*
X1739Y4871D01*
X1739Y4875D01*
X1738Y4878D01*
X1738Y4883D01*
Y4883D01*
Y4884D01*
Y4885D01*
X1738Y4886D01*
X1739Y4888D01*
X1739Y4891D01*
X1739Y4893D01*
X1740Y4896D01*
X1741Y4902D01*
X1742Y4905D01*
X1743Y4908D01*
X1745Y4911D01*
X1746Y4914D01*
X1748Y4916D01*
X1750Y4919D01*
X1751Y4919D01*
X1751Y4920D01*
X1752Y4920D01*
X1753Y4921D01*
X1754Y4922D01*
X1755Y4923D01*
X1757Y4924D01*
X1759Y4925D01*
X1761Y4927D01*
X1763Y4928D01*
X1766Y4929D01*
X1769Y4930D01*
X1772Y4931D01*
X1775Y4931D01*
X1778Y4932D01*
X1782Y4932D01*
X1783D01*
X1785Y4932D01*
D02*
G37*
G36*
X1500Y4919D02*
X1500Y4920D01*
X1501Y4920D01*
X1501Y4920D01*
X1502Y4921D01*
X1503Y4922D01*
X1504Y4923D01*
X1506Y4925D01*
X1507Y4926D01*
X1511Y4928D01*
X1515Y4930D01*
X1517Y4931D01*
X1520Y4931D01*
X1523Y4932D01*
X1526Y4932D01*
X1527D01*
X1529Y4932D01*
X1531Y4932D01*
X1533Y4931D01*
X1536Y4930D01*
X1539Y4930D01*
X1542Y4928D01*
X1542Y4928D01*
X1543Y4928D01*
X1544Y4927D01*
X1546Y4926D01*
X1548Y4925D01*
X1550Y4923D01*
X1552Y4921D01*
X1554Y4919D01*
X1554Y4918D01*
X1555Y4917D01*
X1556Y4916D01*
X1557Y4915D01*
X1558Y4912D01*
X1560Y4910D01*
X1561Y4907D01*
X1562Y4904D01*
Y4903D01*
X1562Y4903D01*
X1562Y4903D01*
X1563Y4902D01*
X1563Y4900D01*
X1563Y4898D01*
X1564Y4895D01*
X1565Y4892D01*
X1565Y4888D01*
X1565Y4885D01*
Y4885D01*
Y4884D01*
Y4883D01*
X1565Y4881D01*
X1565Y4879D01*
X1564Y4877D01*
X1564Y4874D01*
X1563Y4871D01*
X1562Y4865D01*
X1561Y4862D01*
X1560Y4859D01*
X1559Y4856D01*
X1557Y4853D01*
X1555Y4850D01*
X1553Y4848D01*
X1553Y4848D01*
X1553Y4847D01*
X1552Y4847D01*
X1551Y4846D01*
X1550Y4845D01*
X1548Y4844D01*
X1547Y4843D01*
X1545Y4841D01*
X1543Y4840D01*
X1541Y4839D01*
X1536Y4837D01*
X1533Y4836D01*
X1531Y4835D01*
X1528Y4835D01*
X1525Y4835D01*
X1524D01*
X1523Y4835D01*
X1522D01*
X1521Y4835D01*
X1519Y4836D01*
X1515Y4837D01*
X1513Y4837D01*
X1511Y4838D01*
X1509Y4839D01*
X1507Y4841D01*
X1505Y4842D01*
X1503Y4844D01*
X1501Y4846D01*
X1499Y4849D01*
Y4837D01*
X1484D01*
Y4965D01*
X1500D01*
Y4919D01*
D02*
G37*
G36*
X1426Y4932D02*
X1428Y4932D01*
X1429Y4931D01*
X1431Y4931D01*
X1434Y4930D01*
X1439Y4929D01*
X1441Y4928D01*
X1444Y4927D01*
X1447Y4925D01*
X1449Y4923D01*
X1452Y4922D01*
X1454Y4919D01*
X1454Y4919D01*
X1455Y4919D01*
X1455Y4918D01*
X1456Y4917D01*
X1457Y4916D01*
X1458Y4914D01*
X1459Y4912D01*
X1460Y4910D01*
X1461Y4908D01*
X1462Y4905D01*
X1463Y4903D01*
X1464Y4899D01*
X1465Y4896D01*
X1466Y4893D01*
X1466Y4889D01*
X1466Y4885D01*
Y4885D01*
Y4884D01*
Y4883D01*
Y4882D01*
X1466Y4880D01*
X1466Y4878D01*
Y4877D01*
X1466Y4875D01*
X1465Y4870D01*
X1464Y4865D01*
X1463Y4861D01*
X1461Y4856D01*
Y4856D01*
X1461Y4856D01*
X1460Y4855D01*
X1460Y4855D01*
X1458Y4853D01*
X1457Y4851D01*
X1455Y4848D01*
X1452Y4845D01*
X1449Y4843D01*
X1445Y4840D01*
X1445D01*
X1445Y4840D01*
X1444Y4840D01*
X1443Y4840D01*
X1442Y4839D01*
X1441Y4839D01*
X1438Y4838D01*
X1435Y4837D01*
X1431Y4836D01*
X1427Y4835D01*
X1423Y4835D01*
X1421D01*
X1419Y4835D01*
X1418Y4835D01*
X1416Y4836D01*
X1414Y4836D01*
X1411Y4836D01*
X1406Y4838D01*
X1404Y4839D01*
X1401Y4840D01*
X1399Y4842D01*
X1396Y4843D01*
X1394Y4845D01*
X1391Y4847D01*
X1391Y4848D01*
X1391Y4848D01*
X1390Y4849D01*
X1389Y4850D01*
X1388Y4851D01*
X1387Y4853D01*
X1386Y4854D01*
X1385Y4857D01*
X1384Y4859D01*
X1383Y4862D01*
X1382Y4865D01*
X1381Y4868D01*
X1380Y4871D01*
X1380Y4875D01*
X1379Y4879D01*
X1379Y4883D01*
Y4884D01*
Y4885D01*
X1379Y4886D01*
Y4888D01*
X1380Y4890D01*
X1380Y4892D01*
X1380Y4895D01*
X1381Y4898D01*
X1382Y4901D01*
X1383Y4904D01*
X1384Y4907D01*
X1385Y4910D01*
X1387Y4913D01*
X1389Y4916D01*
X1391Y4919D01*
X1394Y4922D01*
X1394Y4922D01*
X1394Y4922D01*
X1395Y4922D01*
X1396Y4923D01*
X1397Y4924D01*
X1398Y4925D01*
X1400Y4926D01*
X1402Y4927D01*
X1404Y4928D01*
X1406Y4929D01*
X1411Y4930D01*
X1417Y4932D01*
X1420Y4932D01*
X1423Y4932D01*
X1425D01*
X1426Y4932D01*
D02*
G37*
G36*
X1167D02*
X1169Y4932D01*
X1171Y4931D01*
X1173Y4931D01*
X1175Y4930D01*
X1180Y4929D01*
X1183Y4928D01*
X1185Y4927D01*
X1188Y4925D01*
X1190Y4923D01*
X1193Y4922D01*
X1195Y4919D01*
X1195Y4919D01*
X1196Y4919D01*
X1196Y4918D01*
X1197Y4917D01*
X1198Y4916D01*
X1199Y4914D01*
X1200Y4912D01*
X1201Y4910D01*
X1202Y4908D01*
X1204Y4905D01*
X1205Y4903D01*
X1206Y4899D01*
X1206Y4896D01*
X1207Y4893D01*
X1207Y4889D01*
X1207Y4885D01*
Y4885D01*
Y4884D01*
Y4883D01*
Y4882D01*
X1207Y4880D01*
X1207Y4878D01*
Y4877D01*
X1207Y4875D01*
X1206Y4870D01*
X1205Y4865D01*
X1204Y4861D01*
X1202Y4856D01*
Y4856D01*
X1202Y4856D01*
X1201Y4855D01*
X1201Y4855D01*
X1200Y4853D01*
X1198Y4851D01*
X1196Y4848D01*
X1193Y4845D01*
X1190Y4843D01*
X1186Y4840D01*
X1186D01*
X1186Y4840D01*
X1185Y4840D01*
X1184Y4840D01*
X1183Y4839D01*
X1182Y4839D01*
X1179Y4838D01*
X1176Y4837D01*
X1172Y4836D01*
X1168Y4835D01*
X1164Y4835D01*
X1162D01*
X1161Y4835D01*
X1159Y4835D01*
X1157Y4836D01*
X1155Y4836D01*
X1153Y4836D01*
X1148Y4838D01*
X1145Y4839D01*
X1142Y4840D01*
X1140Y4842D01*
X1137Y4843D01*
X1135Y4845D01*
X1132Y4847D01*
X1132Y4848D01*
X1132Y4848D01*
X1131Y4849D01*
X1130Y4850D01*
X1129Y4851D01*
X1129Y4853D01*
X1127Y4854D01*
X1126Y4857D01*
X1125Y4859D01*
X1124Y4862D01*
X1123Y4865D01*
X1122Y4868D01*
X1121Y4871D01*
X1121Y4875D01*
X1121Y4879D01*
X1120Y4883D01*
Y4884D01*
Y4885D01*
X1121Y4886D01*
Y4888D01*
X1121Y4890D01*
X1121Y4892D01*
X1121Y4895D01*
X1122Y4898D01*
X1123Y4901D01*
X1124Y4904D01*
X1125Y4907D01*
X1126Y4910D01*
X1128Y4913D01*
X1130Y4916D01*
X1132Y4919D01*
X1135Y4922D01*
X1135Y4922D01*
X1135Y4922D01*
X1136Y4922D01*
X1137Y4923D01*
X1138Y4924D01*
X1139Y4925D01*
X1141Y4926D01*
X1143Y4927D01*
X1145Y4928D01*
X1147Y4929D01*
X1152Y4930D01*
X1158Y4932D01*
X1161Y4932D01*
X1164Y4932D01*
X1166D01*
X1167Y4932D01*
D02*
G37*
G36*
X2277Y2437D02*
X2277Y2437D01*
X2277Y2437D01*
X2276Y2436D01*
X2276Y2436D01*
X2275Y2435D01*
X2274Y2434D01*
X2273Y2432D01*
X2272Y2431D01*
X2270Y2429D01*
X2269Y2427D01*
X2267Y2425D01*
X2266Y2422D01*
X2264Y2420D01*
X2262Y2417D01*
X2261Y2414D01*
X2259Y2412D01*
X2259Y2411D01*
X2259Y2411D01*
X2258Y2410D01*
X2258Y2409D01*
X2257Y2407D01*
X2256Y2406D01*
X2255Y2404D01*
X2254Y2401D01*
X2253Y2399D01*
X2252Y2396D01*
X2251Y2394D01*
X2250Y2391D01*
X2247Y2385D01*
X2245Y2378D01*
Y2378D01*
X2245Y2378D01*
X2245Y2377D01*
X2245Y2376D01*
X2244Y2375D01*
X2244Y2374D01*
X2244Y2372D01*
X2243Y2371D01*
X2243Y2369D01*
X2243Y2367D01*
X2242Y2362D01*
X2241Y2357D01*
X2241Y2352D01*
X2229D01*
Y2352D01*
Y2353D01*
Y2353D01*
X2229Y2354D01*
Y2355D01*
X2229Y2356D01*
X2229Y2358D01*
X2229Y2360D01*
X2230Y2362D01*
X2230Y2364D01*
X2230Y2366D01*
X2231Y2368D01*
X2231Y2371D01*
X2232Y2374D01*
X2233Y2379D01*
Y2379D01*
X2233Y2380D01*
X2233Y2381D01*
X2234Y2382D01*
X2234Y2383D01*
X2235Y2385D01*
X2235Y2387D01*
X2236Y2389D01*
X2237Y2391D01*
X2238Y2394D01*
X2240Y2399D01*
X2242Y2405D01*
X2245Y2410D01*
X2245Y2410D01*
X2246Y2411D01*
X2246Y2412D01*
X2247Y2413D01*
X2247Y2414D01*
X2248Y2415D01*
X2249Y2417D01*
X2250Y2419D01*
X2253Y2423D01*
X2256Y2427D01*
X2259Y2431D01*
X2262Y2435D01*
X2215D01*
Y2447D01*
X2277D01*
Y2437D01*
D02*
G37*
G36*
X2168Y2448D02*
X2169D01*
X2172Y2448D01*
X2175Y2447D01*
X2179Y2447D01*
X2182Y2446D01*
X2183Y2446D01*
X2185Y2445D01*
X2185D01*
X2185Y2445D01*
X2186Y2445D01*
X2187Y2444D01*
X2188Y2443D01*
X2190Y2442D01*
X2192Y2440D01*
X2194Y2438D01*
X2195Y2436D01*
Y2436D01*
X2195Y2436D01*
X2196Y2435D01*
X2197Y2434D01*
X2197Y2432D01*
X2198Y2430D01*
X2199Y2427D01*
X2199Y2425D01*
X2199Y2422D01*
Y2422D01*
Y2421D01*
Y2421D01*
X2199Y2420D01*
Y2419D01*
X2199Y2418D01*
X2198Y2416D01*
X2198Y2413D01*
X2197Y2410D01*
X2195Y2407D01*
X2194Y2406D01*
X2193Y2404D01*
X2193Y2404D01*
X2192Y2404D01*
X2192Y2404D01*
X2191Y2403D01*
X2191Y2403D01*
X2190Y2402D01*
X2189Y2402D01*
X2188Y2401D01*
X2186Y2400D01*
X2185Y2399D01*
X2183Y2398D01*
X2181Y2398D01*
X2179Y2397D01*
X2177Y2397D01*
X2175Y2396D01*
X2172Y2396D01*
X2173Y2396D01*
X2173Y2395D01*
X2174Y2395D01*
X2175Y2394D01*
X2178Y2393D01*
X2179Y2392D01*
X2180Y2391D01*
X2180Y2391D01*
X2181Y2390D01*
X2182Y2389D01*
X2183Y2387D01*
X2185Y2385D01*
X2187Y2383D01*
X2188Y2381D01*
X2190Y2378D01*
X2207Y2352D01*
X2191D01*
X2179Y2372D01*
Y2372D01*
X2178Y2372D01*
X2178Y2373D01*
X2178Y2373D01*
X2177Y2375D01*
X2175Y2377D01*
X2174Y2379D01*
X2172Y2381D01*
X2171Y2383D01*
X2169Y2385D01*
X2169Y2385D01*
X2169Y2386D01*
X2168Y2387D01*
X2167Y2388D01*
X2165Y2390D01*
X2164Y2391D01*
X2163Y2392D01*
X2163Y2392D01*
X2162Y2392D01*
X2162Y2392D01*
X2161Y2393D01*
X2160Y2393D01*
X2159Y2393D01*
X2157Y2394D01*
X2157D01*
X2157Y2394D01*
X2156D01*
X2155Y2394D01*
X2154Y2394D01*
X2153D01*
X2152Y2395D01*
X2135D01*
Y2352D01*
X2123D01*
Y2448D01*
X2167D01*
X2168Y2448D01*
D02*
G37*
G36*
X2750Y2449D02*
X2751D01*
X2752Y2449D01*
X2755Y2448D01*
X2758Y2447D01*
X2761Y2446D01*
X2764Y2445D01*
X2766Y2444D01*
X2767Y2443D01*
X2767Y2443D01*
X2767Y2442D01*
X2768Y2442D01*
X2768Y2442D01*
X2769Y2441D01*
X2769Y2440D01*
X2771Y2438D01*
X2772Y2436D01*
X2774Y2433D01*
X2775Y2429D01*
X2776Y2425D01*
X2764Y2424D01*
Y2424D01*
X2764Y2424D01*
X2764Y2425D01*
X2763Y2427D01*
X2763Y2428D01*
X2762Y2430D01*
X2761Y2431D01*
X2760Y2433D01*
X2759Y2434D01*
X2759Y2434D01*
X2759Y2435D01*
X2758Y2436D01*
X2756Y2437D01*
X2755Y2438D01*
X2753Y2438D01*
X2750Y2439D01*
X2748Y2439D01*
X2747D01*
X2746Y2439D01*
X2744Y2439D01*
X2743Y2438D01*
X2741Y2438D01*
X2739Y2437D01*
X2738Y2436D01*
X2737Y2436D01*
X2737Y2435D01*
X2736Y2434D01*
X2735Y2433D01*
X2733Y2431D01*
X2732Y2429D01*
X2730Y2427D01*
X2729Y2424D01*
Y2424D01*
X2729Y2424D01*
X2729Y2423D01*
X2728Y2423D01*
X2728Y2422D01*
X2728Y2421D01*
X2728Y2420D01*
X2727Y2419D01*
X2727Y2417D01*
X2727Y2415D01*
X2726Y2414D01*
X2726Y2412D01*
X2726Y2409D01*
X2726Y2407D01*
X2726Y2405D01*
Y2402D01*
X2726Y2402D01*
X2726Y2403D01*
X2727Y2404D01*
X2729Y2406D01*
X2730Y2407D01*
X2732Y2409D01*
X2734Y2410D01*
X2736Y2412D01*
X2736D01*
X2736Y2412D01*
X2737Y2412D01*
X2738Y2413D01*
X2740Y2413D01*
X2742Y2414D01*
X2744Y2414D01*
X2746Y2415D01*
X2749Y2415D01*
X2750D01*
X2751Y2415D01*
X2752Y2415D01*
X2753Y2414D01*
X2755Y2414D01*
X2756Y2414D01*
X2759Y2413D01*
X2761Y2412D01*
X2762Y2411D01*
X2764Y2410D01*
X2766Y2409D01*
X2768Y2408D01*
X2769Y2406D01*
X2769Y2406D01*
X2769Y2406D01*
X2770Y2405D01*
X2770Y2405D01*
X2771Y2404D01*
X2772Y2403D01*
X2772Y2401D01*
X2773Y2400D01*
X2774Y2399D01*
X2775Y2397D01*
X2775Y2395D01*
X2776Y2393D01*
X2777Y2391D01*
X2777Y2389D01*
X2777Y2386D01*
X2777Y2384D01*
Y2384D01*
Y2383D01*
Y2383D01*
Y2382D01*
X2777Y2381D01*
Y2381D01*
X2777Y2378D01*
X2776Y2376D01*
X2776Y2373D01*
X2775Y2370D01*
X2773Y2367D01*
Y2367D01*
X2773Y2367D01*
X2773Y2366D01*
X2773Y2366D01*
X2772Y2364D01*
X2771Y2362D01*
X2769Y2361D01*
X2767Y2359D01*
X2765Y2357D01*
X2763Y2355D01*
X2763D01*
X2762Y2355D01*
X2762Y2355D01*
X2761Y2354D01*
X2760Y2354D01*
X2758Y2353D01*
X2756Y2352D01*
X2753Y2352D01*
X2750Y2351D01*
X2747Y2351D01*
X2746D01*
X2746Y2351D01*
X2745D01*
X2743Y2351D01*
X2742Y2352D01*
X2740Y2352D01*
X2739Y2352D01*
X2737Y2353D01*
X2735Y2354D01*
X2733Y2354D01*
X2731Y2356D01*
X2729Y2357D01*
X2727Y2358D01*
X2725Y2360D01*
X2723Y2362D01*
X2723Y2362D01*
X2723Y2362D01*
X2722Y2363D01*
X2722Y2364D01*
X2721Y2365D01*
X2720Y2367D01*
X2719Y2368D01*
X2719Y2370D01*
X2718Y2373D01*
X2717Y2375D01*
X2716Y2378D01*
X2715Y2381D01*
X2715Y2385D01*
X2714Y2389D01*
X2714Y2393D01*
X2714Y2397D01*
Y2398D01*
Y2398D01*
Y2398D01*
Y2399D01*
X2714Y2400D01*
Y2402D01*
X2714Y2404D01*
X2714Y2407D01*
X2715Y2410D01*
X2715Y2413D01*
X2716Y2416D01*
X2716Y2420D01*
X2717Y2423D01*
X2718Y2426D01*
X2719Y2429D01*
X2721Y2433D01*
X2722Y2435D01*
X2724Y2438D01*
X2724Y2438D01*
X2725Y2438D01*
X2725Y2439D01*
X2726Y2440D01*
X2727Y2441D01*
X2728Y2441D01*
X2729Y2443D01*
X2731Y2443D01*
X2732Y2444D01*
X2734Y2446D01*
X2736Y2446D01*
X2738Y2447D01*
X2740Y2448D01*
X2743Y2449D01*
X2746Y2449D01*
X2748Y2449D01*
X2750D01*
X2750Y2449D01*
D02*
G37*
G36*
X2668Y2448D02*
X2669D01*
X2672Y2448D01*
X2675Y2448D01*
X2679Y2447D01*
X2682Y2447D01*
X2683Y2446D01*
X2685Y2446D01*
X2685D01*
X2685Y2446D01*
X2686Y2445D01*
X2687Y2445D01*
X2688Y2444D01*
X2690Y2443D01*
X2692Y2441D01*
X2694Y2439D01*
X2695Y2437D01*
Y2437D01*
X2695Y2437D01*
X2696Y2436D01*
X2697Y2434D01*
X2697Y2433D01*
X2698Y2430D01*
X2699Y2428D01*
X2699Y2425D01*
X2699Y2422D01*
Y2422D01*
Y2422D01*
Y2421D01*
X2699Y2421D01*
Y2420D01*
X2699Y2419D01*
X2698Y2416D01*
X2698Y2414D01*
X2697Y2411D01*
X2695Y2408D01*
X2694Y2406D01*
X2693Y2405D01*
X2693Y2405D01*
X2692Y2405D01*
X2692Y2404D01*
X2691Y2404D01*
X2691Y2403D01*
X2690Y2403D01*
X2689Y2402D01*
X2688Y2401D01*
X2686Y2401D01*
X2685Y2400D01*
X2683Y2399D01*
X2681Y2398D01*
X2679Y2398D01*
X2677Y2397D01*
X2675Y2397D01*
X2672Y2396D01*
X2673Y2396D01*
X2673Y2396D01*
X2674Y2395D01*
X2675Y2395D01*
X2678Y2393D01*
X2679Y2392D01*
X2680Y2391D01*
X2680Y2391D01*
X2681Y2391D01*
X2682Y2389D01*
X2683Y2388D01*
X2685Y2386D01*
X2687Y2384D01*
X2688Y2381D01*
X2690Y2379D01*
X2707Y2353D01*
X2691D01*
X2679Y2373D01*
Y2373D01*
X2678Y2373D01*
X2678Y2373D01*
X2678Y2374D01*
X2677Y2376D01*
X2675Y2377D01*
X2674Y2380D01*
X2672Y2382D01*
X2671Y2384D01*
X2669Y2386D01*
X2669Y2386D01*
X2669Y2386D01*
X2668Y2387D01*
X2667Y2388D01*
X2665Y2390D01*
X2664Y2391D01*
X2663Y2392D01*
X2663Y2392D01*
X2662Y2392D01*
X2662Y2393D01*
X2661Y2393D01*
X2660Y2394D01*
X2659Y2394D01*
X2657Y2395D01*
X2657D01*
X2657Y2395D01*
X2656D01*
X2655Y2395D01*
X2654Y2395D01*
X2653D01*
X2652Y2395D01*
X2635D01*
Y2353D01*
X2623D01*
Y2449D01*
X2667D01*
X2668Y2448D01*
D02*
G37*
G36*
X3573Y2486D02*
X3535D01*
X3530Y2460D01*
X3530Y2461D01*
X3530Y2461D01*
X3530Y2461D01*
X3531Y2461D01*
X3532Y2462D01*
X3533Y2462D01*
X3535Y2463D01*
X3538Y2465D01*
X3541Y2466D01*
X3544Y2466D01*
X3546Y2467D01*
X3549D01*
X3550Y2466D01*
X3551Y2466D01*
X3552Y2466D01*
X3554Y2466D01*
X3555Y2465D01*
X3558Y2464D01*
X3560Y2464D01*
X3562Y2463D01*
X3564Y2462D01*
X3566Y2461D01*
X3567Y2459D01*
X3569Y2458D01*
X3569Y2458D01*
X3569Y2457D01*
X3570Y2457D01*
X3570Y2456D01*
X3571Y2455D01*
X3572Y2454D01*
X3573Y2453D01*
X3573Y2452D01*
X3574Y2450D01*
X3575Y2448D01*
X3576Y2447D01*
X3576Y2445D01*
X3577Y2443D01*
X3577Y2440D01*
X3578Y2438D01*
X3578Y2435D01*
Y2435D01*
Y2435D01*
Y2434D01*
X3578Y2433D01*
X3577Y2432D01*
X3577Y2431D01*
X3577Y2429D01*
X3577Y2428D01*
X3576Y2424D01*
X3575Y2420D01*
X3574Y2418D01*
X3573Y2417D01*
X3571Y2415D01*
X3570Y2413D01*
X3570Y2413D01*
X3570Y2412D01*
X3569Y2412D01*
X3568Y2411D01*
X3567Y2410D01*
X3566Y2409D01*
X3565Y2408D01*
X3563Y2407D01*
X3562Y2406D01*
X3560Y2405D01*
X3558Y2404D01*
X3556Y2403D01*
X3553Y2402D01*
X3551Y2402D01*
X3548Y2401D01*
X3545Y2401D01*
X3544D01*
X3543Y2401D01*
X3542Y2401D01*
X3540Y2402D01*
X3539Y2402D01*
X3537Y2402D01*
X3534Y2403D01*
X3530Y2404D01*
X3528Y2405D01*
X3527Y2406D01*
X3525Y2407D01*
X3523Y2408D01*
X3523Y2409D01*
X3523Y2409D01*
X3523Y2409D01*
X3522Y2410D01*
X3521Y2410D01*
X3521Y2411D01*
X3520Y2412D01*
X3519Y2414D01*
X3518Y2415D01*
X3518Y2416D01*
X3516Y2420D01*
X3515Y2424D01*
X3514Y2426D01*
X3514Y2428D01*
X3526Y2429D01*
Y2429D01*
Y2429D01*
X3527Y2428D01*
X3527Y2427D01*
X3527Y2426D01*
X3528Y2424D01*
X3528Y2422D01*
X3530Y2419D01*
X3531Y2417D01*
X3533Y2415D01*
X3533Y2415D01*
X3533Y2415D01*
X3535Y2414D01*
X3536Y2413D01*
X3538Y2412D01*
X3540Y2412D01*
X3542Y2411D01*
X3545Y2411D01*
X3546D01*
X3546Y2411D01*
X3548Y2411D01*
X3550Y2412D01*
X3552Y2412D01*
X3555Y2414D01*
X3557Y2415D01*
X3558Y2416D01*
X3559Y2417D01*
X3559Y2417D01*
X3560Y2418D01*
X3560Y2418D01*
X3560Y2418D01*
X3561Y2420D01*
X3562Y2422D01*
X3563Y2424D01*
X3564Y2427D01*
X3565Y2431D01*
X3565Y2432D01*
Y2434D01*
Y2434D01*
Y2435D01*
Y2435D01*
X3565Y2436D01*
Y2437D01*
X3565Y2438D01*
X3565Y2440D01*
X3564Y2443D01*
X3563Y2445D01*
X3562Y2448D01*
X3560Y2450D01*
Y2450D01*
X3559Y2450D01*
X3559Y2451D01*
X3557Y2452D01*
X3556Y2453D01*
X3553Y2454D01*
X3551Y2455D01*
X3548Y2456D01*
X3546Y2456D01*
X3544D01*
X3543Y2456D01*
X3541Y2456D01*
X3540Y2455D01*
X3538Y2455D01*
X3536Y2454D01*
X3534Y2453D01*
X3534Y2453D01*
X3534Y2453D01*
X3533Y2452D01*
X3532Y2452D01*
X3531Y2451D01*
X3529Y2449D01*
X3528Y2448D01*
X3527Y2447D01*
X3516Y2448D01*
X3525Y2498D01*
X3573D01*
Y2486D01*
D02*
G37*
G36*
X3468Y2499D02*
X3469D01*
X3472Y2499D01*
X3475Y2498D01*
X3478Y2498D01*
X3481Y2497D01*
X3483Y2497D01*
X3484Y2496D01*
X3484D01*
X3485Y2496D01*
X3485Y2496D01*
X3487Y2495D01*
X3488Y2494D01*
X3490Y2493D01*
X3492Y2491D01*
X3493Y2489D01*
X3495Y2487D01*
Y2487D01*
X3495Y2487D01*
X3496Y2486D01*
X3496Y2485D01*
X3497Y2483D01*
X3498Y2481D01*
X3498Y2478D01*
X3499Y2476D01*
X3499Y2473D01*
Y2472D01*
Y2472D01*
Y2472D01*
X3499Y2471D01*
Y2470D01*
X3499Y2469D01*
X3498Y2467D01*
X3497Y2464D01*
X3496Y2461D01*
X3495Y2458D01*
X3493Y2457D01*
X3492Y2455D01*
X3492Y2455D01*
X3492Y2455D01*
X3492Y2455D01*
X3491Y2454D01*
X3490Y2454D01*
X3490Y2453D01*
X3488Y2452D01*
X3487Y2452D01*
X3486Y2451D01*
X3484Y2450D01*
X3483Y2449D01*
X3481Y2449D01*
X3479Y2448D01*
X3477Y2447D01*
X3474Y2447D01*
X3472Y2447D01*
X3472Y2446D01*
X3473Y2446D01*
X3474Y2446D01*
X3475Y2445D01*
X3477Y2443D01*
X3478Y2443D01*
X3480Y2442D01*
X3480Y2441D01*
X3481Y2441D01*
X3482Y2440D01*
X3483Y2438D01*
X3485Y2436D01*
X3486Y2434D01*
X3488Y2432D01*
X3490Y2429D01*
X3507Y2403D01*
X3491D01*
X3478Y2423D01*
Y2423D01*
X3478Y2423D01*
X3478Y2424D01*
X3477Y2424D01*
X3476Y2426D01*
X3475Y2428D01*
X3473Y2430D01*
X3472Y2432D01*
X3470Y2434D01*
X3469Y2436D01*
X3469Y2436D01*
X3468Y2437D01*
X3468Y2438D01*
X3467Y2438D01*
X3465Y2441D01*
X3464Y2442D01*
X3462Y2442D01*
X3462Y2443D01*
X3462Y2443D01*
X3462Y2443D01*
X3461Y2443D01*
X3460Y2444D01*
X3459Y2444D01*
X3457Y2445D01*
X3457D01*
X3456Y2445D01*
X3456D01*
X3455Y2445D01*
X3454Y2445D01*
X3453D01*
X3451Y2445D01*
X3435D01*
Y2403D01*
X3422D01*
Y2499D01*
X3467D01*
X3468Y2499D01*
D02*
G37*
G36*
X3868Y2402D02*
X3856D01*
Y2477D01*
X3856Y2477D01*
X3855Y2476D01*
X3855Y2475D01*
X3853Y2474D01*
X3852Y2473D01*
X3850Y2472D01*
X3848Y2470D01*
X3845Y2469D01*
X3845D01*
X3845Y2469D01*
X3844Y2468D01*
X3843Y2467D01*
X3841Y2466D01*
X3839Y2465D01*
X3837Y2464D01*
X3835Y2464D01*
X3833Y2463D01*
Y2474D01*
X3833D01*
X3833Y2474D01*
X3834Y2474D01*
X3834Y2475D01*
X3835Y2475D01*
X3836Y2476D01*
X3839Y2477D01*
X3841Y2479D01*
X3844Y2481D01*
X3847Y2483D01*
X3850Y2485D01*
X3850Y2485D01*
X3850Y2486D01*
X3851Y2486D01*
X3851Y2486D01*
X3852Y2488D01*
X3854Y2489D01*
X3856Y2491D01*
X3858Y2494D01*
X3859Y2496D01*
X3860Y2498D01*
X3868D01*
Y2402D01*
D02*
G37*
G36*
X3778Y2498D02*
X3779D01*
X3782Y2497D01*
X3785Y2497D01*
X3788Y2497D01*
X3791Y2496D01*
X3793Y2496D01*
X3794Y2495D01*
X3794D01*
X3794Y2495D01*
X3795Y2495D01*
X3796Y2494D01*
X3798Y2493D01*
X3799Y2492D01*
X3801Y2490D01*
X3803Y2488D01*
X3805Y2486D01*
Y2486D01*
X3805Y2486D01*
X3805Y2485D01*
X3806Y2483D01*
X3807Y2482D01*
X3807Y2480D01*
X3808Y2477D01*
X3808Y2474D01*
X3809Y2472D01*
Y2471D01*
Y2471D01*
Y2471D01*
X3808Y2470D01*
Y2469D01*
X3808Y2468D01*
X3808Y2466D01*
X3807Y2463D01*
X3806Y2460D01*
X3804Y2457D01*
X3803Y2456D01*
X3802Y2454D01*
X3802Y2454D01*
X3802Y2454D01*
X3801Y2454D01*
X3801Y2453D01*
X3800Y2453D01*
X3799Y2452D01*
X3798Y2451D01*
X3797Y2450D01*
X3796Y2450D01*
X3794Y2449D01*
X3792Y2448D01*
X3791Y2448D01*
X3788Y2447D01*
X3786Y2446D01*
X3784Y2446D01*
X3782Y2445D01*
X3782Y2445D01*
X3782Y2445D01*
X3783Y2445D01*
X3784Y2444D01*
X3787Y2442D01*
X3788Y2441D01*
X3789Y2441D01*
X3789Y2440D01*
X3790Y2440D01*
X3791Y2439D01*
X3793Y2437D01*
X3794Y2435D01*
X3796Y2433D01*
X3798Y2431D01*
X3800Y2428D01*
X3816Y2402D01*
X3800D01*
X3788Y2422D01*
Y2422D01*
X3788Y2422D01*
X3787Y2423D01*
X3787Y2423D01*
X3786Y2425D01*
X3785Y2427D01*
X3783Y2429D01*
X3782Y2431D01*
X3780Y2433D01*
X3779Y2435D01*
X3779Y2435D01*
X3778Y2436D01*
X3777Y2436D01*
X3776Y2437D01*
X3774Y2440D01*
X3773Y2441D01*
X3772Y2441D01*
X3772Y2441D01*
X3772Y2442D01*
X3771Y2442D01*
X3770Y2442D01*
X3769Y2443D01*
X3769Y2443D01*
X3766Y2444D01*
X3766D01*
X3766Y2444D01*
X3765D01*
X3765Y2444D01*
X3764Y2444D01*
X3763D01*
X3761Y2444D01*
X3745D01*
Y2402D01*
X3732D01*
Y2498D01*
X3776D01*
X3778Y2498D01*
D02*
G37*
G36*
X857Y4443D02*
Y4443D01*
Y4442D01*
Y4442D01*
Y4441D01*
X857Y4440D01*
Y4438D01*
X857Y4436D01*
X857Y4435D01*
X857Y4431D01*
X856Y4427D01*
X855Y4423D01*
X855Y4422D01*
X854Y4420D01*
Y4420D01*
X854Y4420D01*
X854Y4419D01*
X853Y4419D01*
X852Y4417D01*
X851Y4415D01*
X850Y4413D01*
X848Y4411D01*
X845Y4408D01*
X842Y4406D01*
X842D01*
X842Y4406D01*
X841Y4406D01*
X841Y4405D01*
X840Y4405D01*
X839Y4405D01*
X838Y4404D01*
X836Y4404D01*
X835Y4403D01*
X833Y4403D01*
X831Y4402D01*
X829Y4402D01*
X827Y4402D01*
X825Y4401D01*
X820Y4401D01*
X819D01*
X818Y4401D01*
X816D01*
X815Y4401D01*
X814Y4401D01*
X812Y4402D01*
X809Y4402D01*
X805Y4403D01*
X801Y4404D01*
X798Y4406D01*
X798D01*
X797Y4406D01*
X797Y4406D01*
X796Y4406D01*
X795Y4407D01*
X793Y4409D01*
X791Y4411D01*
X789Y4413D01*
X787Y4416D01*
X786Y4419D01*
Y4419D01*
X785Y4419D01*
X785Y4420D01*
X785Y4421D01*
X785Y4422D01*
X784Y4423D01*
X784Y4424D01*
X784Y4425D01*
X783Y4427D01*
X783Y4429D01*
X783Y4431D01*
X782Y4433D01*
X782Y4435D01*
X782Y4438D01*
X782Y4440D01*
Y4443D01*
Y4499D01*
X795D01*
Y4443D01*
Y4443D01*
Y4443D01*
Y4442D01*
Y4441D01*
X795Y4440D01*
Y4439D01*
X795Y4436D01*
X795Y4433D01*
X796Y4430D01*
X796Y4427D01*
X796Y4426D01*
X797Y4425D01*
X797Y4424D01*
X797Y4424D01*
X798Y4423D01*
X799Y4421D01*
X800Y4420D01*
X801Y4418D01*
X803Y4417D01*
X805Y4416D01*
X805Y4416D01*
X806Y4415D01*
X807Y4415D01*
X809Y4414D01*
X811Y4413D01*
X813Y4413D01*
X816Y4413D01*
X819Y4412D01*
X820D01*
X821Y4413D01*
X822D01*
X823Y4413D01*
X826Y4413D01*
X830Y4414D01*
X833Y4415D01*
X836Y4417D01*
X837Y4418D01*
X839Y4419D01*
X839Y4419D01*
X839Y4419D01*
X839Y4419D01*
X840Y4420D01*
X840Y4421D01*
X841Y4422D01*
X841Y4423D01*
X842Y4424D01*
X842Y4426D01*
X843Y4427D01*
X843Y4430D01*
X844Y4432D01*
X844Y4434D01*
X844Y4437D01*
X845Y4440D01*
Y4443D01*
Y4499D01*
X857D01*
Y4443D01*
D02*
G37*
G36*
X918Y4403D02*
X906D01*
Y4478D01*
X906Y4478D01*
X905Y4477D01*
X905Y4476D01*
X903Y4475D01*
X902Y4474D01*
X900Y4473D01*
X898Y4471D01*
X895Y4469D01*
X895D01*
X895Y4469D01*
X894Y4469D01*
X893Y4468D01*
X891Y4467D01*
X889Y4466D01*
X887Y4465D01*
X885Y4464D01*
X883Y4464D01*
Y4475D01*
X883D01*
X883Y4475D01*
X884Y4475D01*
X884Y4476D01*
X885Y4476D01*
X886Y4477D01*
X889Y4478D01*
X891Y4480D01*
X894Y4482D01*
X897Y4484D01*
X900Y4486D01*
X900Y4486D01*
X900Y4486D01*
X901Y4487D01*
X901Y4487D01*
X902Y4489D01*
X904Y4490D01*
X906Y4492D01*
X908Y4494D01*
X909Y4497D01*
X910Y4499D01*
X918D01*
Y4403D01*
D02*
G37*
G36*
X2005Y3552D02*
X1994D01*
Y3627D01*
X1993Y3627D01*
X1993Y3626D01*
X1992Y3625D01*
X1991Y3624D01*
X1989Y3623D01*
X1987Y3622D01*
X1985Y3620D01*
X1982Y3619D01*
X1982D01*
X1982Y3619D01*
X1981Y3618D01*
X1980Y3617D01*
X1978Y3616D01*
X1976Y3615D01*
X1974Y3614D01*
X1972Y3614D01*
X1970Y3613D01*
Y3624D01*
X1970D01*
X1970Y3624D01*
X1971Y3624D01*
X1972Y3625D01*
X1973Y3625D01*
X1974Y3626D01*
X1976Y3627D01*
X1979Y3629D01*
X1981Y3631D01*
X1984Y3633D01*
X1987Y3635D01*
X1987Y3635D01*
X1988Y3636D01*
X1988Y3636D01*
X1988Y3636D01*
X1990Y3638D01*
X1991Y3639D01*
X1993Y3641D01*
X1995Y3644D01*
X1996Y3646D01*
X1998Y3648D01*
X2005D01*
Y3552D01*
D02*
G37*
G36*
X1903Y3563D02*
X1951D01*
Y3552D01*
X1891D01*
Y3648D01*
X1903D01*
Y3563D01*
D02*
G37*
G36*
X1840Y3648D02*
X1841D01*
X1844Y3647D01*
X1847Y3647D01*
X1851Y3647D01*
X1854Y3646D01*
X1855Y3646D01*
X1857Y3645D01*
X1857D01*
X1857Y3645D01*
X1858Y3645D01*
X1859Y3644D01*
X1860Y3643D01*
X1862Y3642D01*
X1864Y3640D01*
X1866Y3638D01*
X1867Y3636D01*
Y3636D01*
X1867Y3636D01*
X1868Y3635D01*
X1869Y3633D01*
X1869Y3632D01*
X1870Y3630D01*
X1871Y3627D01*
X1871Y3624D01*
X1871Y3622D01*
Y3621D01*
Y3621D01*
Y3621D01*
X1871Y3620D01*
Y3619D01*
X1871Y3618D01*
X1870Y3616D01*
X1870Y3613D01*
X1869Y3610D01*
X1867Y3607D01*
X1866Y3606D01*
X1865Y3604D01*
X1864Y3604D01*
X1864Y3604D01*
X1864Y3604D01*
X1863Y3603D01*
X1863Y3603D01*
X1862Y3602D01*
X1861Y3601D01*
X1860Y3600D01*
X1858Y3600D01*
X1857Y3599D01*
X1855Y3598D01*
X1853Y3598D01*
X1851Y3597D01*
X1849Y3596D01*
X1847Y3596D01*
X1844Y3595D01*
X1845Y3595D01*
X1845Y3595D01*
X1846Y3595D01*
X1847Y3594D01*
X1850Y3592D01*
X1851Y3591D01*
X1852Y3591D01*
X1852Y3590D01*
X1853Y3590D01*
X1854Y3589D01*
X1855Y3587D01*
X1857Y3585D01*
X1859Y3583D01*
X1860Y3581D01*
X1862Y3578D01*
X1879Y3552D01*
X1863D01*
X1850Y3572D01*
Y3572D01*
X1850Y3572D01*
X1850Y3573D01*
X1850Y3573D01*
X1849Y3575D01*
X1847Y3577D01*
X1846Y3579D01*
X1844Y3581D01*
X1843Y3583D01*
X1841Y3585D01*
X1841Y3585D01*
X1841Y3586D01*
X1840Y3586D01*
X1839Y3587D01*
X1837Y3590D01*
X1836Y3590D01*
X1835Y3591D01*
X1835Y3591D01*
X1834Y3592D01*
X1834Y3592D01*
X1833Y3592D01*
X1832Y3593D01*
X1831Y3593D01*
X1829Y3594D01*
X1829D01*
X1829Y3594D01*
X1828D01*
X1827Y3594D01*
X1826Y3594D01*
X1825D01*
X1824Y3594D01*
X1807D01*
Y3552D01*
X1795D01*
Y3648D01*
X1839D01*
X1840Y3648D01*
D02*
G37*
G36*
X664Y4186D02*
X677D01*
Y4175D01*
X664D01*
Y4152D01*
X652D01*
Y4175D01*
X611D01*
Y4186D01*
X655Y4248D01*
X664D01*
Y4186D01*
D02*
G37*
G36*
X568Y4248D02*
X570D01*
X573Y4248D01*
X576Y4247D01*
X579Y4247D01*
X582Y4246D01*
X584Y4246D01*
X585Y4245D01*
X585D01*
X585Y4245D01*
X586Y4245D01*
X587Y4244D01*
X589Y4243D01*
X590Y4242D01*
X592Y4240D01*
X594Y4238D01*
X595Y4236D01*
Y4236D01*
X596Y4236D01*
X596Y4235D01*
X597Y4234D01*
X598Y4232D01*
X598Y4230D01*
X599Y4227D01*
X599Y4225D01*
X600Y4222D01*
Y4222D01*
Y4221D01*
Y4221D01*
X599Y4220D01*
Y4219D01*
X599Y4218D01*
X599Y4216D01*
X598Y4213D01*
X597Y4210D01*
X595Y4207D01*
X594Y4206D01*
X593Y4204D01*
X593Y4204D01*
X593Y4204D01*
X592Y4204D01*
X592Y4203D01*
X591Y4203D01*
X590Y4202D01*
X589Y4202D01*
X588Y4201D01*
X586Y4200D01*
X585Y4199D01*
X583Y4198D01*
X581Y4198D01*
X579Y4197D01*
X577Y4197D01*
X575Y4196D01*
X572Y4196D01*
X573Y4196D01*
X573Y4195D01*
X574Y4195D01*
X575Y4194D01*
X578Y4193D01*
X579Y4192D01*
X580Y4191D01*
X580Y4191D01*
X581Y4190D01*
X582Y4189D01*
X584Y4187D01*
X585Y4185D01*
X587Y4183D01*
X589Y4181D01*
X591Y4178D01*
X607Y4152D01*
X591D01*
X579Y4172D01*
Y4172D01*
X578Y4172D01*
X578Y4173D01*
X578Y4173D01*
X577Y4175D01*
X576Y4177D01*
X574Y4179D01*
X572Y4181D01*
X571Y4183D01*
X570Y4185D01*
X569Y4185D01*
X569Y4186D01*
X568Y4187D01*
X567Y4188D01*
X565Y4190D01*
X564Y4191D01*
X563Y4192D01*
X563Y4192D01*
X563Y4192D01*
X562Y4192D01*
X561Y4193D01*
X560Y4193D01*
X559Y4193D01*
X557Y4194D01*
X557D01*
X557Y4194D01*
X556D01*
X556Y4194D01*
X555Y4194D01*
X553D01*
X552Y4195D01*
X536D01*
Y4152D01*
X523D01*
Y4248D01*
X567D01*
X568Y4248D01*
D02*
G37*
G36*
X3847Y3899D02*
X3849Y3899D01*
X3851Y3898D01*
X3854Y3897D01*
X3856Y3897D01*
X3859Y3896D01*
X3859D01*
X3859Y3895D01*
X3860Y3895D01*
X3861Y3894D01*
X3863Y3893D01*
X3864Y3892D01*
X3866Y3890D01*
X3868Y3888D01*
X3869Y3886D01*
X3869Y3886D01*
X3870Y3885D01*
X3870Y3884D01*
X3871Y3883D01*
X3872Y3881D01*
X3872Y3879D01*
X3873Y3876D01*
X3873Y3874D01*
Y3874D01*
Y3873D01*
X3873Y3872D01*
X3872Y3870D01*
X3872Y3869D01*
X3871Y3867D01*
X3870Y3865D01*
X3869Y3863D01*
X3869Y3862D01*
X3869Y3862D01*
X3868Y3861D01*
X3867Y3860D01*
X3865Y3859D01*
X3864Y3857D01*
X3862Y3856D01*
X3859Y3855D01*
X3859D01*
X3860Y3855D01*
X3860Y3854D01*
X3861Y3854D01*
X3862Y3854D01*
X3864Y3853D01*
X3866Y3852D01*
X3869Y3850D01*
X3871Y3849D01*
X3873Y3846D01*
X3873Y3846D01*
X3873Y3845D01*
X3874Y3844D01*
X3875Y3842D01*
X3876Y3840D01*
X3877Y3837D01*
X3877Y3834D01*
X3877Y3831D01*
Y3831D01*
Y3830D01*
Y3830D01*
X3877Y3829D01*
X3877Y3828D01*
X3877Y3826D01*
X3877Y3825D01*
X3876Y3824D01*
X3875Y3820D01*
X3874Y3818D01*
X3874Y3817D01*
X3872Y3815D01*
X3871Y3813D01*
X3870Y3811D01*
X3868Y3810D01*
X3868Y3810D01*
X3868Y3809D01*
X3867Y3809D01*
X3866Y3808D01*
X3866Y3808D01*
X3864Y3807D01*
X3863Y3806D01*
X3862Y3805D01*
X3860Y3805D01*
X3858Y3804D01*
X3857Y3803D01*
X3855Y3802D01*
X3852Y3802D01*
X3850Y3801D01*
X3848Y3801D01*
X3845Y3801D01*
X3844D01*
X3843Y3801D01*
X3842Y3801D01*
X3840Y3801D01*
X3839Y3802D01*
X3838Y3802D01*
X3834Y3803D01*
X3831Y3804D01*
X3829Y3805D01*
X3827Y3806D01*
X3826Y3807D01*
X3824Y3808D01*
X3824Y3809D01*
X3824Y3809D01*
X3823Y3809D01*
X3823Y3810D01*
X3822Y3811D01*
X3821Y3812D01*
X3821Y3812D01*
X3820Y3814D01*
X3819Y3815D01*
X3818Y3817D01*
X3817Y3820D01*
X3815Y3824D01*
X3815Y3826D01*
X3815Y3828D01*
X3826Y3830D01*
Y3829D01*
X3826Y3829D01*
X3827Y3829D01*
X3827Y3828D01*
X3827Y3827D01*
X3827Y3826D01*
X3828Y3824D01*
X3829Y3822D01*
X3830Y3819D01*
X3831Y3817D01*
X3833Y3815D01*
X3833Y3815D01*
X3834Y3814D01*
X3835Y3814D01*
X3836Y3813D01*
X3838Y3812D01*
X3840Y3811D01*
X3843Y3811D01*
X3845Y3811D01*
X3846D01*
X3846Y3811D01*
X3848Y3811D01*
X3850Y3811D01*
X3852Y3812D01*
X3855Y3813D01*
X3857Y3814D01*
X3859Y3816D01*
X3859Y3817D01*
X3860Y3817D01*
X3861Y3819D01*
X3862Y3820D01*
X3863Y3822D01*
X3864Y3825D01*
X3865Y3828D01*
X3865Y3831D01*
Y3831D01*
Y3831D01*
Y3831D01*
X3865Y3832D01*
X3865Y3834D01*
X3864Y3835D01*
X3864Y3838D01*
X3863Y3840D01*
X3861Y3842D01*
X3859Y3844D01*
X3859Y3844D01*
X3859Y3845D01*
X3857Y3846D01*
X3856Y3847D01*
X3854Y3848D01*
X3852Y3849D01*
X3849Y3849D01*
X3846Y3849D01*
X3845D01*
X3844Y3849D01*
X3843Y3849D01*
X3841Y3849D01*
X3840Y3849D01*
X3838Y3848D01*
X3839Y3859D01*
X3840D01*
X3840Y3858D01*
X3842D01*
X3844Y3859D01*
X3845Y3859D01*
X3848Y3859D01*
X3850Y3860D01*
X3852Y3861D01*
X3855Y3862D01*
X3855D01*
X3855Y3862D01*
X3855Y3863D01*
X3856Y3864D01*
X3858Y3865D01*
X3859Y3867D01*
X3860Y3869D01*
X3860Y3871D01*
X3861Y3873D01*
Y3874D01*
Y3874D01*
Y3875D01*
Y3875D01*
X3860Y3877D01*
X3860Y3878D01*
X3859Y3880D01*
X3859Y3882D01*
X3858Y3883D01*
X3856Y3885D01*
X3856Y3885D01*
X3855Y3886D01*
X3854Y3886D01*
X3853Y3887D01*
X3851Y3888D01*
X3850Y3889D01*
X3847Y3889D01*
X3845Y3889D01*
X3844D01*
X3842Y3889D01*
X3841Y3889D01*
X3839Y3888D01*
X3837Y3888D01*
X3835Y3886D01*
X3833Y3885D01*
X3833Y3885D01*
X3833Y3884D01*
X3832Y3883D01*
X3831Y3882D01*
X3830Y3880D01*
X3829Y3878D01*
X3828Y3875D01*
X3828Y3872D01*
X3816Y3874D01*
Y3874D01*
X3816Y3875D01*
X3816Y3875D01*
X3816Y3876D01*
X3817Y3877D01*
X3817Y3878D01*
X3818Y3881D01*
X3819Y3884D01*
X3821Y3887D01*
X3823Y3890D01*
X3826Y3893D01*
X3826Y3893D01*
X3826Y3893D01*
X3826Y3893D01*
X3827Y3893D01*
X3828Y3894D01*
X3829Y3895D01*
X3830Y3895D01*
X3831Y3896D01*
X3834Y3897D01*
X3837Y3898D01*
X3840Y3899D01*
X3842Y3899D01*
X3846D01*
X3847Y3899D01*
D02*
G37*
G36*
X3768Y3898D02*
X3769D01*
X3772Y3898D01*
X3775Y3898D01*
X3779Y3897D01*
X3782Y3897D01*
X3783Y3896D01*
X3785Y3896D01*
X3785D01*
X3785Y3896D01*
X3786Y3895D01*
X3787Y3895D01*
X3788Y3894D01*
X3790Y3893D01*
X3792Y3891D01*
X3794Y3889D01*
X3795Y3887D01*
Y3887D01*
X3795Y3887D01*
X3796Y3886D01*
X3797Y3884D01*
X3797Y3883D01*
X3798Y3880D01*
X3799Y3878D01*
X3799Y3875D01*
X3799Y3872D01*
Y3872D01*
Y3872D01*
Y3871D01*
X3799Y3871D01*
Y3870D01*
X3799Y3869D01*
X3798Y3866D01*
X3798Y3864D01*
X3797Y3861D01*
X3795Y3858D01*
X3794Y3856D01*
X3793Y3855D01*
X3793Y3855D01*
X3792Y3855D01*
X3792Y3854D01*
X3791Y3854D01*
X3791Y3853D01*
X3790Y3853D01*
X3789Y3852D01*
X3788Y3851D01*
X3786Y3851D01*
X3785Y3850D01*
X3783Y3849D01*
X3781Y3848D01*
X3779Y3848D01*
X3777Y3847D01*
X3775Y3847D01*
X3772Y3846D01*
X3773Y3846D01*
X3773Y3846D01*
X3774Y3845D01*
X3775Y3845D01*
X3778Y3843D01*
X3779Y3842D01*
X3780Y3841D01*
X3780Y3841D01*
X3781Y3840D01*
X3782Y3839D01*
X3783Y3838D01*
X3785Y3836D01*
X3787Y3834D01*
X3788Y3831D01*
X3790Y3829D01*
X3807Y3803D01*
X3791D01*
X3779Y3823D01*
Y3823D01*
X3778Y3823D01*
X3778Y3823D01*
X3778Y3824D01*
X3777Y3826D01*
X3775Y3827D01*
X3774Y3830D01*
X3772Y3832D01*
X3771Y3834D01*
X3769Y3836D01*
X3769Y3836D01*
X3769Y3836D01*
X3768Y3837D01*
X3767Y3838D01*
X3765Y3840D01*
X3764Y3841D01*
X3763Y3842D01*
X3763Y3842D01*
X3762Y3842D01*
X3762Y3843D01*
X3761Y3843D01*
X3760Y3844D01*
X3759Y3844D01*
X3757Y3845D01*
X3757D01*
X3757Y3845D01*
X3756D01*
X3755Y3845D01*
X3754Y3845D01*
X3753D01*
X3752Y3845D01*
X3735D01*
Y3803D01*
X3723D01*
Y3899D01*
X3767D01*
X3768Y3898D01*
D02*
G37*
G36*
X3461Y4607D02*
X3462Y4606D01*
X3462Y4605D01*
X3464Y4603D01*
X3466Y4600D01*
X3468Y4598D01*
X3470Y4595D01*
X3471Y4594D01*
X3471Y4592D01*
X3471Y4592D01*
Y4592D01*
X3472Y4591D01*
X3472Y4590D01*
X3473Y4588D01*
X3473Y4586D01*
X3473Y4584D01*
X3473Y4581D01*
X3472Y4578D01*
X3472Y4578D01*
Y4578D01*
X3472Y4577D01*
X3472Y4576D01*
X3471Y4574D01*
X3470Y4572D01*
X3469Y4570D01*
X3467Y4568D01*
X3465Y4565D01*
X3465Y4565D01*
X3465Y4565D01*
X3464Y4565D01*
X3464Y4564D01*
X3463Y4564D01*
X3462Y4563D01*
X3460Y4562D01*
X3458Y4560D01*
X3455Y4559D01*
X3452Y4558D01*
X3450Y4558D01*
X3448Y4558D01*
X3448D01*
X3448D01*
X3447D01*
X3446Y4558D01*
X3446Y4558D01*
X3445Y4558D01*
X3443Y4559D01*
X3442Y4559D01*
X3440Y4559D01*
X3439Y4560D01*
X3437Y4560D01*
X3435Y4561D01*
X3434Y4562D01*
X3432Y4563D01*
X3430Y4565D01*
X3428Y4566D01*
X3428Y4566D01*
X3428Y4565D01*
X3428Y4564D01*
X3428Y4563D01*
X3429Y4560D01*
X3429Y4559D01*
X3430Y4557D01*
Y4557D01*
Y4556D01*
Y4554D01*
Y4552D01*
X3429Y4550D01*
X3429Y4547D01*
X3429Y4544D01*
X3428Y4541D01*
X3421Y4511D01*
X3410Y4522D01*
X3415Y4545D01*
X3415Y4545D01*
Y4545D01*
X3415Y4546D01*
X3415Y4547D01*
X3416Y4548D01*
X3416Y4551D01*
X3417Y4553D01*
X3417Y4556D01*
X3418Y4558D01*
X3418Y4561D01*
Y4561D01*
X3418Y4562D01*
X3418Y4563D01*
Y4564D01*
Y4567D01*
X3418Y4568D01*
X3418Y4570D01*
Y4570D01*
X3418Y4570D01*
X3418Y4571D01*
X3417Y4572D01*
X3417Y4573D01*
X3417Y4574D01*
X3416Y4576D01*
X3415Y4576D01*
X3415Y4576D01*
X3415Y4576D01*
X3415Y4577D01*
X3414Y4578D01*
X3413Y4579D01*
X3412Y4580D01*
X3401Y4591D01*
X3371Y4561D01*
X3362Y4570D01*
X3429Y4638D01*
X3461Y4607D01*
D02*
G37*
G36*
X3496Y4561D02*
X3497D01*
X3497Y4561D01*
X3498D01*
X3498Y4561D01*
X3499Y4561D01*
X3500Y4561D01*
X3502Y4560D01*
X3503Y4560D01*
X3505Y4559D01*
X3506Y4559D01*
X3508Y4558D01*
X3510Y4557D01*
X3512Y4556D01*
X3513Y4554D01*
X3515Y4553D01*
X3517Y4551D01*
X3518Y4550D01*
X3519Y4549D01*
X3519Y4548D01*
X3520Y4547D01*
X3521Y4546D01*
X3522Y4545D01*
X3524Y4542D01*
X3525Y4538D01*
X3526Y4536D01*
X3527Y4534D01*
X3527Y4532D01*
X3527Y4530D01*
Y4530D01*
X3527Y4530D01*
X3527Y4529D01*
Y4528D01*
Y4527D01*
X3527Y4526D01*
X3527Y4525D01*
X3526Y4523D01*
X3525Y4521D01*
X3524Y4517D01*
X3523Y4516D01*
X3522Y4514D01*
X3521Y4513D01*
X3520Y4511D01*
X3519Y4511D01*
X3519Y4510D01*
X3518Y4510D01*
X3517Y4509D01*
X3515Y4508D01*
X3514Y4507D01*
X3512Y4506D01*
X3510Y4505D01*
X3509Y4505D01*
X3509Y4504D01*
X3508Y4504D01*
X3506Y4503D01*
X3504Y4503D01*
X3501Y4503D01*
X3499Y4502D01*
X3496Y4502D01*
X3495D01*
X3494Y4502D01*
X3493D01*
X3492D01*
X3491D01*
X3490D01*
X3488D01*
X3486Y4502D01*
X3484D01*
X3482Y4502D01*
X3480Y4502D01*
X3477Y4502D01*
X3474Y4503D01*
X3471Y4503D01*
X3471D01*
X3471D01*
X3470Y4503D01*
X3469Y4503D01*
X3468D01*
X3467Y4503D01*
X3464Y4503D01*
X3461Y4504D01*
X3458Y4504D01*
X3455Y4504D01*
X3454Y4504D01*
X3453D01*
X3453D01*
X3452D01*
X3451D01*
X3450Y4504D01*
X3449Y4504D01*
X3448Y4504D01*
X3445Y4503D01*
X3478Y4470D01*
X3470Y4462D01*
X3425Y4507D01*
X3425Y4507D01*
X3426Y4507D01*
X3426Y4508D01*
X3427Y4508D01*
X3428Y4509D01*
X3429Y4510D01*
X3431Y4511D01*
X3432Y4511D01*
X3432Y4511D01*
X3432D01*
X3433Y4512D01*
X3434Y4512D01*
X3436Y4513D01*
X3438Y4514D01*
X3441Y4514D01*
X3444Y4515D01*
X3447Y4515D01*
X3447Y4515D01*
X3447Y4515D01*
X3448Y4515D01*
X3450D01*
X3452D01*
X3455D01*
X3459Y4515D01*
X3463Y4515D01*
X3468Y4514D01*
X3468D01*
X3469Y4514D01*
X3470Y4514D01*
X3471Y4514D01*
X3473Y4514D01*
X3475Y4514D01*
X3477Y4514D01*
X3479Y4513D01*
X3484Y4513D01*
X3489Y4513D01*
X3491D01*
X3493Y4513D01*
X3495Y4513D01*
X3497Y4514D01*
X3497Y4514D01*
X3497Y4514D01*
X3498Y4514D01*
X3499Y4514D01*
X3500Y4514D01*
X3502Y4515D01*
X3505Y4516D01*
X3507Y4517D01*
X3509Y4518D01*
X3511Y4520D01*
X3511Y4520D01*
X3511Y4520D01*
X3512Y4521D01*
X3513Y4522D01*
X3514Y4523D01*
X3515Y4525D01*
X3515Y4527D01*
X3516Y4529D01*
X3516Y4532D01*
Y4532D01*
X3516Y4533D01*
X3516Y4534D01*
X3515Y4536D01*
X3514Y4538D01*
X3513Y4540D01*
X3512Y4542D01*
X3510Y4544D01*
X3509Y4545D01*
X3509Y4545D01*
X3508Y4546D01*
X3506Y4547D01*
X3504Y4549D01*
X3502Y4550D01*
X3499Y4550D01*
X3497Y4550D01*
X3496D01*
X3495Y4550D01*
X3494Y4550D01*
X3492Y4550D01*
X3490Y4549D01*
X3488Y4548D01*
X3485Y4546D01*
X3483Y4544D01*
X3475Y4554D01*
X3475Y4554D01*
X3476Y4554D01*
X3476Y4554D01*
X3477Y4555D01*
X3478Y4555D01*
X3479Y4556D01*
X3481Y4557D01*
X3482Y4558D01*
X3485Y4559D01*
X3489Y4560D01*
X3491Y4561D01*
X3493Y4561D01*
X3495Y4561D01*
X3496D01*
D02*
G37*
G36*
X2324Y4405D02*
X2312D01*
Y4480D01*
X2312Y4480D01*
X2312Y4479D01*
X2311Y4478D01*
X2309Y4477D01*
X2308Y4476D01*
X2306Y4475D01*
X2304Y4473D01*
X2301Y4472D01*
X2301D01*
X2301Y4472D01*
X2300Y4471D01*
X2299Y4470D01*
X2297Y4470D01*
X2295Y4469D01*
X2293Y4468D01*
X2291Y4467D01*
X2289Y4466D01*
Y4477D01*
X2289D01*
X2289Y4477D01*
X2290Y4478D01*
X2290Y4478D01*
X2291Y4478D01*
X2292Y4479D01*
X2295Y4480D01*
X2297Y4482D01*
X2300Y4484D01*
X2303Y4486D01*
X2306Y4488D01*
X2306Y4489D01*
X2306Y4489D01*
X2307Y4489D01*
X2307Y4490D01*
X2309Y4491D01*
X2310Y4493D01*
X2312Y4495D01*
X2314Y4497D01*
X2315Y4499D01*
X2317Y4501D01*
X2324D01*
Y4405D01*
D02*
G37*
G36*
X2224Y4502D02*
X2225D01*
X2226Y4502D01*
X2228Y4502D01*
X2230Y4502D01*
X2233Y4501D01*
X2238Y4500D01*
X2242Y4498D01*
X2244Y4497D01*
X2246Y4496D01*
X2246Y4496D01*
X2246Y4496D01*
X2247Y4495D01*
X2248Y4495D01*
X2248Y4494D01*
X2249Y4494D01*
X2252Y4492D01*
X2254Y4489D01*
X2257Y4486D01*
X2260Y4482D01*
X2262Y4478D01*
Y4478D01*
X2262Y4478D01*
X2262Y4477D01*
X2263Y4476D01*
X2263Y4475D01*
X2264Y4474D01*
X2264Y4473D01*
X2265Y4471D01*
X2265Y4469D01*
X2266Y4467D01*
X2266Y4465D01*
X2267Y4463D01*
X2267Y4458D01*
X2268Y4453D01*
Y4453D01*
Y4452D01*
Y4452D01*
Y4451D01*
X2267Y4450D01*
Y4449D01*
X2267Y4447D01*
X2267Y4446D01*
X2267Y4443D01*
X2266Y4439D01*
X2265Y4435D01*
X2264Y4432D01*
Y4431D01*
X2264Y4431D01*
X2264Y4431D01*
X2263Y4430D01*
X2263Y4429D01*
X2262Y4428D01*
X2261Y4426D01*
X2260Y4423D01*
X2258Y4421D01*
X2256Y4418D01*
X2253Y4415D01*
X2253D01*
X2254Y4415D01*
X2254Y4414D01*
X2255Y4414D01*
X2255Y4414D01*
X2256Y4413D01*
X2258Y4412D01*
X2261Y4410D01*
X2264Y4409D01*
X2267Y4407D01*
X2269Y4406D01*
X2266Y4397D01*
X2266D01*
X2265Y4398D01*
X2265Y4398D01*
X2264Y4398D01*
X2263Y4399D01*
X2262Y4399D01*
X2261Y4400D01*
X2259Y4400D01*
X2256Y4402D01*
X2253Y4404D01*
X2249Y4406D01*
X2245Y4409D01*
X2245D01*
X2245Y4409D01*
X2244Y4409D01*
X2243Y4408D01*
X2242Y4408D01*
X2241Y4407D01*
X2240Y4407D01*
X2238Y4406D01*
X2236Y4406D01*
X2235Y4405D01*
X2231Y4404D01*
X2226Y4404D01*
X2224Y4403D01*
X2221Y4403D01*
X2220D01*
X2219Y4403D01*
X2218D01*
X2217Y4404D01*
X2215Y4404D01*
X2214Y4404D01*
X2210Y4405D01*
X2206Y4406D01*
X2202Y4407D01*
X2200Y4408D01*
X2198Y4410D01*
X2198Y4410D01*
X2197Y4410D01*
X2197Y4410D01*
X2196Y4411D01*
X2195Y4411D01*
X2194Y4412D01*
X2192Y4414D01*
X2189Y4417D01*
X2186Y4420D01*
X2184Y4423D01*
X2181Y4427D01*
Y4427D01*
X2181Y4428D01*
X2181Y4428D01*
X2181Y4429D01*
X2180Y4430D01*
X2180Y4431D01*
X2179Y4433D01*
X2179Y4435D01*
X2178Y4436D01*
X2178Y4438D01*
X2177Y4440D01*
X2177Y4443D01*
X2176Y4448D01*
X2176Y4453D01*
Y4453D01*
Y4453D01*
Y4454D01*
X2176Y4455D01*
Y4456D01*
X2176Y4458D01*
X2176Y4460D01*
X2176Y4461D01*
X2177Y4465D01*
X2178Y4470D01*
X2180Y4474D01*
X2181Y4479D01*
X2182Y4479D01*
X2182Y4479D01*
X2182Y4480D01*
X2183Y4481D01*
X2183Y4482D01*
X2184Y4483D01*
X2186Y4485D01*
X2188Y4488D01*
X2191Y4491D01*
X2194Y4494D01*
X2198Y4496D01*
X2198Y4497D01*
X2198Y4497D01*
X2199Y4497D01*
X2200Y4497D01*
X2201Y4498D01*
X2202Y4498D01*
X2203Y4499D01*
X2205Y4500D01*
X2207Y4500D01*
X2208Y4501D01*
X2212Y4502D01*
X2217Y4502D01*
X2219Y4503D01*
X2223D01*
X2224Y4502D01*
D02*
G37*
G36*
X1946Y1383D02*
Y1383D01*
Y1383D01*
Y1382D01*
Y1381D01*
X1946Y1380D01*
Y1379D01*
X1946Y1376D01*
X1946Y1373D01*
X1945Y1370D01*
X1944Y1367D01*
X1943Y1364D01*
Y1364D01*
X1943Y1364D01*
X1943Y1363D01*
X1942Y1362D01*
X1941Y1361D01*
X1940Y1359D01*
X1938Y1357D01*
X1936Y1356D01*
X1934Y1354D01*
X1934Y1354D01*
X1933Y1354D01*
X1932Y1353D01*
X1930Y1353D01*
X1928Y1352D01*
X1925Y1352D01*
X1922Y1351D01*
X1919Y1351D01*
X1918D01*
X1917Y1351D01*
X1916Y1351D01*
X1915Y1351D01*
X1912Y1352D01*
X1909Y1353D01*
X1906Y1354D01*
X1904Y1355D01*
X1903Y1356D01*
X1901Y1357D01*
X1900Y1358D01*
X1900Y1358D01*
X1900Y1358D01*
X1899Y1359D01*
X1899Y1360D01*
X1898Y1360D01*
X1898Y1361D01*
X1897Y1362D01*
X1896Y1364D01*
X1896Y1365D01*
X1895Y1367D01*
X1895Y1368D01*
X1894Y1370D01*
X1894Y1372D01*
X1894Y1375D01*
X1893Y1377D01*
Y1380D01*
X1905Y1381D01*
Y1381D01*
Y1381D01*
Y1380D01*
X1905Y1380D01*
X1905Y1379D01*
Y1378D01*
X1906Y1375D01*
X1906Y1373D01*
X1907Y1370D01*
X1908Y1368D01*
X1908Y1367D01*
X1909Y1366D01*
X1909Y1366D01*
X1910Y1366D01*
X1910Y1365D01*
X1912Y1364D01*
X1913Y1364D01*
X1915Y1363D01*
X1917Y1362D01*
X1919Y1362D01*
X1920D01*
X1921Y1362D01*
X1922Y1363D01*
X1923Y1363D01*
X1925Y1363D01*
X1926Y1364D01*
X1927Y1364D01*
X1928Y1365D01*
X1928Y1365D01*
X1929Y1365D01*
X1929Y1366D01*
X1930Y1367D01*
X1931Y1368D01*
X1932Y1369D01*
X1932Y1370D01*
Y1371D01*
X1932Y1371D01*
X1933Y1372D01*
X1933Y1373D01*
X1933Y1375D01*
X1933Y1377D01*
X1933Y1380D01*
Y1382D01*
Y1449D01*
X1946D01*
Y1383D01*
D02*
G37*
G36*
X2007Y1353D02*
X1995D01*
Y1428D01*
X1995Y1428D01*
X1994Y1427D01*
X1993Y1426D01*
X1992Y1425D01*
X1990Y1424D01*
X1988Y1423D01*
X1986Y1421D01*
X1984Y1419D01*
X1983D01*
X1983Y1419D01*
X1982Y1419D01*
X1981Y1418D01*
X1979Y1417D01*
X1977Y1416D01*
X1975Y1415D01*
X1973Y1414D01*
X1971Y1414D01*
Y1425D01*
X1971D01*
X1972Y1425D01*
X1972Y1425D01*
X1973Y1426D01*
X1974Y1426D01*
X1975Y1427D01*
X1977Y1428D01*
X1980Y1430D01*
X1983Y1432D01*
X1986Y1434D01*
X1988Y1436D01*
X1989Y1436D01*
X1989Y1436D01*
X1989Y1437D01*
X1990Y1437D01*
X1991Y1439D01*
X1993Y1440D01*
X1994Y1442D01*
X1996Y1444D01*
X1998Y1447D01*
X1999Y1449D01*
X2007D01*
Y1353D01*
D02*
G37*
G36*
X414Y3886D02*
X427D01*
Y3875D01*
X414D01*
Y3852D01*
X402D01*
Y3875D01*
X361D01*
Y3886D01*
X405Y3948D01*
X414D01*
Y3886D01*
D02*
G37*
G36*
X312Y3948D02*
X315Y3948D01*
X318Y3947D01*
X320Y3947D01*
X323Y3947D01*
X323D01*
X323Y3946D01*
X324D01*
X324Y3946D01*
X326Y3946D01*
X328Y3945D01*
X330Y3944D01*
X332Y3943D01*
X335Y3941D01*
X337Y3940D01*
X337Y3940D01*
X337Y3939D01*
X338Y3939D01*
X338Y3939D01*
X339Y3937D01*
X341Y3935D01*
X343Y3933D01*
X345Y3930D01*
X347Y3927D01*
X348Y3923D01*
Y3923D01*
X348Y3923D01*
X349Y3922D01*
X349Y3921D01*
X349Y3921D01*
X349Y3919D01*
X350Y3918D01*
X350Y3917D01*
X351Y3915D01*
X351Y3913D01*
X352Y3909D01*
X352Y3905D01*
X352Y3900D01*
Y3900D01*
Y3900D01*
Y3899D01*
Y3899D01*
X352Y3898D01*
Y3897D01*
X352Y3894D01*
X351Y3891D01*
X351Y3888D01*
X350Y3884D01*
X349Y3881D01*
Y3881D01*
X349Y3881D01*
X349Y3880D01*
X349Y3880D01*
X348Y3878D01*
X348Y3876D01*
X347Y3874D01*
X346Y3872D01*
X344Y3869D01*
X343Y3867D01*
X343Y3867D01*
X342Y3866D01*
X341Y3865D01*
X340Y3864D01*
X339Y3863D01*
X338Y3861D01*
X336Y3860D01*
X334Y3858D01*
X334Y3858D01*
X333Y3858D01*
X332Y3857D01*
X331Y3857D01*
X329Y3856D01*
X327Y3855D01*
X325Y3854D01*
X323Y3854D01*
X322D01*
X322Y3853D01*
X322Y3853D01*
X320Y3853D01*
X318Y3853D01*
X316Y3853D01*
X313Y3852D01*
X310Y3852D01*
X307Y3852D01*
X273D01*
Y3948D01*
X310D01*
X312Y3948D01*
D02*
G37*
G36*
X2655Y4262D02*
X2657Y4260D01*
X2659Y4258D01*
X2661Y4256D01*
X2662Y4254D01*
X2664Y4252D01*
X2664Y4252D01*
X2664Y4251D01*
X2664Y4251D01*
X2664Y4251D01*
X2665Y4249D01*
X2666Y4247D01*
X2667Y4245D01*
X2668Y4243D01*
X2668Y4240D01*
X2669Y4237D01*
Y4237D01*
Y4237D01*
Y4236D01*
X2669Y4235D01*
Y4233D01*
X2669Y4231D01*
X2668Y4228D01*
X2668Y4225D01*
X2667Y4221D01*
X2665Y4217D01*
X2665Y4217D01*
X2665Y4217D01*
X2665Y4216D01*
X2664Y4216D01*
X2664Y4215D01*
X2663Y4214D01*
X2663Y4213D01*
X2662Y4211D01*
X2661Y4210D01*
X2660Y4208D01*
X2658Y4205D01*
X2655Y4202D01*
X2652Y4198D01*
X2652Y4198D01*
X2652Y4198D01*
X2651Y4198D01*
X2651Y4197D01*
X2650Y4197D01*
X2649Y4196D01*
X2647Y4194D01*
X2645Y4192D01*
X2642Y4190D01*
X2639Y4188D01*
X2636Y4187D01*
X2636Y4187D01*
X2636Y4186D01*
X2635Y4186D01*
X2635Y4186D01*
X2633Y4185D01*
X2632Y4184D01*
X2629Y4183D01*
X2627Y4183D01*
X2624Y4182D01*
X2622Y4181D01*
X2622Y4181D01*
X2621Y4181D01*
X2619Y4181D01*
X2618Y4181D01*
X2616Y4181D01*
X2614Y4181D01*
X2612D01*
X2609Y4181D01*
X2609Y4182D01*
X2608Y4182D01*
X2607Y4182D01*
X2606Y4182D01*
X2604Y4183D01*
X2602Y4184D01*
X2600Y4185D01*
X2598Y4186D01*
X2598Y4186D01*
X2597Y4187D01*
X2597Y4187D01*
X2596Y4188D01*
X2594Y4189D01*
X2592Y4190D01*
X2590Y4192D01*
X2588Y4194D01*
X2586Y4196D01*
X2561Y4220D01*
X2629Y4288D01*
X2655Y4262D01*
D02*
G37*
G36*
X2697Y4211D02*
X2697D01*
X2697Y4211D01*
X2698D01*
X2698Y4211D01*
X2699Y4211D01*
X2700Y4211D01*
X2702Y4210D01*
X2703Y4210D01*
X2705Y4209D01*
X2706Y4209D01*
X2708Y4208D01*
X2710Y4207D01*
X2712Y4206D01*
X2713Y4204D01*
X2715Y4203D01*
X2717Y4201D01*
X2718Y4200D01*
X2719Y4199D01*
X2719Y4198D01*
X2720Y4197D01*
X2721Y4196D01*
X2722Y4195D01*
X2724Y4192D01*
X2725Y4188D01*
X2726Y4186D01*
X2727Y4184D01*
X2727Y4182D01*
X2727Y4180D01*
Y4180D01*
X2727Y4180D01*
X2727Y4179D01*
Y4178D01*
Y4177D01*
X2727Y4176D01*
X2727Y4175D01*
X2726Y4173D01*
X2725Y4171D01*
X2724Y4167D01*
X2723Y4166D01*
X2722Y4164D01*
X2721Y4162D01*
X2720Y4161D01*
X2719Y4161D01*
X2719Y4160D01*
X2718Y4160D01*
X2717Y4159D01*
X2715Y4158D01*
X2714Y4157D01*
X2712Y4156D01*
X2710Y4155D01*
X2709Y4155D01*
X2709Y4154D01*
X2708Y4154D01*
X2706Y4153D01*
X2704Y4153D01*
X2702Y4152D01*
X2699Y4152D01*
X2696Y4152D01*
X2695D01*
X2694Y4152D01*
X2693D01*
X2692D01*
X2691D01*
X2690D01*
X2688D01*
X2686Y4152D01*
X2684D01*
X2682Y4152D01*
X2680Y4152D01*
X2677Y4152D01*
X2674Y4153D01*
X2671Y4153D01*
X2671D01*
X2671D01*
X2670Y4153D01*
X2669Y4153D01*
X2668D01*
X2667Y4153D01*
X2664Y4153D01*
X2661Y4154D01*
X2658Y4154D01*
X2655Y4154D01*
X2654Y4154D01*
X2653D01*
X2653D01*
X2652D01*
X2651D01*
X2650Y4154D01*
X2649Y4154D01*
X2648Y4153D01*
X2645Y4153D01*
X2678Y4120D01*
X2670Y4111D01*
X2625Y4157D01*
X2625Y4157D01*
X2626Y4157D01*
X2626Y4158D01*
X2627Y4158D01*
X2628Y4159D01*
X2629Y4160D01*
X2631Y4161D01*
X2632Y4161D01*
X2632Y4161D01*
X2632D01*
X2633Y4162D01*
X2634Y4162D01*
X2636Y4163D01*
X2638Y4163D01*
X2641Y4164D01*
X2644Y4165D01*
X2647Y4165D01*
X2647Y4165D01*
X2647Y4165D01*
X2648Y4165D01*
X2650D01*
X2652D01*
X2655D01*
X2659Y4165D01*
X2663Y4165D01*
X2668Y4164D01*
X2668D01*
X2669Y4164D01*
X2670Y4164D01*
X2671Y4164D01*
X2673Y4164D01*
X2675Y4164D01*
X2677Y4163D01*
X2679Y4163D01*
X2684Y4163D01*
X2689Y4163D01*
X2691D01*
X2693Y4163D01*
X2695Y4163D01*
X2697Y4164D01*
X2697Y4164D01*
X2698Y4164D01*
X2698Y4164D01*
X2699Y4164D01*
X2700Y4164D01*
X2702Y4165D01*
X2705Y4166D01*
X2707Y4167D01*
X2709Y4168D01*
X2711Y4170D01*
X2711Y4170D01*
X2711Y4170D01*
X2712Y4171D01*
X2713Y4172D01*
X2714Y4173D01*
X2715Y4175D01*
X2715Y4177D01*
X2716Y4179D01*
X2716Y4182D01*
Y4182D01*
X2716Y4183D01*
X2716Y4184D01*
X2715Y4186D01*
X2714Y4188D01*
X2713Y4190D01*
X2712Y4192D01*
X2710Y4194D01*
X2709Y4195D01*
X2709Y4195D01*
X2708Y4196D01*
X2706Y4197D01*
X2704Y4198D01*
X2702Y4199D01*
X2699Y4200D01*
X2697Y4200D01*
X2696D01*
X2695Y4200D01*
X2694Y4200D01*
X2692Y4200D01*
X2690Y4199D01*
X2688Y4198D01*
X2686Y4196D01*
X2683Y4194D01*
X2675Y4203D01*
X2676Y4204D01*
X2676Y4204D01*
X2676Y4204D01*
X2677Y4205D01*
X2678Y4205D01*
X2679Y4206D01*
X2681Y4207D01*
X2682Y4208D01*
X2685Y4209D01*
X2689Y4210D01*
X2691Y4211D01*
X2693Y4211D01*
X2695Y4211D01*
X2697D01*
D02*
G37*
G36*
X2018Y2652D02*
X2006D01*
Y2727D01*
X2006Y2727D01*
X2006Y2726D01*
X2005Y2725D01*
X2003Y2724D01*
X2002Y2723D01*
X2000Y2722D01*
X1998Y2720D01*
X1995Y2719D01*
X1995D01*
X1995Y2719D01*
X1994Y2718D01*
X1993Y2717D01*
X1991Y2716D01*
X1989Y2715D01*
X1987Y2714D01*
X1985Y2714D01*
X1983Y2713D01*
Y2724D01*
X1983D01*
X1983Y2724D01*
X1984Y2724D01*
X1984Y2725D01*
X1985Y2725D01*
X1986Y2726D01*
X1989Y2727D01*
X1991Y2729D01*
X1994Y2731D01*
X1997Y2733D01*
X2000Y2735D01*
X2000Y2735D01*
X2000Y2736D01*
X2001Y2736D01*
X2001Y2736D01*
X2002Y2738D01*
X2004Y2739D01*
X2006Y2741D01*
X2008Y2744D01*
X2009Y2746D01*
X2011Y2748D01*
X2018D01*
Y2652D01*
D02*
G37*
G36*
X1921Y2748D02*
X1924Y2747D01*
X1927Y2747D01*
X1930Y2747D01*
X1932Y2746D01*
X1932D01*
X1932Y2746D01*
X1933D01*
X1933Y2746D01*
X1935Y2746D01*
X1937Y2745D01*
X1939Y2744D01*
X1941Y2743D01*
X1944Y2741D01*
X1946Y2739D01*
X1946Y2739D01*
X1946Y2739D01*
X1947Y2739D01*
X1947Y2738D01*
X1949Y2737D01*
X1950Y2735D01*
X1952Y2733D01*
X1954Y2730D01*
X1956Y2727D01*
X1957Y2723D01*
Y2723D01*
X1957Y2723D01*
X1958Y2722D01*
X1958Y2721D01*
X1958Y2720D01*
X1959Y2719D01*
X1959Y2718D01*
X1959Y2716D01*
X1960Y2715D01*
X1960Y2713D01*
X1961Y2709D01*
X1961Y2705D01*
X1961Y2700D01*
Y2700D01*
Y2700D01*
Y2699D01*
Y2698D01*
X1961Y2697D01*
Y2696D01*
X1961Y2694D01*
X1960Y2691D01*
X1960Y2687D01*
X1959Y2684D01*
X1959Y2681D01*
Y2681D01*
X1958Y2680D01*
X1958Y2680D01*
X1958Y2679D01*
X1958Y2678D01*
X1957Y2676D01*
X1956Y2674D01*
X1955Y2672D01*
X1953Y2669D01*
X1952Y2667D01*
X1952Y2667D01*
X1951Y2666D01*
X1950Y2665D01*
X1949Y2664D01*
X1948Y2662D01*
X1947Y2661D01*
X1945Y2659D01*
X1943Y2658D01*
X1943Y2658D01*
X1942Y2658D01*
X1941Y2657D01*
X1940Y2656D01*
X1938Y2656D01*
X1936Y2655D01*
X1934Y2654D01*
X1932Y2653D01*
X1931D01*
X1931Y2653D01*
X1931Y2653D01*
X1929Y2653D01*
X1927Y2653D01*
X1925Y2652D01*
X1922Y2652D01*
X1920Y2652D01*
X1916Y2652D01*
X1882D01*
Y2748D01*
X1919D01*
X1921Y2748D01*
D02*
G37*
G36*
X2269Y3750D02*
X2270Y3749D01*
X2272Y3749D01*
X2273Y3749D01*
X2275Y3749D01*
X2279Y3748D01*
X2283Y3747D01*
X2285Y3746D01*
X2287Y3745D01*
X2289Y3744D01*
X2291Y3742D01*
X2291Y3742D01*
X2291Y3742D01*
X2292Y3742D01*
X2292Y3741D01*
X2293Y3740D01*
X2294Y3739D01*
X2295Y3738D01*
X2296Y3737D01*
X2297Y3736D01*
X2298Y3734D01*
X2300Y3732D01*
X2301Y3731D01*
X2302Y3728D01*
X2303Y3726D01*
X2304Y3724D01*
X2304Y3722D01*
X2292Y3719D01*
Y3719D01*
X2292Y3719D01*
X2291Y3720D01*
X2291Y3720D01*
X2291Y3721D01*
X2291Y3722D01*
X2289Y3725D01*
X2288Y3727D01*
X2286Y3730D01*
X2284Y3732D01*
X2282Y3734D01*
X2282Y3734D01*
X2281Y3735D01*
X2280Y3736D01*
X2278Y3736D01*
X2275Y3737D01*
X2273Y3738D01*
X2270Y3739D01*
X2266Y3739D01*
X2265D01*
X2264Y3739D01*
X2263D01*
X2262Y3739D01*
X2260Y3738D01*
X2257Y3738D01*
X2254Y3737D01*
X2250Y3735D01*
X2248Y3733D01*
X2247D01*
X2247Y3733D01*
X2246Y3732D01*
X2245Y3731D01*
X2243Y3730D01*
X2242Y3728D01*
X2240Y3725D01*
X2238Y3722D01*
X2237Y3719D01*
Y3719D01*
X2237Y3719D01*
X2237Y3718D01*
X2237Y3718D01*
X2236Y3717D01*
X2236Y3716D01*
X2236Y3713D01*
X2235Y3711D01*
X2235Y3708D01*
X2234Y3704D01*
X2234Y3701D01*
Y3701D01*
Y3700D01*
Y3699D01*
Y3699D01*
X2234Y3698D01*
Y3696D01*
X2234Y3695D01*
X2235Y3693D01*
X2235Y3690D01*
X2236Y3687D01*
X2237Y3683D01*
X2238Y3679D01*
Y3679D01*
X2238Y3679D01*
X2238Y3679D01*
X2238Y3678D01*
X2239Y3676D01*
X2240Y3674D01*
X2242Y3672D01*
X2244Y3670D01*
X2246Y3668D01*
X2249Y3666D01*
X2249D01*
X2249Y3665D01*
X2250Y3665D01*
X2250Y3665D01*
X2251Y3665D01*
X2252Y3664D01*
X2254Y3663D01*
X2256Y3663D01*
X2259Y3662D01*
X2262Y3661D01*
X2265Y3661D01*
X2266D01*
X2267Y3661D01*
X2268D01*
X2269Y3661D01*
X2271Y3662D01*
X2274Y3663D01*
X2277Y3664D01*
X2280Y3665D01*
X2282Y3666D01*
X2283Y3667D01*
X2283Y3667D01*
X2283Y3668D01*
X2284Y3668D01*
X2284Y3668D01*
X2285Y3669D01*
X2286Y3670D01*
X2286Y3671D01*
X2287Y3672D01*
X2288Y3673D01*
X2289Y3674D01*
X2290Y3676D01*
X2291Y3678D01*
X2291Y3679D01*
X2292Y3681D01*
X2293Y3683D01*
X2293Y3686D01*
X2306Y3682D01*
Y3682D01*
X2306Y3682D01*
X2306Y3681D01*
X2305Y3680D01*
X2305Y3679D01*
X2304Y3677D01*
X2304Y3675D01*
X2303Y3674D01*
X2301Y3670D01*
X2298Y3666D01*
X2297Y3664D01*
X2295Y3662D01*
X2294Y3660D01*
X2292Y3659D01*
X2291Y3658D01*
X2291Y3658D01*
X2291Y3658D01*
X2290Y3657D01*
X2289Y3657D01*
X2288Y3656D01*
X2286Y3655D01*
X2285Y3655D01*
X2283Y3654D01*
X2281Y3653D01*
X2279Y3652D01*
X2276Y3652D01*
X2274Y3651D01*
X2272Y3651D01*
X2269Y3650D01*
X2266Y3650D01*
X2265D01*
X2264Y3650D01*
X2262D01*
X2261Y3651D01*
X2259Y3651D01*
X2257Y3651D01*
X2253Y3652D01*
X2249Y3653D01*
X2245Y3655D01*
X2243Y3655D01*
X2241Y3657D01*
X2241Y3657D01*
X2241Y3657D01*
X2240Y3657D01*
X2239Y3658D01*
X2239Y3658D01*
X2238Y3659D01*
X2237Y3660D01*
X2235Y3661D01*
X2234Y3663D01*
X2233Y3664D01*
X2231Y3667D01*
X2228Y3671D01*
X2226Y3675D01*
Y3675D01*
X2226Y3675D01*
X2226Y3676D01*
X2225Y3677D01*
X2225Y3678D01*
X2225Y3679D01*
X2224Y3681D01*
X2224Y3683D01*
X2223Y3684D01*
X2223Y3687D01*
X2222Y3691D01*
X2221Y3696D01*
X2221Y3701D01*
Y3701D01*
Y3701D01*
Y3702D01*
X2221Y3703D01*
Y3705D01*
X2221Y3706D01*
X2222Y3708D01*
X2222Y3710D01*
X2223Y3714D01*
X2224Y3718D01*
X2225Y3722D01*
X2227Y3727D01*
X2227Y3727D01*
X2227Y3727D01*
X2227Y3728D01*
X2228Y3729D01*
X2229Y3730D01*
X2229Y3731D01*
X2231Y3733D01*
X2233Y3736D01*
X2236Y3739D01*
X2239Y3741D01*
X2243Y3744D01*
X2243Y3744D01*
X2244Y3744D01*
X2244Y3744D01*
X2245Y3745D01*
X2246Y3745D01*
X2247Y3746D01*
X2248Y3746D01*
X2250Y3747D01*
X2252Y3747D01*
X2253Y3748D01*
X2257Y3749D01*
X2262Y3749D01*
X2266Y3750D01*
X2268D01*
X2269Y3750D01*
D02*
G37*
G36*
X2351Y3748D02*
X2352Y3748D01*
X2353Y3748D01*
X2355Y3748D01*
X2357Y3747D01*
X2360Y3746D01*
X2364Y3745D01*
X2366Y3744D01*
X2367Y3743D01*
X2369Y3742D01*
X2371Y3741D01*
X2371Y3740D01*
X2371Y3740D01*
X2371Y3740D01*
X2372Y3739D01*
X2372Y3739D01*
X2373Y3738D01*
X2374Y3737D01*
X2375Y3735D01*
X2376Y3733D01*
X2377Y3729D01*
X2378Y3728D01*
X2378Y3726D01*
X2379Y3724D01*
X2379Y3722D01*
Y3721D01*
Y3721D01*
X2379Y3720D01*
X2378Y3718D01*
X2378Y3717D01*
X2378Y3715D01*
X2377Y3712D01*
X2376Y3710D01*
X2376Y3710D01*
X2376Y3709D01*
X2375Y3708D01*
X2374Y3707D01*
X2373Y3705D01*
X2372Y3703D01*
X2370Y3701D01*
X2368Y3699D01*
X2368Y3698D01*
X2367Y3698D01*
X2367Y3697D01*
X2366Y3696D01*
X2365Y3695D01*
X2364Y3694D01*
X2363Y3693D01*
X2362Y3692D01*
X2360Y3690D01*
X2358Y3689D01*
X2357Y3687D01*
X2355Y3686D01*
X2352Y3684D01*
X2350Y3682D01*
X2350Y3682D01*
X2350Y3681D01*
X2349Y3681D01*
X2349Y3680D01*
X2348Y3680D01*
X2347Y3679D01*
X2345Y3677D01*
X2342Y3675D01*
X2340Y3673D01*
X2338Y3671D01*
X2337Y3670D01*
X2337Y3670D01*
X2336Y3669D01*
X2336Y3669D01*
X2335Y3669D01*
X2335Y3668D01*
X2334Y3667D01*
X2333Y3666D01*
X2332Y3663D01*
X2379D01*
Y3652D01*
X2315D01*
Y3652D01*
Y3653D01*
Y3654D01*
X2315Y3655D01*
X2315Y3656D01*
X2316Y3657D01*
X2316Y3659D01*
X2317Y3660D01*
Y3660D01*
X2317Y3660D01*
X2317Y3661D01*
X2318Y3663D01*
X2318Y3664D01*
X2319Y3666D01*
X2321Y3668D01*
X2322Y3671D01*
X2324Y3673D01*
Y3673D01*
X2325Y3673D01*
X2325Y3674D01*
X2327Y3675D01*
X2328Y3677D01*
X2330Y3679D01*
X2333Y3682D01*
X2336Y3684D01*
X2340Y3687D01*
X2340Y3688D01*
X2340Y3688D01*
X2341Y3689D01*
X2342Y3689D01*
X2343Y3691D01*
X2345Y3692D01*
X2347Y3693D01*
X2348Y3695D01*
X2352Y3698D01*
X2355Y3701D01*
X2357Y3703D01*
X2358Y3705D01*
X2360Y3706D01*
X2361Y3708D01*
Y3708D01*
X2361Y3708D01*
X2362Y3708D01*
X2362Y3709D01*
X2363Y3711D01*
X2364Y3712D01*
X2365Y3715D01*
X2366Y3717D01*
X2366Y3720D01*
X2367Y3722D01*
Y3722D01*
Y3722D01*
X2366Y3723D01*
X2366Y3725D01*
X2366Y3726D01*
X2365Y3728D01*
X2364Y3730D01*
X2363Y3732D01*
X2362Y3734D01*
X2361Y3734D01*
X2361Y3735D01*
X2360Y3735D01*
X2358Y3736D01*
X2356Y3737D01*
X2354Y3738D01*
X2351Y3739D01*
X2348Y3739D01*
X2347D01*
X2347Y3739D01*
X2345Y3738D01*
X2343Y3738D01*
X2341Y3737D01*
X2339Y3736D01*
X2337Y3735D01*
X2335Y3734D01*
X2334Y3733D01*
X2334Y3733D01*
X2333Y3731D01*
X2332Y3730D01*
X2331Y3728D01*
X2330Y3725D01*
X2330Y3723D01*
X2329Y3719D01*
X2317Y3721D01*
Y3721D01*
X2318Y3721D01*
Y3722D01*
X2318Y3723D01*
X2318Y3724D01*
X2318Y3725D01*
X2319Y3727D01*
X2319Y3728D01*
X2320Y3732D01*
X2322Y3735D01*
X2323Y3737D01*
X2324Y3738D01*
X2325Y3740D01*
X2327Y3741D01*
X2327Y3741D01*
X2327Y3741D01*
X2328Y3742D01*
X2328Y3742D01*
X2329Y3743D01*
X2330Y3743D01*
X2331Y3744D01*
X2333Y3745D01*
X2334Y3745D01*
X2336Y3746D01*
X2338Y3747D01*
X2339Y3747D01*
X2342Y3748D01*
X2344Y3748D01*
X2346Y3748D01*
X2349Y3748D01*
X2350D01*
X2351Y3748D01*
D02*
G37*
G36*
X3078Y3650D02*
X3079Y3649D01*
X3080Y3649D01*
X3082Y3649D01*
X3084Y3649D01*
X3087Y3648D01*
X3092Y3647D01*
X3094Y3646D01*
X3096Y3645D01*
X3098Y3644D01*
X3099Y3642D01*
X3100Y3642D01*
X3100Y3642D01*
X3100Y3642D01*
X3101Y3641D01*
X3102Y3640D01*
X3103Y3639D01*
X3104Y3638D01*
X3105Y3637D01*
X3106Y3636D01*
X3107Y3634D01*
X3108Y3632D01*
X3109Y3631D01*
X3110Y3628D01*
X3112Y3626D01*
X3112Y3624D01*
X3113Y3622D01*
X3101Y3619D01*
Y3619D01*
X3101Y3619D01*
X3100Y3620D01*
X3100Y3620D01*
X3100Y3621D01*
X3099Y3622D01*
X3098Y3625D01*
X3097Y3627D01*
X3095Y3630D01*
X3093Y3632D01*
X3091Y3634D01*
X3091Y3634D01*
X3090Y3635D01*
X3088Y3636D01*
X3087Y3636D01*
X3084Y3637D01*
X3082Y3638D01*
X3078Y3639D01*
X3075Y3639D01*
X3074D01*
X3073Y3639D01*
X3072D01*
X3071Y3639D01*
X3068Y3638D01*
X3065Y3638D01*
X3062Y3637D01*
X3059Y3635D01*
X3056Y3633D01*
X3056D01*
X3056Y3633D01*
X3055Y3632D01*
X3054Y3631D01*
X3052Y3630D01*
X3050Y3628D01*
X3049Y3625D01*
X3047Y3622D01*
X3046Y3619D01*
Y3619D01*
X3046Y3619D01*
X3046Y3618D01*
X3045Y3618D01*
X3045Y3617D01*
X3045Y3616D01*
X3045Y3613D01*
X3044Y3611D01*
X3043Y3608D01*
X3043Y3604D01*
X3043Y3601D01*
Y3601D01*
Y3600D01*
Y3599D01*
Y3599D01*
X3043Y3598D01*
Y3596D01*
X3043Y3595D01*
X3043Y3593D01*
X3044Y3590D01*
X3045Y3587D01*
X3045Y3583D01*
X3046Y3579D01*
Y3579D01*
X3047Y3579D01*
X3047Y3579D01*
X3047Y3578D01*
X3048Y3576D01*
X3049Y3574D01*
X3051Y3572D01*
X3053Y3570D01*
X3055Y3568D01*
X3058Y3566D01*
X3058D01*
X3058Y3565D01*
X3058Y3565D01*
X3059Y3565D01*
X3060Y3565D01*
X3060Y3564D01*
X3062Y3563D01*
X3065Y3563D01*
X3068Y3562D01*
X3071Y3561D01*
X3074Y3561D01*
X3075D01*
X3076Y3561D01*
X3077D01*
X3078Y3561D01*
X3080Y3562D01*
X3083Y3563D01*
X3086Y3564D01*
X3089Y3565D01*
X3091Y3566D01*
X3092Y3567D01*
X3092Y3567D01*
X3092Y3568D01*
X3093Y3568D01*
X3093Y3568D01*
X3094Y3569D01*
X3094Y3570D01*
X3095Y3571D01*
X3096Y3572D01*
X3097Y3573D01*
X3098Y3574D01*
X3099Y3576D01*
X3099Y3578D01*
X3100Y3579D01*
X3101Y3581D01*
X3102Y3583D01*
X3102Y3586D01*
X3115Y3582D01*
Y3582D01*
X3115Y3582D01*
X3114Y3581D01*
X3114Y3580D01*
X3114Y3579D01*
X3113Y3577D01*
X3112Y3575D01*
X3112Y3574D01*
X3110Y3570D01*
X3107Y3566D01*
X3106Y3564D01*
X3104Y3562D01*
X3102Y3560D01*
X3100Y3559D01*
X3100Y3558D01*
X3100Y3558D01*
X3099Y3558D01*
X3099Y3557D01*
X3098Y3557D01*
X3096Y3556D01*
X3095Y3555D01*
X3093Y3555D01*
X3092Y3554D01*
X3090Y3553D01*
X3088Y3552D01*
X3085Y3552D01*
X3083Y3551D01*
X3080Y3551D01*
X3078Y3550D01*
X3075Y3550D01*
X3074D01*
X3072Y3550D01*
X3071D01*
X3070Y3551D01*
X3068Y3551D01*
X3066Y3551D01*
X3062Y3552D01*
X3058Y3553D01*
X3054Y3555D01*
X3052Y3555D01*
X3050Y3557D01*
X3050Y3557D01*
X3049Y3557D01*
X3049Y3557D01*
X3048Y3558D01*
X3047Y3558D01*
X3046Y3559D01*
X3045Y3560D01*
X3044Y3561D01*
X3043Y3563D01*
X3042Y3564D01*
X3039Y3567D01*
X3037Y3571D01*
X3035Y3575D01*
Y3575D01*
X3035Y3575D01*
X3035Y3576D01*
X3034Y3577D01*
X3034Y3578D01*
X3033Y3579D01*
X3033Y3581D01*
X3032Y3583D01*
X3032Y3584D01*
X3031Y3587D01*
X3031Y3591D01*
X3030Y3596D01*
X3030Y3601D01*
Y3601D01*
Y3601D01*
Y3602D01*
X3030Y3603D01*
Y3605D01*
X3030Y3606D01*
X3030Y3608D01*
X3031Y3610D01*
X3031Y3614D01*
X3032Y3618D01*
X3034Y3622D01*
X3036Y3627D01*
X3036Y3627D01*
X3036Y3627D01*
X3036Y3628D01*
X3037Y3629D01*
X3037Y3630D01*
X3038Y3631D01*
X3040Y3633D01*
X3042Y3636D01*
X3045Y3639D01*
X3048Y3641D01*
X3052Y3644D01*
X3052Y3644D01*
X3052Y3644D01*
X3053Y3644D01*
X3054Y3645D01*
X3055Y3645D01*
X3056Y3646D01*
X3057Y3646D01*
X3059Y3647D01*
X3060Y3647D01*
X3062Y3648D01*
X3066Y3649D01*
X3071Y3649D01*
X3075Y3650D01*
X3077D01*
X3078Y3650D01*
D02*
G37*
G36*
X3170Y3552D02*
X3158D01*
Y3627D01*
X3158Y3627D01*
X3157Y3626D01*
X3157Y3626D01*
X3155Y3625D01*
X3154Y3623D01*
X3152Y3622D01*
X3150Y3620D01*
X3147Y3619D01*
X3147D01*
X3147Y3619D01*
X3146Y3618D01*
X3145Y3617D01*
X3143Y3617D01*
X3141Y3616D01*
X3139Y3615D01*
X3137Y3614D01*
X3135Y3613D01*
Y3624D01*
X3135D01*
X3135Y3625D01*
X3136Y3625D01*
X3136Y3625D01*
X3137Y3626D01*
X3138Y3626D01*
X3140Y3627D01*
X3143Y3629D01*
X3146Y3631D01*
X3149Y3633D01*
X3152Y3636D01*
X3152Y3636D01*
X3152Y3636D01*
X3153Y3636D01*
X3153Y3637D01*
X3154Y3638D01*
X3156Y3640D01*
X3158Y3642D01*
X3159Y3644D01*
X3161Y3646D01*
X3162Y3648D01*
X3170D01*
Y3552D01*
D02*
G37*
%LPC*%
G36*
X1320Y4919D02*
X1319D01*
X1319Y4919D01*
X1317Y4919D01*
X1314Y4918D01*
X1311Y4917D01*
X1309Y4915D01*
X1306Y4913D01*
X1304Y4912D01*
X1303Y4910D01*
Y4910D01*
X1302Y4910D01*
X1302Y4909D01*
X1302Y4909D01*
X1301Y4908D01*
X1301Y4907D01*
X1300Y4905D01*
X1299Y4904D01*
X1299Y4902D01*
X1298Y4900D01*
X1297Y4898D01*
X1297Y4895D01*
X1296Y4893D01*
X1296Y4890D01*
X1296Y4887D01*
Y4883D01*
Y4883D01*
Y4883D01*
Y4882D01*
X1296Y4880D01*
Y4879D01*
X1296Y4877D01*
X1297Y4873D01*
X1298Y4869D01*
X1299Y4865D01*
X1301Y4860D01*
X1302Y4858D01*
X1303Y4857D01*
X1303D01*
X1304Y4856D01*
X1304Y4855D01*
X1306Y4854D01*
X1308Y4852D01*
X1311Y4851D01*
X1314Y4849D01*
X1317Y4848D01*
X1319Y4848D01*
X1321Y4848D01*
X1322D01*
X1323Y4848D01*
X1325Y4848D01*
X1327Y4849D01*
X1330Y4850D01*
X1333Y4851D01*
X1336Y4853D01*
X1337Y4855D01*
X1339Y4856D01*
Y4856D01*
X1339Y4857D01*
X1339Y4857D01*
X1340Y4858D01*
X1340Y4859D01*
X1341Y4860D01*
X1341Y4861D01*
X1342Y4863D01*
X1343Y4864D01*
X1344Y4866D01*
X1344Y4868D01*
X1345Y4871D01*
X1345Y4873D01*
X1346Y4876D01*
X1346Y4879D01*
Y4882D01*
Y4882D01*
Y4883D01*
Y4884D01*
X1346Y4885D01*
Y4887D01*
X1346Y4888D01*
X1345Y4890D01*
X1345Y4893D01*
X1344Y4897D01*
X1343Y4902D01*
X1341Y4906D01*
X1340Y4908D01*
X1339Y4910D01*
Y4910D01*
X1338Y4910D01*
X1337Y4911D01*
X1336Y4913D01*
X1334Y4915D01*
X1331Y4916D01*
X1328Y4917D01*
X1324Y4919D01*
X1322Y4919D01*
X1320Y4919D01*
D02*
G37*
G36*
X3128Y4884D02*
X3127D01*
X3127Y4883D01*
X3127Y4883D01*
X3126Y4883D01*
X3125Y4883D01*
X3124Y4882D01*
X3123Y4882D01*
X3121Y4882D01*
X3119Y4881D01*
X3117Y4881D01*
X3115Y4880D01*
X3113Y4880D01*
X3110Y4879D01*
X3108Y4878D01*
X3105Y4878D01*
X3102Y4878D01*
X3101D01*
X3100Y4877D01*
X3098Y4877D01*
X3096Y4877D01*
X3094Y4876D01*
X3092Y4876D01*
X3090Y4875D01*
X3088Y4874D01*
X3088D01*
X3087Y4874D01*
X3086Y4874D01*
X3086Y4873D01*
X3084Y4872D01*
X3082Y4869D01*
Y4869D01*
X3081Y4869D01*
X3081Y4868D01*
X3081Y4867D01*
X3080Y4866D01*
X3080Y4865D01*
X3080Y4863D01*
X3080Y4862D01*
Y4862D01*
Y4861D01*
X3080Y4860D01*
X3080Y4858D01*
X3081Y4857D01*
X3082Y4855D01*
X3083Y4853D01*
X3084Y4851D01*
X3084Y4851D01*
X3085Y4851D01*
X3086Y4850D01*
X3088Y4849D01*
X3090Y4849D01*
X3092Y4848D01*
X3095Y4848D01*
X3098Y4847D01*
X3100D01*
X3102Y4848D01*
X3104Y4848D01*
X3106Y4848D01*
X3109Y4849D01*
X3112Y4850D01*
X3114Y4851D01*
X3115Y4851D01*
X3116Y4852D01*
X3117Y4853D01*
X3118Y4854D01*
X3120Y4856D01*
X3122Y4858D01*
X3123Y4860D01*
X3125Y4862D01*
X3125Y4862D01*
X3125Y4863D01*
X3126Y4864D01*
X3126Y4866D01*
X3127Y4868D01*
X3127Y4871D01*
X3127Y4874D01*
X3127Y4878D01*
X3128Y4884D01*
D02*
G37*
G36*
X2500D02*
X2500D01*
X2500Y4883D01*
X2499Y4883D01*
X2499Y4883D01*
X2498Y4883D01*
X2497Y4882D01*
X2495Y4882D01*
X2494Y4882D01*
X2492Y4881D01*
X2490Y4881D01*
X2488Y4880D01*
X2486Y4880D01*
X2483Y4879D01*
X2480Y4878D01*
X2477Y4878D01*
X2474Y4878D01*
X2474D01*
X2473Y4877D01*
X2471Y4877D01*
X2469Y4877D01*
X2467Y4876D01*
X2465Y4876D01*
X2462Y4875D01*
X2461Y4874D01*
X2460D01*
X2460Y4874D01*
X2459Y4874D01*
X2458Y4873D01*
X2456Y4872D01*
X2454Y4869D01*
Y4869D01*
X2454Y4869D01*
X2454Y4868D01*
X2453Y4867D01*
X2453Y4866D01*
X2453Y4865D01*
X2452Y4863D01*
X2452Y4862D01*
Y4862D01*
Y4861D01*
X2452Y4860D01*
X2453Y4858D01*
X2453Y4857D01*
X2454Y4855D01*
X2455Y4853D01*
X2457Y4851D01*
X2457Y4851D01*
X2458Y4851D01*
X2459Y4850D01*
X2460Y4849D01*
X2462Y4849D01*
X2465Y4848D01*
X2468Y4848D01*
X2471Y4847D01*
X2472D01*
X2474Y4848D01*
X2476Y4848D01*
X2479Y4848D01*
X2482Y4849D01*
X2484Y4850D01*
X2487Y4851D01*
X2487Y4851D01*
X2488Y4852D01*
X2489Y4853D01*
X2491Y4854D01*
X2493Y4856D01*
X2494Y4858D01*
X2496Y4860D01*
X2497Y4862D01*
X2498Y4862D01*
X2498Y4863D01*
X2498Y4864D01*
X2499Y4866D01*
X2499Y4868D01*
X2500Y4871D01*
X2500Y4874D01*
X2500Y4878D01*
X2500Y4884D01*
D02*
G37*
G36*
X1644D02*
X1644D01*
X1643Y4883D01*
X1643Y4883D01*
X1642Y4883D01*
X1641Y4883D01*
X1640Y4882D01*
X1639Y4882D01*
X1637Y4882D01*
X1636Y4881D01*
X1634Y4881D01*
X1632Y4880D01*
X1629Y4880D01*
X1627Y4879D01*
X1624Y4878D01*
X1621Y4878D01*
X1618Y4878D01*
X1618D01*
X1616Y4877D01*
X1615Y4877D01*
X1613Y4877D01*
X1610Y4876D01*
X1608Y4876D01*
X1606Y4875D01*
X1604Y4874D01*
X1604D01*
X1603Y4874D01*
X1603Y4874D01*
X1602Y4873D01*
X1600Y4872D01*
X1598Y4869D01*
Y4869D01*
X1598Y4869D01*
X1597Y4868D01*
X1597Y4867D01*
X1597Y4866D01*
X1596Y4865D01*
X1596Y4863D01*
X1596Y4862D01*
Y4862D01*
Y4861D01*
X1596Y4860D01*
X1596Y4858D01*
X1597Y4857D01*
X1598Y4855D01*
X1599Y4853D01*
X1601Y4851D01*
X1601Y4851D01*
X1601Y4851D01*
X1603Y4850D01*
X1604Y4849D01*
X1606Y4849D01*
X1608Y4848D01*
X1611Y4848D01*
X1615Y4847D01*
X1616D01*
X1618Y4848D01*
X1620Y4848D01*
X1623Y4848D01*
X1625Y4849D01*
X1628Y4850D01*
X1631Y4851D01*
X1631Y4851D01*
X1632Y4852D01*
X1633Y4853D01*
X1635Y4854D01*
X1636Y4856D01*
X1638Y4858D01*
X1640Y4860D01*
X1641Y4862D01*
X1641Y4862D01*
X1641Y4863D01*
X1642Y4864D01*
X1642Y4866D01*
X1643Y4868D01*
X1643Y4871D01*
X1643Y4874D01*
X1644Y4878D01*
X1644Y4884D01*
D02*
G37*
G36*
X2807Y4919D02*
X2806D01*
X2805Y4919D01*
X2803Y4919D01*
X2800Y4918D01*
X2797Y4917D01*
X2794Y4915D01*
X2791Y4913D01*
X2789Y4912D01*
X2787Y4910D01*
Y4910D01*
X2787Y4910D01*
X2787Y4909D01*
X2786Y4908D01*
X2786Y4907D01*
X2785Y4906D01*
X2784Y4905D01*
X2784Y4903D01*
X2783Y4902D01*
X2782Y4900D01*
X2782Y4897D01*
X2781Y4895D01*
X2780Y4893D01*
X2780Y4890D01*
X2780Y4887D01*
X2780Y4883D01*
Y4883D01*
Y4883D01*
Y4882D01*
X2780Y4880D01*
Y4879D01*
X2780Y4877D01*
X2781Y4873D01*
X2782Y4869D01*
X2783Y4865D01*
X2785Y4860D01*
X2786Y4858D01*
X2787Y4857D01*
X2788D01*
X2788Y4856D01*
X2789Y4855D01*
X2791Y4854D01*
X2793Y4852D01*
X2796Y4851D01*
X2799Y4849D01*
X2803Y4848D01*
X2805Y4848D01*
X2807Y4848D01*
X2808D01*
X2809Y4848D01*
X2811Y4848D01*
X2814Y4849D01*
X2817Y4850D01*
X2820Y4852D01*
X2823Y4854D01*
X2825Y4855D01*
X2827Y4857D01*
X2827Y4857D01*
X2827Y4857D01*
X2827Y4858D01*
X2828Y4858D01*
X2828Y4859D01*
X2829Y4860D01*
X2830Y4862D01*
X2831Y4863D01*
X2831Y4865D01*
X2832Y4867D01*
X2833Y4870D01*
X2833Y4872D01*
X2834Y4875D01*
X2834Y4878D01*
X2834Y4881D01*
Y4884D01*
Y4884D01*
Y4885D01*
Y4886D01*
X2834Y4887D01*
Y4888D01*
X2834Y4890D01*
X2834Y4894D01*
X2833Y4898D01*
X2831Y4902D01*
X2829Y4906D01*
X2828Y4908D01*
X2827Y4910D01*
Y4910D01*
X2826Y4910D01*
X2825Y4912D01*
X2823Y4913D01*
X2821Y4915D01*
X2818Y4916D01*
X2815Y4918D01*
X2811Y4919D01*
X2809Y4919D01*
X2807Y4919D01*
D02*
G37*
G36*
X2150D02*
X2149D01*
X2148Y4919D01*
X2146Y4919D01*
X2144Y4918D01*
X2141Y4917D01*
X2138Y4916D01*
X2135Y4914D01*
X2132Y4912D01*
X2132Y4911D01*
X2131Y4910D01*
X2130Y4909D01*
X2128Y4906D01*
X2127Y4904D01*
X2125Y4900D01*
X2124Y4897D01*
X2124Y4892D01*
X2176D01*
Y4893D01*
Y4893D01*
X2176Y4893D01*
Y4894D01*
X2175Y4896D01*
X2175Y4899D01*
X2174Y4902D01*
X2173Y4905D01*
X2171Y4907D01*
X2170Y4910D01*
Y4910D01*
X2169Y4910D01*
X2168Y4911D01*
X2167Y4913D01*
X2165Y4914D01*
X2162Y4916D01*
X2158Y4917D01*
X2155Y4919D01*
X2152Y4919D01*
X2150Y4919D01*
D02*
G37*
G36*
X1782D02*
X1781D01*
X1780Y4919D01*
X1778Y4919D01*
X1775Y4918D01*
X1773Y4917D01*
X1769Y4916D01*
X1766Y4914D01*
X1763Y4912D01*
X1763Y4911D01*
X1762Y4910D01*
X1761Y4909D01*
X1760Y4906D01*
X1758Y4904D01*
X1757Y4900D01*
X1756Y4897D01*
X1755Y4892D01*
X1807D01*
Y4893D01*
Y4893D01*
X1807Y4893D01*
Y4894D01*
X1807Y4896D01*
X1806Y4899D01*
X1805Y4902D01*
X1804Y4905D01*
X1803Y4907D01*
X1801Y4910D01*
Y4910D01*
X1801Y4910D01*
X1800Y4911D01*
X1798Y4913D01*
X1796Y4914D01*
X1793Y4916D01*
X1790Y4917D01*
X1786Y4919D01*
X1784Y4919D01*
X1782Y4919D01*
D02*
G37*
G36*
X1526D02*
X1523D01*
X1522Y4919D01*
X1520Y4918D01*
X1518Y4918D01*
X1515Y4917D01*
X1512Y4915D01*
X1511Y4914D01*
X1509Y4913D01*
X1508Y4912D01*
X1506Y4910D01*
Y4910D01*
X1506Y4910D01*
X1506Y4909D01*
X1505Y4908D01*
X1505Y4907D01*
X1504Y4906D01*
X1503Y4905D01*
X1503Y4903D01*
X1502Y4902D01*
X1501Y4900D01*
X1501Y4897D01*
X1500Y4895D01*
X1500Y4893D01*
X1499Y4890D01*
X1499Y4887D01*
Y4884D01*
Y4884D01*
Y4883D01*
Y4882D01*
Y4881D01*
X1499Y4880D01*
Y4878D01*
X1499Y4875D01*
X1500Y4871D01*
X1501Y4867D01*
X1502Y4863D01*
X1503Y4861D01*
X1503Y4860D01*
Y4860D01*
X1504Y4859D01*
X1504Y4859D01*
X1505Y4858D01*
X1506Y4856D01*
X1509Y4854D01*
X1511Y4852D01*
X1515Y4850D01*
X1517Y4849D01*
X1519Y4848D01*
X1521Y4848D01*
X1523Y4848D01*
X1524D01*
X1525Y4848D01*
X1527Y4848D01*
X1530Y4849D01*
X1532Y4850D01*
X1535Y4852D01*
X1538Y4854D01*
X1540Y4855D01*
X1541Y4857D01*
Y4857D01*
X1542Y4857D01*
X1542Y4858D01*
X1542Y4858D01*
X1543Y4859D01*
X1544Y4860D01*
X1544Y4862D01*
X1545Y4863D01*
X1546Y4865D01*
X1546Y4867D01*
X1547Y4869D01*
X1548Y4872D01*
X1548Y4874D01*
X1548Y4877D01*
X1549Y4880D01*
Y4883D01*
Y4884D01*
Y4884D01*
Y4885D01*
X1549Y4886D01*
Y4888D01*
X1548Y4890D01*
X1548Y4894D01*
X1547Y4898D01*
X1546Y4903D01*
X1544Y4907D01*
X1543Y4909D01*
X1542Y4910D01*
Y4910D01*
X1541Y4911D01*
X1540Y4912D01*
X1539Y4913D01*
X1537Y4915D01*
X1534Y4916D01*
X1531Y4918D01*
X1528Y4919D01*
X1526Y4919D01*
D02*
G37*
G36*
X1423D02*
X1422D01*
X1421Y4919D01*
X1419Y4919D01*
X1416Y4918D01*
X1413Y4917D01*
X1409Y4915D01*
X1406Y4913D01*
X1405Y4912D01*
X1403Y4910D01*
Y4910D01*
X1403Y4910D01*
X1402Y4909D01*
X1402Y4908D01*
X1401Y4907D01*
X1401Y4906D01*
X1400Y4905D01*
X1399Y4903D01*
X1399Y4902D01*
X1398Y4900D01*
X1397Y4897D01*
X1397Y4895D01*
X1396Y4893D01*
X1396Y4890D01*
X1396Y4887D01*
X1395Y4883D01*
Y4883D01*
Y4883D01*
Y4882D01*
X1396Y4880D01*
Y4879D01*
X1396Y4877D01*
X1396Y4873D01*
X1397Y4869D01*
X1399Y4865D01*
X1401Y4860D01*
X1402Y4858D01*
X1403Y4857D01*
X1403D01*
X1404Y4856D01*
X1405Y4855D01*
X1406Y4854D01*
X1409Y4852D01*
X1411Y4851D01*
X1415Y4849D01*
X1418Y4848D01*
X1421Y4848D01*
X1423Y4848D01*
X1424D01*
X1425Y4848D01*
X1427Y4848D01*
X1430Y4849D01*
X1433Y4850D01*
X1436Y4852D01*
X1439Y4854D01*
X1441Y4855D01*
X1442Y4857D01*
X1442Y4857D01*
X1443Y4857D01*
X1443Y4858D01*
X1443Y4858D01*
X1444Y4859D01*
X1445Y4860D01*
X1446Y4862D01*
X1446Y4863D01*
X1447Y4865D01*
X1448Y4867D01*
X1448Y4870D01*
X1449Y4872D01*
X1449Y4875D01*
X1450Y4878D01*
X1450Y4881D01*
Y4884D01*
Y4884D01*
Y4885D01*
Y4886D01*
X1450Y4887D01*
Y4888D01*
X1450Y4890D01*
X1449Y4894D01*
X1448Y4898D01*
X1447Y4902D01*
X1445Y4906D01*
X1444Y4908D01*
X1442Y4910D01*
Y4910D01*
X1442Y4910D01*
X1441Y4912D01*
X1439Y4913D01*
X1437Y4915D01*
X1434Y4916D01*
X1431Y4918D01*
X1427Y4919D01*
X1425Y4919D01*
X1423Y4919D01*
D02*
G37*
G36*
X1164D02*
X1163D01*
X1162Y4919D01*
X1160Y4919D01*
X1157Y4918D01*
X1154Y4917D01*
X1151Y4915D01*
X1147Y4913D01*
X1146Y4912D01*
X1144Y4910D01*
Y4910D01*
X1144Y4910D01*
X1144Y4909D01*
X1143Y4908D01*
X1142Y4907D01*
X1142Y4906D01*
X1141Y4905D01*
X1140Y4903D01*
X1140Y4902D01*
X1139Y4900D01*
X1138Y4897D01*
X1138Y4895D01*
X1137Y4893D01*
X1137Y4890D01*
X1137Y4887D01*
X1136Y4883D01*
Y4883D01*
Y4883D01*
Y4882D01*
X1137Y4880D01*
Y4879D01*
X1137Y4877D01*
X1137Y4873D01*
X1138Y4869D01*
X1140Y4865D01*
X1142Y4860D01*
X1143Y4858D01*
X1144Y4857D01*
X1144D01*
X1145Y4856D01*
X1146Y4855D01*
X1147Y4854D01*
X1150Y4852D01*
X1152Y4851D01*
X1156Y4849D01*
X1160Y4848D01*
X1162Y4848D01*
X1164Y4848D01*
X1165D01*
X1166Y4848D01*
X1168Y4848D01*
X1171Y4849D01*
X1174Y4850D01*
X1177Y4852D01*
X1180Y4854D01*
X1182Y4855D01*
X1183Y4857D01*
X1184Y4857D01*
X1184Y4857D01*
X1184Y4858D01*
X1185Y4858D01*
X1185Y4859D01*
X1186Y4860D01*
X1187Y4862D01*
X1187Y4863D01*
X1188Y4865D01*
X1189Y4867D01*
X1189Y4870D01*
X1190Y4872D01*
X1191Y4875D01*
X1191Y4878D01*
X1191Y4881D01*
Y4884D01*
Y4884D01*
Y4885D01*
Y4886D01*
X1191Y4887D01*
Y4888D01*
X1191Y4890D01*
X1190Y4894D01*
X1189Y4898D01*
X1188Y4902D01*
X1186Y4906D01*
X1185Y4908D01*
X1183Y4910D01*
Y4910D01*
X1183Y4910D01*
X1182Y4912D01*
X1180Y4913D01*
X1178Y4915D01*
X1175Y4916D01*
X1172Y4918D01*
X1168Y4919D01*
X1166Y4919D01*
X1164Y4919D01*
D02*
G37*
G36*
X2166Y2437D02*
X2135D01*
Y2406D01*
X2164D01*
X2166Y2406D01*
X2168Y2406D01*
X2170Y2406D01*
X2172Y2406D01*
X2174Y2407D01*
X2176Y2407D01*
X2176Y2407D01*
X2177Y2408D01*
X2178Y2408D01*
X2179Y2409D01*
X2180Y2409D01*
X2181Y2410D01*
X2183Y2412D01*
X2184Y2413D01*
X2184Y2413D01*
X2184Y2414D01*
X2184Y2415D01*
X2185Y2416D01*
X2185Y2417D01*
X2186Y2418D01*
X2186Y2420D01*
X2186Y2422D01*
Y2422D01*
Y2422D01*
X2186Y2423D01*
X2186Y2424D01*
X2186Y2426D01*
X2185Y2427D01*
X2184Y2429D01*
X2183Y2431D01*
X2181Y2433D01*
X2181Y2433D01*
X2180Y2434D01*
X2179Y2434D01*
X2177Y2435D01*
X2175Y2436D01*
X2173Y2437D01*
X2169Y2437D01*
X2166Y2437D01*
D02*
G37*
G36*
X2747Y2405D02*
X2746D01*
X2745Y2404D01*
X2744Y2404D01*
X2742Y2404D01*
X2740Y2403D01*
X2737Y2402D01*
X2735Y2401D01*
X2733Y2399D01*
X2733Y2398D01*
X2732Y2398D01*
X2731Y2396D01*
X2730Y2395D01*
X2729Y2393D01*
X2728Y2390D01*
X2728Y2387D01*
X2727Y2384D01*
Y2383D01*
Y2383D01*
X2728Y2381D01*
X2728Y2380D01*
X2728Y2378D01*
X2729Y2376D01*
X2729Y2374D01*
X2730Y2372D01*
X2730Y2372D01*
X2731Y2371D01*
X2731Y2370D01*
X2732Y2369D01*
X2733Y2368D01*
X2734Y2366D01*
X2736Y2365D01*
X2737Y2364D01*
X2737Y2363D01*
X2738Y2363D01*
X2739Y2363D01*
X2740Y2362D01*
X2742Y2362D01*
X2743Y2361D01*
X2745Y2361D01*
X2747Y2361D01*
X2748D01*
X2748Y2361D01*
X2750Y2361D01*
X2751Y2361D01*
X2753Y2362D01*
X2756Y2363D01*
X2758Y2365D01*
X2759Y2366D01*
X2760Y2367D01*
Y2367D01*
X2760Y2367D01*
X2761Y2368D01*
X2762Y2369D01*
X2763Y2371D01*
X2764Y2373D01*
X2764Y2376D01*
X2765Y2379D01*
X2765Y2383D01*
Y2383D01*
Y2383D01*
Y2384D01*
X2765Y2385D01*
Y2386D01*
X2765Y2386D01*
X2765Y2389D01*
X2764Y2391D01*
X2763Y2394D01*
X2762Y2396D01*
X2760Y2399D01*
X2760Y2399D01*
X2759Y2400D01*
X2758Y2400D01*
X2756Y2402D01*
X2754Y2403D01*
X2752Y2404D01*
X2750Y2404D01*
X2747Y2405D01*
D02*
G37*
G36*
X2666Y2438D02*
X2635D01*
Y2406D01*
X2664D01*
X2666Y2406D01*
X2668Y2406D01*
X2670Y2407D01*
X2672Y2407D01*
X2674Y2407D01*
X2676Y2408D01*
X2676Y2408D01*
X2677Y2408D01*
X2678Y2409D01*
X2679Y2409D01*
X2680Y2410D01*
X2681Y2411D01*
X2683Y2412D01*
X2684Y2414D01*
X2684Y2414D01*
X2684Y2414D01*
X2684Y2415D01*
X2685Y2416D01*
X2685Y2418D01*
X2686Y2419D01*
X2686Y2421D01*
X2686Y2422D01*
Y2422D01*
Y2423D01*
X2686Y2423D01*
X2686Y2425D01*
X2686Y2426D01*
X2685Y2428D01*
X2684Y2430D01*
X2683Y2432D01*
X2681Y2433D01*
X2681Y2434D01*
X2680Y2434D01*
X2679Y2435D01*
X2677Y2436D01*
X2675Y2437D01*
X2673Y2437D01*
X2669Y2438D01*
X2666Y2438D01*
D02*
G37*
G36*
X3465Y2488D02*
X3435D01*
Y2456D01*
X3464D01*
X3465Y2457D01*
X3467Y2457D01*
X3469Y2457D01*
X3472Y2457D01*
X3474Y2457D01*
X3476Y2458D01*
X3476Y2458D01*
X3477Y2458D01*
X3477Y2459D01*
X3479Y2459D01*
X3480Y2460D01*
X3481Y2461D01*
X3482Y2462D01*
X3483Y2464D01*
X3483Y2464D01*
X3484Y2465D01*
X3484Y2465D01*
X3485Y2467D01*
X3485Y2468D01*
X3486Y2469D01*
X3486Y2471D01*
X3486Y2472D01*
Y2473D01*
Y2473D01*
X3486Y2474D01*
X3486Y2475D01*
X3485Y2476D01*
X3485Y2478D01*
X3484Y2480D01*
X3483Y2482D01*
X3481Y2484D01*
X3481Y2484D01*
X3480Y2484D01*
X3479Y2485D01*
X3477Y2486D01*
X3475Y2487D01*
X3472Y2487D01*
X3469Y2488D01*
X3465Y2488D01*
D02*
G37*
G36*
X3775Y2487D02*
X3745D01*
Y2455D01*
X3773D01*
X3775Y2455D01*
X3777Y2456D01*
X3779Y2456D01*
X3781Y2456D01*
X3783Y2456D01*
X3785Y2457D01*
X3786Y2457D01*
X3786Y2457D01*
X3787Y2458D01*
X3788Y2458D01*
X3789Y2459D01*
X3791Y2460D01*
X3792Y2461D01*
X3793Y2463D01*
X3793Y2463D01*
X3793Y2464D01*
X3794Y2464D01*
X3794Y2465D01*
X3795Y2467D01*
X3795Y2468D01*
X3795Y2470D01*
X3796Y2471D01*
Y2472D01*
Y2472D01*
X3795Y2473D01*
X3795Y2474D01*
X3795Y2475D01*
X3794Y2477D01*
X3793Y2479D01*
X3792Y2481D01*
X3791Y2483D01*
X3790Y2483D01*
X3790Y2483D01*
X3788Y2484D01*
X3787Y2485D01*
X3785Y2486D01*
X3782Y2486D01*
X3779Y2487D01*
X3775Y2487D01*
D02*
G37*
G36*
X1838Y3637D02*
X1807D01*
Y3605D01*
X1836D01*
X1838Y3605D01*
X1840Y3606D01*
X1842Y3606D01*
X1844Y3606D01*
X1846Y3606D01*
X1848Y3607D01*
X1848Y3607D01*
X1849Y3607D01*
X1850Y3608D01*
X1851Y3608D01*
X1852Y3609D01*
X1853Y3610D01*
X1855Y3611D01*
X1856Y3613D01*
X1856Y3613D01*
X1856Y3614D01*
X1856Y3614D01*
X1857Y3615D01*
X1857Y3617D01*
X1858Y3618D01*
X1858Y3620D01*
X1858Y3621D01*
Y3622D01*
Y3622D01*
X1858Y3623D01*
X1858Y3624D01*
X1858Y3625D01*
X1857Y3627D01*
X1856Y3629D01*
X1855Y3631D01*
X1853Y3633D01*
X1853Y3633D01*
X1852Y3633D01*
X1851Y3634D01*
X1849Y3635D01*
X1847Y3636D01*
X1845Y3636D01*
X1841Y3637D01*
X1838Y3637D01*
D02*
G37*
G36*
X652Y4229D02*
X622Y4186D01*
X652D01*
Y4229D01*
D02*
G37*
G36*
X566Y4237D02*
X536D01*
Y4206D01*
X564D01*
X566Y4206D01*
X568Y4206D01*
X570Y4206D01*
X572Y4206D01*
X574Y4207D01*
X576Y4207D01*
X577Y4207D01*
X577Y4208D01*
X578Y4208D01*
X579Y4209D01*
X580Y4209D01*
X582Y4210D01*
X583Y4212D01*
X584Y4213D01*
X584Y4213D01*
X584Y4214D01*
X585Y4215D01*
X585Y4216D01*
X586Y4217D01*
X586Y4218D01*
X586Y4220D01*
X586Y4222D01*
Y4222D01*
Y4222D01*
X586Y4223D01*
X586Y4224D01*
X586Y4226D01*
X585Y4227D01*
X584Y4229D01*
X583Y4231D01*
X581Y4233D01*
X581Y4233D01*
X581Y4234D01*
X579Y4234D01*
X578Y4235D01*
X576Y4236D01*
X573Y4237D01*
X570Y4237D01*
X566Y4237D01*
D02*
G37*
G36*
X3766Y3888D02*
X3735D01*
Y3856D01*
X3764D01*
X3766Y3856D01*
X3768Y3856D01*
X3770Y3857D01*
X3772Y3857D01*
X3774Y3857D01*
X3776Y3858D01*
X3776Y3858D01*
X3777Y3858D01*
X3778Y3859D01*
X3779Y3859D01*
X3780Y3860D01*
X3781Y3861D01*
X3783Y3862D01*
X3784Y3864D01*
X3784Y3864D01*
X3784Y3864D01*
X3784Y3865D01*
X3785Y3866D01*
X3785Y3868D01*
X3786Y3869D01*
X3786Y3871D01*
X3786Y3872D01*
Y3872D01*
Y3873D01*
X3786Y3873D01*
X3786Y3875D01*
X3786Y3876D01*
X3785Y3878D01*
X3784Y3880D01*
X3783Y3882D01*
X3781Y3883D01*
X3781Y3884D01*
X3780Y3884D01*
X3779Y3885D01*
X3777Y3886D01*
X3775Y3887D01*
X3773Y3887D01*
X3769Y3888D01*
X3766Y3888D01*
D02*
G37*
G36*
X3431Y4622D02*
X3408Y4599D01*
X3429Y4579D01*
X3430Y4578D01*
X3431Y4577D01*
X3433Y4575D01*
X3435Y4574D01*
X3437Y4572D01*
X3438Y4571D01*
X3439Y4571D01*
X3439Y4571D01*
X3440Y4571D01*
X3441Y4570D01*
X3443Y4570D01*
X3444Y4570D01*
X3446D01*
X3448Y4570D01*
X3448D01*
X3449Y4570D01*
X3450Y4571D01*
X3451Y4571D01*
X3452Y4572D01*
X3453Y4572D01*
X3455Y4573D01*
X3456Y4575D01*
X3456Y4575D01*
X3456Y4575D01*
X3456Y4575D01*
X3457Y4576D01*
X3458Y4578D01*
X3459Y4579D01*
X3460Y4581D01*
X3460Y4584D01*
X3460Y4586D01*
X3460Y4586D01*
X3460Y4587D01*
X3460Y4588D01*
X3459Y4590D01*
X3458Y4592D01*
X3457Y4595D01*
X3455Y4597D01*
X3452Y4600D01*
X3431Y4622D01*
D02*
G37*
G36*
X2222Y4492D02*
X2220D01*
X2219Y4491D01*
X2218Y4491D01*
X2217Y4491D01*
X2215Y4491D01*
X2214Y4490D01*
X2212Y4490D01*
X2210Y4489D01*
X2208Y4488D01*
X2206Y4487D01*
X2204Y4486D01*
X2202Y4485D01*
X2200Y4484D01*
X2198Y4482D01*
X2198Y4482D01*
X2198Y4481D01*
X2197Y4481D01*
X2197Y4480D01*
X2196Y4479D01*
X2195Y4478D01*
X2194Y4476D01*
X2194Y4475D01*
X2193Y4473D01*
X2192Y4470D01*
X2191Y4468D01*
X2190Y4465D01*
X2190Y4463D01*
X2189Y4460D01*
X2189Y4456D01*
X2189Y4453D01*
Y4452D01*
Y4452D01*
Y4451D01*
X2189Y4450D01*
X2189Y4448D01*
X2189Y4446D01*
X2190Y4444D01*
X2190Y4442D01*
X2191Y4438D01*
X2192Y4435D01*
X2193Y4433D01*
X2194Y4430D01*
X2195Y4428D01*
X2196Y4426D01*
X2198Y4424D01*
X2198Y4424D01*
X2198Y4424D01*
X2199Y4423D01*
X2200Y4423D01*
X2201Y4422D01*
X2202Y4421D01*
X2203Y4420D01*
X2205Y4419D01*
X2206Y4418D01*
X2208Y4417D01*
X2210Y4416D01*
X2212Y4416D01*
X2214Y4415D01*
X2217Y4414D01*
X2219Y4414D01*
X2222Y4414D01*
X2223D01*
X2224Y4414D01*
X2226Y4414D01*
X2228Y4415D01*
X2230Y4415D01*
X2232Y4416D01*
X2235Y4417D01*
X2234Y4417D01*
X2234Y4417D01*
X2232Y4418D01*
X2231Y4419D01*
X2229Y4420D01*
X2227Y4421D01*
X2224Y4421D01*
X2222Y4422D01*
X2225Y4431D01*
X2225D01*
X2226Y4431D01*
X2226Y4431D01*
X2227Y4431D01*
X2228Y4430D01*
X2229Y4430D01*
X2232Y4429D01*
X2234Y4428D01*
X2238Y4426D01*
X2240Y4424D01*
X2243Y4422D01*
X2243Y4422D01*
X2244Y4423D01*
X2244Y4423D01*
X2245Y4424D01*
X2246Y4425D01*
X2247Y4426D01*
X2248Y4428D01*
X2249Y4430D01*
X2250Y4432D01*
X2251Y4434D01*
X2252Y4437D01*
X2253Y4439D01*
X2254Y4442D01*
X2254Y4446D01*
X2254Y4449D01*
X2255Y4453D01*
Y4453D01*
Y4453D01*
Y4454D01*
Y4455D01*
X2254Y4456D01*
Y4457D01*
X2254Y4458D01*
X2254Y4460D01*
X2254Y4463D01*
X2253Y4466D01*
X2252Y4470D01*
X2251Y4473D01*
Y4473D01*
X2250Y4474D01*
X2250Y4474D01*
X2250Y4475D01*
X2249Y4476D01*
X2248Y4478D01*
X2246Y4480D01*
X2244Y4483D01*
X2242Y4485D01*
X2239Y4487D01*
X2239D01*
X2239Y4487D01*
X2238Y4487D01*
X2238Y4488D01*
X2237Y4488D01*
X2236Y4488D01*
X2234Y4489D01*
X2231Y4490D01*
X2229Y4491D01*
X2225Y4491D01*
X2222Y4492D01*
D02*
G37*
G36*
X402Y3929D02*
X372Y3886D01*
X402D01*
Y3929D01*
D02*
G37*
G36*
X308Y3937D02*
X286D01*
Y3863D01*
X308D01*
X309Y3864D01*
X311Y3864D01*
X314Y3864D01*
X316Y3864D01*
X319Y3864D01*
X321Y3865D01*
X321Y3865D01*
X322Y3865D01*
X323Y3866D01*
X324Y3866D01*
X325Y3867D01*
X327Y3868D01*
X328Y3869D01*
X329Y3870D01*
X330Y3870D01*
X330Y3871D01*
X331Y3872D01*
X332Y3873D01*
X333Y3875D01*
X334Y3877D01*
X335Y3879D01*
X336Y3882D01*
Y3882D01*
X337Y3883D01*
X337Y3883D01*
X337Y3883D01*
X337Y3884D01*
X337Y3885D01*
X338Y3886D01*
X338Y3887D01*
X338Y3890D01*
X339Y3893D01*
X339Y3897D01*
X339Y3901D01*
Y3901D01*
Y3901D01*
Y3902D01*
X339Y3903D01*
Y3904D01*
X339Y3906D01*
X339Y3907D01*
X338Y3909D01*
X338Y3913D01*
X337Y3917D01*
X336Y3920D01*
X335Y3922D01*
X334Y3924D01*
Y3924D01*
X334Y3924D01*
X333Y3925D01*
X333Y3925D01*
X332Y3926D01*
X331Y3928D01*
X329Y3930D01*
X327Y3932D01*
X324Y3933D01*
X322Y3935D01*
X322Y3935D01*
X321Y3935D01*
X320Y3935D01*
X318Y3936D01*
X316Y3936D01*
X313Y3936D01*
X311Y3936D01*
X310D01*
X308Y3937D01*
D02*
G37*
G36*
X2630Y4271D02*
X2579Y4219D01*
X2595Y4203D01*
X2595Y4203D01*
X2597Y4201D01*
X2599Y4200D01*
X2601Y4198D01*
X2603Y4197D01*
X2605Y4196D01*
X2605Y4196D01*
X2606Y4195D01*
X2607Y4195D01*
X2608Y4194D01*
X2609Y4194D01*
X2611Y4193D01*
X2613Y4193D01*
X2614Y4193D01*
X2615Y4193D01*
X2615D01*
X2617Y4193D01*
X2618Y4193D01*
X2620Y4194D01*
X2623Y4195D01*
X2625Y4195D01*
X2628Y4197D01*
X2628Y4197D01*
X2628Y4197D01*
X2629Y4197D01*
X2629Y4197D01*
X2630Y4198D01*
X2631Y4198D01*
X2631Y4199D01*
X2632Y4199D01*
X2635Y4201D01*
X2637Y4203D01*
X2640Y4205D01*
X2643Y4208D01*
X2643Y4208D01*
X2643Y4208D01*
X2644Y4209D01*
X2644Y4210D01*
X2645Y4211D01*
X2646Y4212D01*
X2647Y4213D01*
X2648Y4214D01*
X2651Y4217D01*
X2653Y4221D01*
X2654Y4224D01*
X2655Y4226D01*
X2656Y4228D01*
X2656Y4228D01*
Y4228D01*
X2656Y4229D01*
X2656Y4229D01*
X2656Y4231D01*
X2656Y4233D01*
Y4236D01*
X2656Y4238D01*
X2656Y4241D01*
X2655Y4244D01*
X2655Y4244D01*
X2654Y4245D01*
X2654Y4246D01*
X2653Y4248D01*
X2651Y4249D01*
X2650Y4252D01*
X2648Y4253D01*
X2647Y4254D01*
X2646Y4255D01*
X2630Y4271D01*
D02*
G37*
G36*
X1917Y2736D02*
X1895D01*
Y2663D01*
X1917D01*
X1918Y2663D01*
X1920Y2663D01*
X1923Y2664D01*
X1925Y2664D01*
X1928Y2664D01*
X1930Y2665D01*
X1930Y2665D01*
X1931Y2665D01*
X1932Y2666D01*
X1933Y2666D01*
X1934Y2667D01*
X1936Y2668D01*
X1937Y2669D01*
X1939Y2670D01*
X1939Y2670D01*
X1939Y2671D01*
X1940Y2672D01*
X1941Y2673D01*
X1942Y2675D01*
X1943Y2677D01*
X1945Y2679D01*
X1945Y2682D01*
Y2682D01*
X1946Y2682D01*
X1946Y2683D01*
X1946Y2683D01*
X1946Y2684D01*
X1946Y2685D01*
X1947Y2686D01*
X1947Y2687D01*
X1947Y2690D01*
X1948Y2693D01*
X1948Y2697D01*
X1948Y2700D01*
Y2701D01*
Y2701D01*
Y2702D01*
X1948Y2703D01*
Y2704D01*
X1948Y2706D01*
X1948Y2707D01*
X1948Y2709D01*
X1947Y2713D01*
X1946Y2717D01*
X1945Y2720D01*
X1944Y2722D01*
X1943Y2724D01*
Y2724D01*
X1943Y2724D01*
X1943Y2724D01*
X1942Y2725D01*
X1941Y2726D01*
X1940Y2728D01*
X1938Y2730D01*
X1936Y2732D01*
X1934Y2733D01*
X1931Y2734D01*
X1931Y2734D01*
X1930Y2735D01*
X1929Y2735D01*
X1927Y2735D01*
X1925Y2736D01*
X1922Y2736D01*
X1920Y2736D01*
X1919D01*
X1917Y2736D01*
D02*
G37*
%LPD*%
D10*
X2950Y3750D02*
G03*
X2950Y3750I-250J0D01*
G01*
X1707Y4734D02*
G03*
X2093Y4734I193J-134D01*
G01*
X1007Y4734D02*
G03*
X1393Y4734I193J-134D01*
G01*
X2450Y3200D02*
G03*
X2450Y3200I-300J0D01*
G01*
X3450Y2050D02*
X3650D01*
X3450D02*
Y2125D01*
X3250Y375D02*
X3650D01*
X3250D02*
Y2050D01*
X3650Y375D02*
Y2050D01*
X3450Y275D02*
Y377D01*
X3250Y2050D02*
X3450D01*
X2400D02*
X2600D01*
X2400D02*
Y2125D01*
X2200Y375D02*
X2600D01*
X2200D02*
Y2050D01*
X2600Y375D02*
Y2050D01*
X2400Y275D02*
Y377D01*
X2200Y2050D02*
X2400D01*
X3775D02*
X3975D01*
Y275D02*
Y377D01*
X4175Y375D02*
Y2050D01*
X3775Y375D02*
Y2050D01*
Y375D02*
X4175D01*
X3975Y2050D02*
Y2125D01*
Y2050D02*
X4175D01*
X2725D02*
X2925D01*
Y275D02*
Y377D01*
X3125Y375D02*
Y2050D01*
X2725Y375D02*
Y2050D01*
Y375D02*
X3125D01*
X2925Y2050D02*
Y2125D01*
Y2050D02*
X3125D01*
X1707Y4733D02*
X2093D01*
X1007D02*
X1393D01*
X3013Y4687D02*
X3084Y4616D01*
X3516Y4184D02*
X3587Y4113D01*
X3156Y4687D02*
X3587Y4256D01*
X3013Y4544D02*
X3156Y4687D01*
X3013Y4544D02*
X3444Y4113D01*
X3587Y4256D01*
X3698Y2845D02*
X3902D01*
X3698D02*
Y3455D01*
X3902D01*
Y2845D02*
Y3455D01*
X3800Y2744D02*
Y2845D01*
Y3455D02*
Y3556D01*
X1605Y4200D02*
X1706D01*
X894D02*
X995D01*
Y4098D02*
X1605D01*
Y4302D01*
X995D02*
X1605D01*
X995Y4098D02*
Y4302D01*
X2864Y4148D02*
X3052Y4336D01*
X3234Y3966D02*
X3281Y3919D01*
X2819Y4381D02*
X2866Y4334D01*
X2767Y4235D02*
X2965Y4433D01*
X2767Y4235D02*
X3135Y3867D01*
X3333Y4065D01*
X2965Y4433D02*
X3333Y4065D01*
X1817Y2180D02*
X2083D01*
X1950Y1724D02*
Y1790D01*
Y2310D02*
Y2376D01*
X1810Y2310D02*
X2090D01*
X1810Y1790D02*
Y2310D01*
Y1790D02*
X2090D01*
Y2310D01*
X3470Y2688D02*
Y3212D01*
X1230Y3771D02*
Y4029D01*
X676Y3900D02*
X840D01*
X1360D02*
X1524D01*
X1360Y3764D02*
Y4036D01*
X840D02*
X1360D01*
X840Y3764D02*
Y4036D01*
Y3764D02*
X1360D01*
X75Y3625D02*
X1725D01*
X75Y1375D02*
Y3625D01*
Y1375D02*
X1725D01*
Y3625D01*
D11*
X2208Y4600D02*
G03*
X2208Y4600I-12J0D01*
G01*
X1507D02*
G03*
X1507Y4600I-12J0D01*
G01*
X912Y3685D02*
G03*
X912Y3685I-12J0D01*
G01*
X2092Y150D02*
Y450D01*
X192Y150D02*
X2092D01*
X192D02*
Y450D01*
Y900D02*
Y1250D01*
X2092D01*
Y950D02*
Y1250D01*
D12*
X3575Y2950D02*
G03*
X3575Y2950I-525J0D01*
G01*
X3091Y3749D02*
X2991D01*
X3041Y3699D02*
Y3799D01*
M02*
