G04*
G04 #@! TF.GenerationSoftware,Altium Limited,Altium Designer,22.1.2 (22)*
G04*
G04 Layer_Color=16777215*
%FSLAX42Y42*%
%MOMM*%
G71*
G04*
G04 #@! TF.SameCoordinates,66CC876A-D426-4744-AE03-0E6BB2EB721C*
G04*
G04*
G04 #@! TF.FilePolarity,Positive*
G04*
G01*
G75*
%ADD10C,0.20*%
%ADD11C,0.25*%
%ADD12C,0.15*%
G36*
X4130Y3444D02*
X4005D01*
X4005Y3443D01*
X4006Y3442D01*
X4008Y3441D01*
X4009Y3438D01*
X4011Y3436D01*
X4014Y3433D01*
X4016Y3429D01*
X4019Y3425D01*
Y3425D01*
X4019Y3424D01*
X4020Y3423D01*
X4021Y3421D01*
X4023Y3418D01*
X4024Y3415D01*
X4026Y3411D01*
X4027Y3408D01*
X4029Y3404D01*
X4010D01*
Y3404D01*
X4009Y3405D01*
X4009Y3406D01*
X4008Y3407D01*
X4008Y3408D01*
X4007Y3410D01*
X4005Y3414D01*
X4002Y3419D01*
X3999Y3423D01*
X3995Y3428D01*
X3991Y3433D01*
X3991Y3433D01*
X3991Y3433D01*
X3990Y3434D01*
X3989Y3435D01*
X3987Y3437D01*
X3984Y3440D01*
X3981Y3443D01*
X3977Y3446D01*
X3974Y3448D01*
X3970Y3451D01*
Y3463D01*
X4130D01*
Y3444D01*
D02*
G37*
G36*
Y3316D02*
Y3293D01*
X3970Y3231D01*
Y3255D01*
X4087Y3296D01*
X4087D01*
X4087Y3296D01*
X4088Y3297D01*
X4089Y3297D01*
X4090Y3297D01*
X4092Y3298D01*
X4095Y3299D01*
X4099Y3300D01*
X4104Y3302D01*
X4113Y3305D01*
X4113D01*
X4112Y3305D01*
X4111Y3305D01*
X4111Y3305D01*
X4108Y3306D01*
X4104Y3307D01*
X4101Y3308D01*
X4096Y3310D01*
X4092Y3311D01*
X4087Y3313D01*
X3970Y3357D01*
Y3378D01*
X4130Y3316D01*
D02*
G37*
G36*
Y3201D02*
X4097Y3180D01*
X4097D01*
X4096Y3180D01*
X4096Y3179D01*
X4095Y3178D01*
X4092Y3177D01*
X4089Y3175D01*
X4086Y3172D01*
X4082Y3170D01*
X4078Y3167D01*
X4075Y3165D01*
X4075Y3165D01*
X4074Y3164D01*
X4073Y3163D01*
X4071Y3161D01*
X4067Y3158D01*
X4066Y3156D01*
X4064Y3154D01*
X4064Y3154D01*
X4064Y3153D01*
X4064Y3152D01*
X4063Y3151D01*
X4062Y3149D01*
X4061Y3148D01*
X4060Y3144D01*
Y3144D01*
X4060Y3143D01*
Y3143D01*
X4060Y3141D01*
X4060Y3140D01*
Y3138D01*
X4059Y3135D01*
Y3108D01*
X4130D01*
Y3087D01*
X3970D01*
Y3161D01*
X3971Y3163D01*
Y3165D01*
X3971Y3170D01*
X3971Y3175D01*
X3972Y3180D01*
X3973Y3186D01*
X3974Y3188D01*
X3975Y3190D01*
Y3190D01*
X3975Y3191D01*
X3976Y3192D01*
X3977Y3194D01*
X3978Y3197D01*
X3980Y3199D01*
X3983Y3202D01*
X3986Y3205D01*
X3990Y3208D01*
X3990D01*
X3990Y3208D01*
X3992Y3209D01*
X3994Y3210D01*
X3997Y3211D01*
X4001Y3213D01*
X4005Y3214D01*
X4009Y3214D01*
X4014Y3215D01*
X4014D01*
X4015D01*
X4016D01*
X4017Y3214D01*
X4018D01*
X4020Y3214D01*
X4024Y3213D01*
X4029Y3212D01*
X4033Y3210D01*
X4038Y3207D01*
X4041Y3205D01*
X4043Y3204D01*
X4043Y3203D01*
X4043Y3203D01*
X4044Y3202D01*
X4045Y3202D01*
X4046Y3200D01*
X4047Y3199D01*
X4048Y3197D01*
X4049Y3195D01*
X4050Y3193D01*
X4052Y3190D01*
X4053Y3188D01*
X4054Y3185D01*
X4055Y3181D01*
X4056Y3178D01*
X4057Y3174D01*
X4058Y3170D01*
X4058Y3170D01*
X4058Y3171D01*
X4059Y3172D01*
X4060Y3174D01*
X4063Y3178D01*
X4064Y3180D01*
X4066Y3182D01*
X4066Y3183D01*
X4067Y3184D01*
X4069Y3186D01*
X4071Y3188D01*
X4075Y3191D01*
X4078Y3194D01*
X4082Y3197D01*
X4087Y3200D01*
X4130Y3227D01*
Y3201D01*
D02*
G37*
G36*
X1947Y4973D02*
X1929D01*
Y4993D01*
X1947D01*
Y4973D01*
D02*
G37*
G36*
X1902D02*
X1884D01*
Y4993D01*
X1902D01*
Y4973D01*
D02*
G37*
G36*
X2957Y4956D02*
X2959Y4955D01*
X2962Y4954D01*
X2965Y4953D01*
X2968Y4952D01*
X2971Y4950D01*
X2965Y4934D01*
X2965Y4934D01*
X2964Y4934D01*
X2963Y4935D01*
X2961Y4936D01*
X2959Y4936D01*
X2957Y4937D01*
X2955Y4937D01*
X2952Y4938D01*
X2951D01*
X2950Y4937D01*
X2949Y4937D01*
X2947Y4937D01*
X2945Y4936D01*
X2944Y4935D01*
X2942Y4934D01*
X2942Y4934D01*
X2941Y4933D01*
X2940Y4933D01*
X2939Y4932D01*
X2938Y4930D01*
X2937Y4928D01*
X2936Y4927D01*
X2935Y4924D01*
X2935Y4924D01*
X2935Y4923D01*
X2935Y4921D01*
X2934Y4918D01*
X2933Y4915D01*
X2933Y4912D01*
X2933Y4908D01*
X2933Y4904D01*
Y4849D01*
X2915D01*
Y4954D01*
X2931D01*
Y4938D01*
X2931Y4938D01*
X2932Y4939D01*
X2933Y4941D01*
X2935Y4944D01*
X2936Y4946D01*
X2938Y4948D01*
X2940Y4951D01*
X2942Y4952D01*
X2942Y4952D01*
X2943Y4953D01*
X2944Y4953D01*
X2945Y4954D01*
X2947Y4955D01*
X2949Y4955D01*
X2951Y4956D01*
X2953Y4956D01*
X2955D01*
X2957Y4956D01*
D02*
G37*
G36*
X2609D02*
X2612Y4955D01*
X2614Y4954D01*
X2617Y4953D01*
X2621Y4952D01*
X2624Y4950D01*
X2618Y4934D01*
X2618Y4934D01*
X2617Y4934D01*
X2615Y4935D01*
X2614Y4936D01*
X2612Y4936D01*
X2610Y4937D01*
X2607Y4937D01*
X2605Y4938D01*
X2604D01*
X2603Y4937D01*
X2602Y4937D01*
X2600Y4937D01*
X2598Y4936D01*
X2596Y4935D01*
X2595Y4934D01*
X2594Y4934D01*
X2594Y4933D01*
X2593Y4933D01*
X2592Y4932D01*
X2591Y4930D01*
X2590Y4928D01*
X2589Y4927D01*
X2588Y4924D01*
X2588Y4924D01*
X2588Y4923D01*
X2587Y4921D01*
X2587Y4918D01*
X2586Y4915D01*
X2586Y4912D01*
X2586Y4908D01*
X2585Y4904D01*
Y4849D01*
X2568D01*
Y4954D01*
X2584D01*
Y4938D01*
X2584Y4938D01*
X2585Y4939D01*
X2586Y4941D01*
X2587Y4944D01*
X2589Y4946D01*
X2591Y4948D01*
X2593Y4951D01*
X2595Y4952D01*
X2595Y4952D01*
X2596Y4953D01*
X2597Y4953D01*
X2598Y4954D01*
X2600Y4955D01*
X2602Y4955D01*
X2604Y4956D01*
X2606Y4956D01*
X2608D01*
X2609Y4956D01*
D02*
G37*
G36*
X2232D02*
X2233D01*
X2235Y4956D01*
X2239Y4955D01*
X2243Y4954D01*
X2248Y4952D01*
X2252Y4950D01*
X2257Y4947D01*
X2257D01*
X2257Y4947D01*
X2259Y4946D01*
X2260Y4944D01*
X2263Y4941D01*
X2265Y4938D01*
X2267Y4933D01*
X2269Y4929D01*
X2271Y4923D01*
X2254Y4920D01*
Y4921D01*
X2253Y4921D01*
X2253Y4922D01*
X2252Y4924D01*
X2251Y4926D01*
X2250Y4929D01*
X2249Y4931D01*
X2247Y4934D01*
X2245Y4936D01*
X2245Y4936D01*
X2244Y4937D01*
X2242Y4938D01*
X2241Y4939D01*
X2238Y4940D01*
X2236Y4941D01*
X2233Y4941D01*
X2230Y4941D01*
X2229D01*
X2227Y4941D01*
X2225Y4941D01*
X2222Y4940D01*
X2219Y4939D01*
X2215Y4937D01*
X2211Y4935D01*
X2210Y4933D01*
X2208Y4932D01*
Y4932D01*
X2208Y4931D01*
X2207Y4931D01*
X2207Y4930D01*
X2206Y4929D01*
X2205Y4928D01*
X2205Y4926D01*
X2204Y4924D01*
X2203Y4922D01*
X2202Y4920D01*
X2202Y4918D01*
X2201Y4915D01*
X2201Y4912D01*
X2200Y4909D01*
X2200Y4905D01*
Y4901D01*
Y4901D01*
Y4901D01*
Y4899D01*
X2200Y4898D01*
Y4896D01*
X2200Y4894D01*
X2201Y4890D01*
X2202Y4885D01*
X2203Y4879D01*
X2205Y4875D01*
X2206Y4873D01*
X2208Y4871D01*
X2208Y4870D01*
X2209Y4869D01*
X2211Y4868D01*
X2213Y4866D01*
X2216Y4864D01*
X2220Y4863D01*
X2224Y4862D01*
X2226Y4862D01*
X2229Y4861D01*
X2229D01*
X2230Y4862D01*
X2232Y4862D01*
X2235Y4862D01*
X2237Y4863D01*
X2240Y4864D01*
X2243Y4866D01*
X2246Y4868D01*
X2246Y4868D01*
X2247Y4869D01*
X2248Y4870D01*
X2250Y4873D01*
X2251Y4875D01*
X2253Y4879D01*
X2254Y4883D01*
X2255Y4887D01*
X2272Y4885D01*
Y4885D01*
X2272Y4884D01*
X2272Y4883D01*
X2272Y4882D01*
X2271Y4881D01*
X2271Y4879D01*
X2270Y4875D01*
X2268Y4870D01*
X2265Y4866D01*
X2262Y4861D01*
X2260Y4859D01*
X2258Y4857D01*
X2257Y4857D01*
X2257Y4856D01*
X2256Y4856D01*
X2256Y4855D01*
X2255Y4854D01*
X2253Y4854D01*
X2251Y4853D01*
X2250Y4852D01*
X2246Y4850D01*
X2241Y4848D01*
X2235Y4847D01*
X2232Y4847D01*
X2229Y4847D01*
X2227D01*
X2225Y4847D01*
X2224Y4847D01*
X2221Y4848D01*
X2219Y4848D01*
X2217Y4848D01*
X2211Y4850D01*
X2208Y4851D01*
X2205Y4853D01*
X2202Y4854D01*
X2200Y4856D01*
X2197Y4858D01*
X2195Y4861D01*
X2194Y4861D01*
X2194Y4861D01*
X2193Y4862D01*
X2192Y4863D01*
X2192Y4865D01*
X2190Y4867D01*
X2189Y4869D01*
X2188Y4871D01*
X2187Y4874D01*
X2186Y4877D01*
X2185Y4880D01*
X2184Y4884D01*
X2183Y4887D01*
X2182Y4892D01*
X2182Y4896D01*
X2182Y4901D01*
Y4901D01*
Y4902D01*
Y4903D01*
Y4904D01*
X2182Y4905D01*
Y4907D01*
X2182Y4909D01*
X2182Y4911D01*
X2183Y4916D01*
X2184Y4921D01*
X2185Y4926D01*
X2187Y4931D01*
Y4931D01*
X2187Y4931D01*
X2188Y4932D01*
X2188Y4933D01*
X2189Y4935D01*
X2191Y4938D01*
X2194Y4941D01*
X2197Y4944D01*
X2200Y4947D01*
X2204Y4949D01*
X2204D01*
X2205Y4950D01*
X2205Y4950D01*
X2206Y4951D01*
X2207Y4951D01*
X2209Y4952D01*
X2212Y4953D01*
X2215Y4954D01*
X2220Y4955D01*
X2224Y4956D01*
X2229Y4956D01*
X2231D01*
X2232Y4956D01*
D02*
G37*
G36*
X2131D02*
X2132D01*
X2134Y4956D01*
X2138Y4955D01*
X2142Y4954D01*
X2147Y4952D01*
X2152Y4950D01*
X2156Y4947D01*
X2156D01*
X2156Y4947D01*
X2158Y4946D01*
X2160Y4944D01*
X2162Y4941D01*
X2164Y4938D01*
X2166Y4933D01*
X2169Y4929D01*
X2170Y4923D01*
X2153Y4920D01*
Y4921D01*
X2152Y4921D01*
X2152Y4922D01*
X2152Y4924D01*
X2151Y4926D01*
X2150Y4929D01*
X2148Y4931D01*
X2146Y4934D01*
X2144Y4936D01*
X2144Y4936D01*
X2143Y4937D01*
X2141Y4938D01*
X2140Y4939D01*
X2137Y4940D01*
X2135Y4941D01*
X2132Y4941D01*
X2129Y4941D01*
X2128D01*
X2127Y4941D01*
X2124Y4941D01*
X2121Y4940D01*
X2118Y4939D01*
X2114Y4937D01*
X2111Y4935D01*
X2109Y4933D01*
X2107Y4932D01*
Y4932D01*
X2107Y4931D01*
X2106Y4931D01*
X2106Y4930D01*
X2105Y4929D01*
X2105Y4928D01*
X2104Y4926D01*
X2103Y4924D01*
X2102Y4922D01*
X2102Y4920D01*
X2101Y4918D01*
X2100Y4915D01*
X2100Y4912D01*
X2099Y4909D01*
X2099Y4905D01*
Y4901D01*
Y4901D01*
Y4901D01*
Y4899D01*
X2099Y4898D01*
Y4896D01*
X2099Y4894D01*
X2100Y4890D01*
X2101Y4885D01*
X2102Y4879D01*
X2104Y4875D01*
X2105Y4873D01*
X2107Y4871D01*
X2107Y4870D01*
X2108Y4869D01*
X2110Y4868D01*
X2113Y4866D01*
X2116Y4864D01*
X2119Y4863D01*
X2123Y4862D01*
X2126Y4862D01*
X2128Y4861D01*
X2128D01*
X2130Y4862D01*
X2132Y4862D01*
X2134Y4862D01*
X2137Y4863D01*
X2140Y4864D01*
X2142Y4866D01*
X2145Y4868D01*
X2146Y4868D01*
X2146Y4869D01*
X2147Y4870D01*
X2149Y4873D01*
X2150Y4875D01*
X2152Y4879D01*
X2153Y4883D01*
X2154Y4887D01*
X2172Y4885D01*
Y4885D01*
X2171Y4884D01*
X2171Y4883D01*
X2171Y4882D01*
X2171Y4881D01*
X2170Y4879D01*
X2169Y4875D01*
X2167Y4870D01*
X2164Y4866D01*
X2161Y4861D01*
X2159Y4859D01*
X2157Y4857D01*
X2157Y4857D01*
X2156Y4856D01*
X2156Y4856D01*
X2155Y4855D01*
X2154Y4854D01*
X2152Y4854D01*
X2151Y4853D01*
X2149Y4852D01*
X2145Y4850D01*
X2140Y4848D01*
X2134Y4847D01*
X2131Y4847D01*
X2128Y4847D01*
X2126D01*
X2125Y4847D01*
X2123Y4847D01*
X2121Y4848D01*
X2118Y4848D01*
X2116Y4848D01*
X2110Y4850D01*
X2108Y4851D01*
X2105Y4853D01*
X2102Y4854D01*
X2099Y4856D01*
X2096Y4858D01*
X2094Y4861D01*
X2094Y4861D01*
X2093Y4861D01*
X2093Y4862D01*
X2092Y4863D01*
X2091Y4865D01*
X2090Y4867D01*
X2089Y4869D01*
X2087Y4871D01*
X2086Y4874D01*
X2085Y4877D01*
X2084Y4880D01*
X2083Y4884D01*
X2082Y4887D01*
X2081Y4892D01*
X2081Y4896D01*
X2081Y4901D01*
Y4901D01*
Y4902D01*
Y4903D01*
Y4904D01*
X2081Y4905D01*
Y4907D01*
X2081Y4909D01*
X2081Y4911D01*
X2082Y4916D01*
X2083Y4921D01*
X2084Y4926D01*
X2086Y4931D01*
Y4931D01*
X2086Y4931D01*
X2087Y4932D01*
X2087Y4933D01*
X2089Y4935D01*
X2090Y4938D01*
X2093Y4941D01*
X2096Y4944D01*
X2099Y4947D01*
X2103Y4949D01*
X2104D01*
X2104Y4950D01*
X2105Y4950D01*
X2105Y4951D01*
X2106Y4951D01*
X2108Y4952D01*
X2111Y4953D01*
X2114Y4954D01*
X2119Y4955D01*
X2123Y4956D01*
X2128Y4956D01*
X2130D01*
X2131Y4956D01*
D02*
G37*
G36*
X1829D02*
X1830D01*
X1832Y4956D01*
X1836Y4955D01*
X1840Y4954D01*
X1845Y4952D01*
X1849Y4950D01*
X1854Y4947D01*
X1854D01*
X1854Y4947D01*
X1855Y4946D01*
X1857Y4944D01*
X1859Y4941D01*
X1862Y4938D01*
X1864Y4933D01*
X1866Y4929D01*
X1868Y4923D01*
X1850Y4920D01*
Y4921D01*
X1850Y4921D01*
X1850Y4922D01*
X1849Y4924D01*
X1848Y4926D01*
X1847Y4929D01*
X1845Y4931D01*
X1844Y4934D01*
X1842Y4936D01*
X1841Y4936D01*
X1840Y4937D01*
X1839Y4938D01*
X1837Y4939D01*
X1835Y4940D01*
X1833Y4941D01*
X1830Y4941D01*
X1827Y4941D01*
X1825D01*
X1824Y4941D01*
X1822Y4941D01*
X1819Y4940D01*
X1815Y4939D01*
X1812Y4937D01*
X1808Y4935D01*
X1807Y4933D01*
X1805Y4932D01*
Y4932D01*
X1804Y4931D01*
X1804Y4931D01*
X1804Y4930D01*
X1803Y4929D01*
X1802Y4928D01*
X1802Y4926D01*
X1801Y4924D01*
X1800Y4922D01*
X1799Y4920D01*
X1798Y4918D01*
X1798Y4915D01*
X1797Y4912D01*
X1797Y4909D01*
X1797Y4905D01*
Y4901D01*
Y4901D01*
Y4901D01*
Y4899D01*
X1797Y4898D01*
Y4896D01*
X1797Y4894D01*
X1798Y4890D01*
X1798Y4885D01*
X1800Y4879D01*
X1802Y4875D01*
X1803Y4873D01*
X1804Y4871D01*
X1805Y4870D01*
X1806Y4869D01*
X1808Y4868D01*
X1810Y4866D01*
X1813Y4864D01*
X1817Y4863D01*
X1821Y4862D01*
X1823Y4862D01*
X1825Y4861D01*
X1826D01*
X1827Y4862D01*
X1829Y4862D01*
X1832Y4862D01*
X1834Y4863D01*
X1837Y4864D01*
X1840Y4866D01*
X1843Y4868D01*
X1843Y4868D01*
X1844Y4869D01*
X1845Y4870D01*
X1847Y4873D01*
X1848Y4875D01*
X1850Y4879D01*
X1851Y4883D01*
X1852Y4887D01*
X1869Y4885D01*
Y4885D01*
X1869Y4884D01*
X1869Y4883D01*
X1869Y4882D01*
X1868Y4881D01*
X1868Y4879D01*
X1866Y4875D01*
X1864Y4870D01*
X1862Y4866D01*
X1858Y4861D01*
X1857Y4859D01*
X1854Y4857D01*
X1854Y4857D01*
X1854Y4856D01*
X1853Y4856D01*
X1852Y4855D01*
X1851Y4854D01*
X1850Y4854D01*
X1848Y4853D01*
X1847Y4852D01*
X1842Y4850D01*
X1837Y4848D01*
X1832Y4847D01*
X1829Y4847D01*
X1826Y4847D01*
X1824D01*
X1822Y4847D01*
X1820Y4847D01*
X1818Y4848D01*
X1816Y4848D01*
X1813Y4848D01*
X1808Y4850D01*
X1805Y4851D01*
X1802Y4853D01*
X1799Y4854D01*
X1797Y4856D01*
X1794Y4858D01*
X1791Y4861D01*
X1791Y4861D01*
X1791Y4861D01*
X1790Y4862D01*
X1789Y4863D01*
X1788Y4865D01*
X1787Y4867D01*
X1786Y4869D01*
X1785Y4871D01*
X1784Y4874D01*
X1783Y4877D01*
X1781Y4880D01*
X1781Y4884D01*
X1780Y4887D01*
X1779Y4892D01*
X1779Y4896D01*
X1778Y4901D01*
Y4901D01*
Y4902D01*
Y4903D01*
Y4904D01*
X1779Y4905D01*
Y4907D01*
X1779Y4909D01*
X1779Y4911D01*
X1780Y4916D01*
X1781Y4921D01*
X1782Y4926D01*
X1784Y4931D01*
Y4931D01*
X1784Y4931D01*
X1784Y4932D01*
X1785Y4933D01*
X1786Y4935D01*
X1788Y4938D01*
X1791Y4941D01*
X1793Y4944D01*
X1797Y4947D01*
X1801Y4949D01*
X1801D01*
X1802Y4950D01*
X1802Y4950D01*
X1803Y4951D01*
X1804Y4951D01*
X1805Y4952D01*
X1808Y4953D01*
X1812Y4954D01*
X1816Y4955D01*
X1821Y4956D01*
X1826Y4956D01*
X1828D01*
X1829Y4956D01*
D02*
G37*
G36*
X1680Y4849D02*
X1662D01*
X1645Y4912D01*
X1641Y4929D01*
X1620Y4849D01*
X1601D01*
X1569Y4954D01*
X1588D01*
X1605Y4893D01*
X1610Y4871D01*
Y4871D01*
X1611Y4871D01*
X1611Y4872D01*
X1611Y4873D01*
X1611Y4874D01*
X1611Y4875D01*
X1612Y4877D01*
X1612Y4878D01*
X1613Y4881D01*
X1613Y4883D01*
X1614Y4886D01*
X1615Y4889D01*
X1616Y4892D01*
X1632Y4954D01*
X1651D01*
X1666Y4893D01*
X1671Y4873D01*
X1677Y4893D01*
X1695Y4954D01*
X1713D01*
X1680Y4849D01*
D02*
G37*
G36*
X1534D02*
X1516D01*
X1500Y4912D01*
X1495Y4929D01*
X1474Y4849D01*
X1456D01*
X1424Y4954D01*
X1442D01*
X1459Y4893D01*
X1465Y4871D01*
Y4871D01*
X1465Y4871D01*
X1465Y4872D01*
X1466Y4873D01*
X1466Y4874D01*
X1466Y4875D01*
X1466Y4877D01*
X1467Y4878D01*
X1467Y4881D01*
X1468Y4883D01*
X1469Y4886D01*
X1470Y4889D01*
X1470Y4892D01*
X1487Y4954D01*
X1505D01*
X1521Y4893D01*
X1526Y4873D01*
X1532Y4893D01*
X1550Y4954D01*
X1567D01*
X1534Y4849D01*
D02*
G37*
G36*
X1389D02*
X1371D01*
X1354Y4912D01*
X1350Y4929D01*
X1329Y4849D01*
X1310D01*
X1279Y4954D01*
X1297D01*
X1314Y4893D01*
X1320Y4871D01*
Y4871D01*
X1320Y4871D01*
X1320Y4872D01*
X1320Y4873D01*
X1320Y4874D01*
X1321Y4875D01*
X1321Y4877D01*
X1321Y4878D01*
X1322Y4881D01*
X1323Y4883D01*
X1323Y4886D01*
X1324Y4889D01*
X1325Y4892D01*
X1342Y4954D01*
X1360D01*
X1375Y4893D01*
X1381Y4873D01*
X1387Y4893D01*
X1405Y4954D01*
X1422D01*
X1389Y4849D01*
D02*
G37*
G36*
X2852Y4956D02*
X2855Y4956D01*
X2858Y4955D01*
X2862Y4954D01*
X2865Y4954D01*
X2869Y4953D01*
X2869Y4952D01*
X2870Y4952D01*
X2872Y4951D01*
X2874Y4951D01*
X2876Y4949D01*
X2878Y4948D01*
X2880Y4946D01*
X2881Y4945D01*
X2881Y4944D01*
X2882Y4944D01*
X2883Y4943D01*
X2883Y4942D01*
X2884Y4940D01*
X2885Y4938D01*
X2886Y4936D01*
X2887Y4933D01*
Y4933D01*
X2887Y4932D01*
X2887Y4931D01*
X2887Y4929D01*
Y4927D01*
X2888Y4924D01*
X2888Y4921D01*
Y4917D01*
Y4893D01*
Y4893D01*
Y4892D01*
Y4891D01*
Y4889D01*
Y4887D01*
Y4885D01*
X2888Y4880D01*
Y4874D01*
X2888Y4869D01*
X2888Y4867D01*
Y4865D01*
X2889Y4863D01*
X2889Y4862D01*
Y4861D01*
X2889Y4861D01*
X2889Y4859D01*
X2890Y4858D01*
X2890Y4856D01*
X2891Y4854D01*
X2892Y4851D01*
X2893Y4849D01*
X2875D01*
X2874Y4849D01*
X2874Y4850D01*
X2874Y4851D01*
X2873Y4853D01*
X2873Y4855D01*
X2872Y4857D01*
X2872Y4859D01*
X2871Y4862D01*
X2871D01*
X2871Y4862D01*
X2870Y4861D01*
X2868Y4859D01*
X2865Y4857D01*
X2862Y4856D01*
X2859Y4853D01*
X2856Y4852D01*
X2852Y4850D01*
X2852Y4850D01*
X2850Y4850D01*
X2849Y4849D01*
X2846Y4848D01*
X2843Y4848D01*
X2840Y4847D01*
X2836Y4847D01*
X2833Y4847D01*
X2831D01*
X2830Y4847D01*
X2828D01*
X2826Y4847D01*
X2823Y4848D01*
X2819Y4849D01*
X2814Y4850D01*
X2810Y4852D01*
X2806Y4855D01*
X2806Y4856D01*
X2805Y4857D01*
X2803Y4858D01*
X2801Y4861D01*
X2800Y4864D01*
X2798Y4868D01*
X2797Y4872D01*
X2797Y4874D01*
X2797Y4877D01*
Y4877D01*
Y4878D01*
X2797Y4879D01*
X2797Y4881D01*
X2798Y4883D01*
X2798Y4886D01*
X2799Y4888D01*
X2800Y4891D01*
X2800Y4891D01*
X2801Y4892D01*
X2802Y4893D01*
X2803Y4894D01*
X2804Y4896D01*
X2806Y4898D01*
X2807Y4899D01*
X2809Y4901D01*
X2810Y4901D01*
X2810Y4901D01*
X2811Y4902D01*
X2813Y4903D01*
X2815Y4904D01*
X2817Y4905D01*
X2820Y4906D01*
X2822Y4907D01*
X2823D01*
X2823Y4907D01*
X2825Y4907D01*
X2826Y4907D01*
X2828Y4908D01*
X2831Y4908D01*
X2834Y4909D01*
X2838Y4909D01*
X2838D01*
X2839Y4909D01*
X2840D01*
X2841Y4910D01*
X2843Y4910D01*
X2845Y4910D01*
X2848Y4911D01*
X2850Y4911D01*
X2855Y4912D01*
X2860Y4913D01*
X2865Y4914D01*
X2868Y4915D01*
X2870Y4916D01*
Y4916D01*
Y4916D01*
X2870Y4917D01*
Y4919D01*
Y4920D01*
Y4920D01*
Y4920D01*
Y4921D01*
Y4922D01*
X2870Y4924D01*
X2869Y4926D01*
X2869Y4929D01*
X2868Y4931D01*
X2866Y4933D01*
X2865Y4935D01*
X2864Y4936D01*
X2863Y4936D01*
X2862Y4937D01*
X2860Y4938D01*
X2857Y4939D01*
X2853Y4941D01*
X2849Y4941D01*
X2844Y4941D01*
X2842D01*
X2840Y4941D01*
X2837Y4941D01*
X2834Y4940D01*
X2831Y4939D01*
X2828Y4938D01*
X2826Y4937D01*
X2826Y4937D01*
X2825Y4936D01*
X2824Y4935D01*
X2823Y4933D01*
X2821Y4931D01*
X2820Y4929D01*
X2819Y4925D01*
X2817Y4922D01*
X2800Y4924D01*
Y4924D01*
X2800Y4924D01*
Y4925D01*
X2800Y4926D01*
X2801Y4928D01*
X2802Y4930D01*
X2803Y4933D01*
X2804Y4936D01*
X2806Y4939D01*
X2808Y4942D01*
X2808Y4942D01*
X2809Y4943D01*
X2810Y4944D01*
X2812Y4946D01*
X2814Y4947D01*
X2817Y4949D01*
X2820Y4951D01*
X2823Y4952D01*
X2824D01*
X2824Y4952D01*
X2824Y4953D01*
X2825Y4953D01*
X2827Y4953D01*
X2830Y4954D01*
X2834Y4955D01*
X2838Y4955D01*
X2842Y4956D01*
X2847Y4956D01*
X2849D01*
X2852Y4956D01*
D02*
G37*
G36*
X2772Y4849D02*
X2752D01*
Y4869D01*
X2772D01*
Y4849D01*
D02*
G37*
G36*
X2425D02*
X2405D01*
Y4869D01*
X2425D01*
Y4849D01*
D02*
G37*
G36*
X2336Y4956D02*
X2340Y4956D01*
X2343Y4955D01*
X2347Y4954D01*
X2350Y4954D01*
X2353Y4953D01*
X2354Y4952D01*
X2355Y4952D01*
X2356Y4951D01*
X2358Y4951D01*
X2360Y4949D01*
X2362Y4948D01*
X2364Y4946D01*
X2366Y4945D01*
X2366Y4944D01*
X2367Y4944D01*
X2367Y4943D01*
X2368Y4942D01*
X2369Y4940D01*
X2370Y4938D01*
X2371Y4936D01*
X2371Y4933D01*
Y4933D01*
X2372Y4932D01*
X2372Y4931D01*
X2372Y4929D01*
Y4927D01*
X2372Y4924D01*
X2372Y4921D01*
Y4917D01*
Y4893D01*
Y4893D01*
Y4892D01*
Y4891D01*
Y4889D01*
Y4887D01*
Y4885D01*
X2373Y4880D01*
Y4874D01*
X2373Y4869D01*
X2373Y4867D01*
Y4865D01*
X2373Y4863D01*
X2373Y4862D01*
Y4861D01*
X2374Y4861D01*
X2374Y4859D01*
X2375Y4858D01*
X2375Y4856D01*
X2376Y4854D01*
X2377Y4851D01*
X2378Y4849D01*
X2359D01*
X2359Y4849D01*
X2359Y4850D01*
X2358Y4851D01*
X2358Y4853D01*
X2357Y4855D01*
X2357Y4857D01*
X2356Y4859D01*
X2356Y4862D01*
X2356D01*
X2356Y4862D01*
X2354Y4861D01*
X2352Y4859D01*
X2350Y4857D01*
X2347Y4856D01*
X2344Y4853D01*
X2340Y4852D01*
X2337Y4850D01*
X2336Y4850D01*
X2335Y4850D01*
X2333Y4849D01*
X2331Y4848D01*
X2328Y4848D01*
X2325Y4847D01*
X2321Y4847D01*
X2317Y4847D01*
X2316D01*
X2314Y4847D01*
X2313D01*
X2311Y4847D01*
X2307Y4848D01*
X2303Y4849D01*
X2299Y4850D01*
X2295Y4852D01*
X2291Y4855D01*
X2290Y4856D01*
X2289Y4857D01*
X2288Y4858D01*
X2286Y4861D01*
X2285Y4864D01*
X2283Y4868D01*
X2282Y4872D01*
X2282Y4874D01*
X2282Y4877D01*
Y4877D01*
Y4878D01*
X2282Y4879D01*
X2282Y4881D01*
X2282Y4883D01*
X2283Y4886D01*
X2284Y4888D01*
X2285Y4891D01*
X2285Y4891D01*
X2286Y4892D01*
X2286Y4893D01*
X2287Y4894D01*
X2289Y4896D01*
X2290Y4898D01*
X2292Y4899D01*
X2294Y4901D01*
X2294Y4901D01*
X2295Y4901D01*
X2296Y4902D01*
X2298Y4903D01*
X2300Y4904D01*
X2302Y4905D01*
X2304Y4906D01*
X2307Y4907D01*
X2307D01*
X2308Y4907D01*
X2309Y4907D01*
X2311Y4907D01*
X2313Y4908D01*
X2316Y4908D01*
X2319Y4909D01*
X2323Y4909D01*
X2323D01*
X2324Y4909D01*
X2325D01*
X2326Y4910D01*
X2328Y4910D01*
X2330Y4910D01*
X2332Y4911D01*
X2335Y4911D01*
X2340Y4912D01*
X2345Y4913D01*
X2350Y4914D01*
X2352Y4915D01*
X2354Y4916D01*
Y4916D01*
Y4916D01*
X2355Y4917D01*
Y4919D01*
Y4920D01*
Y4920D01*
Y4920D01*
Y4921D01*
Y4922D01*
X2354Y4924D01*
X2354Y4926D01*
X2353Y4929D01*
X2352Y4931D01*
X2351Y4933D01*
X2349Y4935D01*
X2349Y4936D01*
X2348Y4936D01*
X2346Y4937D01*
X2344Y4938D01*
X2341Y4939D01*
X2338Y4941D01*
X2334Y4941D01*
X2329Y4941D01*
X2327D01*
X2325Y4941D01*
X2322Y4941D01*
X2319Y4940D01*
X2316Y4939D01*
X2313Y4938D01*
X2311Y4937D01*
X2310Y4937D01*
X2310Y4936D01*
X2308Y4935D01*
X2307Y4933D01*
X2306Y4931D01*
X2305Y4929D01*
X2303Y4925D01*
X2302Y4922D01*
X2285Y4924D01*
Y4924D01*
X2285Y4924D01*
Y4925D01*
X2285Y4926D01*
X2286Y4928D01*
X2287Y4930D01*
X2288Y4933D01*
X2289Y4936D01*
X2291Y4939D01*
X2292Y4942D01*
X2293Y4942D01*
X2293Y4943D01*
X2295Y4944D01*
X2296Y4946D01*
X2299Y4947D01*
X2301Y4949D01*
X2305Y4951D01*
X2308Y4952D01*
X2308D01*
X2308Y4952D01*
X2309Y4953D01*
X2310Y4953D01*
X2312Y4953D01*
X2315Y4954D01*
X2318Y4955D01*
X2322Y4955D01*
X2327Y4956D01*
X2332Y4956D01*
X2334D01*
X2336Y4956D01*
D02*
G37*
G36*
X1947Y4849D02*
X1929D01*
Y4954D01*
X1947D01*
Y4849D01*
D02*
G37*
G36*
X1902D02*
X1884D01*
Y4954D01*
X1902D01*
Y4849D01*
D02*
G37*
G36*
X1753D02*
X1733D01*
Y4869D01*
X1753D01*
Y4849D01*
D02*
G37*
G36*
X2502Y4956D02*
X2503Y4956D01*
X2506Y4955D01*
X2508Y4955D01*
X2511Y4954D01*
X2516Y4952D01*
X2519Y4951D01*
X2522Y4950D01*
X2525Y4948D01*
X2528Y4946D01*
X2531Y4944D01*
X2533Y4942D01*
X2533Y4942D01*
X2534Y4941D01*
X2534Y4940D01*
X2535Y4939D01*
X2536Y4938D01*
X2538Y4936D01*
X2539Y4934D01*
X2540Y4932D01*
X2541Y4929D01*
X2543Y4926D01*
X2544Y4923D01*
X2545Y4919D01*
X2546Y4916D01*
X2546Y4912D01*
X2547Y4907D01*
X2547Y4903D01*
Y4903D01*
Y4902D01*
Y4901D01*
Y4899D01*
X2547Y4898D01*
X2547Y4896D01*
Y4894D01*
X2546Y4891D01*
X2546Y4886D01*
X2544Y4881D01*
X2543Y4876D01*
X2541Y4871D01*
Y4871D01*
X2541Y4871D01*
X2540Y4870D01*
X2540Y4869D01*
X2538Y4867D01*
X2536Y4864D01*
X2534Y4862D01*
X2531Y4859D01*
X2527Y4856D01*
X2523Y4853D01*
X2523D01*
X2523Y4853D01*
X2522Y4852D01*
X2521Y4852D01*
X2520Y4852D01*
X2519Y4851D01*
X2516Y4850D01*
X2512Y4849D01*
X2508Y4848D01*
X2503Y4847D01*
X2498Y4847D01*
X2496D01*
X2494Y4847D01*
X2492Y4847D01*
X2490Y4848D01*
X2488Y4848D01*
X2485Y4848D01*
X2480Y4850D01*
X2477Y4851D01*
X2474Y4853D01*
X2471Y4854D01*
X2468Y4856D01*
X2465Y4858D01*
X2462Y4861D01*
X2462Y4861D01*
X2462Y4861D01*
X2461Y4862D01*
X2460Y4863D01*
X2459Y4865D01*
X2458Y4867D01*
X2457Y4869D01*
X2456Y4871D01*
X2454Y4874D01*
X2453Y4877D01*
X2452Y4880D01*
X2451Y4884D01*
X2450Y4888D01*
X2450Y4892D01*
X2449Y4897D01*
X2449Y4901D01*
Y4902D01*
Y4903D01*
X2449Y4904D01*
Y4906D01*
X2450Y4908D01*
X2450Y4911D01*
X2450Y4914D01*
X2451Y4918D01*
X2452Y4921D01*
X2453Y4924D01*
X2454Y4928D01*
X2456Y4932D01*
X2458Y4935D01*
X2460Y4938D01*
X2462Y4942D01*
X2465Y4944D01*
X2465Y4944D01*
X2466Y4945D01*
X2467Y4945D01*
X2468Y4946D01*
X2469Y4947D01*
X2471Y4948D01*
X2472Y4949D01*
X2474Y4950D01*
X2477Y4951D01*
X2479Y4952D01*
X2485Y4954D01*
X2491Y4956D01*
X2494Y4956D01*
X2498Y4956D01*
X2500D01*
X2502Y4956D01*
D02*
G37*
G36*
X2020D02*
X2022Y4956D01*
X2024Y4955D01*
X2026Y4955D01*
X2029Y4954D01*
X2031Y4953D01*
X2034Y4952D01*
X2037Y4951D01*
X2040Y4950D01*
X2043Y4948D01*
X2046Y4946D01*
X2049Y4944D01*
X2051Y4942D01*
X2051Y4941D01*
X2052Y4941D01*
X2052Y4940D01*
X2053Y4939D01*
X2054Y4937D01*
X2055Y4936D01*
X2056Y4934D01*
X2058Y4931D01*
X2059Y4928D01*
X2060Y4926D01*
X2061Y4922D01*
X2062Y4919D01*
X2063Y4915D01*
X2064Y4911D01*
X2064Y4906D01*
X2064Y4901D01*
Y4901D01*
Y4900D01*
Y4899D01*
X2064Y4897D01*
X1986D01*
Y4897D01*
Y4896D01*
X1986Y4895D01*
Y4894D01*
X1986Y4892D01*
X1987Y4891D01*
X1988Y4887D01*
X1989Y4883D01*
X1990Y4878D01*
X1993Y4874D01*
X1996Y4870D01*
X1996D01*
X1996Y4870D01*
X1997Y4869D01*
X1999Y4867D01*
X2002Y4866D01*
X2005Y4864D01*
X2009Y4863D01*
X2013Y4862D01*
X2015Y4862D01*
X2018Y4861D01*
X2019D01*
X2021Y4862D01*
X2024Y4862D01*
X2026Y4863D01*
X2029Y4863D01*
X2032Y4865D01*
X2034Y4866D01*
X2035Y4867D01*
X2036Y4867D01*
X2037Y4869D01*
X2038Y4870D01*
X2040Y4873D01*
X2042Y4876D01*
X2044Y4879D01*
X2045Y4883D01*
X2064Y4881D01*
Y4880D01*
X2064Y4880D01*
X2063Y4879D01*
X2063Y4878D01*
X2062Y4877D01*
X2062Y4875D01*
X2060Y4871D01*
X2058Y4867D01*
X2055Y4863D01*
X2052Y4859D01*
X2048Y4856D01*
X2047D01*
X2047Y4855D01*
X2046Y4855D01*
X2045Y4854D01*
X2044Y4853D01*
X2043Y4853D01*
X2041Y4852D01*
X2039Y4851D01*
X2037Y4850D01*
X2035Y4849D01*
X2030Y4848D01*
X2024Y4847D01*
X2018Y4847D01*
X2015D01*
X2014Y4847D01*
X2012Y4847D01*
X2010Y4848D01*
X2007Y4848D01*
X2005Y4848D01*
X1999Y4850D01*
X1996Y4851D01*
X1993Y4853D01*
X1990Y4854D01*
X1987Y4856D01*
X1984Y4858D01*
X1981Y4861D01*
X1981Y4861D01*
X1981Y4861D01*
X1980Y4862D01*
X1979Y4863D01*
X1978Y4865D01*
X1977Y4867D01*
X1976Y4869D01*
X1975Y4871D01*
X1973Y4874D01*
X1972Y4877D01*
X1971Y4880D01*
X1970Y4883D01*
X1969Y4887D01*
X1969Y4891D01*
X1968Y4896D01*
X1968Y4900D01*
Y4901D01*
Y4902D01*
Y4903D01*
X1968Y4905D01*
X1968Y4907D01*
X1969Y4909D01*
X1969Y4912D01*
X1970Y4915D01*
X1971Y4922D01*
X1972Y4925D01*
X1974Y4929D01*
X1975Y4932D01*
X1977Y4935D01*
X1979Y4938D01*
X1981Y4941D01*
X1982Y4942D01*
X1982Y4942D01*
X1983Y4943D01*
X1984Y4944D01*
X1985Y4945D01*
X1987Y4946D01*
X1989Y4947D01*
X1991Y4949D01*
X1993Y4950D01*
X1996Y4951D01*
X1999Y4953D01*
X2002Y4954D01*
X2005Y4955D01*
X2009Y4955D01*
X2013Y4956D01*
X2017Y4956D01*
X2019D01*
X2020Y4956D01*
D02*
G37*
G36*
X2676D02*
X2678Y4956D01*
X2680Y4955D01*
X2682Y4955D01*
X2684Y4954D01*
X2686Y4953D01*
X2689Y4952D01*
X2691Y4951D01*
X2694Y4949D01*
X2697Y4948D01*
X2699Y4946D01*
X2702Y4943D01*
X2704Y4941D01*
Y4954D01*
X2720D01*
Y4863D01*
Y4863D01*
Y4862D01*
Y4861D01*
Y4859D01*
X2720Y4857D01*
Y4855D01*
X2720Y4853D01*
X2719Y4850D01*
X2719Y4844D01*
X2718Y4838D01*
X2717Y4836D01*
X2717Y4833D01*
X2716Y4831D01*
X2715Y4829D01*
Y4829D01*
X2715Y4828D01*
X2714Y4827D01*
X2713Y4825D01*
X2711Y4823D01*
X2709Y4821D01*
X2706Y4818D01*
X2703Y4815D01*
X2699Y4813D01*
X2699D01*
X2699Y4813D01*
X2698Y4812D01*
X2697Y4812D01*
X2696Y4811D01*
X2695Y4811D01*
X2692Y4810D01*
X2688Y4809D01*
X2684Y4808D01*
X2678Y4807D01*
X2673Y4807D01*
X2671D01*
X2670Y4807D01*
X2668D01*
X2666Y4807D01*
X2664Y4807D01*
X2662Y4808D01*
X2657Y4809D01*
X2652Y4810D01*
X2647Y4812D01*
X2643Y4815D01*
X2642Y4816D01*
X2642Y4816D01*
X2641Y4817D01*
X2639Y4819D01*
X2637Y4822D01*
X2635Y4825D01*
X2633Y4829D01*
X2632Y4832D01*
X2632Y4835D01*
X2632Y4837D01*
Y4841D01*
X2649Y4838D01*
Y4838D01*
X2649Y4837D01*
X2649Y4836D01*
X2650Y4834D01*
X2651Y4832D01*
X2652Y4830D01*
X2653Y4828D01*
X2655Y4827D01*
X2655Y4826D01*
X2656Y4826D01*
X2657Y4825D01*
X2659Y4824D01*
X2662Y4823D01*
X2665Y4822D01*
X2669Y4822D01*
X2673Y4821D01*
X2675D01*
X2677Y4822D01*
X2680Y4822D01*
X2683Y4823D01*
X2686Y4823D01*
X2689Y4825D01*
X2692Y4826D01*
X2692Y4827D01*
X2693Y4827D01*
X2694Y4828D01*
X2695Y4830D01*
X2697Y4832D01*
X2698Y4834D01*
X2700Y4837D01*
X2701Y4840D01*
Y4840D01*
X2701Y4841D01*
X2701Y4843D01*
X2702Y4845D01*
X2702Y4846D01*
Y4848D01*
X2702Y4850D01*
Y4852D01*
Y4854D01*
X2702Y4857D01*
Y4860D01*
Y4863D01*
X2702Y4863D01*
X2702Y4862D01*
X2701Y4862D01*
X2700Y4861D01*
X2699Y4860D01*
X2698Y4858D01*
X2696Y4857D01*
X2694Y4856D01*
X2690Y4853D01*
X2685Y4851D01*
X2682Y4850D01*
X2679Y4850D01*
X2676Y4849D01*
X2673Y4849D01*
X2672D01*
X2671Y4849D01*
X2670D01*
X2668Y4849D01*
X2666Y4850D01*
X2663Y4850D01*
X2661Y4851D01*
X2658Y4852D01*
X2655Y4853D01*
X2653Y4854D01*
X2650Y4856D01*
X2647Y4857D01*
X2644Y4859D01*
X2642Y4862D01*
X2640Y4864D01*
X2639Y4865D01*
X2639Y4865D01*
X2639Y4866D01*
X2638Y4867D01*
X2637Y4869D01*
X2636Y4871D01*
X2635Y4873D01*
X2634Y4875D01*
X2633Y4878D01*
X2632Y4881D01*
X2631Y4883D01*
X2630Y4887D01*
X2628Y4894D01*
X2628Y4898D01*
X2628Y4902D01*
Y4902D01*
Y4902D01*
Y4903D01*
Y4904D01*
X2628Y4906D01*
Y4907D01*
X2629Y4911D01*
X2629Y4915D01*
X2630Y4920D01*
X2632Y4924D01*
X2633Y4929D01*
Y4929D01*
X2634Y4930D01*
X2634Y4931D01*
X2634Y4931D01*
X2636Y4934D01*
X2637Y4937D01*
X2640Y4940D01*
X2642Y4943D01*
X2645Y4946D01*
X2649Y4949D01*
X2649D01*
X2649Y4949D01*
X2650Y4949D01*
X2651Y4950D01*
X2653Y4951D01*
X2656Y4952D01*
X2659Y4954D01*
X2664Y4955D01*
X2668Y4956D01*
X2673Y4956D01*
X2675D01*
X2676Y4956D01*
D02*
G37*
G36*
X857Y4443D02*
Y4443D01*
Y4442D01*
Y4442D01*
Y4441D01*
X857Y4440D01*
Y4438D01*
X857Y4436D01*
X857Y4435D01*
X857Y4431D01*
X856Y4427D01*
X855Y4423D01*
X855Y4422D01*
X854Y4420D01*
Y4420D01*
X854Y4420D01*
X854Y4419D01*
X853Y4419D01*
X852Y4417D01*
X851Y4415D01*
X850Y4413D01*
X848Y4411D01*
X845Y4408D01*
X842Y4406D01*
X842D01*
X842Y4406D01*
X841Y4406D01*
X841Y4405D01*
X840Y4405D01*
X839Y4405D01*
X838Y4404D01*
X836Y4404D01*
X835Y4403D01*
X833Y4403D01*
X831Y4402D01*
X829Y4402D01*
X827Y4402D01*
X825Y4401D01*
X820Y4401D01*
X819D01*
X818Y4401D01*
X816D01*
X815Y4401D01*
X814Y4401D01*
X812Y4402D01*
X809Y4402D01*
X805Y4403D01*
X801Y4404D01*
X798Y4406D01*
X798D01*
X797Y4406D01*
X797Y4406D01*
X796Y4406D01*
X795Y4407D01*
X793Y4409D01*
X791Y4411D01*
X789Y4413D01*
X787Y4416D01*
X786Y4419D01*
Y4419D01*
X785Y4419D01*
X785Y4420D01*
X785Y4421D01*
X785Y4422D01*
X784Y4423D01*
X784Y4424D01*
X784Y4425D01*
X783Y4427D01*
X783Y4429D01*
X783Y4431D01*
X782Y4433D01*
X782Y4435D01*
X782Y4438D01*
X782Y4440D01*
Y4443D01*
Y4499D01*
X795D01*
Y4443D01*
Y4443D01*
Y4443D01*
Y4442D01*
Y4441D01*
X795Y4440D01*
Y4439D01*
X795Y4436D01*
X795Y4433D01*
X796Y4430D01*
X796Y4427D01*
X796Y4426D01*
X797Y4425D01*
X797Y4424D01*
X797Y4424D01*
X798Y4423D01*
X799Y4421D01*
X800Y4420D01*
X801Y4418D01*
X803Y4417D01*
X805Y4416D01*
X805Y4416D01*
X806Y4415D01*
X807Y4415D01*
X809Y4414D01*
X811Y4413D01*
X813Y4413D01*
X816Y4413D01*
X819Y4412D01*
X820D01*
X821Y4413D01*
X822D01*
X823Y4413D01*
X826Y4413D01*
X830Y4414D01*
X833Y4415D01*
X836Y4417D01*
X837Y4418D01*
X839Y4419D01*
X839Y4419D01*
X839Y4419D01*
X839Y4419D01*
X840Y4420D01*
X840Y4421D01*
X841Y4422D01*
X841Y4423D01*
X842Y4424D01*
X842Y4426D01*
X843Y4427D01*
X843Y4430D01*
X844Y4432D01*
X844Y4434D01*
X844Y4437D01*
X845Y4440D01*
Y4443D01*
Y4499D01*
X857D01*
Y4443D01*
D02*
G37*
G36*
X918Y4403D02*
X906D01*
Y4478D01*
X906Y4478D01*
X905Y4477D01*
X905Y4476D01*
X903Y4475D01*
X902Y4474D01*
X900Y4473D01*
X898Y4471D01*
X895Y4469D01*
X895D01*
X895Y4469D01*
X894Y4469D01*
X893Y4468D01*
X891Y4467D01*
X889Y4466D01*
X887Y4465D01*
X885Y4464D01*
X883Y4464D01*
Y4475D01*
X883D01*
X883Y4475D01*
X884Y4475D01*
X884Y4476D01*
X885Y4476D01*
X886Y4477D01*
X889Y4478D01*
X891Y4480D01*
X894Y4482D01*
X897Y4484D01*
X900Y4486D01*
X900Y4486D01*
X900Y4486D01*
X901Y4487D01*
X901Y4487D01*
X902Y4489D01*
X904Y4490D01*
X906Y4492D01*
X908Y4494D01*
X909Y4497D01*
X910Y4499D01*
X918D01*
Y4403D01*
D02*
G37*
G36*
X2005Y3552D02*
X1994D01*
Y3627D01*
X1993Y3627D01*
X1993Y3626D01*
X1992Y3625D01*
X1991Y3624D01*
X1989Y3623D01*
X1987Y3622D01*
X1985Y3620D01*
X1982Y3619D01*
X1982D01*
X1982Y3619D01*
X1981Y3618D01*
X1980Y3617D01*
X1978Y3616D01*
X1976Y3615D01*
X1974Y3614D01*
X1972Y3614D01*
X1970Y3613D01*
Y3624D01*
X1970D01*
X1970Y3624D01*
X1971Y3624D01*
X1972Y3625D01*
X1973Y3625D01*
X1974Y3626D01*
X1976Y3627D01*
X1979Y3629D01*
X1981Y3631D01*
X1984Y3633D01*
X1987Y3635D01*
X1987Y3635D01*
X1988Y3636D01*
X1988Y3636D01*
X1988Y3636D01*
X1990Y3638D01*
X1991Y3639D01*
X1993Y3641D01*
X1995Y3644D01*
X1996Y3646D01*
X1998Y3648D01*
X2005D01*
Y3552D01*
D02*
G37*
G36*
X1903Y3563D02*
X1951D01*
Y3552D01*
X1891D01*
Y3648D01*
X1903D01*
Y3563D01*
D02*
G37*
G36*
X1840Y3648D02*
X1841D01*
X1844Y3647D01*
X1847Y3647D01*
X1851Y3647D01*
X1854Y3646D01*
X1855Y3646D01*
X1857Y3645D01*
X1857D01*
X1857Y3645D01*
X1858Y3645D01*
X1859Y3644D01*
X1860Y3643D01*
X1862Y3642D01*
X1864Y3640D01*
X1866Y3638D01*
X1867Y3636D01*
Y3636D01*
X1867Y3636D01*
X1868Y3635D01*
X1869Y3633D01*
X1869Y3632D01*
X1870Y3630D01*
X1871Y3627D01*
X1871Y3624D01*
X1871Y3622D01*
Y3621D01*
Y3621D01*
Y3621D01*
X1871Y3620D01*
Y3619D01*
X1871Y3618D01*
X1870Y3616D01*
X1870Y3613D01*
X1869Y3610D01*
X1867Y3607D01*
X1866Y3606D01*
X1865Y3604D01*
X1864Y3604D01*
X1864Y3604D01*
X1864Y3604D01*
X1863Y3603D01*
X1863Y3603D01*
X1862Y3602D01*
X1861Y3601D01*
X1860Y3600D01*
X1858Y3600D01*
X1857Y3599D01*
X1855Y3598D01*
X1853Y3598D01*
X1851Y3597D01*
X1849Y3596D01*
X1847Y3596D01*
X1844Y3595D01*
X1845Y3595D01*
X1845Y3595D01*
X1846Y3595D01*
X1847Y3594D01*
X1850Y3592D01*
X1851Y3591D01*
X1852Y3591D01*
X1852Y3590D01*
X1853Y3590D01*
X1854Y3589D01*
X1855Y3587D01*
X1857Y3585D01*
X1859Y3583D01*
X1860Y3581D01*
X1862Y3578D01*
X1879Y3552D01*
X1863D01*
X1850Y3572D01*
Y3572D01*
X1850Y3572D01*
X1850Y3573D01*
X1850Y3573D01*
X1849Y3575D01*
X1847Y3577D01*
X1846Y3579D01*
X1844Y3581D01*
X1843Y3583D01*
X1841Y3585D01*
X1841Y3585D01*
X1841Y3586D01*
X1840Y3586D01*
X1839Y3587D01*
X1837Y3590D01*
X1836Y3590D01*
X1835Y3591D01*
X1835Y3591D01*
X1834Y3592D01*
X1834Y3592D01*
X1833Y3592D01*
X1832Y3593D01*
X1831Y3593D01*
X1829Y3594D01*
X1829D01*
X1829Y3594D01*
X1828D01*
X1827Y3594D01*
X1826Y3594D01*
X1825D01*
X1824Y3594D01*
X1807D01*
Y3552D01*
X1795D01*
Y3648D01*
X1839D01*
X1840Y3648D01*
D02*
G37*
G36*
X2677Y337D02*
X2677Y337D01*
X2677Y337D01*
X2676Y336D01*
X2676Y336D01*
X2675Y335D01*
X2674Y334D01*
X2673Y332D01*
X2672Y331D01*
X2670Y329D01*
X2669Y327D01*
X2667Y325D01*
X2666Y322D01*
X2664Y320D01*
X2662Y317D01*
X2661Y314D01*
X2659Y312D01*
X2659Y311D01*
X2659Y311D01*
X2658Y310D01*
X2658Y309D01*
X2657Y307D01*
X2656Y306D01*
X2655Y304D01*
X2654Y301D01*
X2653Y299D01*
X2652Y296D01*
X2651Y294D01*
X2650Y291D01*
X2647Y285D01*
X2645Y278D01*
Y278D01*
X2645Y278D01*
X2645Y277D01*
X2645Y276D01*
X2644Y275D01*
X2644Y274D01*
X2644Y272D01*
X2643Y271D01*
X2643Y269D01*
X2643Y267D01*
X2642Y262D01*
X2641Y257D01*
X2641Y252D01*
X2629D01*
Y252D01*
Y253D01*
Y253D01*
X2629Y254D01*
Y255D01*
X2629Y256D01*
X2629Y258D01*
X2629Y260D01*
X2630Y262D01*
X2630Y264D01*
X2630Y266D01*
X2631Y268D01*
X2631Y271D01*
X2632Y274D01*
X2633Y279D01*
Y279D01*
X2633Y280D01*
X2633Y281D01*
X2634Y282D01*
X2634Y283D01*
X2635Y285D01*
X2635Y287D01*
X2636Y289D01*
X2637Y291D01*
X2638Y294D01*
X2640Y299D01*
X2642Y305D01*
X2645Y310D01*
X2645Y310D01*
X2646Y311D01*
X2646Y312D01*
X2647Y313D01*
X2647Y314D01*
X2648Y315D01*
X2649Y317D01*
X2650Y319D01*
X2653Y323D01*
X2656Y327D01*
X2659Y331D01*
X2662Y335D01*
X2615D01*
Y347D01*
X2677D01*
Y337D01*
D02*
G37*
G36*
X2568Y348D02*
X2569D01*
X2572Y348D01*
X2575Y347D01*
X2579Y347D01*
X2582Y346D01*
X2583Y346D01*
X2585Y345D01*
X2585D01*
X2585Y345D01*
X2586Y345D01*
X2587Y344D01*
X2588Y343D01*
X2590Y342D01*
X2592Y340D01*
X2594Y338D01*
X2595Y336D01*
Y336D01*
X2595Y336D01*
X2596Y335D01*
X2597Y334D01*
X2597Y332D01*
X2598Y330D01*
X2599Y327D01*
X2599Y325D01*
X2599Y322D01*
Y322D01*
Y321D01*
Y321D01*
X2599Y320D01*
Y319D01*
X2599Y318D01*
X2598Y316D01*
X2598Y313D01*
X2597Y310D01*
X2595Y307D01*
X2594Y306D01*
X2593Y304D01*
X2593Y304D01*
X2592Y304D01*
X2592Y304D01*
X2591Y303D01*
X2591Y303D01*
X2590Y302D01*
X2589Y302D01*
X2588Y301D01*
X2586Y300D01*
X2585Y299D01*
X2583Y298D01*
X2581Y298D01*
X2579Y297D01*
X2577Y297D01*
X2575Y296D01*
X2572Y296D01*
X2573Y296D01*
X2573Y295D01*
X2574Y295D01*
X2575Y294D01*
X2578Y293D01*
X2579Y292D01*
X2580Y291D01*
X2580Y291D01*
X2581Y290D01*
X2582Y289D01*
X2583Y287D01*
X2585Y285D01*
X2587Y283D01*
X2588Y281D01*
X2590Y278D01*
X2607Y252D01*
X2591D01*
X2579Y272D01*
Y272D01*
X2578Y272D01*
X2578Y273D01*
X2578Y273D01*
X2577Y275D01*
X2575Y277D01*
X2574Y279D01*
X2572Y281D01*
X2571Y283D01*
X2569Y285D01*
X2569Y285D01*
X2569Y286D01*
X2568Y287D01*
X2567Y288D01*
X2565Y290D01*
X2564Y291D01*
X2563Y292D01*
X2563Y292D01*
X2562Y292D01*
X2562Y292D01*
X2561Y293D01*
X2560Y293D01*
X2559Y293D01*
X2557Y294D01*
X2557D01*
X2557Y294D01*
X2556D01*
X2555Y294D01*
X2554Y294D01*
X2553D01*
X2552Y295D01*
X2535D01*
Y252D01*
X2523D01*
Y348D01*
X2567D01*
X2568Y348D01*
D02*
G37*
G36*
X3100Y349D02*
X3101D01*
X3102Y349D01*
X3105Y348D01*
X3108Y347D01*
X3111Y346D01*
X3114Y345D01*
X3116Y344D01*
X3117Y343D01*
X3117Y343D01*
X3117Y342D01*
X3118Y342D01*
X3118Y342D01*
X3119Y341D01*
X3119Y340D01*
X3121Y338D01*
X3122Y336D01*
X3124Y333D01*
X3125Y329D01*
X3126Y325D01*
X3114Y324D01*
Y324D01*
X3114Y324D01*
X3114Y325D01*
X3113Y327D01*
X3113Y328D01*
X3112Y330D01*
X3111Y331D01*
X3110Y333D01*
X3109Y334D01*
X3109Y334D01*
X3109Y335D01*
X3108Y336D01*
X3106Y337D01*
X3105Y338D01*
X3103Y338D01*
X3100Y339D01*
X3098Y339D01*
X3097D01*
X3096Y339D01*
X3094Y339D01*
X3093Y338D01*
X3091Y338D01*
X3089Y337D01*
X3088Y336D01*
X3087Y336D01*
X3087Y335D01*
X3086Y334D01*
X3085Y333D01*
X3083Y331D01*
X3082Y329D01*
X3080Y327D01*
X3079Y324D01*
Y324D01*
X3079Y324D01*
X3079Y323D01*
X3078Y323D01*
X3078Y322D01*
X3078Y321D01*
X3078Y320D01*
X3077Y319D01*
X3077Y317D01*
X3077Y315D01*
X3076Y314D01*
X3076Y312D01*
X3076Y309D01*
X3076Y307D01*
X3076Y305D01*
Y302D01*
X3076Y302D01*
X3076Y303D01*
X3077Y304D01*
X3079Y306D01*
X3080Y307D01*
X3082Y309D01*
X3084Y310D01*
X3086Y312D01*
X3086D01*
X3086Y312D01*
X3087Y312D01*
X3088Y313D01*
X3090Y313D01*
X3092Y314D01*
X3094Y314D01*
X3096Y315D01*
X3099Y315D01*
X3100D01*
X3101Y315D01*
X3102Y315D01*
X3103Y314D01*
X3105Y314D01*
X3106Y314D01*
X3109Y313D01*
X3111Y312D01*
X3112Y311D01*
X3114Y310D01*
X3116Y309D01*
X3118Y308D01*
X3119Y306D01*
X3119Y306D01*
X3119Y306D01*
X3120Y305D01*
X3120Y305D01*
X3121Y304D01*
X3122Y303D01*
X3122Y301D01*
X3123Y300D01*
X3124Y299D01*
X3125Y297D01*
X3125Y295D01*
X3126Y293D01*
X3127Y291D01*
X3127Y289D01*
X3127Y286D01*
X3127Y284D01*
Y284D01*
Y283D01*
Y283D01*
Y282D01*
X3127Y281D01*
Y281D01*
X3127Y278D01*
X3126Y276D01*
X3126Y273D01*
X3125Y270D01*
X3123Y267D01*
Y267D01*
X3123Y267D01*
X3123Y266D01*
X3123Y266D01*
X3122Y264D01*
X3121Y262D01*
X3119Y261D01*
X3117Y259D01*
X3115Y257D01*
X3113Y255D01*
X3113D01*
X3112Y255D01*
X3112Y255D01*
X3111Y254D01*
X3110Y254D01*
X3108Y253D01*
X3106Y252D01*
X3103Y252D01*
X3100Y251D01*
X3097Y251D01*
X3096D01*
X3096Y251D01*
X3095D01*
X3093Y251D01*
X3092Y252D01*
X3090Y252D01*
X3089Y252D01*
X3087Y253D01*
X3085Y254D01*
X3083Y254D01*
X3081Y256D01*
X3079Y257D01*
X3077Y258D01*
X3075Y260D01*
X3073Y262D01*
X3073Y262D01*
X3073Y262D01*
X3072Y263D01*
X3072Y264D01*
X3071Y265D01*
X3070Y267D01*
X3069Y268D01*
X3069Y270D01*
X3068Y273D01*
X3067Y275D01*
X3066Y278D01*
X3065Y281D01*
X3065Y285D01*
X3064Y289D01*
X3064Y293D01*
X3064Y297D01*
Y298D01*
Y298D01*
Y298D01*
Y299D01*
X3064Y300D01*
Y302D01*
X3064Y304D01*
X3064Y307D01*
X3065Y310D01*
X3065Y313D01*
X3066Y316D01*
X3066Y320D01*
X3067Y323D01*
X3068Y326D01*
X3069Y329D01*
X3071Y333D01*
X3072Y335D01*
X3074Y338D01*
X3074Y338D01*
X3075Y338D01*
X3075Y339D01*
X3076Y340D01*
X3077Y341D01*
X3078Y341D01*
X3079Y343D01*
X3081Y343D01*
X3082Y344D01*
X3084Y346D01*
X3086Y346D01*
X3088Y347D01*
X3090Y348D01*
X3093Y349D01*
X3096Y349D01*
X3098Y349D01*
X3100D01*
X3100Y349D01*
D02*
G37*
G36*
X3018Y348D02*
X3019D01*
X3022Y348D01*
X3025Y348D01*
X3029Y347D01*
X3032Y347D01*
X3033Y346D01*
X3035Y346D01*
X3035D01*
X3035Y346D01*
X3036Y345D01*
X3037Y345D01*
X3038Y344D01*
X3040Y343D01*
X3042Y341D01*
X3044Y339D01*
X3045Y337D01*
Y337D01*
X3045Y337D01*
X3046Y336D01*
X3047Y334D01*
X3047Y333D01*
X3048Y330D01*
X3049Y328D01*
X3049Y325D01*
X3049Y322D01*
Y322D01*
Y322D01*
Y321D01*
X3049Y321D01*
Y320D01*
X3049Y319D01*
X3048Y316D01*
X3048Y314D01*
X3047Y311D01*
X3045Y308D01*
X3044Y306D01*
X3043Y305D01*
X3043Y305D01*
X3042Y305D01*
X3042Y304D01*
X3041Y304D01*
X3041Y303D01*
X3040Y303D01*
X3039Y302D01*
X3038Y301D01*
X3036Y301D01*
X3035Y300D01*
X3033Y299D01*
X3031Y298D01*
X3029Y298D01*
X3027Y297D01*
X3025Y297D01*
X3022Y296D01*
X3023Y296D01*
X3023Y296D01*
X3024Y295D01*
X3025Y295D01*
X3028Y293D01*
X3029Y292D01*
X3030Y291D01*
X3030Y291D01*
X3031Y290D01*
X3032Y289D01*
X3033Y288D01*
X3035Y286D01*
X3037Y284D01*
X3038Y281D01*
X3040Y279D01*
X3057Y253D01*
X3041D01*
X3029Y273D01*
Y273D01*
X3028Y273D01*
X3028Y273D01*
X3028Y274D01*
X3027Y276D01*
X3025Y277D01*
X3024Y280D01*
X3022Y282D01*
X3021Y284D01*
X3019Y286D01*
X3019Y286D01*
X3019Y286D01*
X3018Y287D01*
X3017Y288D01*
X3015Y290D01*
X3014Y291D01*
X3013Y292D01*
X3013Y292D01*
X3012Y292D01*
X3012Y293D01*
X3011Y293D01*
X3010Y294D01*
X3009Y294D01*
X3007Y295D01*
X3007D01*
X3007Y295D01*
X3006D01*
X3005Y295D01*
X3004Y295D01*
X3003D01*
X3002Y295D01*
X2985D01*
Y253D01*
X2973D01*
Y349D01*
X3017D01*
X3018Y348D01*
D02*
G37*
G36*
X3573Y336D02*
X3535D01*
X3530Y310D01*
X3530Y311D01*
X3530Y311D01*
X3530Y311D01*
X3531Y311D01*
X3532Y312D01*
X3533Y312D01*
X3535Y313D01*
X3538Y315D01*
X3541Y316D01*
X3544Y316D01*
X3546Y317D01*
X3549D01*
X3550Y316D01*
X3551Y316D01*
X3552Y316D01*
X3554Y316D01*
X3555Y315D01*
X3558Y314D01*
X3560Y314D01*
X3562Y313D01*
X3564Y312D01*
X3566Y311D01*
X3567Y309D01*
X3569Y308D01*
X3569Y308D01*
X3569Y307D01*
X3570Y307D01*
X3570Y306D01*
X3571Y305D01*
X3572Y304D01*
X3573Y303D01*
X3573Y302D01*
X3574Y300D01*
X3575Y298D01*
X3576Y297D01*
X3576Y295D01*
X3577Y293D01*
X3577Y290D01*
X3578Y288D01*
X3578Y285D01*
Y285D01*
Y285D01*
Y284D01*
X3578Y283D01*
X3577Y282D01*
X3577Y281D01*
X3577Y279D01*
X3577Y278D01*
X3576Y274D01*
X3575Y270D01*
X3574Y268D01*
X3573Y267D01*
X3571Y265D01*
X3570Y263D01*
X3570Y263D01*
X3570Y262D01*
X3569Y262D01*
X3568Y261D01*
X3567Y260D01*
X3566Y259D01*
X3565Y258D01*
X3563Y257D01*
X3562Y256D01*
X3560Y255D01*
X3558Y254D01*
X3556Y253D01*
X3553Y252D01*
X3551Y252D01*
X3548Y251D01*
X3545Y251D01*
X3544D01*
X3543Y251D01*
X3542Y251D01*
X3540Y252D01*
X3539Y252D01*
X3537Y252D01*
X3534Y253D01*
X3530Y254D01*
X3528Y255D01*
X3527Y256D01*
X3525Y257D01*
X3523Y258D01*
X3523Y259D01*
X3523Y259D01*
X3523Y259D01*
X3522Y260D01*
X3521Y260D01*
X3521Y261D01*
X3520Y262D01*
X3519Y264D01*
X3518Y265D01*
X3518Y266D01*
X3516Y270D01*
X3515Y274D01*
X3514Y276D01*
X3514Y278D01*
X3526Y279D01*
Y279D01*
Y279D01*
X3527Y278D01*
X3527Y277D01*
X3527Y276D01*
X3528Y274D01*
X3528Y272D01*
X3530Y269D01*
X3531Y267D01*
X3533Y265D01*
X3533Y265D01*
X3533Y265D01*
X3535Y264D01*
X3536Y263D01*
X3538Y262D01*
X3540Y262D01*
X3542Y261D01*
X3545Y261D01*
X3546D01*
X3546Y261D01*
X3548Y261D01*
X3550Y262D01*
X3552Y262D01*
X3555Y264D01*
X3557Y265D01*
X3558Y266D01*
X3559Y267D01*
X3559Y267D01*
X3560Y268D01*
X3560Y268D01*
X3560Y268D01*
X3561Y270D01*
X3562Y272D01*
X3563Y274D01*
X3564Y277D01*
X3565Y281D01*
X3565Y282D01*
Y284D01*
Y284D01*
Y285D01*
Y285D01*
X3565Y286D01*
Y287D01*
X3565Y288D01*
X3565Y290D01*
X3564Y293D01*
X3563Y295D01*
X3562Y298D01*
X3560Y300D01*
Y300D01*
X3559Y300D01*
X3559Y301D01*
X3557Y302D01*
X3556Y303D01*
X3553Y304D01*
X3551Y305D01*
X3548Y306D01*
X3546Y306D01*
X3544D01*
X3543Y306D01*
X3541Y306D01*
X3540Y305D01*
X3538Y305D01*
X3536Y304D01*
X3534Y303D01*
X3534Y303D01*
X3534Y303D01*
X3533Y302D01*
X3532Y302D01*
X3531Y301D01*
X3529Y299D01*
X3528Y298D01*
X3527Y297D01*
X3516Y298D01*
X3525Y348D01*
X3573D01*
Y336D01*
D02*
G37*
G36*
X3468Y349D02*
X3469D01*
X3472Y349D01*
X3475Y348D01*
X3478Y348D01*
X3481Y347D01*
X3483Y347D01*
X3484Y346D01*
X3484D01*
X3485Y346D01*
X3485Y346D01*
X3487Y345D01*
X3488Y344D01*
X3490Y343D01*
X3492Y341D01*
X3493Y339D01*
X3495Y337D01*
Y337D01*
X3495Y337D01*
X3496Y336D01*
X3496Y335D01*
X3497Y333D01*
X3498Y331D01*
X3498Y328D01*
X3499Y326D01*
X3499Y323D01*
Y322D01*
Y322D01*
Y322D01*
X3499Y321D01*
Y320D01*
X3499Y319D01*
X3498Y317D01*
X3497Y314D01*
X3496Y311D01*
X3495Y308D01*
X3493Y307D01*
X3492Y305D01*
X3492Y305D01*
X3492Y305D01*
X3492Y305D01*
X3491Y304D01*
X3490Y304D01*
X3490Y303D01*
X3488Y302D01*
X3487Y302D01*
X3486Y301D01*
X3484Y300D01*
X3483Y299D01*
X3481Y299D01*
X3479Y298D01*
X3477Y297D01*
X3474Y297D01*
X3472Y297D01*
X3472Y296D01*
X3473Y296D01*
X3474Y296D01*
X3475Y295D01*
X3477Y293D01*
X3478Y293D01*
X3480Y292D01*
X3480Y291D01*
X3481Y291D01*
X3482Y290D01*
X3483Y288D01*
X3485Y286D01*
X3486Y284D01*
X3488Y282D01*
X3490Y279D01*
X3507Y253D01*
X3491D01*
X3478Y273D01*
Y273D01*
X3478Y273D01*
X3478Y274D01*
X3477Y274D01*
X3476Y276D01*
X3475Y278D01*
X3473Y280D01*
X3472Y282D01*
X3470Y284D01*
X3469Y286D01*
X3469Y286D01*
X3468Y287D01*
X3468Y288D01*
X3467Y288D01*
X3465Y291D01*
X3464Y292D01*
X3462Y292D01*
X3462Y293D01*
X3462Y293D01*
X3462Y293D01*
X3461Y293D01*
X3460Y294D01*
X3459Y294D01*
X3457Y295D01*
X3457D01*
X3456Y295D01*
X3456D01*
X3455Y295D01*
X3454Y295D01*
X3453D01*
X3451Y295D01*
X3435D01*
Y253D01*
X3422D01*
Y349D01*
X3467D01*
X3468Y349D01*
D02*
G37*
G36*
X664Y4186D02*
X677D01*
Y4175D01*
X664D01*
Y4152D01*
X652D01*
Y4175D01*
X611D01*
Y4186D01*
X655Y4248D01*
X664D01*
Y4186D01*
D02*
G37*
G36*
X568Y4248D02*
X570D01*
X573Y4248D01*
X576Y4247D01*
X579Y4247D01*
X582Y4246D01*
X584Y4246D01*
X585Y4245D01*
X585D01*
X585Y4245D01*
X586Y4245D01*
X587Y4244D01*
X589Y4243D01*
X590Y4242D01*
X592Y4240D01*
X594Y4238D01*
X595Y4236D01*
Y4236D01*
X596Y4236D01*
X596Y4235D01*
X597Y4234D01*
X598Y4232D01*
X598Y4230D01*
X599Y4227D01*
X599Y4225D01*
X600Y4222D01*
Y4222D01*
Y4221D01*
Y4221D01*
X599Y4220D01*
Y4219D01*
X599Y4218D01*
X599Y4216D01*
X598Y4213D01*
X597Y4210D01*
X595Y4207D01*
X594Y4206D01*
X593Y4204D01*
X593Y4204D01*
X593Y4204D01*
X592Y4204D01*
X592Y4203D01*
X591Y4203D01*
X590Y4202D01*
X589Y4202D01*
X588Y4201D01*
X586Y4200D01*
X585Y4199D01*
X583Y4198D01*
X581Y4198D01*
X579Y4197D01*
X577Y4197D01*
X575Y4196D01*
X572Y4196D01*
X573Y4196D01*
X573Y4195D01*
X574Y4195D01*
X575Y4194D01*
X578Y4193D01*
X579Y4192D01*
X580Y4191D01*
X580Y4191D01*
X581Y4190D01*
X582Y4189D01*
X584Y4187D01*
X585Y4185D01*
X587Y4183D01*
X589Y4181D01*
X591Y4178D01*
X607Y4152D01*
X591D01*
X579Y4172D01*
Y4172D01*
X578Y4172D01*
X578Y4173D01*
X578Y4173D01*
X577Y4175D01*
X576Y4177D01*
X574Y4179D01*
X572Y4181D01*
X571Y4183D01*
X570Y4185D01*
X569Y4185D01*
X569Y4186D01*
X568Y4187D01*
X567Y4188D01*
X565Y4190D01*
X564Y4191D01*
X563Y4192D01*
X563Y4192D01*
X563Y4192D01*
X562Y4192D01*
X561Y4193D01*
X560Y4193D01*
X559Y4193D01*
X557Y4194D01*
X557D01*
X557Y4194D01*
X556D01*
X556Y4194D01*
X555Y4194D01*
X553D01*
X552Y4195D01*
X536D01*
Y4152D01*
X523D01*
Y4248D01*
X567D01*
X568Y4248D01*
D02*
G37*
G36*
X3847Y3899D02*
X3849Y3899D01*
X3851Y3898D01*
X3854Y3897D01*
X3856Y3897D01*
X3859Y3896D01*
X3859D01*
X3859Y3895D01*
X3860Y3895D01*
X3861Y3894D01*
X3863Y3893D01*
X3864Y3892D01*
X3866Y3890D01*
X3868Y3888D01*
X3869Y3886D01*
X3869Y3886D01*
X3870Y3885D01*
X3870Y3884D01*
X3871Y3883D01*
X3872Y3881D01*
X3872Y3879D01*
X3873Y3876D01*
X3873Y3874D01*
Y3874D01*
Y3873D01*
X3873Y3872D01*
X3872Y3870D01*
X3872Y3869D01*
X3871Y3867D01*
X3870Y3865D01*
X3869Y3863D01*
X3869Y3862D01*
X3869Y3862D01*
X3868Y3861D01*
X3867Y3860D01*
X3865Y3859D01*
X3864Y3857D01*
X3862Y3856D01*
X3859Y3855D01*
X3859D01*
X3860Y3855D01*
X3860Y3854D01*
X3861Y3854D01*
X3862Y3854D01*
X3864Y3853D01*
X3866Y3852D01*
X3869Y3850D01*
X3871Y3849D01*
X3873Y3846D01*
X3873Y3846D01*
X3873Y3845D01*
X3874Y3844D01*
X3875Y3842D01*
X3876Y3840D01*
X3877Y3837D01*
X3877Y3834D01*
X3877Y3831D01*
Y3831D01*
Y3830D01*
Y3830D01*
X3877Y3829D01*
X3877Y3828D01*
X3877Y3826D01*
X3877Y3825D01*
X3876Y3824D01*
X3875Y3820D01*
X3874Y3818D01*
X3874Y3817D01*
X3872Y3815D01*
X3871Y3813D01*
X3870Y3811D01*
X3868Y3810D01*
X3868Y3810D01*
X3868Y3809D01*
X3867Y3809D01*
X3866Y3808D01*
X3866Y3808D01*
X3864Y3807D01*
X3863Y3806D01*
X3862Y3805D01*
X3860Y3805D01*
X3858Y3804D01*
X3857Y3803D01*
X3855Y3802D01*
X3852Y3802D01*
X3850Y3801D01*
X3848Y3801D01*
X3845Y3801D01*
X3844D01*
X3843Y3801D01*
X3842Y3801D01*
X3840Y3801D01*
X3839Y3802D01*
X3838Y3802D01*
X3834Y3803D01*
X3831Y3804D01*
X3829Y3805D01*
X3827Y3806D01*
X3826Y3807D01*
X3824Y3808D01*
X3824Y3809D01*
X3824Y3809D01*
X3823Y3809D01*
X3823Y3810D01*
X3822Y3811D01*
X3821Y3812D01*
X3821Y3812D01*
X3820Y3814D01*
X3819Y3815D01*
X3818Y3817D01*
X3817Y3820D01*
X3815Y3824D01*
X3815Y3826D01*
X3815Y3828D01*
X3826Y3830D01*
Y3829D01*
X3826Y3829D01*
X3827Y3829D01*
X3827Y3828D01*
X3827Y3827D01*
X3827Y3826D01*
X3828Y3824D01*
X3829Y3822D01*
X3830Y3819D01*
X3831Y3817D01*
X3833Y3815D01*
X3833Y3815D01*
X3834Y3814D01*
X3835Y3814D01*
X3836Y3813D01*
X3838Y3812D01*
X3840Y3811D01*
X3843Y3811D01*
X3845Y3811D01*
X3846D01*
X3846Y3811D01*
X3848Y3811D01*
X3850Y3811D01*
X3852Y3812D01*
X3855Y3813D01*
X3857Y3814D01*
X3859Y3816D01*
X3859Y3817D01*
X3860Y3817D01*
X3861Y3819D01*
X3862Y3820D01*
X3863Y3822D01*
X3864Y3825D01*
X3865Y3828D01*
X3865Y3831D01*
Y3831D01*
Y3831D01*
Y3831D01*
X3865Y3832D01*
X3865Y3834D01*
X3864Y3835D01*
X3864Y3838D01*
X3863Y3840D01*
X3861Y3842D01*
X3859Y3844D01*
X3859Y3844D01*
X3859Y3845D01*
X3857Y3846D01*
X3856Y3847D01*
X3854Y3848D01*
X3852Y3849D01*
X3849Y3849D01*
X3846Y3849D01*
X3845D01*
X3844Y3849D01*
X3843Y3849D01*
X3841Y3849D01*
X3840Y3849D01*
X3838Y3848D01*
X3839Y3859D01*
X3840D01*
X3840Y3858D01*
X3842D01*
X3844Y3859D01*
X3845Y3859D01*
X3848Y3859D01*
X3850Y3860D01*
X3852Y3861D01*
X3855Y3862D01*
X3855D01*
X3855Y3862D01*
X3855Y3863D01*
X3856Y3864D01*
X3858Y3865D01*
X3859Y3867D01*
X3860Y3869D01*
X3860Y3871D01*
X3861Y3873D01*
Y3874D01*
Y3874D01*
Y3875D01*
Y3875D01*
X3860Y3877D01*
X3860Y3878D01*
X3859Y3880D01*
X3859Y3882D01*
X3858Y3883D01*
X3856Y3885D01*
X3856Y3885D01*
X3855Y3886D01*
X3854Y3886D01*
X3853Y3887D01*
X3851Y3888D01*
X3850Y3889D01*
X3847Y3889D01*
X3845Y3889D01*
X3844D01*
X3842Y3889D01*
X3841Y3889D01*
X3839Y3888D01*
X3837Y3888D01*
X3835Y3886D01*
X3833Y3885D01*
X3833Y3885D01*
X3833Y3884D01*
X3832Y3883D01*
X3831Y3882D01*
X3830Y3880D01*
X3829Y3878D01*
X3828Y3875D01*
X3828Y3872D01*
X3816Y3874D01*
Y3874D01*
X3816Y3875D01*
X3816Y3875D01*
X3816Y3876D01*
X3817Y3877D01*
X3817Y3878D01*
X3818Y3881D01*
X3819Y3884D01*
X3821Y3887D01*
X3823Y3890D01*
X3826Y3893D01*
X3826Y3893D01*
X3826Y3893D01*
X3826Y3893D01*
X3827Y3893D01*
X3828Y3894D01*
X3829Y3895D01*
X3830Y3895D01*
X3831Y3896D01*
X3834Y3897D01*
X3837Y3898D01*
X3840Y3899D01*
X3842Y3899D01*
X3846D01*
X3847Y3899D01*
D02*
G37*
G36*
X3768Y3898D02*
X3769D01*
X3772Y3898D01*
X3775Y3898D01*
X3779Y3897D01*
X3782Y3897D01*
X3783Y3896D01*
X3785Y3896D01*
X3785D01*
X3785Y3896D01*
X3786Y3895D01*
X3787Y3895D01*
X3788Y3894D01*
X3790Y3893D01*
X3792Y3891D01*
X3794Y3889D01*
X3795Y3887D01*
Y3887D01*
X3795Y3887D01*
X3796Y3886D01*
X3797Y3884D01*
X3797Y3883D01*
X3798Y3880D01*
X3799Y3878D01*
X3799Y3875D01*
X3799Y3872D01*
Y3872D01*
Y3872D01*
Y3871D01*
X3799Y3871D01*
Y3870D01*
X3799Y3869D01*
X3798Y3866D01*
X3798Y3864D01*
X3797Y3861D01*
X3795Y3858D01*
X3794Y3856D01*
X3793Y3855D01*
X3793Y3855D01*
X3792Y3855D01*
X3792Y3854D01*
X3791Y3854D01*
X3791Y3853D01*
X3790Y3853D01*
X3789Y3852D01*
X3788Y3851D01*
X3786Y3851D01*
X3785Y3850D01*
X3783Y3849D01*
X3781Y3848D01*
X3779Y3848D01*
X3777Y3847D01*
X3775Y3847D01*
X3772Y3846D01*
X3773Y3846D01*
X3773Y3846D01*
X3774Y3845D01*
X3775Y3845D01*
X3778Y3843D01*
X3779Y3842D01*
X3780Y3841D01*
X3780Y3841D01*
X3781Y3840D01*
X3782Y3839D01*
X3783Y3838D01*
X3785Y3836D01*
X3787Y3834D01*
X3788Y3831D01*
X3790Y3829D01*
X3807Y3803D01*
X3791D01*
X3779Y3823D01*
Y3823D01*
X3778Y3823D01*
X3778Y3823D01*
X3778Y3824D01*
X3777Y3826D01*
X3775Y3827D01*
X3774Y3830D01*
X3772Y3832D01*
X3771Y3834D01*
X3769Y3836D01*
X3769Y3836D01*
X3769Y3836D01*
X3768Y3837D01*
X3767Y3838D01*
X3765Y3840D01*
X3764Y3841D01*
X3763Y3842D01*
X3763Y3842D01*
X3762Y3842D01*
X3762Y3843D01*
X3761Y3843D01*
X3760Y3844D01*
X3759Y3844D01*
X3757Y3845D01*
X3757D01*
X3757Y3845D01*
X3756D01*
X3755Y3845D01*
X3754Y3845D01*
X3753D01*
X3752Y3845D01*
X3735D01*
Y3803D01*
X3723D01*
Y3899D01*
X3767D01*
X3768Y3898D01*
D02*
G37*
G36*
X3461Y4607D02*
X3462Y4606D01*
X3462Y4605D01*
X3464Y4603D01*
X3466Y4600D01*
X3468Y4598D01*
X3470Y4595D01*
X3471Y4594D01*
X3471Y4592D01*
X3471Y4592D01*
Y4592D01*
X3472Y4591D01*
X3472Y4590D01*
X3473Y4588D01*
X3473Y4586D01*
X3473Y4584D01*
X3473Y4581D01*
X3472Y4578D01*
X3472Y4578D01*
Y4578D01*
X3472Y4577D01*
X3472Y4576D01*
X3471Y4574D01*
X3470Y4572D01*
X3469Y4570D01*
X3467Y4568D01*
X3465Y4565D01*
X3465Y4565D01*
X3465Y4565D01*
X3464Y4565D01*
X3464Y4564D01*
X3463Y4564D01*
X3462Y4563D01*
X3460Y4562D01*
X3458Y4560D01*
X3455Y4559D01*
X3452Y4558D01*
X3450Y4558D01*
X3448Y4558D01*
X3448D01*
X3448D01*
X3447D01*
X3446Y4558D01*
X3446Y4558D01*
X3445Y4558D01*
X3443Y4559D01*
X3442Y4559D01*
X3440Y4559D01*
X3439Y4560D01*
X3437Y4560D01*
X3435Y4561D01*
X3434Y4562D01*
X3432Y4563D01*
X3430Y4565D01*
X3428Y4566D01*
X3428Y4566D01*
X3428Y4565D01*
X3428Y4564D01*
X3428Y4563D01*
X3429Y4560D01*
X3429Y4559D01*
X3430Y4557D01*
Y4557D01*
Y4556D01*
Y4554D01*
Y4552D01*
X3429Y4550D01*
X3429Y4547D01*
X3429Y4544D01*
X3428Y4541D01*
X3421Y4511D01*
X3410Y4522D01*
X3415Y4545D01*
X3415Y4545D01*
Y4545D01*
X3415Y4546D01*
X3415Y4547D01*
X3416Y4548D01*
X3416Y4551D01*
X3417Y4553D01*
X3417Y4556D01*
X3418Y4558D01*
X3418Y4561D01*
Y4561D01*
X3418Y4562D01*
X3418Y4563D01*
Y4564D01*
Y4567D01*
X3418Y4568D01*
X3418Y4570D01*
Y4570D01*
X3418Y4570D01*
X3418Y4571D01*
X3417Y4572D01*
X3417Y4573D01*
X3417Y4574D01*
X3416Y4576D01*
X3415Y4576D01*
X3415Y4576D01*
X3415Y4576D01*
X3415Y4577D01*
X3414Y4578D01*
X3413Y4579D01*
X3412Y4580D01*
X3401Y4591D01*
X3371Y4561D01*
X3362Y4570D01*
X3429Y4638D01*
X3461Y4607D01*
D02*
G37*
G36*
X3496Y4561D02*
X3497D01*
X3497Y4561D01*
X3498D01*
X3498Y4561D01*
X3499Y4561D01*
X3500Y4561D01*
X3502Y4560D01*
X3503Y4560D01*
X3505Y4559D01*
X3506Y4559D01*
X3508Y4558D01*
X3510Y4557D01*
X3512Y4556D01*
X3513Y4554D01*
X3515Y4553D01*
X3517Y4551D01*
X3518Y4550D01*
X3519Y4549D01*
X3519Y4548D01*
X3520Y4547D01*
X3521Y4546D01*
X3522Y4545D01*
X3524Y4542D01*
X3525Y4538D01*
X3526Y4536D01*
X3527Y4534D01*
X3527Y4532D01*
X3527Y4530D01*
Y4530D01*
X3527Y4530D01*
X3527Y4529D01*
Y4528D01*
Y4527D01*
X3527Y4526D01*
X3527Y4525D01*
X3526Y4523D01*
X3525Y4521D01*
X3524Y4517D01*
X3523Y4516D01*
X3522Y4514D01*
X3521Y4513D01*
X3520Y4511D01*
X3519Y4511D01*
X3519Y4510D01*
X3518Y4510D01*
X3517Y4509D01*
X3515Y4508D01*
X3514Y4507D01*
X3512Y4506D01*
X3510Y4505D01*
X3509Y4505D01*
X3509Y4504D01*
X3508Y4504D01*
X3506Y4503D01*
X3504Y4503D01*
X3501Y4503D01*
X3499Y4502D01*
X3496Y4502D01*
X3495D01*
X3494Y4502D01*
X3493D01*
X3492D01*
X3491D01*
X3490D01*
X3488D01*
X3486Y4502D01*
X3484D01*
X3482Y4502D01*
X3480Y4502D01*
X3477Y4502D01*
X3474Y4503D01*
X3471Y4503D01*
X3471D01*
X3471D01*
X3470Y4503D01*
X3469Y4503D01*
X3468D01*
X3467Y4503D01*
X3464Y4503D01*
X3461Y4504D01*
X3458Y4504D01*
X3455Y4504D01*
X3454Y4504D01*
X3453D01*
X3453D01*
X3452D01*
X3451D01*
X3450Y4504D01*
X3449Y4504D01*
X3448Y4504D01*
X3445Y4503D01*
X3478Y4470D01*
X3470Y4462D01*
X3425Y4507D01*
X3425Y4507D01*
X3426Y4507D01*
X3426Y4508D01*
X3427Y4508D01*
X3428Y4509D01*
X3429Y4510D01*
X3431Y4511D01*
X3432Y4511D01*
X3432Y4511D01*
X3432D01*
X3433Y4512D01*
X3434Y4512D01*
X3436Y4513D01*
X3438Y4514D01*
X3441Y4514D01*
X3444Y4515D01*
X3447Y4515D01*
X3447Y4515D01*
X3447Y4515D01*
X3448Y4515D01*
X3450D01*
X3452D01*
X3455D01*
X3459Y4515D01*
X3463Y4515D01*
X3468Y4514D01*
X3468D01*
X3469Y4514D01*
X3470Y4514D01*
X3471Y4514D01*
X3473Y4514D01*
X3475Y4514D01*
X3477Y4514D01*
X3479Y4513D01*
X3484Y4513D01*
X3489Y4513D01*
X3491D01*
X3493Y4513D01*
X3495Y4513D01*
X3497Y4514D01*
X3497Y4514D01*
X3497Y4514D01*
X3498Y4514D01*
X3499Y4514D01*
X3500Y4514D01*
X3502Y4515D01*
X3505Y4516D01*
X3507Y4517D01*
X3509Y4518D01*
X3511Y4520D01*
X3511Y4520D01*
X3511Y4520D01*
X3512Y4521D01*
X3513Y4522D01*
X3514Y4523D01*
X3515Y4525D01*
X3515Y4527D01*
X3516Y4529D01*
X3516Y4532D01*
Y4532D01*
X3516Y4533D01*
X3516Y4534D01*
X3515Y4536D01*
X3514Y4538D01*
X3513Y4540D01*
X3512Y4542D01*
X3510Y4544D01*
X3509Y4545D01*
X3509Y4545D01*
X3508Y4546D01*
X3506Y4547D01*
X3504Y4549D01*
X3502Y4550D01*
X3499Y4550D01*
X3497Y4550D01*
X3496D01*
X3495Y4550D01*
X3494Y4550D01*
X3492Y4550D01*
X3490Y4549D01*
X3488Y4548D01*
X3485Y4546D01*
X3483Y4544D01*
X3475Y4554D01*
X3475Y4554D01*
X3476Y4554D01*
X3476Y4554D01*
X3477Y4555D01*
X3478Y4555D01*
X3479Y4556D01*
X3481Y4557D01*
X3482Y4558D01*
X3485Y4559D01*
X3489Y4560D01*
X3491Y4561D01*
X3493Y4561D01*
X3495Y4561D01*
X3496D01*
D02*
G37*
G36*
X4018Y252D02*
X4006D01*
Y327D01*
X4006Y327D01*
X4005Y326D01*
X4005Y325D01*
X4003Y324D01*
X4002Y323D01*
X4000Y322D01*
X3998Y320D01*
X3995Y319D01*
X3995D01*
X3995Y319D01*
X3994Y318D01*
X3993Y317D01*
X3991Y316D01*
X3989Y315D01*
X3987Y314D01*
X3985Y314D01*
X3983Y313D01*
Y324D01*
X3983D01*
X3983Y324D01*
X3984Y324D01*
X3984Y325D01*
X3985Y325D01*
X3986Y326D01*
X3989Y327D01*
X3991Y329D01*
X3994Y331D01*
X3997Y333D01*
X4000Y335D01*
X4000Y335D01*
X4000Y336D01*
X4001Y336D01*
X4001Y336D01*
X4002Y338D01*
X4004Y339D01*
X4006Y341D01*
X4008Y344D01*
X4009Y346D01*
X4010Y348D01*
X4018D01*
Y252D01*
D02*
G37*
G36*
X3928Y348D02*
X3929D01*
X3932Y347D01*
X3935Y347D01*
X3938Y347D01*
X3941Y346D01*
X3943Y346D01*
X3944Y345D01*
X3944D01*
X3944Y345D01*
X3945Y345D01*
X3946Y344D01*
X3948Y343D01*
X3949Y342D01*
X3951Y340D01*
X3953Y338D01*
X3955Y336D01*
Y336D01*
X3955Y336D01*
X3955Y335D01*
X3956Y333D01*
X3957Y332D01*
X3957Y330D01*
X3958Y327D01*
X3958Y324D01*
X3959Y322D01*
Y321D01*
Y321D01*
Y321D01*
X3958Y320D01*
Y319D01*
X3958Y318D01*
X3958Y316D01*
X3957Y313D01*
X3956Y310D01*
X3954Y307D01*
X3953Y306D01*
X3952Y304D01*
X3952Y304D01*
X3952Y304D01*
X3951Y304D01*
X3951Y303D01*
X3950Y303D01*
X3949Y302D01*
X3948Y301D01*
X3947Y300D01*
X3946Y300D01*
X3944Y299D01*
X3942Y298D01*
X3941Y298D01*
X3938Y297D01*
X3936Y296D01*
X3934Y296D01*
X3932Y295D01*
X3932Y295D01*
X3932Y295D01*
X3933Y295D01*
X3934Y294D01*
X3937Y292D01*
X3938Y291D01*
X3939Y291D01*
X3939Y290D01*
X3940Y290D01*
X3941Y289D01*
X3943Y287D01*
X3944Y285D01*
X3946Y283D01*
X3948Y281D01*
X3950Y278D01*
X3966Y252D01*
X3950D01*
X3938Y272D01*
Y272D01*
X3938Y272D01*
X3937Y273D01*
X3937Y273D01*
X3936Y275D01*
X3935Y277D01*
X3933Y279D01*
X3932Y281D01*
X3930Y283D01*
X3929Y285D01*
X3929Y285D01*
X3928Y286D01*
X3927Y286D01*
X3926Y287D01*
X3924Y290D01*
X3923Y290D01*
X3922Y291D01*
X3922Y291D01*
X3922Y292D01*
X3921Y292D01*
X3920Y292D01*
X3919Y293D01*
X3919Y293D01*
X3916Y294D01*
X3916D01*
X3916Y294D01*
X3915D01*
X3915Y294D01*
X3914Y294D01*
X3913D01*
X3911Y294D01*
X3895D01*
Y252D01*
X3882D01*
Y348D01*
X3926D01*
X3928Y348D01*
D02*
G37*
G36*
X2324Y4405D02*
X2312D01*
Y4480D01*
X2312Y4480D01*
X2312Y4479D01*
X2311Y4478D01*
X2309Y4477D01*
X2308Y4476D01*
X2306Y4475D01*
X2304Y4473D01*
X2301Y4472D01*
X2301D01*
X2301Y4472D01*
X2300Y4471D01*
X2299Y4470D01*
X2297Y4470D01*
X2295Y4469D01*
X2293Y4468D01*
X2291Y4467D01*
X2289Y4466D01*
Y4477D01*
X2289D01*
X2289Y4477D01*
X2290Y4478D01*
X2290Y4478D01*
X2291Y4478D01*
X2292Y4479D01*
X2295Y4480D01*
X2297Y4482D01*
X2300Y4484D01*
X2303Y4486D01*
X2306Y4488D01*
X2306Y4489D01*
X2306Y4489D01*
X2307Y4489D01*
X2307Y4490D01*
X2309Y4491D01*
X2310Y4493D01*
X2312Y4495D01*
X2314Y4497D01*
X2315Y4499D01*
X2317Y4501D01*
X2324D01*
Y4405D01*
D02*
G37*
G36*
X2224Y4502D02*
X2225D01*
X2226Y4502D01*
X2228Y4502D01*
X2230Y4502D01*
X2233Y4501D01*
X2238Y4500D01*
X2242Y4498D01*
X2244Y4497D01*
X2246Y4496D01*
X2246Y4496D01*
X2246Y4496D01*
X2247Y4495D01*
X2248Y4495D01*
X2248Y4494D01*
X2249Y4494D01*
X2252Y4492D01*
X2254Y4489D01*
X2257Y4486D01*
X2260Y4482D01*
X2262Y4478D01*
Y4478D01*
X2262Y4478D01*
X2262Y4477D01*
X2263Y4476D01*
X2263Y4475D01*
X2264Y4474D01*
X2264Y4473D01*
X2265Y4471D01*
X2265Y4469D01*
X2266Y4467D01*
X2266Y4465D01*
X2267Y4463D01*
X2267Y4458D01*
X2268Y4453D01*
Y4453D01*
Y4452D01*
Y4452D01*
Y4451D01*
X2267Y4450D01*
Y4449D01*
X2267Y4447D01*
X2267Y4446D01*
X2267Y4443D01*
X2266Y4439D01*
X2265Y4435D01*
X2264Y4432D01*
Y4431D01*
X2264Y4431D01*
X2264Y4431D01*
X2263Y4430D01*
X2263Y4429D01*
X2262Y4428D01*
X2261Y4426D01*
X2260Y4423D01*
X2258Y4421D01*
X2256Y4418D01*
X2253Y4415D01*
X2253D01*
X2254Y4415D01*
X2254Y4414D01*
X2255Y4414D01*
X2255Y4414D01*
X2256Y4413D01*
X2258Y4412D01*
X2261Y4410D01*
X2264Y4409D01*
X2267Y4407D01*
X2269Y4406D01*
X2266Y4397D01*
X2266D01*
X2265Y4398D01*
X2265Y4398D01*
X2264Y4398D01*
X2263Y4399D01*
X2262Y4399D01*
X2261Y4400D01*
X2259Y4400D01*
X2256Y4402D01*
X2253Y4404D01*
X2249Y4406D01*
X2245Y4409D01*
X2245D01*
X2245Y4409D01*
X2244Y4409D01*
X2243Y4408D01*
X2242Y4408D01*
X2241Y4407D01*
X2240Y4407D01*
X2238Y4406D01*
X2236Y4406D01*
X2235Y4405D01*
X2231Y4404D01*
X2226Y4404D01*
X2224Y4403D01*
X2221Y4403D01*
X2220D01*
X2219Y4403D01*
X2218D01*
X2217Y4404D01*
X2215Y4404D01*
X2214Y4404D01*
X2210Y4405D01*
X2206Y4406D01*
X2202Y4407D01*
X2200Y4408D01*
X2198Y4410D01*
X2198Y4410D01*
X2197Y4410D01*
X2197Y4410D01*
X2196Y4411D01*
X2195Y4411D01*
X2194Y4412D01*
X2192Y4414D01*
X2189Y4417D01*
X2186Y4420D01*
X2184Y4423D01*
X2181Y4427D01*
Y4427D01*
X2181Y4428D01*
X2181Y4428D01*
X2181Y4429D01*
X2180Y4430D01*
X2180Y4431D01*
X2179Y4433D01*
X2179Y4435D01*
X2178Y4436D01*
X2178Y4438D01*
X2177Y4440D01*
X2177Y4443D01*
X2176Y4448D01*
X2176Y4453D01*
Y4453D01*
Y4453D01*
Y4454D01*
X2176Y4455D01*
Y4456D01*
X2176Y4458D01*
X2176Y4460D01*
X2176Y4461D01*
X2177Y4465D01*
X2178Y4470D01*
X2180Y4474D01*
X2181Y4479D01*
X2182Y4479D01*
X2182Y4479D01*
X2182Y4480D01*
X2183Y4481D01*
X2183Y4482D01*
X2184Y4483D01*
X2186Y4485D01*
X2188Y4488D01*
X2191Y4491D01*
X2194Y4494D01*
X2198Y4496D01*
X2198Y4497D01*
X2198Y4497D01*
X2199Y4497D01*
X2200Y4497D01*
X2201Y4498D01*
X2202Y4498D01*
X2203Y4499D01*
X2205Y4500D01*
X2207Y4500D01*
X2208Y4501D01*
X2212Y4502D01*
X2217Y4502D01*
X2219Y4503D01*
X2223D01*
X2224Y4502D01*
D02*
G37*
G36*
X196Y283D02*
Y283D01*
Y283D01*
Y282D01*
Y281D01*
X196Y280D01*
Y279D01*
X196Y276D01*
X196Y273D01*
X195Y270D01*
X194Y267D01*
X193Y264D01*
Y264D01*
X193Y264D01*
X193Y263D01*
X192Y262D01*
X191Y261D01*
X190Y259D01*
X188Y257D01*
X186Y256D01*
X184Y254D01*
X184Y254D01*
X183Y254D01*
X182Y253D01*
X180Y253D01*
X178Y252D01*
X175Y252D01*
X172Y251D01*
X169Y251D01*
X168D01*
X167Y251D01*
X166Y251D01*
X165Y251D01*
X162Y252D01*
X159Y253D01*
X156Y254D01*
X154Y255D01*
X153Y256D01*
X151Y257D01*
X150Y258D01*
X150Y258D01*
X150Y258D01*
X149Y259D01*
X149Y260D01*
X148Y260D01*
X148Y261D01*
X147Y262D01*
X146Y264D01*
X146Y265D01*
X145Y267D01*
X145Y268D01*
X144Y270D01*
X144Y272D01*
X144Y275D01*
X143Y277D01*
Y280D01*
X155Y281D01*
Y281D01*
Y281D01*
Y280D01*
X155Y280D01*
X155Y279D01*
Y278D01*
X156Y275D01*
X156Y273D01*
X157Y270D01*
X158Y268D01*
X158Y267D01*
X159Y266D01*
X159Y266D01*
X160Y266D01*
X160Y265D01*
X162Y264D01*
X163Y264D01*
X165Y263D01*
X167Y262D01*
X169Y262D01*
X170D01*
X171Y262D01*
X172Y263D01*
X173Y263D01*
X175Y263D01*
X176Y264D01*
X177Y264D01*
X178Y265D01*
X178Y265D01*
X179Y265D01*
X179Y266D01*
X180Y267D01*
X181Y268D01*
X182Y269D01*
X182Y270D01*
Y271D01*
X182Y271D01*
X183Y272D01*
X183Y273D01*
X183Y275D01*
X183Y277D01*
X183Y280D01*
Y282D01*
Y349D01*
X196D01*
Y283D01*
D02*
G37*
G36*
X257Y253D02*
X245D01*
Y328D01*
X245Y328D01*
X244Y327D01*
X243Y326D01*
X242Y325D01*
X240Y324D01*
X238Y323D01*
X236Y321D01*
X234Y319D01*
X233D01*
X233Y319D01*
X232Y319D01*
X231Y318D01*
X229Y317D01*
X227Y316D01*
X225Y315D01*
X223Y314D01*
X221Y314D01*
Y325D01*
X221D01*
X222Y325D01*
X222Y325D01*
X223Y326D01*
X224Y326D01*
X225Y327D01*
X227Y328D01*
X230Y330D01*
X233Y332D01*
X236Y334D01*
X238Y336D01*
X239Y336D01*
X239Y336D01*
X239Y337D01*
X240Y337D01*
X241Y339D01*
X243Y340D01*
X244Y342D01*
X246Y344D01*
X248Y347D01*
X249Y349D01*
X257D01*
Y253D01*
D02*
G37*
G36*
X414Y3886D02*
X427D01*
Y3875D01*
X414D01*
Y3852D01*
X402D01*
Y3875D01*
X361D01*
Y3886D01*
X405Y3948D01*
X414D01*
Y3886D01*
D02*
G37*
G36*
X312Y3948D02*
X315Y3948D01*
X318Y3947D01*
X320Y3947D01*
X323Y3947D01*
X323D01*
X323Y3946D01*
X324D01*
X324Y3946D01*
X326Y3946D01*
X328Y3945D01*
X330Y3944D01*
X332Y3943D01*
X335Y3941D01*
X337Y3940D01*
X337Y3940D01*
X337Y3939D01*
X338Y3939D01*
X338Y3939D01*
X339Y3937D01*
X341Y3935D01*
X343Y3933D01*
X345Y3930D01*
X347Y3927D01*
X348Y3923D01*
Y3923D01*
X348Y3923D01*
X349Y3922D01*
X349Y3921D01*
X349Y3921D01*
X349Y3919D01*
X350Y3918D01*
X350Y3917D01*
X351Y3915D01*
X351Y3913D01*
X352Y3909D01*
X352Y3905D01*
X352Y3900D01*
Y3900D01*
Y3900D01*
Y3899D01*
Y3899D01*
X352Y3898D01*
Y3897D01*
X352Y3894D01*
X351Y3891D01*
X351Y3888D01*
X350Y3884D01*
X349Y3881D01*
Y3881D01*
X349Y3881D01*
X349Y3880D01*
X349Y3880D01*
X348Y3878D01*
X348Y3876D01*
X347Y3874D01*
X346Y3872D01*
X344Y3869D01*
X343Y3867D01*
X343Y3867D01*
X342Y3866D01*
X341Y3865D01*
X340Y3864D01*
X339Y3863D01*
X338Y3861D01*
X336Y3860D01*
X334Y3858D01*
X334Y3858D01*
X333Y3858D01*
X332Y3857D01*
X331Y3857D01*
X329Y3856D01*
X327Y3855D01*
X325Y3854D01*
X323Y3854D01*
X322D01*
X322Y3853D01*
X322Y3853D01*
X320Y3853D01*
X318Y3853D01*
X316Y3853D01*
X313Y3852D01*
X310Y3852D01*
X307Y3852D01*
X273D01*
Y3948D01*
X310D01*
X312Y3948D01*
D02*
G37*
G36*
X2855Y4062D02*
X2857Y4060D01*
X2859Y4058D01*
X2861Y4056D01*
X2862Y4054D01*
X2864Y4052D01*
X2864Y4052D01*
X2864Y4051D01*
X2864Y4051D01*
X2864Y4051D01*
X2865Y4049D01*
X2866Y4047D01*
X2867Y4045D01*
X2868Y4043D01*
X2868Y4040D01*
X2869Y4037D01*
Y4037D01*
Y4037D01*
Y4036D01*
X2869Y4035D01*
Y4033D01*
X2869Y4031D01*
X2868Y4028D01*
X2868Y4025D01*
X2867Y4021D01*
X2865Y4017D01*
X2865Y4017D01*
X2865Y4017D01*
X2865Y4016D01*
X2864Y4016D01*
X2864Y4015D01*
X2863Y4014D01*
X2863Y4013D01*
X2862Y4011D01*
X2861Y4010D01*
X2860Y4008D01*
X2858Y4005D01*
X2855Y4002D01*
X2852Y3998D01*
X2852Y3998D01*
X2852Y3998D01*
X2851Y3998D01*
X2851Y3997D01*
X2850Y3997D01*
X2849Y3996D01*
X2847Y3994D01*
X2845Y3992D01*
X2842Y3990D01*
X2839Y3988D01*
X2836Y3987D01*
X2836Y3987D01*
X2836Y3986D01*
X2835Y3986D01*
X2835Y3986D01*
X2833Y3985D01*
X2832Y3984D01*
X2829Y3983D01*
X2827Y3983D01*
X2824Y3982D01*
X2822Y3981D01*
X2822Y3981D01*
X2821Y3981D01*
X2819Y3981D01*
X2818Y3981D01*
X2816Y3981D01*
X2814Y3981D01*
X2812D01*
X2809Y3981D01*
X2809Y3982D01*
X2808Y3982D01*
X2807Y3982D01*
X2806Y3982D01*
X2804Y3983D01*
X2802Y3984D01*
X2800Y3985D01*
X2798Y3986D01*
X2798Y3986D01*
X2797Y3987D01*
X2797Y3987D01*
X2796Y3988D01*
X2794Y3989D01*
X2792Y3990D01*
X2790Y3992D01*
X2788Y3994D01*
X2786Y3996D01*
X2761Y4020D01*
X2829Y4088D01*
X2855Y4062D01*
D02*
G37*
G36*
X2897Y4011D02*
X2897D01*
X2897Y4011D01*
X2898D01*
X2898Y4011D01*
X2899Y4011D01*
X2900Y4011D01*
X2902Y4010D01*
X2903Y4010D01*
X2905Y4009D01*
X2906Y4009D01*
X2908Y4008D01*
X2910Y4007D01*
X2912Y4006D01*
X2913Y4004D01*
X2915Y4003D01*
X2917Y4001D01*
X2918Y4000D01*
X2919Y3999D01*
X2919Y3998D01*
X2920Y3997D01*
X2921Y3996D01*
X2922Y3995D01*
X2924Y3992D01*
X2925Y3988D01*
X2926Y3986D01*
X2927Y3984D01*
X2927Y3982D01*
X2927Y3980D01*
Y3980D01*
X2927Y3980D01*
X2927Y3979D01*
Y3978D01*
Y3977D01*
X2927Y3976D01*
X2927Y3975D01*
X2926Y3973D01*
X2925Y3971D01*
X2924Y3967D01*
X2923Y3966D01*
X2922Y3964D01*
X2921Y3962D01*
X2920Y3961D01*
X2919Y3961D01*
X2919Y3960D01*
X2918Y3960D01*
X2917Y3959D01*
X2915Y3958D01*
X2914Y3957D01*
X2912Y3956D01*
X2910Y3955D01*
X2909Y3955D01*
X2909Y3954D01*
X2908Y3954D01*
X2906Y3953D01*
X2904Y3953D01*
X2902Y3952D01*
X2899Y3952D01*
X2896Y3952D01*
X2895D01*
X2894Y3952D01*
X2893D01*
X2892D01*
X2891D01*
X2890D01*
X2888D01*
X2886Y3952D01*
X2884D01*
X2882Y3952D01*
X2880Y3952D01*
X2877Y3952D01*
X2874Y3953D01*
X2871Y3953D01*
X2871D01*
X2871D01*
X2870Y3953D01*
X2869Y3953D01*
X2868D01*
X2867Y3953D01*
X2864Y3953D01*
X2861Y3954D01*
X2858Y3954D01*
X2855Y3954D01*
X2854Y3954D01*
X2853D01*
X2853D01*
X2852D01*
X2851D01*
X2850Y3954D01*
X2849Y3954D01*
X2848Y3953D01*
X2845Y3953D01*
X2878Y3920D01*
X2870Y3911D01*
X2825Y3957D01*
X2825Y3957D01*
X2826Y3957D01*
X2826Y3958D01*
X2827Y3958D01*
X2828Y3959D01*
X2829Y3960D01*
X2831Y3961D01*
X2832Y3961D01*
X2832Y3961D01*
X2832D01*
X2833Y3962D01*
X2834Y3962D01*
X2836Y3963D01*
X2838Y3963D01*
X2841Y3964D01*
X2844Y3965D01*
X2847Y3965D01*
X2847Y3965D01*
X2847Y3965D01*
X2848Y3965D01*
X2850D01*
X2852D01*
X2855D01*
X2859Y3965D01*
X2863Y3965D01*
X2868Y3964D01*
X2868D01*
X2869Y3964D01*
X2870Y3964D01*
X2871Y3964D01*
X2873Y3964D01*
X2875Y3964D01*
X2877Y3963D01*
X2879Y3963D01*
X2884Y3963D01*
X2889Y3963D01*
X2891D01*
X2893Y3963D01*
X2895Y3963D01*
X2897Y3964D01*
X2897Y3964D01*
X2898Y3964D01*
X2898Y3964D01*
X2899Y3964D01*
X2900Y3964D01*
X2902Y3965D01*
X2905Y3966D01*
X2907Y3967D01*
X2909Y3968D01*
X2911Y3970D01*
X2911Y3970D01*
X2911Y3970D01*
X2912Y3971D01*
X2913Y3972D01*
X2914Y3973D01*
X2915Y3975D01*
X2915Y3977D01*
X2916Y3979D01*
X2916Y3982D01*
Y3982D01*
X2916Y3983D01*
X2916Y3984D01*
X2915Y3986D01*
X2914Y3988D01*
X2913Y3990D01*
X2912Y3992D01*
X2910Y3994D01*
X2909Y3995D01*
X2909Y3995D01*
X2908Y3996D01*
X2906Y3997D01*
X2904Y3998D01*
X2902Y3999D01*
X2899Y4000D01*
X2897Y4000D01*
X2896D01*
X2895Y4000D01*
X2894Y4000D01*
X2892Y4000D01*
X2890Y3999D01*
X2888Y3998D01*
X2886Y3996D01*
X2883Y3994D01*
X2875Y4003D01*
X2876Y4004D01*
X2876Y4004D01*
X2876Y4004D01*
X2877Y4005D01*
X2878Y4005D01*
X2879Y4006D01*
X2881Y4007D01*
X2882Y4008D01*
X2885Y4009D01*
X2889Y4010D01*
X2891Y4011D01*
X2893Y4011D01*
X2895Y4011D01*
X2897D01*
D02*
G37*
G36*
X2018Y2652D02*
X2006D01*
Y2727D01*
X2006Y2727D01*
X2006Y2726D01*
X2005Y2725D01*
X2003Y2724D01*
X2002Y2723D01*
X2000Y2722D01*
X1998Y2720D01*
X1995Y2719D01*
X1995D01*
X1995Y2719D01*
X1994Y2718D01*
X1993Y2717D01*
X1991Y2716D01*
X1989Y2715D01*
X1987Y2714D01*
X1985Y2714D01*
X1983Y2713D01*
Y2724D01*
X1983D01*
X1983Y2724D01*
X1984Y2724D01*
X1984Y2725D01*
X1985Y2725D01*
X1986Y2726D01*
X1989Y2727D01*
X1991Y2729D01*
X1994Y2731D01*
X1997Y2733D01*
X2000Y2735D01*
X2000Y2735D01*
X2000Y2736D01*
X2001Y2736D01*
X2001Y2736D01*
X2002Y2738D01*
X2004Y2739D01*
X2006Y2741D01*
X2008Y2744D01*
X2009Y2746D01*
X2011Y2748D01*
X2018D01*
Y2652D01*
D02*
G37*
G36*
X1921Y2748D02*
X1924Y2747D01*
X1927Y2747D01*
X1930Y2747D01*
X1932Y2746D01*
X1932D01*
X1932Y2746D01*
X1933D01*
X1933Y2746D01*
X1935Y2746D01*
X1937Y2745D01*
X1939Y2744D01*
X1941Y2743D01*
X1944Y2741D01*
X1946Y2739D01*
X1946Y2739D01*
X1946Y2739D01*
X1947Y2739D01*
X1947Y2738D01*
X1949Y2737D01*
X1950Y2735D01*
X1952Y2733D01*
X1954Y2730D01*
X1956Y2727D01*
X1957Y2723D01*
Y2723D01*
X1957Y2723D01*
X1958Y2722D01*
X1958Y2721D01*
X1958Y2720D01*
X1959Y2719D01*
X1959Y2718D01*
X1959Y2716D01*
X1960Y2715D01*
X1960Y2713D01*
X1961Y2709D01*
X1961Y2705D01*
X1961Y2700D01*
Y2700D01*
Y2700D01*
Y2699D01*
Y2698D01*
X1961Y2697D01*
Y2696D01*
X1961Y2694D01*
X1960Y2691D01*
X1960Y2687D01*
X1959Y2684D01*
X1959Y2681D01*
Y2681D01*
X1958Y2680D01*
X1958Y2680D01*
X1958Y2679D01*
X1958Y2678D01*
X1957Y2676D01*
X1956Y2674D01*
X1955Y2672D01*
X1953Y2669D01*
X1952Y2667D01*
X1952Y2667D01*
X1951Y2666D01*
X1950Y2665D01*
X1949Y2664D01*
X1948Y2662D01*
X1947Y2661D01*
X1945Y2659D01*
X1943Y2658D01*
X1943Y2658D01*
X1942Y2658D01*
X1941Y2657D01*
X1940Y2656D01*
X1938Y2656D01*
X1936Y2655D01*
X1934Y2654D01*
X1932Y2653D01*
X1931D01*
X1931Y2653D01*
X1931Y2653D01*
X1929Y2653D01*
X1927Y2653D01*
X1925Y2652D01*
X1922Y2652D01*
X1920Y2652D01*
X1916Y2652D01*
X1882D01*
Y2748D01*
X1919D01*
X1921Y2748D01*
D02*
G37*
G36*
X2469Y3650D02*
X2470Y3649D01*
X2472Y3649D01*
X2473Y3649D01*
X2475Y3649D01*
X2479Y3648D01*
X2483Y3647D01*
X2485Y3646D01*
X2487Y3645D01*
X2489Y3644D01*
X2491Y3642D01*
X2491Y3642D01*
X2491Y3642D01*
X2492Y3642D01*
X2492Y3641D01*
X2493Y3640D01*
X2494Y3639D01*
X2495Y3638D01*
X2496Y3637D01*
X2497Y3636D01*
X2498Y3634D01*
X2500Y3632D01*
X2501Y3631D01*
X2502Y3628D01*
X2503Y3626D01*
X2504Y3624D01*
X2504Y3622D01*
X2492Y3619D01*
Y3619D01*
X2492Y3619D01*
X2491Y3620D01*
X2491Y3620D01*
X2491Y3621D01*
X2491Y3622D01*
X2489Y3625D01*
X2488Y3627D01*
X2486Y3630D01*
X2484Y3632D01*
X2482Y3634D01*
X2482Y3634D01*
X2481Y3635D01*
X2480Y3636D01*
X2478Y3636D01*
X2475Y3637D01*
X2473Y3638D01*
X2470Y3639D01*
X2466Y3639D01*
X2465D01*
X2464Y3639D01*
X2463D01*
X2462Y3639D01*
X2460Y3638D01*
X2457Y3638D01*
X2454Y3637D01*
X2450Y3635D01*
X2448Y3633D01*
X2447D01*
X2447Y3633D01*
X2446Y3632D01*
X2445Y3631D01*
X2443Y3630D01*
X2442Y3628D01*
X2440Y3625D01*
X2438Y3622D01*
X2437Y3619D01*
Y3619D01*
X2437Y3619D01*
X2437Y3618D01*
X2437Y3618D01*
X2436Y3617D01*
X2436Y3616D01*
X2436Y3613D01*
X2435Y3611D01*
X2435Y3608D01*
X2434Y3604D01*
X2434Y3601D01*
Y3601D01*
Y3600D01*
Y3599D01*
Y3599D01*
X2434Y3598D01*
Y3596D01*
X2434Y3595D01*
X2435Y3593D01*
X2435Y3590D01*
X2436Y3587D01*
X2437Y3583D01*
X2438Y3579D01*
Y3579D01*
X2438Y3579D01*
X2438Y3579D01*
X2438Y3578D01*
X2439Y3576D01*
X2440Y3574D01*
X2442Y3572D01*
X2444Y3570D01*
X2446Y3568D01*
X2449Y3566D01*
X2449D01*
X2449Y3565D01*
X2450Y3565D01*
X2450Y3565D01*
X2451Y3565D01*
X2452Y3564D01*
X2454Y3563D01*
X2456Y3563D01*
X2459Y3562D01*
X2462Y3561D01*
X2465Y3561D01*
X2466D01*
X2467Y3561D01*
X2468D01*
X2469Y3561D01*
X2471Y3562D01*
X2474Y3563D01*
X2477Y3564D01*
X2480Y3565D01*
X2482Y3566D01*
X2483Y3567D01*
X2483Y3567D01*
X2483Y3568D01*
X2484Y3568D01*
X2484Y3568D01*
X2485Y3569D01*
X2486Y3570D01*
X2486Y3571D01*
X2487Y3572D01*
X2488Y3573D01*
X2489Y3574D01*
X2490Y3576D01*
X2491Y3578D01*
X2491Y3579D01*
X2492Y3581D01*
X2493Y3583D01*
X2493Y3586D01*
X2506Y3582D01*
Y3582D01*
X2506Y3582D01*
X2506Y3581D01*
X2505Y3580D01*
X2505Y3579D01*
X2504Y3577D01*
X2504Y3575D01*
X2503Y3574D01*
X2501Y3570D01*
X2498Y3566D01*
X2497Y3564D01*
X2495Y3562D01*
X2494Y3560D01*
X2492Y3559D01*
X2491Y3558D01*
X2491Y3558D01*
X2491Y3558D01*
X2490Y3557D01*
X2489Y3557D01*
X2488Y3556D01*
X2486Y3555D01*
X2485Y3555D01*
X2483Y3554D01*
X2481Y3553D01*
X2479Y3552D01*
X2476Y3552D01*
X2474Y3551D01*
X2472Y3551D01*
X2469Y3550D01*
X2466Y3550D01*
X2465D01*
X2464Y3550D01*
X2462D01*
X2461Y3551D01*
X2459Y3551D01*
X2457Y3551D01*
X2453Y3552D01*
X2449Y3553D01*
X2445Y3555D01*
X2443Y3555D01*
X2441Y3557D01*
X2441Y3557D01*
X2441Y3557D01*
X2440Y3557D01*
X2439Y3558D01*
X2439Y3558D01*
X2438Y3559D01*
X2437Y3560D01*
X2435Y3561D01*
X2434Y3563D01*
X2433Y3564D01*
X2431Y3567D01*
X2428Y3571D01*
X2426Y3575D01*
Y3575D01*
X2426Y3575D01*
X2426Y3576D01*
X2425Y3577D01*
X2425Y3578D01*
X2425Y3579D01*
X2424Y3581D01*
X2424Y3583D01*
X2423Y3584D01*
X2423Y3587D01*
X2422Y3591D01*
X2421Y3596D01*
X2421Y3601D01*
Y3601D01*
Y3601D01*
Y3602D01*
X2421Y3603D01*
Y3605D01*
X2421Y3606D01*
X2422Y3608D01*
X2422Y3610D01*
X2423Y3614D01*
X2424Y3618D01*
X2425Y3622D01*
X2427Y3627D01*
X2427Y3627D01*
X2427Y3627D01*
X2427Y3628D01*
X2428Y3629D01*
X2429Y3630D01*
X2429Y3631D01*
X2431Y3633D01*
X2433Y3636D01*
X2436Y3639D01*
X2439Y3641D01*
X2443Y3644D01*
X2443Y3644D01*
X2444Y3644D01*
X2444Y3644D01*
X2445Y3645D01*
X2446Y3645D01*
X2447Y3646D01*
X2448Y3646D01*
X2450Y3647D01*
X2452Y3647D01*
X2453Y3648D01*
X2457Y3649D01*
X2462Y3649D01*
X2466Y3650D01*
X2468D01*
X2469Y3650D01*
D02*
G37*
G36*
X2551Y3648D02*
X2552Y3648D01*
X2553Y3648D01*
X2555Y3648D01*
X2557Y3647D01*
X2560Y3646D01*
X2564Y3645D01*
X2566Y3644D01*
X2567Y3643D01*
X2569Y3642D01*
X2571Y3641D01*
X2571Y3640D01*
X2571Y3640D01*
X2571Y3640D01*
X2572Y3639D01*
X2572Y3639D01*
X2573Y3638D01*
X2574Y3637D01*
X2575Y3635D01*
X2576Y3633D01*
X2577Y3629D01*
X2578Y3628D01*
X2578Y3626D01*
X2579Y3624D01*
X2579Y3622D01*
Y3621D01*
Y3621D01*
X2579Y3620D01*
X2578Y3618D01*
X2578Y3617D01*
X2578Y3615D01*
X2577Y3612D01*
X2576Y3610D01*
X2576Y3610D01*
X2576Y3609D01*
X2575Y3608D01*
X2574Y3607D01*
X2573Y3605D01*
X2572Y3603D01*
X2570Y3601D01*
X2568Y3599D01*
X2568Y3598D01*
X2567Y3598D01*
X2567Y3597D01*
X2566Y3596D01*
X2565Y3595D01*
X2564Y3594D01*
X2563Y3593D01*
X2562Y3592D01*
X2560Y3590D01*
X2558Y3589D01*
X2557Y3587D01*
X2555Y3586D01*
X2552Y3584D01*
X2550Y3582D01*
X2550Y3582D01*
X2550Y3581D01*
X2549Y3581D01*
X2549Y3580D01*
X2548Y3580D01*
X2547Y3579D01*
X2545Y3577D01*
X2542Y3575D01*
X2540Y3573D01*
X2538Y3571D01*
X2537Y3570D01*
X2537Y3570D01*
X2536Y3569D01*
X2536Y3569D01*
X2535Y3569D01*
X2535Y3568D01*
X2534Y3567D01*
X2533Y3566D01*
X2532Y3563D01*
X2579D01*
Y3552D01*
X2515D01*
Y3552D01*
Y3553D01*
Y3554D01*
X2515Y3555D01*
X2515Y3556D01*
X2516Y3557D01*
X2516Y3559D01*
X2517Y3560D01*
Y3560D01*
X2517Y3560D01*
X2517Y3561D01*
X2518Y3563D01*
X2518Y3564D01*
X2519Y3566D01*
X2521Y3568D01*
X2522Y3571D01*
X2524Y3573D01*
Y3573D01*
X2525Y3573D01*
X2525Y3574D01*
X2527Y3575D01*
X2528Y3577D01*
X2530Y3579D01*
X2533Y3582D01*
X2536Y3584D01*
X2540Y3587D01*
X2540Y3588D01*
X2540Y3588D01*
X2541Y3589D01*
X2542Y3589D01*
X2543Y3591D01*
X2545Y3592D01*
X2547Y3593D01*
X2548Y3595D01*
X2552Y3598D01*
X2555Y3601D01*
X2557Y3603D01*
X2558Y3605D01*
X2560Y3606D01*
X2561Y3608D01*
Y3608D01*
X2561Y3608D01*
X2562Y3608D01*
X2562Y3609D01*
X2563Y3611D01*
X2564Y3612D01*
X2565Y3615D01*
X2566Y3617D01*
X2566Y3620D01*
X2567Y3622D01*
Y3622D01*
Y3622D01*
X2566Y3623D01*
X2566Y3625D01*
X2566Y3626D01*
X2565Y3628D01*
X2564Y3630D01*
X2563Y3632D01*
X2562Y3634D01*
X2561Y3634D01*
X2561Y3635D01*
X2560Y3635D01*
X2558Y3636D01*
X2556Y3637D01*
X2554Y3638D01*
X2551Y3639D01*
X2548Y3639D01*
X2547D01*
X2547Y3639D01*
X2545Y3638D01*
X2543Y3638D01*
X2541Y3637D01*
X2539Y3636D01*
X2537Y3635D01*
X2535Y3634D01*
X2534Y3633D01*
X2534Y3633D01*
X2533Y3631D01*
X2532Y3630D01*
X2531Y3628D01*
X2530Y3625D01*
X2530Y3623D01*
X2529Y3619D01*
X2517Y3621D01*
Y3621D01*
X2518Y3621D01*
Y3622D01*
X2518Y3623D01*
X2518Y3624D01*
X2518Y3625D01*
X2519Y3627D01*
X2519Y3628D01*
X2520Y3632D01*
X2522Y3635D01*
X2523Y3637D01*
X2524Y3638D01*
X2525Y3640D01*
X2527Y3641D01*
X2527Y3641D01*
X2527Y3641D01*
X2528Y3642D01*
X2528Y3642D01*
X2529Y3643D01*
X2530Y3643D01*
X2531Y3644D01*
X2533Y3645D01*
X2534Y3645D01*
X2536Y3646D01*
X2538Y3647D01*
X2539Y3647D01*
X2542Y3648D01*
X2544Y3648D01*
X2546Y3648D01*
X2549Y3648D01*
X2550D01*
X2551Y3648D01*
D02*
G37*
G36*
X2228Y2750D02*
X2229Y2749D01*
X2230Y2749D01*
X2232Y2749D01*
X2234Y2749D01*
X2237Y2748D01*
X2242Y2747D01*
X2244Y2746D01*
X2246Y2745D01*
X2248Y2744D01*
X2249Y2742D01*
X2250Y2742D01*
X2250Y2742D01*
X2250Y2742D01*
X2251Y2741D01*
X2252Y2740D01*
X2253Y2739D01*
X2254Y2738D01*
X2255Y2737D01*
X2256Y2736D01*
X2257Y2734D01*
X2258Y2732D01*
X2259Y2731D01*
X2260Y2728D01*
X2262Y2726D01*
X2262Y2724D01*
X2263Y2722D01*
X2251Y2719D01*
Y2719D01*
X2251Y2719D01*
X2250Y2720D01*
X2250Y2720D01*
X2250Y2721D01*
X2249Y2722D01*
X2248Y2725D01*
X2247Y2727D01*
X2245Y2730D01*
X2243Y2732D01*
X2241Y2734D01*
X2241Y2734D01*
X2240Y2735D01*
X2238Y2736D01*
X2237Y2736D01*
X2234Y2737D01*
X2232Y2738D01*
X2228Y2739D01*
X2225Y2739D01*
X2224D01*
X2223Y2739D01*
X2222D01*
X2221Y2739D01*
X2218Y2738D01*
X2215Y2738D01*
X2212Y2737D01*
X2209Y2735D01*
X2206Y2733D01*
X2206D01*
X2206Y2733D01*
X2205Y2732D01*
X2204Y2731D01*
X2202Y2730D01*
X2200Y2728D01*
X2199Y2725D01*
X2197Y2722D01*
X2196Y2719D01*
Y2719D01*
X2196Y2719D01*
X2196Y2718D01*
X2195Y2718D01*
X2195Y2717D01*
X2195Y2716D01*
X2195Y2713D01*
X2194Y2711D01*
X2193Y2708D01*
X2193Y2704D01*
X2193Y2701D01*
Y2701D01*
Y2700D01*
Y2699D01*
Y2699D01*
X2193Y2698D01*
Y2696D01*
X2193Y2695D01*
X2193Y2693D01*
X2194Y2690D01*
X2195Y2687D01*
X2195Y2683D01*
X2196Y2679D01*
Y2679D01*
X2197Y2679D01*
X2197Y2679D01*
X2197Y2678D01*
X2198Y2676D01*
X2199Y2674D01*
X2201Y2672D01*
X2203Y2670D01*
X2205Y2668D01*
X2208Y2666D01*
X2208D01*
X2208Y2665D01*
X2208Y2665D01*
X2209Y2665D01*
X2210Y2665D01*
X2210Y2664D01*
X2212Y2663D01*
X2215Y2663D01*
X2218Y2662D01*
X2221Y2661D01*
X2224Y2661D01*
X2225D01*
X2226Y2661D01*
X2227D01*
X2228Y2661D01*
X2230Y2662D01*
X2233Y2663D01*
X2236Y2664D01*
X2239Y2665D01*
X2241Y2666D01*
X2242Y2667D01*
X2242Y2667D01*
X2242Y2668D01*
X2243Y2668D01*
X2243Y2668D01*
X2244Y2669D01*
X2244Y2670D01*
X2245Y2671D01*
X2246Y2672D01*
X2247Y2673D01*
X2248Y2674D01*
X2249Y2676D01*
X2249Y2678D01*
X2250Y2679D01*
X2251Y2681D01*
X2252Y2683D01*
X2252Y2686D01*
X2265Y2682D01*
Y2682D01*
X2265Y2682D01*
X2264Y2681D01*
X2264Y2680D01*
X2264Y2679D01*
X2263Y2677D01*
X2262Y2675D01*
X2262Y2674D01*
X2260Y2670D01*
X2257Y2666D01*
X2256Y2664D01*
X2254Y2662D01*
X2252Y2660D01*
X2250Y2659D01*
X2250Y2658D01*
X2250Y2658D01*
X2249Y2658D01*
X2249Y2657D01*
X2248Y2657D01*
X2246Y2656D01*
X2245Y2655D01*
X2243Y2655D01*
X2242Y2654D01*
X2240Y2653D01*
X2238Y2652D01*
X2235Y2652D01*
X2233Y2651D01*
X2230Y2651D01*
X2228Y2650D01*
X2225Y2650D01*
X2224D01*
X2222Y2650D01*
X2221D01*
X2220Y2651D01*
X2218Y2651D01*
X2216Y2651D01*
X2212Y2652D01*
X2208Y2653D01*
X2204Y2655D01*
X2202Y2655D01*
X2200Y2657D01*
X2200Y2657D01*
X2199Y2657D01*
X2199Y2657D01*
X2198Y2658D01*
X2197Y2658D01*
X2196Y2659D01*
X2195Y2660D01*
X2194Y2661D01*
X2193Y2663D01*
X2192Y2664D01*
X2189Y2667D01*
X2187Y2671D01*
X2185Y2675D01*
Y2675D01*
X2185Y2675D01*
X2185Y2676D01*
X2184Y2677D01*
X2184Y2678D01*
X2183Y2679D01*
X2183Y2681D01*
X2182Y2683D01*
X2182Y2684D01*
X2181Y2687D01*
X2181Y2691D01*
X2180Y2696D01*
X2180Y2701D01*
Y2701D01*
Y2701D01*
Y2702D01*
X2180Y2703D01*
Y2705D01*
X2180Y2706D01*
X2180Y2708D01*
X2181Y2710D01*
X2181Y2714D01*
X2182Y2718D01*
X2184Y2722D01*
X2186Y2727D01*
X2186Y2727D01*
X2186Y2727D01*
X2186Y2728D01*
X2187Y2729D01*
X2187Y2730D01*
X2188Y2731D01*
X2190Y2733D01*
X2192Y2736D01*
X2195Y2739D01*
X2198Y2741D01*
X2202Y2744D01*
X2202Y2744D01*
X2202Y2744D01*
X2203Y2744D01*
X2204Y2745D01*
X2205Y2745D01*
X2206Y2746D01*
X2207Y2746D01*
X2209Y2747D01*
X2210Y2747D01*
X2212Y2748D01*
X2216Y2749D01*
X2221Y2749D01*
X2225Y2750D01*
X2227D01*
X2228Y2750D01*
D02*
G37*
G36*
X2320Y2652D02*
X2308D01*
Y2727D01*
X2308Y2727D01*
X2307Y2726D01*
X2307Y2726D01*
X2305Y2725D01*
X2304Y2723D01*
X2302Y2722D01*
X2300Y2720D01*
X2297Y2719D01*
X2297D01*
X2297Y2719D01*
X2296Y2718D01*
X2295Y2717D01*
X2293Y2717D01*
X2291Y2716D01*
X2289Y2715D01*
X2287Y2714D01*
X2285Y2713D01*
Y2724D01*
X2285D01*
X2285Y2725D01*
X2286Y2725D01*
X2286Y2725D01*
X2287Y2726D01*
X2288Y2726D01*
X2290Y2727D01*
X2293Y2729D01*
X2296Y2731D01*
X2299Y2733D01*
X2302Y2736D01*
X2302Y2736D01*
X2302Y2736D01*
X2303Y2736D01*
X2303Y2737D01*
X2304Y2738D01*
X2306Y2740D01*
X2308Y2742D01*
X2309Y2744D01*
X2311Y2746D01*
X2312Y2748D01*
X2320D01*
Y2652D01*
D02*
G37*
%LPC*%
G36*
X4014Y3193D02*
X4014D01*
X4014D01*
X4012Y3193D01*
X4010Y3193D01*
X4008Y3192D01*
X4005Y3191D01*
X4002Y3190D01*
X3999Y3187D01*
X3996Y3185D01*
X3995Y3184D01*
X3994Y3183D01*
X3993Y3181D01*
X3992Y3178D01*
X3990Y3175D01*
X3989Y3170D01*
X3988Y3165D01*
X3988Y3158D01*
Y3108D01*
X4041D01*
Y3156D01*
X4041Y3158D01*
X4041Y3162D01*
X4040Y3165D01*
X4040Y3169D01*
X4039Y3173D01*
X4038Y3176D01*
X4038Y3177D01*
X4038Y3177D01*
X4037Y3179D01*
X4036Y3181D01*
X4035Y3183D01*
X4033Y3185D01*
X4031Y3187D01*
X4029Y3189D01*
X4028Y3189D01*
X4027Y3189D01*
X4026Y3190D01*
X4024Y3191D01*
X4022Y3192D01*
X4020Y3192D01*
X4017Y3193D01*
X4014Y3193D01*
D02*
G37*
G36*
X2870Y4902D02*
X2870D01*
X2869Y4901D01*
X2869Y4901D01*
X2868Y4901D01*
X2867Y4901D01*
X2866Y4900D01*
X2864Y4900D01*
X2863Y4899D01*
X2861Y4899D01*
X2858Y4898D01*
X2856Y4898D01*
X2853Y4897D01*
X2850Y4896D01*
X2848Y4896D01*
X2844Y4895D01*
X2841Y4895D01*
X2840D01*
X2839Y4894D01*
X2837Y4894D01*
X2835Y4894D01*
X2832Y4893D01*
X2830Y4893D01*
X2827Y4892D01*
X2825Y4891D01*
X2825D01*
X2824Y4891D01*
X2824Y4890D01*
X2823Y4890D01*
X2820Y4888D01*
X2818Y4886D01*
Y4885D01*
X2818Y4885D01*
X2818Y4884D01*
X2817Y4883D01*
X2817Y4882D01*
X2816Y4881D01*
X2816Y4879D01*
X2816Y4877D01*
Y4877D01*
Y4876D01*
X2816Y4875D01*
X2816Y4873D01*
X2817Y4871D01*
X2818Y4869D01*
X2819Y4867D01*
X2821Y4865D01*
X2821Y4865D01*
X2822Y4865D01*
X2823Y4864D01*
X2825Y4863D01*
X2827Y4862D01*
X2830Y4861D01*
X2833Y4861D01*
X2837Y4861D01*
X2839D01*
X2841Y4861D01*
X2843Y4861D01*
X2846Y4862D01*
X2849Y4863D01*
X2852Y4864D01*
X2855Y4865D01*
X2855Y4865D01*
X2856Y4866D01*
X2858Y4867D01*
X2859Y4868D01*
X2861Y4870D01*
X2863Y4872D01*
X2865Y4875D01*
X2867Y4877D01*
X2867Y4878D01*
X2867Y4878D01*
X2868Y4880D01*
X2868Y4882D01*
X2869Y4884D01*
X2869Y4887D01*
X2869Y4891D01*
X2870Y4895D01*
X2870Y4902D01*
D02*
G37*
G36*
X2355D02*
X2354D01*
X2354Y4901D01*
X2353Y4901D01*
X2353Y4901D01*
X2352Y4901D01*
X2350Y4900D01*
X2349Y4900D01*
X2347Y4899D01*
X2345Y4899D01*
X2343Y4898D01*
X2341Y4898D01*
X2338Y4897D01*
X2335Y4896D01*
X2332Y4896D01*
X2329Y4895D01*
X2325Y4895D01*
X2325D01*
X2324Y4894D01*
X2322Y4894D01*
X2319Y4894D01*
X2317Y4893D01*
X2314Y4893D01*
X2312Y4892D01*
X2310Y4891D01*
X2310D01*
X2309Y4891D01*
X2308Y4890D01*
X2307Y4890D01*
X2305Y4888D01*
X2303Y4886D01*
Y4885D01*
X2302Y4885D01*
X2302Y4884D01*
X2302Y4883D01*
X2301Y4882D01*
X2301Y4881D01*
X2301Y4879D01*
X2301Y4877D01*
Y4877D01*
Y4876D01*
X2301Y4875D01*
X2301Y4873D01*
X2302Y4871D01*
X2303Y4869D01*
X2304Y4867D01*
X2306Y4865D01*
X2306Y4865D01*
X2307Y4865D01*
X2308Y4864D01*
X2310Y4863D01*
X2312Y4862D01*
X2315Y4861D01*
X2318Y4861D01*
X2322Y4861D01*
X2323D01*
X2325Y4861D01*
X2328Y4861D01*
X2331Y4862D01*
X2333Y4863D01*
X2337Y4864D01*
X2340Y4865D01*
X2340Y4865D01*
X2341Y4866D01*
X2342Y4867D01*
X2344Y4868D01*
X2346Y4870D01*
X2348Y4872D01*
X2350Y4875D01*
X2351Y4877D01*
X2352Y4878D01*
X2352Y4878D01*
X2352Y4880D01*
X2353Y4882D01*
X2353Y4884D01*
X2354Y4887D01*
X2354Y4891D01*
X2354Y4895D01*
X2355Y4902D01*
D02*
G37*
G36*
X2498Y4941D02*
X2497D01*
X2496Y4941D01*
X2493Y4941D01*
X2490Y4940D01*
X2487Y4939D01*
X2483Y4937D01*
X2479Y4935D01*
X2478Y4933D01*
X2476Y4931D01*
Y4931D01*
X2476Y4931D01*
X2475Y4930D01*
X2474Y4929D01*
X2474Y4928D01*
X2473Y4927D01*
X2472Y4926D01*
X2472Y4924D01*
X2471Y4922D01*
X2470Y4920D01*
X2469Y4917D01*
X2469Y4914D01*
X2468Y4912D01*
X2468Y4908D01*
X2467Y4905D01*
X2467Y4901D01*
Y4901D01*
Y4901D01*
Y4899D01*
X2467Y4898D01*
Y4896D01*
X2468Y4894D01*
X2468Y4890D01*
X2469Y4885D01*
X2471Y4880D01*
X2473Y4875D01*
X2474Y4873D01*
X2476Y4871D01*
X2476D01*
X2476Y4871D01*
X2478Y4870D01*
X2479Y4868D01*
X2482Y4866D01*
X2485Y4864D01*
X2489Y4863D01*
X2493Y4862D01*
X2496Y4862D01*
X2498Y4861D01*
X2499D01*
X2500Y4862D01*
X2503Y4862D01*
X2506Y4863D01*
X2509Y4864D01*
X2513Y4866D01*
X2516Y4868D01*
X2518Y4870D01*
X2520Y4871D01*
X2520Y4872D01*
X2520Y4872D01*
X2521Y4872D01*
X2521Y4873D01*
X2522Y4874D01*
X2523Y4876D01*
X2524Y4877D01*
X2524Y4879D01*
X2525Y4881D01*
X2526Y4883D01*
X2527Y4886D01*
X2527Y4888D01*
X2528Y4892D01*
X2528Y4895D01*
X2529Y4898D01*
Y4902D01*
Y4902D01*
Y4903D01*
Y4904D01*
X2529Y4905D01*
Y4907D01*
X2528Y4909D01*
X2528Y4913D01*
X2527Y4918D01*
X2525Y4923D01*
X2523Y4927D01*
X2522Y4929D01*
X2520Y4931D01*
Y4932D01*
X2519Y4932D01*
X2518Y4933D01*
X2516Y4934D01*
X2514Y4936D01*
X2511Y4938D01*
X2507Y4940D01*
X2503Y4941D01*
X2501Y4941D01*
X2498Y4941D01*
D02*
G37*
G36*
X2017D02*
X2016D01*
X2015Y4941D01*
X2013Y4941D01*
X2010Y4940D01*
X2006Y4939D01*
X2003Y4938D01*
X2000Y4936D01*
X1996Y4933D01*
X1996Y4933D01*
X1995Y4932D01*
X1994Y4930D01*
X1992Y4927D01*
X1990Y4924D01*
X1989Y4921D01*
X1988Y4916D01*
X1987Y4911D01*
X2046D01*
Y4912D01*
Y4912D01*
X2045Y4913D01*
Y4913D01*
X2045Y4916D01*
X2044Y4919D01*
X2043Y4922D01*
X2042Y4925D01*
X2041Y4928D01*
X2039Y4931D01*
Y4931D01*
X2038Y4931D01*
X2037Y4933D01*
X2035Y4934D01*
X2033Y4936D01*
X2030Y4938D01*
X2026Y4940D01*
X2022Y4941D01*
X2019Y4941D01*
X2017Y4941D01*
D02*
G37*
G36*
X2677D02*
X2673D01*
X2673Y4941D01*
X2670Y4941D01*
X2668Y4940D01*
X2664Y4939D01*
X2661Y4937D01*
X2658Y4935D01*
X2656Y4933D01*
X2654Y4932D01*
Y4931D01*
X2654Y4931D01*
X2653Y4931D01*
X2653Y4930D01*
X2652Y4929D01*
X2652Y4928D01*
X2651Y4926D01*
X2650Y4924D01*
X2649Y4923D01*
X2649Y4920D01*
X2648Y4918D01*
X2647Y4916D01*
X2647Y4913D01*
X2647Y4910D01*
X2646Y4907D01*
Y4903D01*
Y4903D01*
Y4902D01*
Y4901D01*
X2646Y4900D01*
Y4898D01*
X2647Y4896D01*
X2647Y4892D01*
X2648Y4887D01*
X2649Y4882D01*
X2652Y4877D01*
X2653Y4875D01*
X2654Y4873D01*
X2655Y4873D01*
X2656Y4872D01*
X2657Y4870D01*
X2660Y4868D01*
X2663Y4867D01*
X2666Y4865D01*
X2670Y4864D01*
X2672Y4864D01*
X2675Y4864D01*
X2676D01*
X2677Y4864D01*
X2679Y4864D01*
X2682Y4865D01*
X2685Y4866D01*
X2689Y4868D01*
X2692Y4870D01*
X2694Y4871D01*
X2695Y4873D01*
Y4873D01*
X2696Y4873D01*
X2696Y4874D01*
X2697Y4875D01*
X2697Y4876D01*
X2698Y4877D01*
X2699Y4878D01*
X2699Y4880D01*
X2700Y4882D01*
X2701Y4884D01*
X2702Y4887D01*
X2702Y4889D01*
X2703Y4892D01*
X2703Y4895D01*
X2704Y4899D01*
Y4902D01*
Y4903D01*
Y4903D01*
Y4904D01*
X2703Y4906D01*
Y4907D01*
X2703Y4909D01*
X2703Y4913D01*
X2702Y4918D01*
X2700Y4923D01*
X2698Y4928D01*
X2697Y4930D01*
X2695Y4932D01*
Y4932D01*
X2695Y4932D01*
X2694Y4933D01*
X2692Y4935D01*
X2689Y4937D01*
X2686Y4938D01*
X2683Y4940D01*
X2679Y4941D01*
X2677Y4941D01*
D02*
G37*
G36*
X1838Y3637D02*
X1807D01*
Y3605D01*
X1836D01*
X1838Y3605D01*
X1840Y3606D01*
X1842Y3606D01*
X1844Y3606D01*
X1846Y3606D01*
X1848Y3607D01*
X1848Y3607D01*
X1849Y3607D01*
X1850Y3608D01*
X1851Y3608D01*
X1852Y3609D01*
X1853Y3610D01*
X1855Y3611D01*
X1856Y3613D01*
X1856Y3613D01*
X1856Y3614D01*
X1856Y3614D01*
X1857Y3615D01*
X1857Y3617D01*
X1858Y3618D01*
X1858Y3620D01*
X1858Y3621D01*
Y3622D01*
Y3622D01*
X1858Y3623D01*
X1858Y3624D01*
X1858Y3625D01*
X1857Y3627D01*
X1856Y3629D01*
X1855Y3631D01*
X1853Y3633D01*
X1853Y3633D01*
X1852Y3633D01*
X1851Y3634D01*
X1849Y3635D01*
X1847Y3636D01*
X1845Y3636D01*
X1841Y3637D01*
X1838Y3637D01*
D02*
G37*
G36*
X2566Y337D02*
X2535D01*
Y306D01*
X2564D01*
X2566Y306D01*
X2568Y306D01*
X2570Y306D01*
X2572Y306D01*
X2574Y307D01*
X2576Y307D01*
X2576Y307D01*
X2577Y308D01*
X2578Y308D01*
X2579Y309D01*
X2580Y309D01*
X2581Y310D01*
X2583Y312D01*
X2584Y313D01*
X2584Y313D01*
X2584Y314D01*
X2584Y315D01*
X2585Y316D01*
X2585Y317D01*
X2586Y318D01*
X2586Y320D01*
X2586Y322D01*
Y322D01*
Y322D01*
X2586Y323D01*
X2586Y324D01*
X2586Y326D01*
X2585Y327D01*
X2584Y329D01*
X2583Y331D01*
X2581Y333D01*
X2581Y333D01*
X2580Y334D01*
X2579Y334D01*
X2577Y335D01*
X2575Y336D01*
X2573Y337D01*
X2569Y337D01*
X2566Y337D01*
D02*
G37*
G36*
X3097Y305D02*
X3096D01*
X3095Y304D01*
X3094Y304D01*
X3092Y304D01*
X3090Y303D01*
X3087Y302D01*
X3085Y301D01*
X3083Y299D01*
X3083Y298D01*
X3082Y298D01*
X3081Y296D01*
X3080Y295D01*
X3079Y293D01*
X3078Y290D01*
X3078Y287D01*
X3077Y284D01*
Y283D01*
Y283D01*
X3078Y281D01*
X3078Y280D01*
X3078Y278D01*
X3079Y276D01*
X3079Y274D01*
X3080Y272D01*
X3080Y272D01*
X3081Y271D01*
X3081Y270D01*
X3082Y269D01*
X3083Y268D01*
X3084Y266D01*
X3086Y265D01*
X3087Y264D01*
X3087Y263D01*
X3088Y263D01*
X3089Y263D01*
X3090Y262D01*
X3092Y262D01*
X3093Y261D01*
X3095Y261D01*
X3097Y261D01*
X3098D01*
X3098Y261D01*
X3100Y261D01*
X3101Y261D01*
X3103Y262D01*
X3106Y263D01*
X3108Y265D01*
X3109Y266D01*
X3110Y267D01*
Y267D01*
X3110Y267D01*
X3111Y268D01*
X3112Y269D01*
X3113Y271D01*
X3114Y273D01*
X3114Y276D01*
X3115Y279D01*
X3115Y283D01*
Y283D01*
Y283D01*
Y284D01*
X3115Y285D01*
Y286D01*
X3115Y286D01*
X3115Y289D01*
X3114Y291D01*
X3113Y294D01*
X3112Y296D01*
X3110Y299D01*
X3110Y299D01*
X3109Y300D01*
X3108Y300D01*
X3106Y302D01*
X3104Y303D01*
X3102Y304D01*
X3100Y304D01*
X3097Y305D01*
D02*
G37*
G36*
X3016Y338D02*
X2985D01*
Y306D01*
X3014D01*
X3016Y306D01*
X3018Y306D01*
X3020Y307D01*
X3022Y307D01*
X3024Y307D01*
X3026Y308D01*
X3026Y308D01*
X3027Y308D01*
X3028Y309D01*
X3029Y309D01*
X3030Y310D01*
X3031Y311D01*
X3033Y312D01*
X3034Y314D01*
X3034Y314D01*
X3034Y314D01*
X3034Y315D01*
X3035Y316D01*
X3035Y318D01*
X3036Y319D01*
X3036Y321D01*
X3036Y322D01*
Y322D01*
Y323D01*
X3036Y323D01*
X3036Y325D01*
X3036Y326D01*
X3035Y328D01*
X3034Y330D01*
X3033Y332D01*
X3031Y333D01*
X3031Y334D01*
X3030Y334D01*
X3029Y335D01*
X3027Y336D01*
X3025Y337D01*
X3023Y337D01*
X3019Y338D01*
X3016Y338D01*
D02*
G37*
G36*
X3465Y338D02*
X3435D01*
Y306D01*
X3464D01*
X3465Y307D01*
X3467Y307D01*
X3469Y307D01*
X3472Y307D01*
X3474Y307D01*
X3476Y308D01*
X3476Y308D01*
X3477Y308D01*
X3477Y309D01*
X3479Y309D01*
X3480Y310D01*
X3481Y311D01*
X3482Y312D01*
X3483Y314D01*
X3483Y314D01*
X3484Y315D01*
X3484Y315D01*
X3485Y317D01*
X3485Y318D01*
X3486Y319D01*
X3486Y321D01*
X3486Y322D01*
Y323D01*
Y323D01*
X3486Y324D01*
X3486Y325D01*
X3485Y326D01*
X3485Y328D01*
X3484Y330D01*
X3483Y332D01*
X3481Y334D01*
X3481Y334D01*
X3480Y334D01*
X3479Y335D01*
X3477Y336D01*
X3475Y337D01*
X3472Y337D01*
X3469Y338D01*
X3465Y338D01*
D02*
G37*
G36*
X652Y4229D02*
X622Y4186D01*
X652D01*
Y4229D01*
D02*
G37*
G36*
X566Y4237D02*
X536D01*
Y4206D01*
X564D01*
X566Y4206D01*
X568Y4206D01*
X570Y4206D01*
X572Y4206D01*
X574Y4207D01*
X576Y4207D01*
X577Y4207D01*
X577Y4208D01*
X578Y4208D01*
X579Y4209D01*
X580Y4209D01*
X582Y4210D01*
X583Y4212D01*
X584Y4213D01*
X584Y4213D01*
X584Y4214D01*
X585Y4215D01*
X585Y4216D01*
X586Y4217D01*
X586Y4218D01*
X586Y4220D01*
X586Y4222D01*
Y4222D01*
Y4222D01*
X586Y4223D01*
X586Y4224D01*
X586Y4226D01*
X585Y4227D01*
X584Y4229D01*
X583Y4231D01*
X581Y4233D01*
X581Y4233D01*
X581Y4234D01*
X579Y4234D01*
X578Y4235D01*
X576Y4236D01*
X573Y4237D01*
X570Y4237D01*
X566Y4237D01*
D02*
G37*
G36*
X3766Y3888D02*
X3735D01*
Y3856D01*
X3764D01*
X3766Y3856D01*
X3768Y3856D01*
X3770Y3857D01*
X3772Y3857D01*
X3774Y3857D01*
X3776Y3858D01*
X3776Y3858D01*
X3777Y3858D01*
X3778Y3859D01*
X3779Y3859D01*
X3780Y3860D01*
X3781Y3861D01*
X3783Y3862D01*
X3784Y3864D01*
X3784Y3864D01*
X3784Y3864D01*
X3784Y3865D01*
X3785Y3866D01*
X3785Y3868D01*
X3786Y3869D01*
X3786Y3871D01*
X3786Y3872D01*
Y3872D01*
Y3873D01*
X3786Y3873D01*
X3786Y3875D01*
X3786Y3876D01*
X3785Y3878D01*
X3784Y3880D01*
X3783Y3882D01*
X3781Y3883D01*
X3781Y3884D01*
X3780Y3884D01*
X3779Y3885D01*
X3777Y3886D01*
X3775Y3887D01*
X3773Y3887D01*
X3769Y3888D01*
X3766Y3888D01*
D02*
G37*
G36*
X3431Y4622D02*
X3408Y4599D01*
X3429Y4579D01*
X3430Y4578D01*
X3431Y4577D01*
X3433Y4575D01*
X3435Y4574D01*
X3437Y4572D01*
X3438Y4571D01*
X3439Y4571D01*
X3439Y4571D01*
X3440Y4571D01*
X3441Y4570D01*
X3443Y4570D01*
X3444Y4570D01*
X3446D01*
X3448Y4570D01*
X3448D01*
X3449Y4570D01*
X3450Y4571D01*
X3451Y4571D01*
X3452Y4572D01*
X3453Y4572D01*
X3455Y4573D01*
X3456Y4575D01*
X3456Y4575D01*
X3456Y4575D01*
X3456Y4575D01*
X3457Y4576D01*
X3458Y4578D01*
X3459Y4579D01*
X3460Y4581D01*
X3460Y4584D01*
X3460Y4586D01*
X3460Y4586D01*
X3460Y4587D01*
X3460Y4588D01*
X3459Y4590D01*
X3458Y4592D01*
X3457Y4595D01*
X3455Y4597D01*
X3452Y4600D01*
X3431Y4622D01*
D02*
G37*
G36*
X3925Y337D02*
X3895D01*
Y305D01*
X3923D01*
X3925Y305D01*
X3927Y306D01*
X3929Y306D01*
X3931Y306D01*
X3933Y306D01*
X3935Y307D01*
X3936Y307D01*
X3936Y307D01*
X3937Y308D01*
X3938Y308D01*
X3939Y309D01*
X3941Y310D01*
X3942Y311D01*
X3943Y313D01*
X3943Y313D01*
X3943Y314D01*
X3944Y314D01*
X3944Y315D01*
X3945Y317D01*
X3945Y318D01*
X3945Y320D01*
X3946Y321D01*
Y322D01*
Y322D01*
X3945Y323D01*
X3945Y324D01*
X3945Y325D01*
X3944Y327D01*
X3943Y329D01*
X3942Y331D01*
X3941Y333D01*
X3940Y333D01*
X3940Y333D01*
X3938Y334D01*
X3937Y335D01*
X3935Y336D01*
X3932Y336D01*
X3929Y337D01*
X3925Y337D01*
D02*
G37*
G36*
X2222Y4492D02*
X2220D01*
X2219Y4491D01*
X2218Y4491D01*
X2217Y4491D01*
X2215Y4491D01*
X2214Y4490D01*
X2212Y4490D01*
X2210Y4489D01*
X2208Y4488D01*
X2206Y4487D01*
X2204Y4486D01*
X2202Y4485D01*
X2200Y4484D01*
X2198Y4482D01*
X2198Y4482D01*
X2198Y4481D01*
X2197Y4481D01*
X2197Y4480D01*
X2196Y4479D01*
X2195Y4478D01*
X2194Y4476D01*
X2194Y4475D01*
X2193Y4473D01*
X2192Y4470D01*
X2191Y4468D01*
X2190Y4465D01*
X2190Y4463D01*
X2189Y4460D01*
X2189Y4456D01*
X2189Y4453D01*
Y4452D01*
Y4452D01*
Y4451D01*
X2189Y4450D01*
X2189Y4448D01*
X2189Y4446D01*
X2190Y4444D01*
X2190Y4442D01*
X2191Y4438D01*
X2192Y4435D01*
X2193Y4433D01*
X2194Y4430D01*
X2195Y4428D01*
X2196Y4426D01*
X2198Y4424D01*
X2198Y4424D01*
X2198Y4424D01*
X2199Y4423D01*
X2200Y4423D01*
X2201Y4422D01*
X2202Y4421D01*
X2203Y4420D01*
X2205Y4419D01*
X2206Y4418D01*
X2208Y4417D01*
X2210Y4416D01*
X2212Y4416D01*
X2214Y4415D01*
X2217Y4414D01*
X2219Y4414D01*
X2222Y4414D01*
X2223D01*
X2224Y4414D01*
X2226Y4414D01*
X2228Y4415D01*
X2230Y4415D01*
X2232Y4416D01*
X2235Y4417D01*
X2234Y4417D01*
X2234Y4417D01*
X2232Y4418D01*
X2231Y4419D01*
X2229Y4420D01*
X2227Y4421D01*
X2224Y4421D01*
X2222Y4422D01*
X2225Y4431D01*
X2225D01*
X2226Y4431D01*
X2226Y4431D01*
X2227Y4431D01*
X2228Y4430D01*
X2229Y4430D01*
X2232Y4429D01*
X2234Y4428D01*
X2238Y4426D01*
X2240Y4424D01*
X2243Y4422D01*
X2243Y4422D01*
X2244Y4423D01*
X2244Y4423D01*
X2245Y4424D01*
X2246Y4425D01*
X2247Y4426D01*
X2248Y4428D01*
X2249Y4430D01*
X2250Y4432D01*
X2251Y4434D01*
X2252Y4437D01*
X2253Y4439D01*
X2254Y4442D01*
X2254Y4446D01*
X2254Y4449D01*
X2255Y4453D01*
Y4453D01*
Y4453D01*
Y4454D01*
Y4455D01*
X2254Y4456D01*
Y4457D01*
X2254Y4458D01*
X2254Y4460D01*
X2254Y4463D01*
X2253Y4466D01*
X2252Y4470D01*
X2251Y4473D01*
Y4473D01*
X2250Y4474D01*
X2250Y4474D01*
X2250Y4475D01*
X2249Y4476D01*
X2248Y4478D01*
X2246Y4480D01*
X2244Y4483D01*
X2242Y4485D01*
X2239Y4487D01*
X2239D01*
X2239Y4487D01*
X2238Y4487D01*
X2238Y4488D01*
X2237Y4488D01*
X2236Y4488D01*
X2234Y4489D01*
X2231Y4490D01*
X2229Y4491D01*
X2225Y4491D01*
X2222Y4492D01*
D02*
G37*
G36*
X402Y3929D02*
X372Y3886D01*
X402D01*
Y3929D01*
D02*
G37*
G36*
X308Y3937D02*
X286D01*
Y3863D01*
X308D01*
X309Y3864D01*
X311Y3864D01*
X314Y3864D01*
X316Y3864D01*
X319Y3864D01*
X321Y3865D01*
X321Y3865D01*
X322Y3865D01*
X323Y3866D01*
X324Y3866D01*
X325Y3867D01*
X327Y3868D01*
X328Y3869D01*
X329Y3870D01*
X330Y3870D01*
X330Y3871D01*
X331Y3872D01*
X332Y3873D01*
X333Y3875D01*
X334Y3877D01*
X335Y3879D01*
X336Y3882D01*
Y3882D01*
X337Y3883D01*
X337Y3883D01*
X337Y3883D01*
X337Y3884D01*
X337Y3885D01*
X338Y3886D01*
X338Y3887D01*
X338Y3890D01*
X339Y3893D01*
X339Y3897D01*
X339Y3901D01*
Y3901D01*
Y3901D01*
Y3902D01*
X339Y3903D01*
Y3904D01*
X339Y3906D01*
X339Y3907D01*
X338Y3909D01*
X338Y3913D01*
X337Y3917D01*
X336Y3920D01*
X335Y3922D01*
X334Y3924D01*
Y3924D01*
X334Y3924D01*
X333Y3925D01*
X333Y3925D01*
X332Y3926D01*
X331Y3928D01*
X329Y3930D01*
X327Y3932D01*
X324Y3933D01*
X322Y3935D01*
X322Y3935D01*
X321Y3935D01*
X320Y3935D01*
X318Y3936D01*
X316Y3936D01*
X313Y3936D01*
X311Y3936D01*
X310D01*
X308Y3937D01*
D02*
G37*
G36*
X2830Y4071D02*
X2779Y4019D01*
X2795Y4003D01*
X2795Y4003D01*
X2797Y4001D01*
X2799Y4000D01*
X2801Y3998D01*
X2803Y3997D01*
X2805Y3996D01*
X2805Y3996D01*
X2806Y3995D01*
X2807Y3995D01*
X2808Y3994D01*
X2809Y3994D01*
X2811Y3993D01*
X2813Y3993D01*
X2814Y3993D01*
X2815Y3993D01*
X2815D01*
X2817Y3993D01*
X2818Y3993D01*
X2820Y3994D01*
X2823Y3995D01*
X2825Y3995D01*
X2828Y3997D01*
X2828Y3997D01*
X2828Y3997D01*
X2829Y3997D01*
X2829Y3997D01*
X2830Y3998D01*
X2831Y3998D01*
X2831Y3999D01*
X2832Y3999D01*
X2835Y4001D01*
X2837Y4003D01*
X2840Y4005D01*
X2843Y4008D01*
X2843Y4008D01*
X2843Y4008D01*
X2844Y4009D01*
X2844Y4010D01*
X2845Y4011D01*
X2846Y4012D01*
X2847Y4013D01*
X2848Y4014D01*
X2851Y4017D01*
X2853Y4021D01*
X2854Y4024D01*
X2855Y4026D01*
X2856Y4028D01*
X2856Y4028D01*
Y4028D01*
X2856Y4029D01*
X2856Y4029D01*
X2856Y4031D01*
X2856Y4033D01*
Y4036D01*
X2856Y4038D01*
X2856Y4041D01*
X2855Y4044D01*
X2855Y4044D01*
X2854Y4045D01*
X2854Y4046D01*
X2853Y4048D01*
X2851Y4049D01*
X2850Y4052D01*
X2848Y4053D01*
X2847Y4054D01*
X2846Y4055D01*
X2830Y4071D01*
D02*
G37*
G36*
X1917Y2736D02*
X1895D01*
Y2663D01*
X1917D01*
X1918Y2663D01*
X1920Y2663D01*
X1923Y2664D01*
X1925Y2664D01*
X1928Y2664D01*
X1930Y2665D01*
X1930Y2665D01*
X1931Y2665D01*
X1932Y2666D01*
X1933Y2666D01*
X1934Y2667D01*
X1936Y2668D01*
X1937Y2669D01*
X1939Y2670D01*
X1939Y2670D01*
X1939Y2671D01*
X1940Y2672D01*
X1941Y2673D01*
X1942Y2675D01*
X1943Y2677D01*
X1945Y2679D01*
X1945Y2682D01*
Y2682D01*
X1946Y2682D01*
X1946Y2683D01*
X1946Y2683D01*
X1946Y2684D01*
X1946Y2685D01*
X1947Y2686D01*
X1947Y2687D01*
X1947Y2690D01*
X1948Y2693D01*
X1948Y2697D01*
X1948Y2700D01*
Y2701D01*
Y2701D01*
Y2702D01*
X1948Y2703D01*
Y2704D01*
X1948Y2706D01*
X1948Y2707D01*
X1948Y2709D01*
X1947Y2713D01*
X1946Y2717D01*
X1945Y2720D01*
X1944Y2722D01*
X1943Y2724D01*
Y2724D01*
X1943Y2724D01*
X1943Y2724D01*
X1942Y2725D01*
X1941Y2726D01*
X1940Y2728D01*
X1938Y2730D01*
X1936Y2732D01*
X1934Y2733D01*
X1931Y2734D01*
X1931Y2734D01*
X1930Y2735D01*
X1929Y2735D01*
X1927Y2735D01*
X1925Y2736D01*
X1922Y2736D01*
X1920Y2736D01*
X1919D01*
X1917Y2736D01*
D02*
G37*
%LPD*%
D10*
X4150Y2900D02*
G03*
X4150Y2900I-100J0D01*
G01*
Y2650D02*
G03*
X4150Y2650I-100J0D01*
G01*
X3150Y3600D02*
G03*
X3150Y3600I-250J0D01*
G01*
X1707Y4734D02*
G03*
X2093Y4734I193J-134D01*
G01*
X1007Y4734D02*
G03*
X1393Y4734I193J-134D01*
G01*
X2450Y3200D02*
G03*
X2450Y3200I-300J0D01*
G01*
X1707Y4733D02*
X2093D01*
X1007D02*
X1393D01*
X3013Y4687D02*
X3084Y4616D01*
X3516Y4184D02*
X3587Y4113D01*
X3156Y4687D02*
X3587Y4256D01*
X3013Y4544D02*
X3156Y4687D01*
X3013Y4544D02*
X3444Y4113D01*
X3587Y4256D01*
X3698Y2845D02*
X3902D01*
X3698D02*
Y3455D01*
X3902D01*
Y2845D02*
Y3455D01*
X3800Y2744D02*
Y2845D01*
Y3455D02*
Y3556D01*
X1605Y4200D02*
X1706D01*
X894D02*
X995D01*
Y4098D02*
X1605D01*
Y4302D01*
X995D02*
X1605D01*
X995Y4098D02*
Y4302D01*
X3950Y1875D02*
Y1900D01*
Y1600D02*
X4150D01*
X3750D02*
X3950D01*
Y1675D01*
X3750Y1800D02*
X3850D01*
X4050D02*
X4150D01*
X3950Y600D02*
Y702D01*
X4150Y700D02*
Y1800D01*
X3750Y700D02*
Y1800D01*
Y700D02*
X4150D01*
X3300D02*
X3700D01*
X3300D02*
Y1800D01*
X3700Y700D02*
Y1800D01*
X3500Y600D02*
Y702D01*
X3600Y1800D02*
X3700D01*
X3300D02*
X3400D01*
X3500Y1600D02*
Y1675D01*
X3300Y1600D02*
X3500D01*
X3700D01*
X3500Y1875D02*
Y1900D01*
X3050Y1875D02*
Y1900D01*
Y1600D02*
X3250D01*
X2850D02*
X3050D01*
Y1675D01*
X2850Y1800D02*
X2950D01*
X3150D02*
X3250D01*
X3050Y600D02*
Y702D01*
X3250Y700D02*
Y1800D01*
X2850Y700D02*
Y1800D01*
Y700D02*
X3250D01*
X2400D02*
X2800D01*
X2400D02*
Y1800D01*
X2800Y700D02*
Y1800D01*
X2600Y600D02*
Y702D01*
X2700Y1800D02*
X2800D01*
X2400D02*
X2500D01*
X2600Y1600D02*
Y1675D01*
X2400Y1600D02*
X2600D01*
X2800D01*
X2600Y1875D02*
Y1900D01*
X2864Y4148D02*
X3052Y4336D01*
X3234Y3966D02*
X3281Y3919D01*
X2819Y4381D02*
X2866Y4334D01*
X2767Y4235D02*
X2965Y4433D01*
X2767Y4235D02*
X3135Y3867D01*
X3333Y4065D01*
X2965Y4433D02*
X3333Y4065D01*
X1817Y2180D02*
X2083D01*
X1950Y1724D02*
Y1790D01*
Y2310D02*
Y2376D01*
X1810Y2310D02*
X2090D01*
X1810Y1790D02*
Y2310D01*
Y1790D02*
X2090D01*
Y2310D01*
X3320Y2488D02*
Y3012D01*
X1230Y3771D02*
Y4029D01*
X676Y3900D02*
X840D01*
X1360D02*
X1524D01*
X1360Y3764D02*
Y4036D01*
X840D02*
X1360D01*
X840Y3764D02*
Y4036D01*
Y3764D02*
X1360D01*
X75Y3625D02*
X1725D01*
X75Y1375D02*
Y3625D01*
Y1375D02*
X1725D01*
Y3625D01*
D11*
X2208Y4600D02*
G03*
X2208Y4600I-12J0D01*
G01*
X1507D02*
G03*
X1507Y4600I-12J0D01*
G01*
X912Y3685D02*
G03*
X912Y3685I-12J0D01*
G01*
X408Y1050D02*
Y1350D01*
X2308D01*
Y1050D02*
Y1350D01*
Y250D02*
Y600D01*
X408Y250D02*
X2308D01*
X408D02*
Y550D01*
D12*
X3425Y2750D02*
G03*
X3425Y2750I-525J0D01*
G01*
X3291Y3599D02*
X3191D01*
X3241Y3549D02*
Y3649D01*
M02*
