G04*
G04 #@! TF.GenerationSoftware,Altium Limited,Altium Designer,22.1.2 (22)*
G04*
G04 Layer_Color=16711935*
%FSLAX42Y42*%
%MOMM*%
G71*
G04*
G04 #@! TF.SameCoordinates,F51AAEFD-159C-468E-B04C-332DD14EA327*
G04*
G04*
G04 #@! TF.FilePolarity,Negative*
G04*
G01*
G75*
%ADD23C,2.50*%
%ADD24C,2.00*%
%ADD25R,2.00X2.00*%
%ADD28R,2.00X2.00*%
%ADD30P,2.83X4X360.0*%
%ADD31R,2.50X2.50*%
%ADD37O,2.20X3.20*%
%ADD38R,2.20X3.20*%
%ADD39C,2.70*%
%ADD40C,1.95*%
%ADD41O,1.20X1.70*%
%ADD42C,1.70*%
G04:AMPARAMS|DCode=43|XSize=3.2mm|YSize=4.2mm|CornerRadius=0mm|HoleSize=0mm|Usage=FLASHONLY|Rotation=180.000|XOffset=0mm|YOffset=0mm|HoleType=Round|Shape=Octagon|*
%AMOCTAGOND43*
4,1,8,0.80,-2.10,-0.80,-2.10,-1.60,-1.30,-1.60,1.30,-0.80,2.10,0.80,2.10,1.60,1.30,1.60,-1.30,0.80,-2.10,0.0*
%
%ADD43OCTAGOND43*%

%ADD44C,2.20*%
%ADD45R,3.20X4.20*%
%ADD46R,1.70X1.70*%
%ADD47R,1.20X1.70*%
%ADD48C,3.20*%
D23*
X1500Y3170D02*
D03*
Y1950D02*
D03*
X300D02*
D03*
Y3170D02*
D03*
D24*
X556Y3900D02*
D03*
X3364Y3836D02*
D03*
X2800Y2950D02*
D03*
X1950Y1606D02*
D03*
D25*
X1644Y3900D02*
D03*
X3300Y2950D02*
D03*
D28*
X1950Y2494D02*
D03*
D30*
X2736Y4464D02*
D03*
D31*
X900Y3370D02*
D03*
D37*
X4050Y2646D02*
D03*
D38*
Y3150D02*
D03*
D39*
X3450Y175D02*
D03*
Y2225D02*
D03*
X2400Y175D02*
D03*
Y2225D02*
D03*
X3975D02*
D03*
Y175D02*
D03*
X2925Y2225D02*
D03*
Y175D02*
D03*
D40*
X2023Y3900D02*
D03*
X3800Y3658D02*
D03*
X1808Y4200D02*
D03*
X3800Y2642D02*
D03*
X792Y4200D02*
D03*
X2941Y4759D02*
D03*
X3659Y4041D02*
D03*
X2277Y3900D02*
D03*
D41*
X1773Y4600D02*
D03*
X1200D02*
D03*
X1073D02*
D03*
X1900D02*
D03*
D42*
X2573Y3750D02*
D03*
D43*
X358Y700D02*
D03*
X1150D02*
D03*
X1546D02*
D03*
D44*
X754D02*
D03*
D45*
X1942D02*
D03*
D46*
X2827Y3750D02*
D03*
D47*
X1327Y4600D02*
D03*
X2027D02*
D03*
D48*
X2150Y3200D02*
D03*
M02*
