G04*
G04 #@! TF.GenerationSoftware,Altium Limited,Altium Designer,22.1.2 (22)*
G04*
G04 Layer_Physical_Order=2*
G04 Layer_Color=10059915*
%FSLAX42Y42*%
%MOMM*%
G71*
G04*
G04 #@! TF.SameCoordinates,F51AAEFD-159C-468E-B04C-332DD14EA327*
G04*
G04*
G04 #@! TF.FilePolarity,Positive*
G04*
G01*
G75*
%ADD11C,0.25*%
%ADD13O,2.00X3.00*%
%ADD14R,2.00X3.00*%
%ADD15C,0.50*%
%ADD16C,1.00*%
%ADD17C,2.25*%
%ADD18C,1.75*%
%ADD19C,3.00*%
%ADD20C,0.75*%
%ADD21C,2.00*%
%ADD22C,1.50*%
%ADD23C,2.50*%
%ADD24C,2.00*%
%ADD25R,2.00X2.00*%
%ADD26C,1.75*%
%ADD27O,1.00X1.50*%
%ADD28R,2.00X2.00*%
%ADD29C,1.50*%
%ADD30P,2.83X4X360.0*%
%ADD31R,2.50X2.50*%
G04:AMPARAMS|DCode=32|XSize=3mm|YSize=4mm|CornerRadius=0mm|HoleSize=0mm|Usage=FLASHONLY|Rotation=180.000|XOffset=0mm|YOffset=0mm|HoleType=Round|Shape=Octagon|*
%AMOCTAGOND32*
4,1,8,0.75,-2.00,-0.75,-2.00,-1.50,-1.25,-1.50,1.25,-0.75,2.00,0.75,2.00,1.50,1.25,1.50,-1.25,0.75,-2.00,0.0*
%
%ADD32OCTAGOND32*%

%ADD33R,3.00X4.00*%
%ADD34R,1.50X1.50*%
%ADD35R,1.00X1.50*%
%ADD36C,3.00*%
D11*
X3191Y3612D02*
G03*
X3360Y3610I87J138D01*
G01*
X2629Y4129D02*
G03*
X2700Y4100I71J71D01*
G01*
X2629Y4129D02*
G03*
X2700Y4100I71J71D01*
G01*
X2690Y3823D02*
G03*
X2690Y3677I-116J-73D01*
G01*
X3427Y3543D02*
G03*
X3542Y3496I115J115D01*
G01*
X3520Y3230D02*
G03*
X3488Y3150I80J-80D01*
G01*
X3520Y3230D02*
G03*
X3488Y3150I80J-80D01*
G01*
X3427Y3543D02*
G03*
X3542Y3496I115J115D01*
G01*
X3488Y2600D02*
G03*
X3520Y2520I112J0D01*
G01*
X3488Y2600D02*
G03*
X3520Y2520I112J0D01*
G01*
X3901Y2531D02*
G03*
X4175Y2492I149J65D01*
G01*
X3856Y2503D02*
G03*
X3901Y2531I-56J139D01*
G01*
X2962Y2950D02*
G03*
X2685Y3065I-162J0D01*
G01*
X2962Y2950D02*
G03*
X2685Y3065I-162J0D01*
G01*
X2915Y2835D02*
G03*
X2962Y2950I-115J115D01*
G01*
X2915Y2835D02*
G03*
X2962Y2950I-115J115D01*
G01*
X1958Y4200D02*
G03*
X1913Y4307I-150J0D01*
G01*
X2427Y3900D02*
G03*
X2150Y3980I-150J0D01*
G01*
Y3820D02*
G03*
X2427Y3900I127J80D01*
G01*
X1800Y4450D02*
G03*
X1829Y4379I100J0D01*
G01*
X1800Y4450D02*
G03*
X1829Y4379I100J0D01*
G01*
X1913Y4307D02*
G03*
X1950Y4300I37J93D01*
G01*
X1874Y4335D02*
G03*
X1712Y4316I-66J-135D01*
G01*
X1730Y4471D02*
G03*
X1800Y4466I43J104D01*
G01*
X1913Y4307D02*
G03*
X1950Y4300I37J93D01*
G01*
X1806Y4050D02*
G03*
X1958Y4200I2J150D01*
G01*
X2150Y3980D02*
G03*
X1910Y3801I-127J-80D01*
G01*
X2135D02*
G03*
X2150Y3820I-112J99D01*
G01*
X2103Y3613D02*
G03*
X2135Y3693I-80J80D01*
G01*
X2103Y3613D02*
G03*
X2135Y3693I-80J80D01*
G01*
X2290Y2670D02*
G03*
X2267Y2644I110J-120D01*
G01*
X2362Y3200D02*
G03*
X2362Y3200I-212J0D01*
G01*
D02*
G03*
X2362Y3200I-212J0D01*
G01*
X1688Y3170D02*
G03*
X1686Y3197I-188J0D01*
G01*
X4162Y2225D02*
G03*
X3948Y2411I-188J0D01*
G01*
X3789Y2252D02*
G03*
X4162Y2225I186J-27D01*
G01*
X3638D02*
G03*
X3356Y2388I-188J0D01*
G01*
Y2062D02*
G03*
X3638Y2225I94J162D01*
G01*
X4162Y175D02*
G03*
X3908Y350I-188J0D01*
G01*
X4134Y75D02*
G03*
X4162Y175I-159J100D01*
G01*
X3517Y350D02*
G03*
X3291Y75I-67J-175D01*
G01*
X3019Y2388D02*
G03*
X3019Y2062I-94J-162D01*
G01*
X2588Y2225D02*
G03*
X2562Y2319I-188J0D01*
G01*
X2238D02*
G03*
X2588Y2225I162J-94D01*
G01*
X2100Y1668D02*
G03*
X1888Y1456I-150J-62D01*
G01*
X2406Y394D02*
G03*
X2450Y500I-106J106D01*
G01*
Y1256D02*
G03*
X2406Y1362I-150J0D01*
G01*
X2450Y1256D02*
G03*
X2406Y1362I-150J0D01*
G01*
Y394D02*
G03*
X2450Y500I-106J106D01*
G01*
X2467Y350D02*
G03*
X2373Y360I-67J-175D01*
G01*
X3112Y175D02*
G03*
X2858Y350I-188J0D01*
G01*
X3084Y75D02*
G03*
X3112Y175I-159J100D01*
G01*
X2150Y1001D02*
G03*
X2092Y1108I-208J-43D01*
G01*
X2150Y1001D02*
G03*
X2092Y1108I-208J-43D01*
G01*
X1629Y4688D02*
G03*
X1620Y4680I71J-88D01*
G01*
X1629Y4688D02*
G03*
X1620Y4680I71J-88D01*
G01*
X1520Y4580D02*
G03*
X1488Y4500I80J-80D01*
G01*
X1520Y4580D02*
G03*
X1488Y4500I80J-80D01*
G01*
Y4100D02*
G03*
X1494Y4062I112J0D01*
G01*
X1488Y4100D02*
G03*
X1494Y4062I112J0D01*
G01*
X1280Y4370D02*
G03*
X1312Y4450I-80J80D01*
G01*
X1280Y4370D02*
G03*
X1312Y4450I-80J80D01*
G01*
X1527Y3356D02*
G03*
X1688Y3170I-27J-186D01*
G01*
X1112Y3370D02*
G03*
X1088Y3470I-212J0D01*
G01*
X1312Y2450D02*
G03*
X1250Y2600I-212J0D01*
G01*
X1312Y2450D02*
G03*
X1250Y2600I-212J0D01*
G01*
X950Y4088D02*
G03*
X1030Y4120I0J112D01*
G01*
X950Y4088D02*
G03*
X1030Y4120I0J112D01*
G01*
X693Y4088D02*
G03*
X891Y4088I99J112D01*
G01*
X719Y3900D02*
G03*
X669Y4017I-162J0D01*
G01*
X1000Y3558D02*
G03*
X800Y3558I-100J-188D01*
G01*
X412Y3824D02*
G03*
X719Y3900I144J76D01*
G01*
X712Y3470D02*
G03*
X688Y3370I188J-100D01*
G01*
X488Y3170D02*
G03*
X412Y3320I-188J0D01*
G01*
X188D02*
G03*
X488Y3170I112J-150D01*
G01*
X688Y2650D02*
G03*
X750Y2500I212J0D01*
G01*
X688Y2650D02*
G03*
X750Y2500I212J0D01*
G01*
X1688Y1950D02*
G03*
X1312Y1950I-188J0D01*
G01*
X1420Y1780D02*
G03*
X1688Y1950I80J170D01*
G01*
X1312D02*
G03*
X1330Y1870I188J0D01*
G01*
X888Y1800D02*
G03*
X950Y1650I212J0D01*
G01*
X888Y1800D02*
G03*
X950Y1650I212J0D01*
G01*
X916Y700D02*
G03*
X916Y700I-162J0D01*
G01*
X570Y1892D02*
G03*
X508Y2042I-212J0D01*
G01*
X570Y1892D02*
G03*
X508Y2042I-212J0D01*
G01*
X450Y2100D02*
G03*
X146Y1804I-150J-150D01*
G01*
X394Y94D02*
G03*
X417Y75I106J106D01*
G01*
X394Y94D02*
G03*
X417Y75I106J106D01*
G01*
X200Y350D02*
G03*
X244Y244I150J0D01*
G01*
X200Y350D02*
G03*
X244Y244I150J0D01*
G01*
X3109Y4100D02*
X3253Y3955D01*
X3062Y4100D02*
X3230Y3932D01*
X2992Y4100D02*
X3195Y3897D01*
X2921Y4100D02*
X3133Y3888D01*
X2968D02*
X3145Y4064D01*
X3039Y3888D02*
X3180Y4029D01*
X2898Y3888D02*
X3109Y4099D01*
X2965Y3888D02*
X3186D01*
X2827Y3888D02*
X3039Y4100D01*
X2779D02*
X2992Y3888D01*
X2709Y4100D02*
X2921Y3888D01*
X2756D02*
X2969Y4100D01*
X2827Y3888D02*
X2965D01*
X2850Y4100D02*
X3063Y3888D01*
X2700Y4100D02*
X3109D01*
X3125Y3612D02*
X3515Y3223D01*
X3055Y3612D02*
X3491Y3177D01*
X2984Y3612D02*
X3488Y3109D01*
X3360Y3610D02*
X3427Y3543D01*
X2913Y3612D02*
X3413Y3112D01*
X2772Y3612D02*
X3272Y3112D01*
X2843Y3612D02*
X3343Y3112D01*
X3180Y3888D02*
X3251Y3958D01*
X3186Y3888D02*
X3249Y3951D01*
X3110Y3888D02*
X3215Y3993D01*
X2827Y3612D02*
X2965D01*
X3191D01*
X2701Y3612D02*
X3201Y3112D01*
X2690Y3612D02*
X2965D01*
X2438Y4300D02*
X2850Y3888D01*
X2540Y3883D02*
X2756Y4100D01*
X2297Y4300D02*
X2709Y3888D01*
X2367Y4300D02*
X2780Y3888D01*
X2690D02*
X2965D01*
X2690Y3624D02*
X2701Y3612D01*
X2610Y3883D02*
X2827Y4100D01*
X2657Y3859D02*
X2898Y4100D01*
X2690Y3823D02*
Y3888D01*
X2226Y4300D02*
X2690Y3836D01*
X2665Y3648D02*
X2690Y3624D01*
Y3612D02*
Y3677D01*
X2622Y3621D02*
X3138Y3105D01*
X2559Y3613D02*
X3138Y3035D01*
X2338Y3763D02*
X3138Y2964D01*
X2281Y3750D02*
X3138Y2893D01*
X2149Y2644D02*
X3118Y3612D01*
X2220Y2644D02*
X3188Y3612D01*
X2020Y2657D02*
X2976Y3612D01*
X2091Y2657D02*
X3047Y3612D01*
X2351Y3270D02*
X2693Y3612D01*
X2146Y3814D02*
X2859Y3102D01*
X2135Y3754D02*
X2778Y3111D01*
X2135Y3684D02*
X2725Y3094D01*
X2362Y3211D02*
X2764Y3612D01*
X2350Y3128D02*
X2835Y3612D01*
X1949Y2657D02*
X2905Y3612D01*
X3667Y3496D02*
X3727Y3436D01*
X3596Y3496D02*
X3691Y3400D01*
X3524Y3496D02*
X3656Y3365D01*
X3542Y3496D02*
X3786D01*
X3737D02*
X3762Y3471D01*
X3520Y3230D02*
X3786Y3496D01*
X3395Y3112D02*
X3778Y3496D01*
X3462Y3109D02*
X3488Y3134D01*
X3462Y3038D02*
X3488Y3063D01*
X3462Y2993D02*
X3488Y2968D01*
X3462Y3063D02*
X3488Y3038D01*
Y2600D02*
Y3150D01*
X3385Y2788D02*
X3488Y2685D01*
X3922Y2437D02*
X3952Y2467D01*
X3887Y2472D02*
X3917Y2503D01*
X3462Y2922D02*
X3488Y2897D01*
X3462Y2897D02*
X3488Y2922D01*
X3462Y2968D02*
X3488Y2993D01*
X3462Y2788D02*
Y3112D01*
Y2851D02*
X3488Y2826D01*
X3462Y2826D02*
X3488Y2851D01*
X3455Y2788D02*
X3488Y2755D01*
X3347Y3603D02*
X3620Y3330D01*
X3291Y3588D02*
X3585Y3294D01*
X3203Y3606D02*
X3550Y3259D01*
X2962Y2962D02*
X3501Y3501D01*
X3254Y3112D02*
X3637Y3496D01*
X3325Y3112D02*
X3708Y3496D01*
X3183Y3112D02*
X3566Y3496D01*
X2962Y2962D02*
X3501Y3501D01*
X2880Y3092D02*
X3379Y3591D01*
X2919Y3061D02*
X3414Y3556D01*
X2827Y3110D02*
X3307Y3590D01*
X2752Y3105D02*
X3239Y3592D01*
X3138Y3112D02*
X3462D01*
X2947Y3018D02*
X3452Y3523D01*
X3138Y2788D02*
X3462D01*
X3314D02*
X3488Y2614D01*
X3138Y2823D02*
X3173Y2788D01*
X2952Y3009D02*
X3138Y2823D01*
Y2788D02*
Y3112D01*
X2942Y2872D02*
X3138Y3067D01*
X2562Y2483D02*
X2915Y2835D01*
X2064Y4044D02*
X2320Y4300D01*
X2084D02*
X2358Y4026D01*
X2014Y4300D02*
X2264Y4049D01*
X1997Y4048D02*
X2249Y4300D01*
X2459D02*
X2629Y4129D01*
X2339Y4036D02*
X2531Y4228D01*
X1950Y4300D02*
X2459D01*
X2282Y4050D02*
X2495Y4263D01*
X1957Y4219D02*
X2037Y4300D01*
X1943Y4300D02*
X2209Y4034D01*
X1939Y4273D02*
X1967Y4300D01*
X1943Y4135D02*
X2108Y4300D01*
X1950Y4152D02*
X2055Y4047D01*
X1925Y4106D02*
X1986Y4045D01*
X2381Y4008D02*
X2566Y4192D01*
X2411Y3967D02*
X2601Y4157D01*
X2147Y3985D02*
X2460Y4299D01*
X2155Y4300D02*
X2568Y3887D01*
X2427Y3911D02*
X2637Y4122D01*
X2403Y3981D02*
X2511Y3873D01*
X2400Y3814D02*
X2687Y4101D01*
X2112Y4021D02*
X2391Y4300D01*
X1957Y4215D02*
X2169Y4004D01*
X1716Y4457D02*
X1823Y4349D01*
X1712Y4329D02*
X1804Y4421D01*
X1829Y4379D02*
X1874Y4335D01*
X1804Y4350D02*
X1831Y4377D01*
X1800Y4450D02*
Y4466D01*
X1780Y4463D02*
X1800Y4443D01*
X1712Y4453D02*
X1730Y4471D01*
X1712Y4389D02*
X1760Y4342D01*
X1712Y4316D02*
Y4453D01*
Y4400D02*
X1776Y4463D01*
X1806Y3928D02*
X2179Y4300D01*
X1887Y4073D02*
X1937Y4023D01*
X1837Y4053D02*
X1901Y3988D01*
X1806Y3998D02*
X1873Y4065D01*
X1806Y3738D02*
Y4050D01*
Y3942D02*
X1876Y3872D01*
X1806Y3857D02*
X1875Y3926D01*
X1806Y4012D02*
X1878Y3940D01*
X2426Y3887D02*
X2471Y3842D01*
X2411Y3832D02*
X2444Y3799D01*
X2254Y3385D02*
X2501Y3633D01*
X2295Y3355D02*
X2553Y3614D01*
X2139Y3412D02*
X2440Y3713D01*
X2204Y3406D02*
X2464Y3666D01*
X2135Y3762D02*
X2169Y3796D01*
X2381Y3792D02*
X2436Y3736D01*
X2135Y3693D02*
Y3801D01*
X2135Y3691D02*
X2210Y3766D01*
X2357Y3250D02*
X2613Y2993D01*
X2361Y3175D02*
X2578Y2958D01*
X2327Y3317D02*
X2640Y3630D01*
X2117Y3631D02*
X2684Y3064D01*
X2346Y3119D02*
X2543Y2922D01*
X2321Y3074D02*
X2507Y2887D01*
X2287Y3037D02*
X2472Y2852D01*
X2295Y2674D02*
X2685Y3065D01*
X2244Y3009D02*
X2437Y2816D01*
X2191Y2991D02*
X2401Y2781D01*
X2122Y2989D02*
X2366Y2746D01*
X2112Y2644D02*
Y2657D01*
Y2644D02*
X2267D01*
X2102Y2657D02*
X2112Y2646D01*
X2048Y3559D02*
X2200Y3407D01*
X2036Y3379D02*
X2440Y3783D01*
X2012Y3523D02*
X2125Y3411D01*
X1686Y3197D02*
X2103Y3613D01*
X1977Y3488D02*
X2069Y3396D01*
X1942Y3453D02*
X2024Y3371D01*
X1906Y3417D02*
X1987Y3337D01*
X1871Y3382D02*
X1959Y3294D01*
X1910Y3740D02*
Y3801D01*
X1806Y3800D02*
X1889Y3718D01*
X1806Y3786D02*
X1879Y3859D01*
X1806Y3871D02*
X1910Y3767D01*
X1798Y3738D02*
X1853Y3682D01*
X1836Y3347D02*
X1941Y3241D01*
X1728Y3738D02*
X1818Y3647D01*
X2083Y3594D02*
X2649Y3029D01*
X1687Y3172D02*
X2266Y3750D01*
X1765Y3276D02*
X2331Y2710D01*
X1730Y3241D02*
X2295Y2675D01*
X1694Y3205D02*
X2255Y2644D01*
X1800Y3311D02*
X1939Y3172D01*
X1879Y2657D02*
X2222Y3000D01*
X1686Y3143D02*
X2185Y2644D01*
X1788Y2657D02*
X2112D01*
X1808D02*
X2139Y2988D01*
X1788Y2636D02*
X1808Y2657D01*
X4137Y2459D02*
X4175Y2422D01*
X4088Y2438D02*
X4175Y2351D01*
X4019Y2437D02*
X4066Y2389D01*
X4078Y2381D02*
X4175Y2478D01*
X4144Y2306D02*
X4175Y2337D01*
X4139Y2316D02*
X4175Y2280D01*
X4030Y2404D02*
X4060Y2434D01*
X4116Y2348D02*
X4175Y2407D01*
X3873Y2511D02*
X3972Y2412D01*
X3968Y2412D02*
X3998Y2442D01*
X3856Y2503D02*
X3948Y2411D01*
X3527Y2396D02*
X3586Y2455D01*
X3604Y2332D02*
X3657Y2384D01*
X3628Y2284D02*
X3692Y2349D01*
X3571Y2369D02*
X3621Y2419D01*
X4152Y2162D02*
X4175Y2139D01*
Y75D02*
Y2492D01*
X3635Y2254D02*
X4175Y1714D01*
X3633Y2185D02*
X4175Y1644D01*
X4127Y2116D02*
X4175Y2068D01*
X4093Y2079D02*
X4175Y1997D01*
X3614Y2134D02*
X4175Y1573D01*
X3584Y2094D02*
X4175Y1502D01*
X4161Y2251D02*
X4175Y2266D01*
X3637Y2223D02*
X3728Y2313D01*
X3606Y2121D02*
X3763Y2278D01*
X4162Y2222D02*
X4175Y2209D01*
X4156Y2176D02*
X4175Y2195D01*
X3394Y2404D02*
X3516Y2526D01*
X3307Y2388D02*
X3491Y2572D01*
X3243Y2788D02*
X3788Y2243D01*
X3173Y2788D02*
X3799Y2162D01*
X3472Y2411D02*
X3551Y2490D01*
X3520Y2520D02*
X3789Y2252D01*
X2961Y2928D02*
X3479Y2410D01*
X3024Y2388D02*
X3424Y2788D01*
X2944Y2875D02*
X3410Y2408D01*
X2914Y2834D02*
X3359Y2389D01*
X3165Y2388D02*
X3488Y2710D01*
X3236Y2388D02*
X3488Y2639D01*
X3095Y2388D02*
X3488Y2780D01*
X2587Y2242D02*
X4175Y654D01*
X2581Y2177D02*
X4175Y583D01*
X2002Y2332D02*
X3971Y362D01*
X1932Y2332D02*
X3912Y351D01*
X2560Y2127D02*
X4175Y512D01*
X2528Y2088D02*
X4175Y442D01*
X2413Y362D02*
X4175Y2124D01*
X2450Y894D02*
X3788Y2232D01*
X2450Y824D02*
X3796Y2170D01*
X1790Y2332D02*
X3772Y350D01*
X1861Y2332D02*
X3842Y350D01*
X2450Y965D02*
X3554Y2069D01*
X2450Y682D02*
X3852Y2084D01*
X2450Y753D02*
X3819Y2122D01*
X3472Y361D02*
X4175Y1064D01*
X3532Y350D02*
X4175Y993D01*
X3332Y2062D02*
X4175Y1219D01*
X3395Y354D02*
X4175Y1134D01*
X3969Y362D02*
X4175Y569D01*
X4031Y354D02*
X4175Y498D01*
X3603Y350D02*
X4175Y922D01*
X3673Y350D02*
X4175Y852D01*
X4049Y2053D02*
X4175Y1927D01*
X3912Y2049D02*
X4175Y1785D01*
X3544Y2063D02*
X4175Y1432D01*
X3493Y2043D02*
X4175Y1361D01*
X3993Y2038D02*
X4175Y1856D01*
X3517Y350D02*
X3908D01*
X3426Y2039D02*
X4175Y1290D01*
X4144Y255D02*
X4175Y286D01*
X4161Y201D02*
X4175Y215D01*
X4116Y298D02*
X4175Y357D01*
X4139Y265D02*
X4175Y230D01*
X4162Y171D02*
X4175Y159D01*
X4156Y125D02*
X4175Y144D01*
X4151Y112D02*
X4175Y88D01*
X4134Y75D02*
X4175D01*
X3886Y350D02*
X4175Y639D01*
X4079Y331D02*
X4175Y427D01*
X3744Y350D02*
X4175Y781D01*
X3815Y350D02*
X4175Y710D01*
X3191Y2062D02*
X4175Y1078D01*
X3120Y2062D02*
X4175Y1007D01*
X3049Y2062D02*
X4175Y937D01*
X2487Y2059D02*
X4175Y371D01*
X2991Y2050D02*
X4175Y866D01*
X2933Y2038D02*
X4175Y795D01*
X2843Y2056D02*
X4175Y724D01*
X2907Y362D02*
X4175Y1629D01*
X3261Y2062D02*
X4175Y1149D01*
X2450Y1106D02*
X3391Y2047D01*
X2450Y612D02*
X3894Y2056D01*
X2446Y466D02*
X4024Y2044D01*
X2450Y1036D02*
X3452Y2038D01*
X2450Y541D02*
X3949Y2039D01*
X2408Y1360D02*
X3410Y358D01*
X3022Y335D02*
X4175Y1488D01*
X3061Y304D02*
X4175Y1417D01*
X2825Y350D02*
X4175Y1700D01*
X2435Y2041D02*
X4175Y300D01*
X3109Y210D02*
X4175Y1276D01*
X3109Y139D02*
X4175Y1205D01*
X3091Y262D02*
X4175Y1347D01*
X2542Y350D02*
X4175Y1983D01*
X2613Y350D02*
X4175Y1912D01*
X2471Y350D02*
X4175Y2054D01*
X2363Y2041D02*
X4065Y339D01*
X2973Y356D02*
X4175Y1559D01*
X2754Y350D02*
X4175Y1771D01*
X2683Y350D02*
X4175Y1842D01*
X2907Y2412D02*
X3282Y2788D01*
X2879Y2799D02*
X3290Y2388D01*
X2562Y2421D02*
X3138Y2996D01*
X2562Y2350D02*
X3138Y2925D01*
X2972Y2406D02*
X3353Y2788D01*
X3019Y2388D02*
X3356D01*
X2808Y2728D02*
X3148Y2388D01*
X2843Y2763D02*
X3219Y2388D01*
X2737Y2657D02*
X2996Y2399D01*
X2772Y2693D02*
X3078Y2388D01*
X2702Y2622D02*
X2912Y2412D01*
X2666Y2587D02*
X2854Y2399D01*
X2631Y2551D02*
X2810Y2373D01*
X2596Y2516D02*
X2775Y2337D01*
X2562Y2319D02*
Y2483D01*
X2575Y2292D02*
X3138Y2855D01*
X2587Y2234D02*
X3141Y2788D01*
X2570Y2146D02*
X3212Y2788D01*
X2414Y1353D02*
X3123Y2062D01*
X3019D02*
X3356D01*
X2450Y1177D02*
X3335Y2062D01*
X2440Y1309D02*
X3194Y2062D01*
X2450Y1248D02*
X3265Y2062D01*
X2562Y2337D02*
X2756Y2143D01*
X2562Y2478D02*
X2750Y2291D01*
X2562Y2408D02*
X2738Y2233D01*
X2379Y1389D02*
X3052Y2062D01*
X2344Y1424D02*
X2960Y2041D01*
X2238Y2319D02*
Y2344D01*
X2202D02*
X2234Y2312D01*
X2112Y2344D02*
X2238D01*
X2073Y2332D02*
X2216Y2188D01*
X2030Y1747D02*
X2333Y2050D01*
X1978Y1766D02*
X2287Y2075D01*
X1903Y1762D02*
X2252Y2110D01*
X2112Y2332D02*
Y2344D01*
X2131D02*
X2216Y2260D01*
X1788Y2332D02*
Y2657D01*
X1678Y1890D02*
X2132Y2344D01*
X1788Y2332D02*
X2112D01*
X1687Y1939D02*
X1876Y1751D01*
X1686Y1969D02*
X2049Y2332D01*
X2202Y1566D02*
X2764Y2128D01*
X2238Y1531D02*
X2796Y2089D01*
X2132Y1637D02*
X2738Y2243D01*
X2167Y1601D02*
X2744Y2178D01*
X2273Y1495D02*
X2837Y2059D01*
X2308Y1460D02*
X2889Y2041D01*
X2098Y1674D02*
X2479Y2055D01*
X2070Y1716D02*
X2391Y2038D01*
X2100Y1668D02*
X2406Y1362D01*
X1675Y1881D02*
X1835Y1721D01*
X1742Y1459D02*
X1809Y1526D01*
X1777Y1423D02*
X1840Y1486D01*
X1706Y1494D02*
X1790Y1578D01*
X2450Y682D02*
X2782Y350D01*
X2450Y611D02*
X2711Y350D01*
X2450Y823D02*
X2911Y362D01*
X2450Y752D02*
X2852Y350D01*
X2450Y540D02*
X2640Y350D01*
X2467D02*
X2858D01*
X2428Y421D02*
X2499Y350D01*
X2447Y472D02*
X2570Y350D01*
X2450Y500D02*
Y1256D01*
X2395Y383D02*
X2416Y362D01*
X2450Y1106D02*
X3287Y268D01*
X2450Y1035D02*
X3267Y218D01*
X2450Y1247D02*
X3359Y339D01*
X2450Y1177D02*
X3318Y308D01*
X3116Y75D02*
X3271Y230D01*
X3257Y75D02*
X3279Y97D01*
X3084Y75D02*
X3291D01*
X3099Y245D02*
X3269Y75D01*
X2450Y894D02*
X2995Y349D01*
X2450Y965D02*
X3264Y150D01*
X3112Y161D02*
X3198Y75D01*
X3186D02*
X3264Y153D01*
X3099Y104D02*
X3127Y75D01*
X2060Y1141D02*
X2132Y1212D01*
X2150Y1001D02*
Y1194D01*
X1888Y1456D02*
X2150Y1194D01*
X1888Y1456D02*
X2150Y1194D01*
X2095Y1105D02*
X2150Y1160D01*
X2126Y1065D02*
X2150Y1089D01*
X1883Y1317D02*
X1955Y1389D01*
X1918Y1282D02*
X1990Y1354D01*
X1812Y1388D02*
X1882Y1458D01*
X1848Y1353D02*
X1919Y1424D01*
X1989Y1211D02*
X2061Y1283D01*
X2025Y1176D02*
X2096Y1248D01*
X1954Y1247D02*
X2025Y1318D01*
X1987Y438D02*
X2006Y418D01*
X1916Y438D02*
X1971Y383D01*
X1846Y438D02*
X1933Y350D01*
X1906D02*
X1993Y438D01*
X2373Y360D02*
X2406Y394D01*
X1938Y350D02*
X2025Y438D01*
X1730D02*
X2025D01*
X1714Y499D02*
X1730Y483D01*
Y438D02*
Y515D01*
X1678Y464D02*
X1792Y350D01*
X1694D02*
X1781Y438D01*
X1775D02*
X1862Y350D01*
X1835D02*
X1922Y438D01*
X1764Y350D02*
X1852Y438D01*
X1555Y4688D02*
X1592Y4651D01*
X1485Y4688D02*
X1557Y4616D01*
X1440Y4688D02*
X1629D01*
X1440Y4551D02*
X1576Y4688D01*
X1440Y4662D02*
X1521Y4580D01*
X1520Y4580D02*
X1620Y4680D01*
X1440Y4591D02*
X1494Y4537D01*
X1440Y4621D02*
X1506Y4688D01*
X1440Y4521D02*
X1488Y4473D01*
X1440Y4480D02*
X1492Y4533D01*
X1488Y4100D02*
Y4500D01*
X1356Y4462D02*
X1488Y4331D01*
X1312Y4436D02*
X1488Y4261D01*
X1663Y3077D02*
X2363Y3777D01*
X1481Y4062D02*
X1494D01*
X1438Y3347D02*
X1902Y3811D01*
X1422Y4462D02*
X1440Y4480D01*
Y4462D02*
Y4688D01*
X1312Y4450D02*
Y4462D01*
X1427D02*
X1488Y4402D01*
X1481Y3738D02*
Y4062D01*
X1312Y4462D02*
X1440D01*
X1292Y4385D02*
X1488Y4190D01*
X1258Y4349D02*
X1488Y4119D01*
X729Y3558D02*
X1488Y4316D01*
X800Y3558D02*
X1488Y4245D01*
X1116Y4207D02*
X1481Y3842D01*
X1081Y4172D02*
X1481Y3772D01*
X895Y3582D02*
X1488Y4175D01*
X958Y3574D02*
X1488Y4104D01*
X1308Y4420D02*
X1351Y4462D01*
X1030Y4120D02*
X1280Y4370D01*
X1222Y4313D02*
X1481Y4055D01*
X1187Y4278D02*
X1481Y3984D01*
X1152Y4243D02*
X1481Y3913D01*
X1046Y4137D02*
X1677Y3506D01*
X1008Y4104D02*
X1641Y3470D01*
X412Y3382D02*
X1488Y4457D01*
X417Y3316D02*
X1488Y4387D01*
X1102Y3436D02*
X1481Y3815D01*
X953Y4088D02*
X1606Y3435D01*
X887Y4084D02*
X1571Y3400D01*
X841Y4058D02*
X1535Y3364D01*
X1012Y3558D02*
X1481Y4027D01*
X778Y4051D02*
X1473Y3356D01*
X412Y3453D02*
X1422Y4462D01*
X671Y4088D02*
X1419Y3339D01*
X1083Y3558D02*
X1481Y3956D01*
X1088Y3492D02*
X1481Y3885D01*
X669Y4019D02*
X1376Y3311D01*
X1527Y3356D02*
X1910Y3740D01*
X1669Y3089D02*
X2102Y2657D01*
X1518Y3357D02*
X1910Y3749D01*
X1312Y2444D02*
X1965Y3096D01*
X1603Y3013D02*
X1960Y2657D01*
X1641Y3046D02*
X2031Y2657D01*
X1555Y2991D02*
X1889Y2657D01*
X1312Y2373D02*
X1995Y3055D01*
X1657Y3738D02*
X1783Y3612D01*
X1586Y3738D02*
X1747Y3576D01*
X1481Y3772D02*
X1516Y3738D01*
X1712Y3541D01*
X1481Y3738D02*
X1806D01*
X1493Y2983D02*
X1819Y2657D01*
X1404Y2111D02*
X1788Y2495D01*
X1312Y2090D02*
X1788Y2565D01*
X1312Y2302D02*
X2033Y3023D01*
X1312Y2232D02*
X2080Y2999D01*
X1645Y2069D02*
X1907Y2332D01*
X1672Y2025D02*
X1978Y2332D01*
X1561Y2127D02*
X1788Y2353D01*
X1608Y2103D02*
X1837Y2332D01*
X1501Y2137D02*
X1788Y2424D01*
X1312Y2314D02*
X1489Y2137D01*
X1312Y2161D02*
X1788Y2636D01*
X1312Y2385D02*
X1576Y2121D01*
X1312Y2173D02*
X1386Y2099D01*
X1312Y2102D02*
X1351Y2064D01*
X1312Y2243D02*
X1431Y2125D01*
X1112Y3234D02*
X1616Y3738D01*
X1112Y3163D02*
X1687Y3738D01*
X1112Y3375D02*
X1481Y3744D01*
X1112Y3305D02*
X1545Y3738D01*
X1112Y2810D02*
X1355Y3052D01*
X1112Y2739D02*
X1391Y3017D01*
X1088Y3529D02*
X1343Y3273D01*
X1112Y3092D02*
X1758Y3738D01*
X1112Y3363D02*
X1313Y3163D01*
X1112Y2738D02*
Y3370D01*
X1098Y3448D02*
X1321Y3225D01*
X1112Y2951D02*
X1313Y3152D01*
X1112Y2880D02*
X1328Y3096D01*
X1112Y3022D02*
X1323Y3232D01*
X1253Y2597D02*
X1971Y3314D01*
X1284Y2557D02*
X1938Y3211D01*
X1112Y3221D02*
X1788Y2546D01*
X1112Y3151D02*
X1788Y2476D01*
X1305Y2507D02*
X1944Y3146D01*
X1112Y3009D02*
X1788Y2334D01*
X1112Y3080D02*
X1788Y2405D01*
X1183Y2668D02*
X1498Y2983D01*
X1218Y2632D02*
X1593Y3007D01*
X1147Y2703D02*
X1438Y2993D01*
X1112Y3292D02*
X1788Y2617D01*
X1112Y2738D02*
X1250Y2600D01*
X719Y3901D02*
X906Y4088D01*
X891D02*
X950D01*
X707Y3839D02*
X978Y3567D01*
X680Y3795D02*
X893Y3582D01*
X642Y3762D02*
X833Y3572D01*
X669Y4063D02*
X693Y4087D01*
X681Y4004D02*
X737Y4060D01*
X669Y4088D02*
X693D01*
X669Y4017D02*
Y4088D01*
X707Y3960D02*
X797Y4050D01*
X412Y3594D02*
X556Y3738D01*
X719Y3898D02*
X1059Y3558D01*
X592Y3742D02*
X776Y3558D01*
X712Y3541D02*
X729Y3558D01*
X1059D02*
X1088Y3529D01*
Y3470D02*
Y3558D01*
X712D02*
X800D01*
X1000D02*
X1088D01*
X522Y3741D02*
X712Y3551D01*
Y3470D02*
Y3558D01*
X412Y3709D02*
X695Y3427D01*
X412Y3568D02*
X688Y3293D01*
X452Y3280D02*
X712Y3541D01*
X476Y3234D02*
X712Y3470D01*
X412Y3497D02*
X688Y3222D01*
X75Y3835D02*
X188Y3722D01*
X75Y3905D02*
X188Y3793D01*
X75Y3752D02*
X188Y3864D01*
X412Y3736D02*
X452Y3775D01*
X412Y3665D02*
X496Y3749D01*
X412Y3807D02*
X419Y3813D01*
X75Y3681D02*
X188Y3794D01*
X149Y4043D02*
X188Y4005D01*
X114Y4008D02*
X188Y3934D01*
X75Y3969D02*
X188Y4081D01*
X75Y3964D02*
X188Y4077D01*
X79Y3972D02*
X188Y3863D01*
X75Y3823D02*
X188Y3935D01*
X75Y3893D02*
X188Y4006D01*
X412Y3780D02*
X712Y3480D01*
X412Y3320D02*
Y3824D01*
Y3524D02*
X980Y4092D01*
X188Y3320D02*
Y4081D01*
X75Y3481D02*
X188Y3368D01*
X412Y3638D02*
X688Y3363D01*
X75Y3398D02*
X188Y3511D01*
X75Y3693D02*
X188Y3581D01*
X75Y3540D02*
X188Y3652D01*
X75Y3764D02*
X188Y3651D01*
X75Y3611D02*
X188Y3723D01*
X75Y3469D02*
X188Y3582D01*
X75Y3552D02*
X188Y3439D01*
X75Y3622D02*
X188Y3510D01*
X487Y3174D02*
X688Y3375D01*
X412Y3356D02*
X688Y3081D01*
X482Y3216D02*
X688Y3010D01*
X485Y3141D02*
X688Y2939D01*
X468Y3088D02*
X688Y2868D01*
X440Y3045D02*
X688Y2798D01*
X402Y3013D02*
X688Y2727D01*
X465Y3082D02*
X688Y3304D01*
X412Y3426D02*
X688Y3151D01*
X75Y2833D02*
X236Y2994D01*
X75Y2762D02*
X296Y2983D01*
X75Y2691D02*
X388Y3005D01*
X75Y2986D02*
X888Y2174D01*
X379Y2147D02*
X741Y2509D01*
X750Y2500D02*
X888Y2362D01*
X497Y2053D02*
X847Y2403D01*
X425Y2122D02*
X776Y2473D01*
X462Y2088D02*
X812Y2438D01*
X354Y2990D02*
X688Y2656D01*
Y2650D02*
Y3370D01*
X290Y2983D02*
X703Y2570D01*
X246Y2156D02*
X693Y2602D01*
X323Y2161D02*
X712Y2551D01*
X450Y2100D02*
X508Y2042D01*
X75Y2067D02*
X106Y2036D01*
X75Y3257D02*
X188Y3369D01*
X75Y2621D02*
X688Y3233D01*
X75Y3328D02*
X188Y3440D01*
X75Y3410D02*
X175Y3310D01*
X75Y2903D02*
X190Y3018D01*
X75Y2408D02*
X688Y3021D01*
X75Y2550D02*
X688Y3162D01*
X75Y2479D02*
X688Y3092D01*
X75Y3186D02*
X124Y3236D01*
X75Y3198D02*
X113Y3160D01*
X75Y3340D02*
X143Y3272D01*
X75Y3269D02*
X120Y3224D01*
X75Y3045D02*
X127Y3097D01*
X75Y2974D02*
X154Y3053D01*
X75Y3116D02*
X113Y3154D01*
X75Y2915D02*
X888Y2103D01*
X75Y2845D02*
X888Y2032D01*
X75Y3127D02*
X888Y2315D01*
X75Y3057D02*
X888Y2244D01*
X75Y2126D02*
X688Y2738D01*
X75Y2055D02*
X688Y2667D01*
X75Y2196D02*
X688Y2809D01*
X75Y2350D02*
X265Y2160D01*
X75Y2420D02*
X336Y2159D01*
X75Y2338D02*
X688Y2950D01*
X75Y2267D02*
X688Y2880D01*
X75Y2208D02*
X167Y2116D01*
X75Y2137D02*
X132Y2080D01*
X75Y2279D02*
X211Y2143D01*
X1312Y2020D02*
X1339Y2046D01*
X1671Y2026D02*
X1930Y1767D01*
X1312Y2456D02*
X2012Y1756D01*
X1494Y1706D02*
X1560Y1772D01*
X1649Y1836D02*
X1805Y1680D01*
X1459Y1742D02*
X1481Y1764D01*
X1312Y2031D02*
X1325Y2018D01*
X1312Y1888D02*
Y1950D01*
Y2450D01*
X1317Y1883D02*
X1323Y1889D01*
X1312Y1888D02*
X1330Y1870D01*
X1312Y1890D02*
X1329Y1874D01*
X1286Y2553D02*
X3478Y360D01*
X1112Y2797D02*
X3560Y350D01*
X1112Y2938D02*
X3701Y350D01*
X1112Y2868D02*
X3630Y350D01*
X1600Y1600D02*
X2213Y2213D01*
X1636Y1565D02*
X2226Y2155D01*
X1565Y1636D02*
X2227Y2298D01*
X1600Y1600D02*
X2213Y2213D01*
X1530Y1671D02*
X2203Y2344D01*
X1614Y1801D02*
X1789Y1626D01*
X1420Y1780D02*
X2092Y1108D01*
X1424Y1779D02*
X2150Y1052D01*
X1568Y1775D02*
X1800Y1544D01*
X1671Y1530D02*
X1794Y1653D01*
X1510Y1763D02*
X2150Y1123D01*
X570Y1854D02*
X1462Y962D01*
X950Y1650D02*
X1637Y962D01*
X75Y2491D02*
X1604Y962D01*
X567Y1928D02*
X1533Y962D01*
X570Y1501D02*
X1109Y962D01*
X1104D02*
X1370Y1229D01*
X570Y1642D02*
X1250Y962D01*
X570Y1571D02*
X1179Y962D01*
X570Y1278D02*
X946Y1653D01*
X570Y1207D02*
X982Y1618D01*
X570Y1065D02*
X1052Y1547D01*
X570Y995D02*
X1088Y1512D01*
X570Y1136D02*
X1017Y1583D01*
X788Y859D02*
X1264Y1335D01*
X717Y858D02*
X1229Y1370D01*
X570Y1783D02*
X1416Y938D01*
X570Y1713D02*
X1380Y903D01*
X839Y839D02*
X1300Y1300D01*
X877Y806D02*
X1335Y1264D01*
X839Y839D02*
X1300Y1300D01*
X570Y1430D02*
X1041Y960D01*
X570Y783D02*
X1194Y1406D01*
X570Y924D02*
X1123Y1477D01*
X570Y853D02*
X1158Y1441D01*
X570Y1288D02*
X970Y889D01*
X570Y1218D02*
X938Y851D01*
X570Y1359D02*
X1005Y924D01*
X1528Y962D02*
X1583Y1017D01*
X1599Y962D02*
X1618Y982D01*
X1457Y962D02*
X1547Y1052D01*
X1322Y897D02*
X1512Y1088D01*
X1440Y962D02*
X1637D01*
X1440Y438D02*
X1652D01*
X1286Y933D02*
X1477Y1123D01*
X1256Y962D02*
X1348Y871D01*
X1175Y962D02*
X1406Y1194D01*
X1245Y962D02*
X1441Y1158D01*
X1348Y871D02*
X1440Y962D01*
X1348Y529D02*
X1440Y438D01*
X1256D02*
X1348Y529D01*
X1652Y438D02*
X1730Y515D01*
X1623Y350D02*
X1730Y457D01*
X1339Y520D02*
X1509Y350D01*
X1481D02*
X1569Y438D01*
X1563D02*
X1650Y350D01*
X1634Y438D02*
X1721Y350D01*
X1492Y438D02*
X1580Y350D01*
X1552D02*
X1640Y438D01*
X1269Y350D02*
X1398Y479D01*
X1303Y485D02*
X1438Y350D01*
X1199D02*
X1363Y514D01*
X1268Y449D02*
X1368Y350D01*
X1340D02*
X1434Y444D01*
X1411Y350D02*
X1498Y438D01*
X1209D02*
X1297Y350D01*
X1044Y962D02*
X1256D01*
X938Y856D02*
X1044Y962D01*
X938Y544D02*
Y856D01*
Y544D02*
X1044Y438D01*
X892Y614D02*
X938Y568D01*
X904Y763D02*
X938Y796D01*
X913Y734D02*
X938Y709D01*
X570Y1147D02*
X938Y780D01*
X916Y704D02*
X938Y725D01*
X912Y664D02*
X938Y639D01*
X879Y596D02*
X938Y655D01*
X1068Y438D02*
X1155Y350D01*
X1128D02*
X1215Y438D01*
X859Y576D02*
X1085Y350D01*
X1057D02*
X1145Y438D01*
X1044D02*
X1256D01*
X1139D02*
X1226Y350D01*
X562D02*
X1938D01*
X774D02*
X953Y528D01*
X815Y549D02*
X1014Y350D01*
X704D02*
X938Y584D01*
X756Y538D02*
X943Y350D01*
X916D02*
X1023Y458D01*
X986Y350D02*
X1074Y438D01*
X845Y350D02*
X988Y493D01*
X570Y1843D02*
X888Y2160D01*
Y1800D02*
Y2362D01*
X556Y1970D02*
X888Y2302D01*
X569Y1913D02*
X888Y2231D01*
X570Y1631D02*
X888Y1948D01*
X570Y1560D02*
X888Y1877D01*
X570Y1773D02*
X888Y2090D01*
X570Y1702D02*
X888Y2019D01*
X531Y2016D02*
X882Y2367D01*
X75Y1631D02*
X146Y1701D01*
X75Y1643D02*
X146Y1572D01*
X75Y1713D02*
X146Y1643D01*
X570Y1490D02*
X888Y1807D01*
X570Y1419D02*
X895Y1744D01*
X146Y856D02*
Y1804D01*
X570Y856D02*
Y1892D01*
Y1006D02*
X718Y858D01*
X570Y935D02*
X668Y838D01*
X570Y1348D02*
X916Y1694D01*
X570Y1076D02*
X788Y859D01*
X75Y1501D02*
X146Y1431D01*
X75Y1419D02*
X146Y1489D01*
X75Y1560D02*
X146Y1630D01*
X75Y1572D02*
X146Y1501D01*
X75Y1348D02*
X146Y1418D01*
X75Y994D02*
X146Y1065D01*
X75Y1430D02*
X146Y1360D01*
X75Y2632D02*
X888Y1820D01*
X75Y2562D02*
X896Y1741D01*
X75Y2774D02*
X888Y1961D01*
X75Y2703D02*
X888Y1891D01*
X75Y1489D02*
X146Y1560D01*
X75Y1360D02*
X146Y1289D01*
X75Y1784D02*
X146Y1713D01*
X75Y1701D02*
X146Y1772D01*
X75Y1913D02*
X89Y1927D01*
X75Y1925D02*
X92Y1909D01*
X75Y1984D02*
X94Y2004D01*
X75Y1996D02*
X90Y1981D01*
X75Y1855D02*
X146Y1784D01*
X75Y1772D02*
X128Y1825D01*
X75Y1843D02*
X103Y1871D01*
X75Y1006D02*
X146Y936D01*
X75Y924D02*
X146Y994D01*
X75Y1065D02*
X146Y1135D01*
X75Y1077D02*
X146Y1006D01*
X75Y853D02*
X146Y923D01*
X75Y865D02*
X146Y794D01*
X75Y935D02*
X146Y865D01*
X75Y1289D02*
X146Y1218D01*
X75Y1206D02*
X146Y1277D01*
X75Y1277D02*
X146Y1348D01*
X75Y75D02*
Y3969D01*
Y1136D02*
X146Y1206D01*
X75Y1148D02*
X146Y1077D01*
X75Y1218D02*
X146Y1148D01*
X570Y712D02*
X596Y737D01*
X570Y641D02*
X595Y666D01*
X570Y864D02*
X630Y805D01*
X570Y793D02*
X603Y761D01*
X570Y570D02*
X615Y615D01*
X570Y570D02*
X615Y615D01*
X500Y429D02*
X648Y577D01*
X527Y385D02*
X691Y550D01*
X570Y723D02*
X592Y702D01*
X570Y544D02*
Y856D01*
Y700D02*
Y856D01*
X500Y473D02*
X570Y544D01*
X500Y440D02*
X590Y350D01*
X500Y412D02*
X562Y350D01*
X500Y412D02*
Y473D01*
X570Y581D02*
X802Y350D01*
X633D02*
X858Y575D01*
X562Y350D02*
X750Y538D01*
X570Y652D02*
X873Y350D01*
X519Y492D02*
X660Y350D01*
X554Y527D02*
X731Y350D01*
X200Y350D02*
Y489D01*
X244Y244D02*
X394Y94D01*
X287Y75D02*
X350Y138D01*
X358Y75D02*
X385Y103D01*
X216Y75D02*
X315Y173D01*
X146Y544D02*
Y700D01*
X75Y582D02*
X200Y457D01*
X75Y653D02*
X146Y582D01*
X75Y570D02*
X146Y640D01*
Y544D02*
X200Y489D01*
X75Y511D02*
X200Y386D01*
X75Y499D02*
X146Y570D01*
X75Y429D02*
X168Y521D01*
X146Y700D02*
Y856D01*
Y700D02*
Y856D01*
X75Y782D02*
X146Y853D01*
X75Y794D02*
X146Y723D01*
X75Y723D02*
X146Y653D01*
X75Y641D02*
X146Y711D01*
X75Y711D02*
X146Y782D01*
X75Y75D02*
X244Y244D01*
X75Y75D02*
X244Y244D01*
X75Y370D02*
X370Y75D01*
X75Y299D02*
X299Y75D01*
X75D02*
X417D01*
X146D02*
X279Y209D01*
X75Y228D02*
X228Y75D01*
X75Y287D02*
X200Y412D01*
X75Y216D02*
X200Y342D01*
X75Y358D02*
X200Y483D01*
X75Y440D02*
X205Y310D01*
X75Y158D02*
X158Y75D01*
X75Y87D02*
X87Y75D01*
X75Y146D02*
X215Y285D01*
D13*
X4050Y2646D02*
D03*
D14*
Y3150D02*
D03*
D15*
X3300Y2950D02*
X3450D01*
X3300Y2800D02*
Y2950D01*
X3150D02*
X3300D01*
Y3100D01*
X2573Y3750D02*
Y3875D01*
X2277Y3900D02*
Y4038D01*
Y3900D02*
X2415D01*
X2277Y3762D02*
Y3900D01*
X1808Y4200D02*
X1945D01*
X1808D02*
Y4338D01*
Y4062D02*
Y4200D01*
X2448Y3750D02*
X2573D01*
Y3625D02*
Y3750D01*
X1327Y4600D02*
X1427D01*
X1327Y4475D02*
Y4600D01*
X1546Y700D02*
Y950D01*
Y450D02*
Y700D01*
X1150D02*
Y950D01*
Y450D02*
Y700D01*
X950D02*
X1150D01*
D16*
X4050Y3150D02*
Y3300D01*
X3650Y4450D02*
X4150Y3950D01*
X3250Y4450D02*
X3650D01*
X2941Y4759D02*
X3250Y4450D01*
X750Y4600D02*
X1073D01*
X300Y3191D02*
Y4150D01*
X615Y4200D02*
X792D01*
X556Y4141D02*
X615Y4200D01*
X1073Y4600D02*
Y4723D01*
X300Y4150D02*
X750Y4600D01*
X556Y3900D02*
Y4141D01*
X950Y4200D02*
X1200Y4450D01*
X792Y4200D02*
X950D01*
X1200Y4450D02*
Y4600D01*
X3600Y2600D02*
X3975Y2225D01*
X3600Y2600D02*
Y3150D01*
X4000Y3550D01*
X3800Y2642D02*
X3802Y2644D01*
X4048D02*
X4050Y2646D01*
X3802Y2644D02*
X4048D01*
X4050Y3300D02*
X4150Y3400D01*
Y3950D01*
X3809Y4041D02*
X4000Y3850D01*
Y3550D02*
Y3850D01*
X3659Y4041D02*
X3809D01*
X1500Y3170D02*
X2023Y3693D01*
Y3900D01*
X1650Y3906D02*
Y4050D01*
X1644Y3900D02*
X1650Y3906D01*
X1600Y4100D02*
X1650Y4050D01*
X1600Y4100D02*
Y4500D01*
X1700Y4600D01*
X1773D01*
X2050Y4800D02*
X2150D01*
X1150D02*
X2050D01*
X2027Y4600D02*
Y4777D01*
X2050Y4800D01*
X1073Y4723D02*
X1150Y4800D01*
X2150D02*
X2191Y4759D01*
X2750D02*
X2941D01*
X2191D02*
X2750D01*
X2736Y4464D02*
Y4745D01*
X2750Y4759D01*
D17*
X3450Y175D02*
X3975D01*
X2400D02*
X2925D01*
D18*
X350Y350D02*
X500Y200D01*
X350Y692D02*
X358Y700D01*
X350Y350D02*
Y692D01*
X500Y200D02*
X2000D01*
X2300Y500D01*
Y1256D01*
X1950Y1606D02*
X2300Y1256D01*
X1950Y2494D02*
X2344D01*
D19*
X1100Y1800D02*
Y2450D01*
Y1800D02*
X1942Y958D01*
Y700D02*
Y958D01*
X900Y2650D02*
X1100Y2450D01*
X900Y2650D02*
Y3370D01*
X358Y700D02*
Y1892D01*
X300Y1950D02*
X358Y1892D01*
D20*
X3150Y4200D02*
X3364Y3986D01*
X2700Y4200D02*
X3150D01*
X2500Y4400D02*
X2700Y4200D01*
X1950Y4400D02*
X2500D01*
X1900Y4450D02*
X1950Y4400D01*
X1900Y4450D02*
Y4600D01*
X3364Y3836D02*
Y3986D01*
D21*
X2925Y2225D02*
X3450D01*
X2400D02*
Y2550D01*
X2410Y2560D02*
X2800Y2950D01*
X3278Y3750D02*
X3364Y3836D01*
X3542Y3658D02*
X3800D01*
X3364Y3836D02*
X3542Y3658D01*
D22*
X2827Y3750D02*
X3278D01*
D23*
X3450Y175D02*
D03*
Y2225D02*
D03*
X2400Y175D02*
D03*
Y2225D02*
D03*
X3975D02*
D03*
Y175D02*
D03*
X2925Y2225D02*
D03*
Y175D02*
D03*
X1500Y3170D02*
D03*
Y1950D02*
D03*
X300D02*
D03*
Y3170D02*
D03*
D24*
X556Y3900D02*
D03*
X3364Y3836D02*
D03*
X754Y700D02*
D03*
X2800Y2950D02*
D03*
X1950Y1606D02*
D03*
D25*
X1644Y3900D02*
D03*
X3300Y2950D02*
D03*
D26*
X2023Y3900D02*
D03*
X3800Y3658D02*
D03*
X1808Y4200D02*
D03*
X3800Y2642D02*
D03*
X792Y4200D02*
D03*
X2941Y4759D02*
D03*
X3659Y4041D02*
D03*
X2277Y3900D02*
D03*
D27*
X1773Y4600D02*
D03*
X1200D02*
D03*
X1073D02*
D03*
X1900D02*
D03*
D28*
X1950Y2494D02*
D03*
D29*
X2573Y3750D02*
D03*
D30*
X2736Y4464D02*
D03*
D31*
X900Y3370D02*
D03*
D32*
X358Y700D02*
D03*
X1150D02*
D03*
X1546D02*
D03*
D33*
X1942D02*
D03*
D34*
X2827Y3750D02*
D03*
D35*
X1327Y4600D02*
D03*
X2027D02*
D03*
D36*
X2150Y3200D02*
D03*
M02*
